<svg width="53" height="19" viewBox="0 0 53 19" fill="none" xmlns="http://www.w3.org/2000/svg">
<path d="M7.00204 18.5982C9.31928 18.5982 11.2083 17.3255 12.1403 15.4673V18.3437H13.6263V12.1328C13.6263 8.51822 10.8053 5.71822 7.20354 5.71822C3.55137 5.71822 0.805939 8.62004 0.805939 12.1328C0.805939 15.6964 3.4758 18.5982 7.00204 18.5982ZM7.20354 17.0964C4.50849 17.0964 2.36756 14.8564 2.36756 12.1582C2.36756 9.46004 4.50849 7.22004 7.20354 7.22004C9.92378 7.22004 12.0647 9.46004 12.0647 12.1582C12.0647 14.8564 9.92378 17.0964 7.20354 17.0964Z" fill="#DAC5A7"/>
<path d="M20.1122 18.3437V10.8091C20.1122 8.6964 21.2708 7.34731 23.1347 7.34731C23.8399 7.34731 24.52 7.52549 25.1245 7.88185V6.27822C24.4948 5.97276 23.7643 5.82004 23.0087 5.82004C20.1877 5.82004 18.5506 7.8564 18.5506 10.7328V18.3437H20.1122Z" fill="#DAC5A7"/>
<path d="M29.0239 3.02003C29.6536 3.02003 30.1321 2.51094 30.1321 1.84913C30.1321 1.18731 29.6536 0.678218 29.0239 0.678218C28.3942 0.678218 27.8904 1.18731 27.8904 1.84913C27.8904 2.51094 28.3942 3.02003 29.0239 3.02003ZM28.2431 5.99822V18.3437H29.8047V5.99822H28.2431Z" fill="#DAC5A7"/>
<path d="M37.1241 18.3437V12.82H38.9124C39.0383 13.2019 39.2398 13.5837 39.5672 13.9146L43.9247 18.3437H45.9648L40.6503 12.9219C40.3984 12.6673 40.2473 12.4128 40.2473 12.1582C40.2473 11.8782 40.3984 11.6491 40.6503 11.3946L45.99 5.99822H44.0254L39.6176 10.4528C39.3154 10.7582 39.0887 11.0891 38.9628 11.42H37.1241V0.296398H35.5625V18.3437H37.1241Z" fill="#DAC5A7"/>
<path d="M51.0166 18.5473C51.6463 18.5473 52.15 18.0382 52.15 17.3764C52.15 16.74 51.6463 16.2564 51.0166 16.2564C50.3869 16.2564 49.8832 16.74 49.8832 17.3764C49.8832 18.0382 50.3869 18.5473 51.0166 18.5473Z" fill="#DAC5A7"/>
</svg>
