<svg width="86" height="85" fill="none" xmlns="http://www.w3.org/2000/svg"><path d="M85.496 0H.5v85h84.996V0z" fill="#002A4E"/><path d="M48.97 36.943c.462-.07.969.046 1.292.392.368.415.415 1.037.23 1.544-.138.37-.484.646-.853.739-.415.115-.9.069-1.268-.208a1.321 1.321 0 01-.508-.876 1.51 1.51 0 01.254-1.13c.185-.254.507-.415.853-.462zm13.236 6.987h3.828c0-.208-.023-.392-.023-.6-.07-.784-.23-1.568-.6-2.283-.184-.323-.415-.645-.76-.83a1.064 1.064 0 00-.877-.092c-.553.184-.876.715-1.084 1.199-.346.83-.46 1.73-.484 2.606zm0 .207c-.023 3.32 3.136 3.805 5.188 1.891-.899 2.837-5.695 2.975-7.033-.184-.645-1.5-.415-3.367.67-4.612.599-.715 1.498-1.153 2.397-1.269.923-.138 1.914-.023 2.744.415.669.346 1.2.9 1.545 1.545.37.67.53 1.43.53 2.191-2.006.023-4.012.023-6.04.023zm-4.911-3.482c.83-.6 1.936-.76 2.859-.277-.438.462-.83.992-1.107 1.684-.323-.807-1.176-1.06-1.937-.738-.53.23-.945.646-1.291 1.107v4.796c0 .208 0 .415.092.6.184.3 1.038.346 1.337.392v.07h-5.003v-.07c.323-.023.715-.07 1.06-.185a.457.457 0 00.323-.322c.07-.231.046-.485.046-.715V41.83c0-.207 0-.415-.092-.576-.184-.3-.83-.37-1.13-.415v-.07c1.36-.069 2.19-.16 3.39-.484v2.006c.415-.6.83-1.222 1.453-1.637zm14.619-4.404v10.907c0 .208-.023.415.092.6.162.346 1.06.369 1.36.415v.069h-5.05v-.07c.3-.022 1.177-.068 1.338-.391.092-.162.092-.37.092-.577v-9.362c0-.254-.046-.554-.276-.692-.392-.254-.853-.3-1.245-.346v-.092c1.245 0 2.352-.092 3.689-.461zm-21.606 4.035v7.034c0 .23.023.53.253.645.415.208.946.208 1.153.23v.093h-4.98v-.092c.322-.023.784-.046 1.152-.23.254-.116.277-.416.277-.67v-5.534c0-.23 0-.507-.207-.646-.3-.207-.669-.23-1.015-.276v-.093c1.36-.046 2.075-.092 3.367-.46zm-14.827.37c.622-.462 1.453-.623 2.213-.485.577.115 1.153.392 1.476.876.254.37.323.807.323 1.245.415-.622.853-1.245 1.453-1.66.622-.438 1.43-.6 2.167-.461.554.092 1.107.346 1.453.807.254.346.369.784.369 1.222v4.612c0 .277-.023.554.023.83a.447.447 0 00.323.37c.346.115.738.16 1.06.184v.092h-5.003v-.092a6.68 6.68 0 00.945-.139c.162-.046.323-.115.392-.276.116-.208.07-.461.093-.669v-4.45c0-.393-.093-.808-.37-1.108-.3-.3-.737-.392-1.152-.368-.508.046-.946.322-1.292.668-.184.185-.369.37-.484.577v4.866c0 .23.023.553.277.668.369.162.784.185 1.153.23v.07h-5.004v-.07c.323-.045.645-.068.945-.16.162-.047.323-.116.392-.254.093-.185.07-.392.093-.6v-4.15c0-.393.023-.785-.162-1.154a1.15 1.15 0 00-.692-.622c-.369-.116-.807-.116-1.153.046-.53.23-.945.669-1.29 1.107v4.796c0 .208 0 .415.091.6.07.138.231.184.37.23.322.116.668.116.968.162v.069h-5.004v-.092a4.27 4.27 0 001.06-.185c.14-.046.277-.161.3-.322.07-.231.047-.485.047-.715v-5.166c0-.207 0-.415-.093-.576-.184-.277-.738-.37-1.083-.392v-.093c1.152-.069 2.167-.184 3.343-.484v2.006c.415-.553.83-1.176 1.453-1.59zm-10.723-.462c.416-.07.854-.092 1.269-.07.738.047 1.498.3 2.029.854.553.553.784 1.337.784 2.099v4.289c0 .207.023.46.207.553.3.185.646.23.992.277v.092h-3.367v-1.545c-.369.53-.76 1.084-1.337 1.384-.646.322-1.407.369-2.122.23-.622-.138-1.222-.507-1.521-1.06a2.126 2.126 0 01-.023-1.938c.276-.53.807-.876 1.36-1.106 1.153-.485 2.421-.6 3.643-.923 0-.576-.023-1.176-.3-1.683a1.62 1.62 0 00-1.106-.784c-.623-.139-1.245 0-1.822.207-.369.162-.76.37-1.038.692.508-.876 1.545-1.43 2.353-1.568zm-.138 4.197c-.415.277-.738.715-.83 1.2-.092.46-.046.968.254 1.337.253.3.645.438 1.037.438.577 0 1.153-.254 1.545-.67.023-.022.07-.068.07-.114v-3.114c-.715.231-1.453.485-2.076.923zm-11.83-7.333h8.902c0 1.13.023 2.283 0 3.413-.07-.139-.07-.277-.116-.438-.138-.577-.346-1.154-.691-1.638a2.711 2.711 0 00-1.13-.968 3.23 3.23 0 00-1.245-.23h-2.076V42.5h1.153c.461 0 .946-.07 1.36-.3.323-.184.6-.461.785-.76.46-.739.553-1.5.645-1.892l-.023 6.042c-.115-.53-.23-1.06-.461-1.545-.23-.507-.623-.968-1.153-1.176-.738-.3-1.545-.184-2.329-.208v4.428c0 .254.023.53.185.738.276.3 1.29.277 1.729.323v.069h-5.534v-.092c.3-.023.623-.046.945-.116.162-.046.346-.115.438-.276.093-.185.07-.415.093-.623v-9.109c0-.23 0-.53-.23-.669-.416-.23-.946-.207-1.246-.23v-.046zM37.879 18.31c2.006.323 4.266 2.56 4.266 5.165v11.392c-2.813-.76-4.266-2.583-4.266-5.465V18.31zm5.419 9.132a2.985 2.985 0 002.536-2.468v4.936a2.985 2.985 0 00-2.536-2.467zm-.346-9.616h5.165v5.004c-.438-2.606-2.536-4.658-5.165-5.004zM28.748 54.284a1.638 1.638 0 00-.6-.093c-.461 0-.807.139-1.038.392-.23.254-.345.646-.345 1.177 0 .46.115.83.322 1.107.208.276.508.415.9.415.253 0 .507-.07.76-.208v-2.79zm-.577-2.398c.484-.093.922-.185 1.314-.277l.047.023c-.023.576-.023 1.176-.023 1.845v3.251c0 .139 0 .254.023.323 0 .07.023.138.069.184.023.047.092.07.161.093.07.023.185.023.3.023l.023.161a4.357 4.357 0 01-.415.139 1.6 1.6 0 01-.323.069c-.277 0-.461-.162-.553-.462-.415.3-.807.462-1.2.462-.484 0-.899-.185-1.175-.53-.3-.347-.438-.785-.438-1.292 0-.669.207-1.176.6-1.545.391-.369.945-.553 1.636-.553.162 0 .37.023.577.046 0-.6 0-1.153-.023-1.73l-.554-.161-.046-.07zm6.388 5.465c-.231.138-.462.253-.692.3-.23.069-.461.092-.669.092-.6 0-1.06-.162-1.43-.508-.369-.322-.553-.807-.553-1.383 0-.577.161-1.084.507-1.453.323-.369.784-.553 1.36-.553.462 0 .83.138 1.108.415.253.276.392.668.392 1.153 0 .069 0 .161-.023.23h-2.514c0 .577.138.992.392 1.223.277.253.692.369 1.268.369.254 0 .53-.024.807-.07l.047.185zm-.808-2.03v-.115c0-.369-.069-.646-.184-.807-.115-.161-.3-.23-.53-.23-.323 0-.554.115-.715.345a1.617 1.617 0 00-.277.83h1.706v-.023zm4.174.508c-.553 0-.945.046-1.153.161-.207.115-.3.3-.3.577 0 .253.07.438.208.53.138.115.323.161.553.161.277 0 .508-.046.692-.138v-1.29zm-1.96-1.638c.507-.23.992-.345 1.384-.345.415 0 .738.115.968.323.23.207.346.53.346.922l-.023 1.66v.323c.023.07.023.138.07.184.045.047.091.07.184.093.069.023.184.023.322.023l.023.161a4.327 4.327 0 01-.415.139 1.602 1.602 0 01-.322.069c-.254 0-.439-.139-.554-.415-.369.276-.738.415-1.06.415-.37 0-.67-.093-.9-.277-.23-.184-.346-.438-.346-.784 0-.415.185-.715.554-.9.369-.207.945-.3 1.73-.3v-.299c0-.3-.07-.507-.232-.669-.16-.138-.392-.207-.714-.207-.254 0-.554.046-.923.138l-.092-.254zm7.125.093a1.638 1.638 0 00-.6-.093c-.46 0-.806.139-1.037.392-.23.254-.346.646-.346 1.177 0 .46.115.83.323 1.107.208.276.507.415.9.415.253 0 .507-.07.76-.208v-2.79zm-.576-2.398c.484-.093.922-.185 1.314-.277l.023.023c-.023.576-.023 1.176-.023 1.845v3.251c0 .139 0 .254.023.323.023.07.023.138.07.184.046.047.092.07.16.093.07.023.185.023.324.023l.023.161a4.348 4.348 0 01-.415.139 1.6 1.6 0 01-.323.069c-.277 0-.461-.162-.554-.462-.415.3-.807.462-1.199.462-.507 0-.899-.185-1.199-.53-.3-.347-.438-.785-.438-1.292 0-.669.208-1.176.6-1.545s.945-.553 1.637-.553c.161 0 .369.023.576.046 0-.6 0-1.153-.023-1.73l-.553-.161-.023-.07zm7.54 2.352a1.799 1.799 0 00-.507-.07c-.254 0-.461.047-.6.139a.428.428 0 00-.23.392c0 .161.046.277.161.369.092.092.277.184.553.276l.323.116c.37.115.646.276.807.415a.868.868 0 01.254.646c0 .369-.138.668-.438.876-.277.207-.646.323-1.084.323a3.44 3.44 0 01-1.245-.254c.092-.346.161-.692.23-1.015l.162-.023.277.854c.161.069.346.092.576.092.254 0 .438-.046.6-.162.161-.092.23-.23.23-.415 0-.161-.046-.3-.161-.415-.092-.092-.254-.184-.484-.253l-.416-.139c-.368-.115-.599-.276-.737-.438-.139-.161-.208-.369-.208-.623 0-.346.139-.622.392-.83.254-.207.623-.3 1.06-.3.416 0 .762.07 1.108.185-.07.3-.139.623-.208.968l-.161.024-.254-.738zm5.304 3.113c-.231.138-.462.253-.715.3-.23.069-.461.092-.669.092-.6 0-1.06-.162-1.43-.508-.368-.322-.553-.807-.553-1.383 0-.577.161-1.084.507-1.453s.784-.553 1.36-.553c.485 0 .854.138 1.108.415.276.276.392.668.392 1.153 0 .069 0 .161-.023.23h-2.537c0 .577.138.992.415 1.223.277.253.692.369 1.268.369.254 0 .53-.024.83-.07l.047.185zm-.807-2.03v-.115c0-.369-.07-.646-.185-.807-.115-.161-.3-.23-.53-.23-.323 0-.554.115-.715.345a1.62 1.62 0 00-.277.83h1.707v-.023zm4.173.508c-.553 0-.945.046-1.153.161-.207.115-.3.3-.3.577 0 .253.07.438.208.53.138.115.323.161.553.161.277 0 .508-.046.692-.138v-1.29zm-1.96-1.638c.53-.23.992-.345 1.384-.345.392 0 .738.115.968.323.23.207.37.53.346.922l-.023 1.66c0 .139 0 .23.023.323 0 .07.023.138.07.184.045.047.092.07.184.093.069.023.184.023.3.023l.023.161a4.327 4.327 0 01-.416.139c-.16.046-.276.069-.345.069-.254 0-.438-.139-.53-.415-.37.276-.739.415-1.061.415-.37 0-.67-.093-.9-.277-.23-.184-.346-.438-.346-.784 0-.415.185-.715.554-.9.369-.207.945-.3 1.73-.3v-.299c0-.3-.07-.507-.231-.669-.162-.138-.392-.207-.715-.207-.23 0-.554.046-.9.138l-.115-.254z" fill="#E7BC8B"/><path d="M5.181 4.681h75.634V80.32H5.18V4.68zM4.167 3.643V81.31h77.662V3.643H4.167z" fill="#E7BC8B"/></svg>