<?xml version="1.0" encoding="UTF-8"?><svg id="a" xmlns="http://www.w3.org/2000/svg" width="250.14" height="1205.42" viewBox="0 0 250.14 1205.42"><g id="b"><path d="M36.41,427.08c11.55-.05,23.24-3.35,34.69-5.12,17.35-2.68,35.13-4.6,52.46-7.02,10.49-1.47,20.13.14,30.39-2.23,5.3-1.23,9.99-.56,15.22-1.05,7.06-.66,27.21-4.99,20.66-7.16-13.23-.21-26.12-2.27-39.45-2.25-15.01.03-30.01-1.71-44.75-4.63-11.84-2.35-23.51-5.54-35.32-7.97-9.14-1.89-23.84-1.71-31.2-8.37-11.94-10.81,12.82-12.68,18.29-15.43,7.57-3.8,14.56-7.06,23.12-8.33,3.69-.55,10.11.82,12.8-2.68,5.25-6.82-4.97-5.47-8.38-6.08-5.57-.99-12.9-2.02-17.21-6.13,5.67-3.51,15.93-1.69,22.19-1.09,7.88.76,15.43-3.62,23.21-4.97,11.73-2.03,22.87-.74,34.64-2.19,9.06-1.12,27.83-1.12,28.17-5.61-2.13-4.62-30.84-1.16-49.16-7.84-13.04-4.75-30.06-3.13-45.28-7.54-9.73-2.82-20.13-.73-30.03-2.8-7.29-1.53-19.04-7.06-20.02-15.97-.92-8.38,4.52-9.88,10.85-11.63,17.69-4.9,37.03-4.38,55.24-4.36,10.35.01,20.27.28,30.44-2.07,11.44-2.64,22.52-6.85,34.06-9.02,8.95-1.68,19.82-1.85,28.52-4.55,7.69-2.39,15.8-1.83,4.61-6.81-7.68-3.42-18.25-2.18-26.5-4.86-10.92-3.54-20.41-5.84-31.76-5.81-12.12.03-22.19-1.1-33.39-6.07-11.23-4.99-21.31-11.36-33.78-12.12-6.93-.42-22.39,2.86-24.18-6.63-1.06-5.62,3.92-9.62,7.6-12.71,6.05-5.09,13.39-7.93,20.86-9.36,7.14-1.37,22.99-.44,26.66-8.62-5.33-3.26-13.22-3.22-19.26-4.64-6.4-1.5-12.49-4.27-18.9-5.79-5.96-1.42-23.68-1.38-21.22-13.39.78-3.8,5.98-5.93,8.45-8.2,5.87-5.42,8.78-9.71,16.62-11.8,7.6-2.02,15.11-1.56,22.52-3.88,9.85-3.09,19.89-3.3,30.07-3.3s21.23.3,31.76-1.64c11.78-2.18,22.95-8.5,34.85-7.89,13.17.67,24.14,1.94,37.29-.85,4.9-1.04,28.23-6.63,27.25-10.97-1.42-2.47-14.21-4.58-22.19-4.78-9.62-.25-18.82-3.31-28.42-3.88-10.24-.6-17.07,3.79-26.65.87-11.82-3.6-22.71-3.06-34.82-3.91-17.56-1.24-38.31-7.74-55.33-12.22-9.56-2.52-14.33-9.21-23.92-11.6-5.89-1.47-14.07-2.08-18.02-7.51-7.24-9.97,8.17-23.22,16.63-25.57,10.36-2.88,22.04.15,32.73-2.2,4.51-.99,8.24-3.35,12.82-4.05,7.25-1.11,15.16-.71,22.47-.35,8.53.42,21.99,3.86,29.79-1.27-1.99-5.3-19.26-8.31-24.32-9.14-5.94-.98-11.79-.71-17.65-2.3-5.12-1.38-9.41-2.89-14.77-2.8-4.35.07-8.8.91-12.95-1-4.42-2.04-6.97-6.8-11.18-8.95-4.95-2.52-12.51-2.68-17.84-3.82-7.58-1.63-14.37-4.67-21.64-7.19l-1.03.55C30.18,2.28,17.88-2.1,12.79,1.11c-3.87,2.43-4.24,9.87-4.62,14.16-1.11,12.86-.52,26.55-.5,39.47.13,72.68-2.57,145.24-2.57,217.95,0,29.48-1.65,58.97-1.55,88.39.04,11.84-1.04,23.99,2.72,35.32,2.04,6.15-1.79,20.16.37,26.25,4.75,13.36,18.12,4.46,29.77,4.41v.02Z"/><path d="M36.41,1202.48c11.55-.05,23.24-3.35,34.69-5.12,17.35-2.68,35.13-4.6,52.46-7.02,10.49-1.47,20.13.14,30.39-2.23,5.3-1.23,9.99-.56,15.22-1.05,7.06-.66,27.21-4.99,20.66-7.16-13.23-.21-26.12-2.27-39.45-2.25-15.01.03-30.01-1.71-44.75-4.63-11.84-2.35-23.51-5.54-35.32-7.97-9.14-1.89-23.84-1.71-31.2-8.37-11.94-10.81,12.82-12.68,18.29-15.43,7.57-3.8,14.56-7.06,23.12-8.33,3.69-.55,10.11.82,12.8-2.68,5.25-6.82-4.97-5.47-8.38-6.08-5.57-.99-12.9-2.02-17.21-6.13,5.67-3.51,15.93-1.69,22.19-1.09,7.88.76,15.43-3.62,23.21-4.97,11.73-2.03,22.87-.74,34.64-2.19,9.06-1.12,27.83-1.12,28.17-5.61-2.13-4.62-30.84-1.16-49.16-7.84-13.04-4.75-30.06-3.13-45.28-7.54-9.73-2.82-20.13-.73-30.03-2.8-7.29-1.53-19.04-7.06-20.02-15.97-.92-8.38,4.52-9.88,10.85-11.63,17.69-4.9,37.03-4.38,55.24-4.36,10.35.01,20.27.28,30.44-2.07,11.44-2.64,22.52-6.85,34.06-9.02,8.95-1.68,19.82-1.85,28.52-4.55,7.69-2.39,15.8-1.83,4.61-6.81-7.68-3.42-18.25-2.18-26.5-4.86-10.92-3.54-20.41-5.84-31.76-5.81-12.12.03-22.19-1.1-33.39-6.07-11.23-4.99-21.31-11.36-33.78-12.12-6.93-.42-22.39,2.86-24.18-6.63-1.06-5.62,3.92-9.62,7.6-12.71,6.05-5.09,13.39-7.93,20.86-9.36,7.14-1.37,22.99-.44,26.66-8.62-5.33-3.26-13.22-3.22-19.26-4.64-6.4-1.5-12.49-4.27-18.9-5.79-5.96-1.42-23.68-1.38-21.22-13.39.78-3.8,5.98-5.93,8.45-8.2,5.87-5.42,8.78-9.71,16.62-11.8,7.6-2.02,15.11-1.56,22.52-3.88,9.85-3.09,19.89-3.3,30.07-3.3s21.23.3,31.76-1.64c11.78-2.18,22.95-8.5,34.85-7.89,13.17.67,24.14,1.94,37.29-.85,4.9-1.04,28.23-6.63,27.25-10.97-1.42-2.47-14.21-4.58-22.19-4.78-9.62-.25-18.82-3.31-28.42-3.88-10.24-.6-17.07,3.79-26.65.87-11.82-3.6-22.71-3.06-34.82-3.91-17.56-1.24-38.31-7.74-55.33-12.22-9.56-2.52-14.33-9.21-23.92-11.6-5.89-1.47-14.07-2.08-18.02-7.51-7.24-9.97,8.17-23.22,16.63-25.57,10.36-2.88,22.04.15,32.73-2.2,4.51-.99,8.24-3.35,12.82-4.05,7.25-1.11,15.16-.71,22.47-.35,8.53.42,21.99,3.86,29.79-1.27-1.99-5.3-19.26-8.31-24.32-9.14-5.94-.98-11.78-.71-17.65-2.3-5.12-1.38-9.41-2.89-14.77-2.8-4.35.07-8.8.91-12.95-1-4.42-2.04-6.97-6.8-11.18-8.95-4.95-2.52-12.51-2.68-17.84-3.82-7.58-1.63-14.37-4.67-21.64-7.19l-1.03.55c-3.64-4.25-15.94-8.63-21.03-5.42-3.87,2.43-4.24,9.87-4.61,14.16-1.11,12.86-.52,26.55-.5,39.47.13,72.68-2.57,145.24-2.57,217.95,0,29.48-1.64,58.97-1.55,88.39.04,11.84-1.04,23.99,2.72,35.32,2.04,6.15-1.79,20.16.37,26.25,4.75,13.36,18.12,4.46,29.77,4.41v.02Z"/><rect x=".11" y=".03" width="15.52" height="1205.39"/></g><g id="c"><path d="M20.04,830.76c6.28-7.85,16.79-7.67,26.02-10.11,16.09-4.25,31.07-5.17,47.63-5.17,20.88,0,40.56-6.33,61.36-7.59,18.33-1.11,36.15-2.2,54.59-2.2,6.72,0,13.02-.25,19.63-1.77s9.84-4.72,2.21-8c-8.14-3.5-18.41-4.63-27.06-6.27-8.11-1.53-15.82-3.48-24.06-3.56-11.92-.12-21.81-1.77-30.24-11.3-8.95-10.12-20.9-9.92-33.2-9.92-10.24,0-20.7.6-30.91-.25-11.35-.94-17.81-7.37-28.02-11.13-11.41-4.2-28.79,4.19-36.15-9.31-8.14-14.94,9.78-18.01,19.05-19.42,4.04-.62,32.56,1.35,33.24-4.07.58-4.68-10.32-4.7-12.88-4.81-9-.4-14.87-1.74-22.96-5.69-1.36-.66-2.8-1.24-4.23-1.81.91-.44,1.8-.81,2.67-1.08,15.37-4.69,31.1-6.3,46.42-11.51,8.06-2.74,16.5-4.12,24.91-4.55,2.86-.15,12.35-1.57,7.96-6.56-2.42-2.76-10-3.03-13.2-3.64-3.15-.6-6.1-1.32-9.2-2.22-7.79-2.27-15.31-2.1-23.3-2.1-7.48,0-13.34-1.85-20.52-3.26-6.97-1.37-13.9-2.36-20.74-4.26-5.02-1.39-9.71-4.75-4.58-9.44,4.06-3.71,10.44-4.99,15.49-6.08,6.28-1.35,12.56-2.83,18.81-4.24,2.88-.65,13.28-2.27,10.63-6.82-.96-1.65-2.41-1.43-3.98-1.89-4.09-1.2-7.87-2.17-11.82-3.91-4.56-2.01-8.95-4.05-13.92-4.39-3.15-.22-5.8-.02-8.79-1.23-9.94-4-16.83-12.47-10.62-22.86,1.94-3.25,2.9-6.9,5.06-10,3.01-4.32,7.18-5.66,11.65-7.22,12.67-4.43,25.21-10.55,38.82-10.53,11.73.01,23.9,1.04,35.43-1.62,8.25-1.9,16.61-3.37,24.84-5.34,2.04-.49,19.69-3.01,19.72-5.74.03-3.61-14.05-5.06-15.89-5.53-8.67-2.22-17.77-1.36-26.65-1.36-3.63,0-7.36.28-10.93-.59-4.13-1-8.05-3.42-12.24-4.08-7.76-1.23-16.11.3-23.95-.13-7.27-.4-13.72-2.94-19.74-7.13-3.89-2.71-6.5-6.77-9.59-10.38-.6-.7-1.15-1.42-1.64-2.14,3.91-1.38,7.82-2.77,11.59-4.48,10.41-4.72,19.47-3.1,30.21-4.06,5.3-.48,10.22-1.84,15.61-1.83,4.22,0,8.4.2,12.57-.63,2.98-.59,8.26-1.05,5.09-3.99-2.48-2.3-10.5-2.88-13.72-3.38-8.55-1.32-18.64-2.15-26.75-5.43-4.41-1.78-8.22-5.03-12.65-6.63-3.41-1.24-6.17-.27-9.84-.26-5.53.02-13.62.78-15.17-6.57-.46-2.2-.32-5.77.95-7.57,2.35-3.32,9.03-4.06,12.4-4.71,5-.96,9.95-2.34,14.93-3.37,4.41-.91,8.42-2.22,12.91-2.46,4.88-.25,10.02-.31,14.85-.99,4.82-.67,9.2-3.21,13.95-4.37,5.53-1.36,10.7-2.45,16.32-2.61,15.09-.42,28.17-.53,42.49-6.14,6.75-2.64,12.72-2.96,19.85-3.29,3.1-.14,6.49-.37,9.35-1.8-.61-6.3-24.72-7.65-29.66-8.44-14.46-2.32-28.87-2.36-43.08-6.09-9.81-2.57-19.39-4.93-28.88-8.7-6.67-2.65-12.76-6.2-19.8-7.64-6.91-1.42-14.36-1.18-21.11-3.24-6.84-2.09-10.32-8.64-16.63-11.56-1.37-.63-3.18-1.57-5.18-2.5-.37-.74-.72-1.48-1.12-2.22-1.87-3.52-3.56-5.23-7.38-5.86-7.06-1.17-11.4,1.23-11.47,9-.05,5.6-1.98,12.09-1.36,17.48.77,6.71,2.23,13.39,2.78,20.31.31,3.93.67,8.26.28,12.22-.44,4.43-2.13,8.62-2.4,13.12-.26,4.36.86,8.18,1.04,12.42.19,4.52-.26,8.83-.61,13.3-.03.33-.02.64-.04.97-1.18,3.34-2.11,6.89-1.64,10.39.51,3.83,2.48,7.23,2.93,11.1.22,1.85.25,3.7.17,5.56-6.46,8.46-4.37,22.51-2.83,32.29,1.58,9.98-1.89,20.26-2.24,30.49-.23,6.96,1.81,18.21.67,25.08-1.84,11.03-2.59,19.96-2.35,31.22.26,12.37,2.17,24.51.77,36.75-.67,5.86,1.06,11.66.79,17.48-.33,7.03-1.36,13.94-1.35,21.11,0,6.98-.25,13.82,1.03,20.69.84,4.48,1.75,9.27,1.35,13.9-.71,8.16-2.34,16.91-1.33,25.18.26,2.11.79,4.19,1.35,6.27-.44,2.31-.8,4.64-.89,7.03-.36,9.62,3.56,49.94,18.19,31.67h-.07Z"/><path d="M20.04,1019.39c6.28-7.85,16.79-7.67,26.02-10.11,16.09-4.25,31.07-5.17,47.63-5.17,20.88,0,40.56-6.33,61.36-7.59,18.33-1.11,36.15-2.2,54.59-2.2,6.72,0,13.02-.25,19.63-1.77s9.84-4.72,2.21-8c-8.14-3.5-18.41-4.63-27.06-6.27-8.11-1.53-15.82-3.48-24.06-3.56-11.92-.12-21.82-1.77-30.24-11.3-8.95-10.12-20.9-9.92-33.2-9.92-10.24,0-20.7.6-30.91-.25-11.35-.94-17.81-7.37-28.02-11.13-11.41-4.2-28.79,4.19-36.15-9.31-8.14-14.94,9.78-18.01,19.05-19.42,4.04-.62,32.56,1.35,33.24-4.07.58-4.68-10.32-4.7-12.88-4.81-9-.4-14.87-1.74-22.96-5.69-1.36-.66-2.8-1.24-4.23-1.81.91-.44,1.8-.81,2.67-1.08,15.37-4.69,31.1-6.3,46.42-11.51,8.06-2.74,16.5-4.12,24.91-4.55,2.86-.15,12.35-1.57,7.96-6.56-2.42-2.76-10-3.03-13.2-3.64-3.15-.6-6.1-1.32-9.2-2.22-7.79-2.27-15.31-2.1-23.3-2.1-7.48,0-13.34-1.85-20.52-3.26-6.97-1.37-13.9-2.36-20.74-4.26-5.02-1.39-9.71-4.75-4.58-9.44,4.06-3.71,10.44-4.99,15.49-6.08,6.28-1.35,12.56-2.83,18.81-4.24,2.88-.65,13.28-2.27,10.63-6.82-.96-1.65-2.41-1.43-3.98-1.89-4.09-1.2-7.87-2.17-11.82-3.91-4.56-2.01-8.95-4.05-13.92-4.39-3.15-.22-5.8-.02-8.79-1.23-9.94-4-16.83-12.47-10.62-22.86,1.94-3.25,2.9-6.9,5.06-10,3.01-4.32,7.18-5.66,11.65-7.22,12.67-4.43,25.21-10.55,38.82-10.53,11.73.01,23.9,1.04,35.43-1.62,8.25-1.9,16.61-3.37,24.84-5.34,2.04-.49,19.69-3.01,19.72-5.74.03-3.61-14.05-5.06-15.89-5.53-8.67-2.22-17.77-1.36-26.65-1.36-3.63,0-7.36.28-10.93-.59-4.13-1-8.05-3.42-12.24-4.08-7.76-1.23-16.11.3-23.95-.13-7.27-.4-13.72-2.94-19.74-7.13-3.89-2.71-6.5-6.77-9.59-10.38-.6-.7-1.15-1.42-1.64-2.14,3.91-1.38,7.82-2.77,11.59-4.48,10.41-4.72,19.47-3.1,30.21-4.06,5.3-.48,10.22-1.84,15.61-1.83,4.22,0,8.4.2,12.57-.63,2.98-.59,8.26-1.05,5.09-3.99-2.48-2.3-10.5-2.88-13.72-3.38-8.55-1.32-18.64-2.15-26.75-5.43-4.41-1.78-8.22-5.03-12.65-6.63-3.41-1.24-6.17-.27-9.84-.26-5.53.02-13.62.78-15.17-6.57-.46-2.2-.32-5.77.95-7.57,2.35-3.32,9.03-4.06,12.4-4.71,5-.96,9.95-2.34,14.93-3.37,4.41-.91,8.42-2.22,12.91-2.46,4.88-.25,10.02-.31,14.85-.99,4.82-.67,9.2-3.21,13.95-4.37,5.53-1.36,10.7-2.45,16.32-2.61,15.09-.42,28.17-.53,42.49-6.14,6.75-2.64,12.72-2.96,19.85-3.29,3.1-.14,6.49-.37,9.35-1.8-.61-6.3-24.72-7.65-29.66-8.44-14.46-2.32-28.87-2.36-43.08-6.09-9.81-2.57-19.39-4.93-28.88-8.7-6.67-2.65-12.76-6.2-19.8-7.64-6.91-1.42-14.36-1.18-21.11-3.24-6.84-2.09-10.32-8.64-16.63-11.56-1.37-.63-3.18-1.57-5.18-2.5-.37-.74-.72-1.48-1.12-2.22-1.87-3.52-3.56-5.23-7.38-5.86-7.06-1.17-11.4,1.23-11.47,9-.05,5.6-1.98,12.09-1.36,17.48.77,6.71,2.23,13.39,2.78,20.31.31,3.93.67,8.26.28,12.22-.44,4.43-2.13,8.62-2.4,13.12-.26,4.36.86,8.18,1.04,12.42.19,4.52-.26,8.83-.61,13.3-.03.33-.02.64-.04.97-1.18,3.34-2.11,6.89-1.64,10.39.51,3.83,2.48,7.23,2.93,11.1.22,1.85.25,3.7.17,5.56-6.46,8.46-4.37,22.51-2.83,32.29,1.58,9.98-1.89,20.26-2.24,30.49-.23,6.96,1.81,18.21.67,25.08-1.84,11.03-2.59,19.96-2.35,31.22.26,12.37,2.17,24.51.77,36.75-.67,5.86,1.06,11.66.79,17.48-.33,7.03-1.36,13.94-1.35,21.11,0,6.98-.25,13.82,1.03,20.69.84,4.48,1.75,9.27,1.35,13.9-.71,8.16-2.34,16.91-1.33,25.18.26,2.11.79,4.19,1.35,6.27-.44,2.31-.8,4.64-.89,7.03-.36,9.62,3.56,49.94,18.19,31.67h-.07Z"/></g><g id="d"><path d="M47.38,316.44c9.52-2.72,19.08-5.24,28.72-7.98,15.92-4.54.92-10.21-7.6-12.23-4.28-1.01-11.68-1.18-15.14-3.86-3.13-2.42-2.7-5.89-5.93-8.44-7.11-5.62-22.26,3.55-25.95-8.07-3.02-9.5,10.43-13.95,17.38-14.14,5.46-.15,11.15.32,16.46-1.27,7.47-2.24,13.82-6.32,21.76-7.54,11.35-1.74,22.04,3.43,33.38,2.3,6.45-.64,10.78-4.64,16.57-7.33,13.41-6.24,30.79-8.76,45.32-9.94,6.64-.54,20.35-.63,22.04-10.52.97-5.68-2.44-5.88-7.31-7.18-15.58-4.17-35.8-1.21-50.29-8.66-5.67-2.91-8.85-7.47-14.76-9.87-12.73-5.19-25.1-4.03-38.42-4.48-10.27-.35-20.18-.56-29.94-1.33-2.96-1.95-7.23-3.1-12.57-4.75-9.76-3.02-18.12-16.9-28.95-16.34-7.9.41-7.64,13.85-6.57,21.39,1.07,7.57.04,9.4-.31,17.12-.28,6.33-.97,13.5-.64,20.01.26,5.11-1.53,13.29-1.13,18.5.77,10.05,1.98,14.4.67,24.17-1.53,11.4-.11,22.84.95,34.22.66,7.06-.18,11.91,5.76,14.03,3.49,1.25,9.31.68,13.06,1.17,3.71.49,7.87,1.28,11.34-.43,4.32-2.13,6.59-6.98,12.11-8.55h-.01Z"/><path d="M15.06,969.7c3.04-1.22,5.42-2.46,8.67-3.48,6.56-2.07,12.47-5.04,19.3-6.05,7.2-1.06,13.45,1.54,20.73-.3.06-.01.11-.02.17-.04,2.78-.25,5.54-.65,8.29-1.18,8.48-.28,15.61,2.32,24.85,4.25,6.31,1.32,9.58-1.05,14.87-4.33,5.63-3.48,8.62-1.63,14.72-2.1,4.7-.36,6.46-3.64,10.66-4.79,3.46-.94,7.59.8,11.02,1.19,7.4.85,14.38-.68,21.75-.68,6.25,0,13.18,1.78,19.24.03,5.7-1.64,11.23-5.14,16.74-6.98,8.14-2.72,16.01,1.06,24.05-4.26,4.07-2.7,7.79-4.83,4.89-9.56-2.08-3.39-7.6-8.42-10.96-10.59-4.41-2.83-7.91-1.88-12.81-2.25-3.64-.28-6.39-1.55-9.84-2.68-9.12-2.98-16.47-.61-24.93-5.59-7.25-4.26-15.53-3.91-23.48-5.74-6.6-1.52-10.57-4.63-16.55-7.39-9.85-4.55-13.77,2.85-22.5,4.89-4.54,1.06-7.96-2.93-12.54-2.47-4.56.46-8.08,3.51-12.87,3.16-4.9-.36-9.92-3.1-14.71-4.04-4.79-.94-9.52-1.15-14.17-1-20.89.65-24.15,0-26.48-2.12.6-.15,1.19-.29,1.72-.41,6.65-1.47,9.92-2.98,15.61-6.85,12.48-8.5,30.2-6.21,44.26-7.59,4.49-.44,16.52-2.92,16.57-9.41.07-8.16-15.6-5.89-20.2-7.2-7.88-2.25-12.05-7.52-20.02-8.5-7.2-.88-17.32.71-24.4,1.44-9.25.94-18.64-.18-17.98-11.97.52-9.33,6.89-10.81,14.41-11.11,9.2-.37,18.45.08,27.65,0,12.29-.12,22.36-6.83,35.37-6.03,6.64.41,13.36-.44,19.37-3.51,7.46-3.82,13.08-2.38,21.16-2.31,6.51.05,19.71-6.89,20.47-14.94.76-8.16-4-9.7-9.17-12.2-8.08-3.9-19.27-2.6-28.22-4.35-4.79-.94-7.88,5.21-12.86,5.19-4.17-.01-8.71-2.64-12.8-3.37-12.78-2.27-28.3-2.51-41.16-1.43-10.34.87-19.27-.6-28.68-3.31-7.3-6.81-16.9-19.91-24.94-6.59-7.39,12.23-3.35,38.46-3.16,52.57.15,11.04-6.02,20.58-6.14,31.24-.06,4.95,2.66,9.94,3.38,14.76.99,6.69.18,13.65-1.49,20.15-2.65,10.35-2,18.4-1.32,29.32.06.93.14,1.98.26,3.09.19,1.81.29,3.62.32,5.45.09,5.18.5,15.95,1.79,19.88,2.26,6.87,4.27,15.22,12.1,12.07v.02Z"/></g></svg>