<svg width="16" height="18" viewBox="0 0 16 18" fill="none" xmlns="http://www.w3.org/2000/svg">
<path d="M15.1437 7.89375C15.093 7.94707 15.0319 7.98953 14.9642 8.01854C14.8965 8.04754 14.8236 8.0625 14.75 8.0625C14.6764 8.0625 14.6035 8.04754 14.5358 8.01854C14.4681 7.98953 14.407 7.94707 14.3562 7.89375L8.56249 2.10938V17.25C8.56249 17.3992 8.50323 17.5423 8.39774 17.6477C8.29225 17.7532 8.14918 17.8125 7.99999 17.8125C7.85081 17.8125 7.70773 17.7532 7.60225 17.6477C7.49676 17.5423 7.43749 17.3992 7.43749 17.25V2.10938L1.64374 7.89375C1.53931 7.99818 1.39768 8.05685 1.24999 8.05685C1.10231 8.05685 0.960671 7.99818 0.856242 7.89375C0.751813 7.78932 0.693146 7.64769 0.693146 7.5C0.693146 7.35231 0.751813 7.21068 0.856242 7.10625L7.60624 0.35625C7.65703 0.302926 7.71811 0.260473 7.7858 0.231465C7.85348 0.202457 7.92635 0.1875 7.99999 0.1875C8.07363 0.1875 8.1465 0.202457 8.21419 0.231465C8.28187 0.260473 8.34296 0.302926 8.39374 0.35625L15.1437 7.10625C15.1971 7.15704 15.2395 7.21812 15.2685 7.28581C15.2975 7.35349 15.3125 7.42636 15.3125 7.5C15.3125 7.57364 15.2975 7.64651 15.2685 7.71419C15.2395 7.78188 15.1971 7.84296 15.1437 7.89375Z" fill="#DAC5A7"/>
</svg>
