<svg width="18" height="11" viewBox="0 0 18 11" fill="none" xmlns="http://www.w3.org/2000/svg">
<path d="M10.625 1.71875C10.625 1.59443 10.6744 1.4752 10.7623 1.38729C10.8502 1.29939 10.9694 1.25 11.0938 1.25H16.0938C16.2181 1.25 16.3373 1.29939 16.4252 1.38729C16.5131 1.4752 16.5625 1.59443 16.5625 1.71875C16.5625 1.84307 16.5131 1.9623 16.4252 2.05021C16.3373 2.13811 16.2181 2.1875 16.0938 2.1875H11.0938C10.9694 2.1875 10.8502 2.13811 10.7623 2.05021C10.6744 1.9623 10.625 1.84307 10.625 1.71875ZM17.1875 7.34375C17.1875 7.46807 17.1381 7.5873 17.0502 7.67521C16.9623 7.76311 16.8431 7.8125 16.7188 7.8125H10.9766C11.088 8.42567 11.411 8.98035 11.8892 9.38003C12.3674 9.77971 12.9705 9.99909 13.5938 10C13.9427 10.0022 14.2885 9.93415 14.6106 9.79993C14.9328 9.66572 15.2246 9.46807 15.4688 9.21875C15.5577 9.13237 15.6768 9.08405 15.8008 9.08405C15.9248 9.08405 16.0439 9.13237 16.1328 9.21875C16.1775 9.26175 16.213 9.31332 16.2373 9.37037C16.2615 9.42742 16.274 9.48878 16.274 9.55078C16.274 9.61278 16.2615 9.67414 16.2373 9.73119C16.213 9.78824 16.1775 9.83981 16.1328 9.88281C15.5444 10.4703 14.7704 10.8355 13.9429 10.9163C13.1153 10.9971 12.2854 10.7884 11.5944 10.3258C10.9035 9.86323 10.3944 9.17538 10.1538 8.37947C9.91315 7.58355 9.95597 6.72883 10.2749 5.96096C10.5939 5.19308 11.1693 4.55957 11.903 4.16838C12.6367 3.77718 13.4833 3.65251 14.2987 3.81561C15.114 3.97871 15.8476 4.41949 16.3743 5.06283C16.9011 5.70617 17.1885 6.51226 17.1875 7.34375ZM16.2109 6.875C16.104 6.25842 15.7828 5.69939 15.304 5.29647C14.8252 4.89355 14.2195 4.67262 13.5938 4.67262C12.968 4.67262 12.3623 4.89355 11.8835 5.29647C11.4047 5.69939 11.0835 6.25842 10.9766 6.875H16.2109ZM8.75 7.8125C8.75 8.6413 8.42076 9.43616 7.83471 10.0222C7.24866 10.6083 6.4538 10.9375 5.625 10.9375H0.46875C0.34443 10.9375 0.225201 10.8881 0.137294 10.8002C0.049386 10.7123 0 10.5931 0 10.4687V0.46875C0 0.34443 0.049386 0.225201 0.137294 0.137294C0.225201 0.049386 0.34443 2.7589e-08 0.46875 2.7589e-08H4.6875C5.24994 -7.87322e-05 5.79948 0.168474 6.26515 0.483888C6.73082 0.799303 7.09122 1.24709 7.29981 1.76941C7.50841 2.29174 7.55561 2.86461 7.43532 3.41403C7.31502 3.96345 7.03277 4.46419 6.625 4.85156C7.24443 5.06078 7.78263 5.45901 8.16384 5.99017C8.54505 6.52134 8.75005 7.1587 8.75 7.8125ZM0.9375 4.6875H4.6875C5.18478 4.6875 5.66169 4.48996 6.01333 4.13833C6.36496 3.78669 6.5625 3.30978 6.5625 2.8125C6.5625 2.31522 6.36496 1.83831 6.01333 1.48667C5.66169 1.13504 5.18478 0.9375 4.6875 0.9375H0.9375V4.6875ZM7.8125 7.8125C7.81044 7.23297 7.57931 6.67777 7.16952 6.26798C6.75973 5.85819 6.20453 5.62706 5.625 5.625H0.9375V10H5.625C6.20453 9.99794 6.75973 9.76681 7.16952 9.35702C7.57931 8.94723 7.81044 8.39203 7.8125 7.8125Z" fill="#DAC5A7"/>
</svg>
