<svg width="20" height="20" viewBox="0 0 20 20" fill="none" xmlns="http://www.w3.org/2000/svg">
<path d="M11.3125 14.5C11.3125 14.6492 11.2532 14.7923 11.1478 14.8977C11.0423 15.0032 10.8992 15.0625 10.75 15.0625C10.4019 15.0625 10.0681 14.9242 9.82193 14.6781C9.57578 14.4319 9.4375 14.0981 9.4375 13.75V10C9.4375 9.95027 9.41775 9.90258 9.38259 9.86742C9.34742 9.83225 9.29973 9.8125 9.25 9.8125C9.10082 9.8125 8.95775 9.75324 8.85226 9.64775C8.74677 9.54226 8.6875 9.39918 8.6875 9.25C8.6875 9.10082 8.74677 8.95774 8.85226 8.85225C8.95775 8.74676 9.10082 8.6875 9.25 8.6875C9.5981 8.6875 9.93194 8.82578 10.1781 9.07192C10.4242 9.31806 10.5625 9.6519 10.5625 10V13.75C10.5625 13.7997 10.5823 13.8474 10.6174 13.8826C10.6526 13.9177 10.7003 13.9375 10.75 13.9375C10.8992 13.9375 11.0423 13.9968 11.1478 14.1023C11.2532 14.2077 11.3125 14.3508 11.3125 14.5ZM9.625 6.8125C9.81042 6.8125 9.99168 6.75752 10.1459 6.6545C10.3 6.55149 10.4202 6.40507 10.4911 6.23377C10.5621 6.06246 10.5807 5.87396 10.5445 5.6921C10.5083 5.51025 10.419 5.3432 10.2879 5.21209C10.1568 5.08098 9.98976 4.99169 9.8079 4.95551C9.62604 4.91934 9.43754 4.93791 9.26624 5.00886C9.09493 5.07982 8.94851 5.19998 8.8455 5.35415C8.74249 5.50832 8.6875 5.68958 8.6875 5.875C8.6875 6.12364 8.78628 6.3621 8.96209 6.53791C9.13791 6.71373 9.37636 6.8125 9.625 6.8125ZM19.5625 10C19.5625 11.8913 19.0017 13.7401 17.9509 15.3126C16.9002 16.8852 15.4067 18.1108 13.6594 18.8346C11.9121 19.5584 9.9894 19.7477 8.13445 19.3788C6.27951 19.0098 4.57564 18.099 3.2383 16.7617C1.90096 15.4244 0.990216 13.7205 0.621245 11.8656C0.252274 10.0106 0.441643 8.08791 1.16541 6.34059C1.88917 4.59327 3.11482 3.09981 4.68736 2.04907C6.25991 0.998331 8.10872 0.4375 10 0.4375C12.5352 0.440477 14.9658 1.44891 16.7584 3.24158C18.5511 5.03425 19.5595 7.46478 19.5625 10ZM18.4375 10C18.4375 8.33122 17.9427 6.69992 17.0155 5.31238C16.0884 3.92484 14.7706 2.84338 13.2289 2.20477C11.6871 1.56615 9.99064 1.39906 8.35393 1.72462C6.71722 2.05019 5.2138 2.85378 4.03379 4.03379C2.85379 5.21379 2.05019 6.71721 1.72463 8.35393C1.39907 9.99064 1.56616 11.6871 2.20477 13.2289C2.84338 14.7706 3.92484 16.0884 5.31238 17.0155C6.69992 17.9426 8.33122 18.4375 10 18.4375C12.237 18.435 14.3817 17.5453 15.9635 15.9635C17.5453 14.3817 18.435 12.237 18.4375 10Z" fill="#DAC5A7"/>
</svg>
