<svg width="18" height="18" viewBox="0 0 18 18" fill="none" xmlns="http://www.w3.org/2000/svg">
<path d="M9.76218 14.6035C9.81448 14.6557 9.85597 14.7177 9.88428 14.786C9.91259 14.8543 9.92716 14.9275 9.92716 15.0014C9.92716 15.0754 9.91259 15.1486 9.88428 15.2168C9.85597 15.2851 9.81448 15.3472 9.76218 15.3994L8.82937 16.3313C7.87981 17.2808 6.59193 17.8143 5.24906 17.8143C3.90618 17.8143 2.6183 17.2808 1.66874 16.3313C0.719186 15.3817 0.18573 14.0938 0.18573 12.751C0.18573 11.4081 0.719186 10.1202 1.66874 9.17065L3.92906 6.9094C4.84204 5.99538 6.06992 5.46498 7.36124 5.42681C8.65256 5.38864 9.90962 5.84559 10.875 6.70409C10.9304 6.75334 10.9756 6.81301 11.0079 6.87971C11.0402 6.94641 11.0591 7.01882 11.0635 7.09282C11.0678 7.16682 11.0576 7.24095 11.0333 7.31098C11.009 7.38101 10.9711 7.44556 10.9219 7.50097C10.8726 7.55637 10.8129 7.60153 10.7463 7.63387C10.6796 7.6662 10.6071 7.68509 10.5331 7.68944C10.4591 7.69379 10.385 7.68353 10.315 7.65923C10.245 7.63494 10.1804 7.59709 10.125 7.54784C9.3742 6.8809 8.39696 6.52604 7.39316 6.55584C6.38937 6.58564 5.4349 6.99785 4.72499 7.70815L2.46374 9.96565C1.72503 10.7044 1.31003 11.7063 1.31003 12.751C1.31003 13.7957 1.72503 14.7976 2.46374 15.5363C3.20245 16.275 4.20436 16.69 5.24906 16.69C6.29375 16.69 7.29566 16.275 8.03437 15.5363L8.96624 14.6035C9.01849 14.5512 9.08052 14.5097 9.14881 14.4814C9.2171 14.4531 9.29029 14.4385 9.36421 14.4385C9.43813 14.4385 9.51133 14.4531 9.57962 14.4814C9.6479 14.5097 9.70994 14.5512 9.76218 14.6035ZM16.3312 1.66597C15.3811 0.717582 14.0934 0.184937 12.7509 0.184937C11.4084 0.184937 10.1208 0.717582 9.17062 1.66597L8.23781 2.59784C8.13226 2.70339 8.07296 2.84654 8.07296 2.99581C8.07296 3.14508 8.13226 3.28823 8.23781 3.39378C8.34336 3.49933 8.48651 3.55862 8.63578 3.55862C8.78504 3.55862 8.9282 3.49933 9.03374 3.39378L9.96562 2.45628C10.7043 1.71757 11.7062 1.30256 12.7509 1.30256C13.7956 1.30256 14.7975 1.71757 15.5362 2.45628C16.275 3.19499 16.69 4.1969 16.69 5.24159C16.69 6.28629 16.275 7.28819 15.5362 8.0269L13.275 10.2947C12.5651 11.005 11.6106 11.4172 10.6068 11.447C9.60303 11.4768 8.62578 11.122 7.87499 10.455C7.76311 10.3556 7.61629 10.3046 7.46685 10.3134C7.31741 10.3222 7.17758 10.39 7.07812 10.5019C6.97866 10.6138 6.92773 10.7606 6.93652 10.91C6.94531 11.0595 7.01311 11.1993 7.12499 11.2988C8.09026 12.1567 9.34692 12.6133 10.6378 12.5752C11.9287 12.537 13.1562 12.0069 14.0691 11.0935L16.3294 8.83222C16.8002 8.36217 17.1737 7.80393 17.4287 7.18942C17.6836 6.57491 17.8149 5.91618 17.8151 5.25089C17.8152 4.5856 17.6843 3.92679 17.4297 3.31215C17.1751 2.6975 16.8018 2.13907 16.3312 1.66878V1.66597Z" fill="#DAC5A7"/>
</svg>
