<svg width="18" height="21" viewBox="0 0 18 21" fill="none" xmlns="http://www.w3.org/2000/svg">
<path d="M16.5 0.1875H1.5C1.1519 0.1875 0.818064 0.325781 0.571922 0.571922C0.325781 0.818064 0.1875 1.1519 0.1875 1.5V15C0.1875 15.3481 0.325781 15.6819 0.571922 15.9281C0.818064 16.1742 1.1519 16.3125 1.5 16.3125H3.1875V19.5C3.1875 19.6069 3.21797 19.7116 3.27533 19.8018C3.33269 19.892 3.41456 19.964 3.51136 20.0093C3.60816 20.0547 3.71588 20.0715 3.82191 20.0579C3.92793 20.0442 4.02786 20.0006 4.11 19.9322L8.40188 16.3556C8.43561 16.3277 8.47807 16.3124 8.52188 16.3125H12.4781C12.7864 16.3132 13.0851 16.2053 13.3219 16.0078L17.3438 12.6562C17.491 12.5327 17.6093 12.3783 17.6903 12.204C17.7713 12.0297 17.813 11.8397 17.8125 11.6475V1.5C17.8125 1.1519 17.6742 0.818064 17.4281 0.571922C17.1819 0.325781 16.8481 0.1875 16.5 0.1875ZM16.6875 11.6484C16.6875 11.676 16.6815 11.7032 16.6699 11.7282C16.6582 11.7531 16.6412 11.7752 16.62 11.7928L12.5981 15.1444C12.5644 15.1723 12.5219 15.1876 12.4781 15.1875H8.52188C8.21357 15.1868 7.91486 15.2947 7.67813 15.4922L4.3125 18.2991V15.75C4.3125 15.6008 4.25324 15.4577 4.14775 15.3523C4.04226 15.2468 3.89918 15.1875 3.75 15.1875H1.5C1.45027 15.1875 1.40258 15.1677 1.36742 15.1326C1.33225 15.0974 1.3125 15.0497 1.3125 15V1.5C1.3125 1.45027 1.33225 1.40258 1.36742 1.36742C1.40258 1.33225 1.45027 1.3125 1.5 1.3125H16.5C16.5497 1.3125 16.5974 1.33225 16.6326 1.36742C16.6677 1.40258 16.6875 1.45027 16.6875 1.5V11.6484ZM13.3125 5.25V9.75C13.3125 9.89918 13.2532 10.0423 13.1477 10.1477C13.0423 10.2532 12.8992 10.3125 12.75 10.3125C12.6008 10.3125 12.4577 10.2532 12.3523 10.1477C12.2468 10.0423 12.1875 9.89918 12.1875 9.75V5.25C12.1875 5.10082 12.2468 4.95774 12.3523 4.85225C12.4577 4.74676 12.6008 4.6875 12.75 4.6875C12.8992 4.6875 13.0423 4.74676 13.1477 4.85225C13.2532 4.95774 13.3125 5.10082 13.3125 5.25ZM8.8125 5.25V9.75C8.8125 9.89918 8.75324 10.0423 8.64775 10.1477C8.54226 10.2532 8.39918 10.3125 8.25 10.3125C8.10082 10.3125 7.95774 10.2532 7.85225 10.1477C7.74676 10.0423 7.6875 9.89918 7.6875 9.75V5.25C7.6875 5.10082 7.74676 4.95774 7.85225 4.85225C7.95774 4.74676 8.10082 4.6875 8.25 4.6875C8.39918 4.6875 8.54226 4.74676 8.64775 4.85225C8.75324 4.95774 8.8125 5.10082 8.8125 5.25Z" fill="#DAC5A7"/>
</svg>
