<svg width="22" height="19" viewBox="0 0 22 19" fill="none" xmlns="http://www.w3.org/2000/svg">
<path d="M21.0156 3.53442C20.9733 3.43234 20.9018 3.345 20.8101 3.28331C20.7184 3.22162 20.6105 3.18831 20.5 3.18754H17.5375C17.1714 2.515 16.6327 1.95209 15.977 1.55666C15.3212 1.16122 14.572 0.947532 13.8063 0.937541C12.6558 0.93254 11.5502 1.3835 10.7314 2.19172C9.91268 2.99994 9.44743 4.09961 9.43752 5.25004V6.06567C5.46252 5.11879 2.18127 1.88442 2.14377 1.85629C2.0715 1.78494 1.98126 1.73449 1.88262 1.7103C1.78399 1.6861 1.68064 1.68906 1.58355 1.71886C1.48646 1.74866 1.39925 1.80419 1.33118 1.87955C1.2631 1.95492 1.2167 2.04731 1.1969 2.14692C0.381274 6.60942 1.7219 9.59067 2.98752 11.3063C3.65878 12.2249 4.48335 13.0209 5.42502 13.6594C3.9719 15.4219 1.58127 16.3407 1.55315 16.35C1.47328 16.3795 1.40127 16.4269 1.34273 16.4887C1.28419 16.5505 1.2407 16.6249 1.21565 16.7063C1.18905 16.7857 1.18113 16.8701 1.19251 16.953C1.20389 17.036 1.23427 17.1152 1.28127 17.1844C1.37502 17.325 2.29377 18.5625 5.50002 18.5625C12.0344 18.5625 17.5 13.5094 18.025 7.02192L20.8938 4.14379C20.9751 4.0676 21.0305 3.9679 21.0524 3.85864C21.0743 3.74938 21.0614 3.63602 21.0156 3.53442ZM17.0781 6.37504C16.9806 6.47233 16.9237 6.603 16.9188 6.74067C16.5344 12.7407 11.5188 17.4375 5.50002 17.4375C4.1969 17.4375 3.36252 17.2125 2.86565 16.9875C3.92502 16.4532 5.6594 15.4032 6.71877 13.8094C6.76098 13.7433 6.78938 13.6694 6.80227 13.5921C6.81516 13.5147 6.81227 13.4356 6.79377 13.3594C6.77379 13.2815 6.73757 13.2086 6.68749 13.1456C6.63741 13.0826 6.57459 13.0309 6.50315 12.9938C6.4844 12.9938 5.07815 12.2625 3.8594 10.5938C2.40627 8.60629 1.8344 6.17817 2.15315 3.37504C3.5219 4.53754 6.47502 6.73129 9.90627 7.30317C9.98703 7.31851 10.0702 7.31565 10.1497 7.29481C10.2292 7.27397 10.3031 7.23567 10.366 7.18269C10.4288 7.12971 10.4791 7.06339 10.5131 6.98855C10.5471 6.91371 10.564 6.83223 10.5625 6.75004V5.25004C10.57 4.40046 10.9133 3.58835 11.5176 2.9911C12.1218 2.39386 12.9379 2.06003 13.7875 2.06254C14.4014 2.0714 14.9999 2.25634 15.5117 2.59537C16.0236 2.93439 16.4274 3.41326 16.675 3.97504C16.7178 4.0761 16.7897 4.16215 16.8815 4.22225C16.9733 4.28235 17.0809 4.31378 17.1906 4.31254H19.1406L17.0781 6.37504Z" fill="#DAC5A7"/>
</svg>
