<svg width="20" height="20" viewBox="0 0 20 20" fill="none" xmlns="http://www.w3.org/2000/svg">
<path d="M15.5013 11.7466L12.5013 10.2466C12.4127 10.2025 12.314 10.1826 12.2153 10.1888C12.1165 10.1951 12.0211 10.2273 11.9388 10.2822L10.4688 11.2619C9.72461 10.8809 9.11915 10.2754 8.73818 9.53125L9.7188 8.06219C9.7737 7.97985 9.8059 7.88448 9.81215 7.78572C9.81841 7.68696 9.7985 7.58829 9.75443 7.49969L8.25443 4.49969C8.20779 4.40583 8.13586 4.32687 8.04674 4.27171C7.95762 4.21655 7.85486 4.18738 7.75005 4.1875C6.80522 4.1875 5.89908 4.56283 5.23099 5.23093C4.56289 5.89903 4.18755 6.80517 4.18755 7.75C4.19004 9.88755 5.04027 11.9368 6.55175 13.4483C8.06322 14.9598 10.1125 15.81 12.2501 15.8125C13.1949 15.8125 14.101 15.4372 14.7691 14.7691C15.4372 14.101 15.8126 13.1948 15.8126 12.25C15.8126 12.1454 15.7835 12.043 15.7285 11.954C15.6735 11.8651 15.5948 11.7933 15.5013 11.7466ZM12.2501 14.6875C10.4108 14.6853 8.64752 13.9536 7.34697 12.6531C6.04642 11.3525 5.31479 9.58925 5.31255 7.75C5.31261 7.16172 5.52542 6.5933 5.91172 6.14962C6.29802 5.70594 6.83175 5.41694 7.41443 5.33594L8.6013 7.70969L7.62724 9.17031C7.57606 9.24735 7.54467 9.33582 7.53584 9.42788C7.52701 9.51994 7.54101 9.61277 7.57662 9.69812C8.09386 10.9279 9.07216 11.9062 10.3019 12.4234C10.3873 12.459 10.4801 12.473 10.5722 12.4642C10.6642 12.4554 10.7527 12.424 10.8297 12.3728L12.2904 11.3988L14.6641 12.5856C14.5831 13.1683 14.2941 13.702 13.8504 14.0883C13.4068 14.4746 12.8383 14.6874 12.2501 14.6875ZM10.0001 0.4375C8.34235 0.437152 6.71304 0.867745 5.27195 1.68703C3.83086 2.50632 2.62751 3.68616 1.77995 5.11081C0.932384 6.53545 0.469728 8.15595 0.437369 9.81334C0.40501 11.4707 0.804059 13.108 1.59537 14.5647L0.505992 17.8337C0.42887 18.065 0.417678 18.3132 0.47367 18.5504C0.529662 18.7877 0.650626 19.0047 0.823003 19.1771C0.99538 19.3494 1.21236 19.4704 1.44962 19.5264C1.68688 19.5824 1.93505 19.5712 2.1663 19.4941L5.43537 18.4047C6.71504 19.0991 8.13639 19.4922 9.59104 19.5539C11.0457 19.6156 12.4952 19.3444 13.8291 18.7608C15.163 18.1772 16.346 17.2968 17.288 16.1866C18.2299 15.0764 18.9059 13.7657 19.2644 12.3546C19.6229 10.9435 19.6545 9.46913 19.3567 8.04396C19.0588 6.61879 18.4395 5.28044 17.5459 4.13097C16.6523 2.98149 15.508 2.05125 14.2003 1.41117C12.8926 0.771083 11.456 0.438063 10.0001 0.4375ZM10.0001 18.4375C8.51687 18.4379 7.05979 18.0472 5.77568 17.305C5.69007 17.2558 5.59317 17.2296 5.49443 17.2291C5.4339 17.2294 5.3738 17.2392 5.3163 17.2581L1.81099 18.4263C1.77796 18.4373 1.7425 18.4389 1.70861 18.4309C1.67471 18.4229 1.64372 18.4056 1.61909 18.381C1.59447 18.3563 1.57719 18.3253 1.56919 18.2914C1.56119 18.2576 1.56279 18.2221 1.5738 18.1891L2.74193 14.6875C2.7672 14.6118 2.77609 14.5317 2.76801 14.4523C2.75993 14.3729 2.73506 14.2962 2.69505 14.2272C1.76436 12.6195 1.39026 10.7495 1.6308 8.90749C1.87133 7.06544 2.71306 5.35428 4.02539 4.03945C5.33773 2.72463 7.04729 1.87965 8.88888 1.63562C10.7305 1.39159 12.6011 1.76213 14.2106 2.68978C15.8201 3.61742 17.0784 5.05031 17.7904 6.76612C18.5024 8.48194 18.6283 10.3848 18.1484 12.1794C17.6686 13.9741 16.6099 15.5602 15.1366 16.6917C13.6633 17.8232 11.8577 18.4369 10.0001 18.4375Z" fill="#DAC5A7"/>
</svg>
