<?xml version="1.0" encoding="UTF-8"?>
<svg id="a" xmlns="http://www.w3.org/2000/svg" width="169.7" height="112.46"
    viewBox="0 0 169.7 112.46" fill="#0e6ec2">
    <g id="b">
        <g id="c">
            <path
                d="M0,19.59V0h17.13v53.56c7.07-5.27,15.82-8.4,25.26-8.4h84.93c9.44,0,18.19,3.13,25.26,8.4,10.38,7.74,17.13,20.11,17.13,33.98v19.58h-17.13v-53.56c-7.07,5.27-15.81,8.4-25.26,8.4H42.38c-9.44,0-18.19-3.13-25.26-8.4C6.75,45.82,0,33.45,0,19.59h0ZM169.7,19.58V0h-17.13v53.56c10.38-7.74,17.13-20.11,17.13-33.98ZM0,87.54v19.59h17.13v-53.56C6.75,61.31,0,73.68,0,87.54H0Z"
                fill-rule="evenodd" />
        </g>
    </g>
    <path d="M27.85,87.6h3.18v7.79h9.96v-7.79h3.18v19.55h-3.18v-8.95h-9.96v8.95h-3.18v-19.55Z" />
    <path
        d="M49.09,92.61h3.12v8.68c0,2.01,1.41,3.32,3.33,3.32s3.24-1.3,3.24-3.32v-8.68h3.15v8.44c0,3.91-2.79,6.43-6.39,6.43s-6.45-2.52-6.45-6.43v-8.44Z" />
    <path
        d="M74.86,107.48c-2.16,0-4.05-.83-5.16-2.34v2.01h-2.94v-22.22h3.15v9.45c1.11-1.33,2.88-2.1,4.92-2.1,4.17,0,7.23,3.29,7.23,7.61s-3.09,7.58-7.2,7.58ZM74.32,95.12c-2.31,0-4.44,1.57-4.44,4.77s2.13,4.74,4.44,4.74c2.55,0,4.5-1.98,4.5-4.77s-1.98-4.74-4.5-4.74Z" />
    <path
        d="M88.39,100.9c.39,2.37,2.28,3.82,4.8,3.82,1.53,0,2.97-.56,4.29-1.72l1.5,2.13c-1.68,1.57-3.63,2.34-5.88,2.34-4.5,0-7.92-3.29-7.92-7.58-.09-4.18,3.45-7.7,7.62-7.61,3.9,0,6.81,2.87,6.81,6.67,0,.62-.09,1.27-.24,1.96h-10.98ZM96.46,98.47c-.03-2.22-1.71-3.56-3.78-3.56s-3.75,1.39-4.23,3.56h8.01Z" />
    <path
        d="M104.05,102.71c1.29,1.33,2.58,2.07,4.14,2.07,1.35,0,2.37-.56,2.37-1.63,0-.86-.63-1.21-2.07-1.81l-1.5-.62c-2.61-1.07-3.84-2.19-3.84-4.24,0-2.61,2.19-4.21,5.19-4.21,2.13,0,3.81.74,5.1,2.25l-1.71,1.93c-.93-.95-2.16-1.48-3.45-1.48s-2.01.47-2.01,1.39c0,.74.51,1.13,1.95,1.72l1.41.56c2.79,1.16,4.02,2.34,4.02,4.38,0,1.39-.51,2.49-1.56,3.29-1.05.77-2.34,1.16-3.9,1.16-2.52,0-4.62-1.13-5.94-2.81l1.8-1.96Z" />
    <path
        d="M126.46,107.15c-.99.21-1.86.33-2.61.33-3.39,0-5.43-1.66-5.43-5.07v-7.11h-2.4v-2.7h2.4v-3.82h3.18v3.82h4.38v2.7h-4.38v6.84c0,1.87.99,2.52,2.91,2.52.45,0,1.08-.06,1.95-.15v2.64Z" />
    <path
        d="M141.76,107.15h-2.94v-1.63c-1.08,1.27-2.7,1.96-4.71,1.96-3.09,0-5.13-1.69-5.13-4.21s2.1-4.15,5.43-4.15h4.17v-.95c0-2.01-1.14-3.11-3.15-3.11-1.65,0-2.85.71-4.08,2.16l-1.83-1.84c1.47-2.1,3.66-3.11,6.21-3.11,3.63,0,6.03,2.16,6.03,6.07v8.8ZM138.58,101.38h-3.78c-1.68,0-2.61.59-2.61,1.78s1.05,1.93,2.58,1.93c2.13,0,3.81-1.45,3.81-3.44v-.27Z" />
</svg>