<?xml version="1.0" encoding="UTF-8"?>
<!DOCTYPE svg PUBLIC "-//W3C//DTD SVG 1.1//EN" "http://www.w3.org/Graphics/SVG/1.1/DTD/svg11.dtd">
<!-- Creator: CorelDRAW -->
<svg xmlns="http://www.w3.org/2000/svg" xml:space="preserve" width="118.951mm" height="48.8264mm" version="1.1" style="shape-rendering:geometricPrecision; text-rendering:geometricPrecision; image-rendering:optimizeQuality; fill-rule:evenodd; clip-rule:evenodd"
viewBox="0 0 11889.26 4880.24"
 xmlns:xlink="http://www.w3.org/1999/xlink"
 xmlns:xodm="http://www.corel.com/coreldraw/odm/2003">
 <defs>
  <style type="text/css">
   <![CDATA[
    .fil0 {fill:white}
    .fil1 {fill:white;fill-rule:nonzero}
   ]]>
  </style>
 </defs>
 <g id="Layer_x0020_1">
  <metadata id="CorelCorpID_0Corel-Layer"/>
  <g id="_2093105921440">
   <path class="fil0" d="M2022.39 1733.04c-17.13,-4.39 -31.7,-13.65 -43.91,-27.47 -7.33,-8.31 -20.74,-16.36 -29.69,-23.4l-6.76 -5.32 -2.74 -8.15c-1.23,-3.66 -3.12,-8.21 -6.63,-10.24 -7.95,-4.6 -14.82,-11.07 -18.76,-19.47 -1.74,-3.73 -6.37,-8.15 -9.23,-10.99 -4.11,-4.07 -7.98,-7.95 -11.51,-12.09 -15.07,20.08 -34.02,35.41 -53.59,51.37 -3.6,2.91 -10.74,8.49 -12.75,12.78l-5.32 11.31 -11.9 3.86c-1.42,0.46 -2.83,0.93 -4.24,1.37 -9.43,8.28 -18.87,16.47 -27.94,24.76 -1.37,1.6 -2.91,4.13 -4.42,6.11 -7.88,10.17 -14.08,18.5 -25.02,25.32 -0.46,0.56 -0.91,1.15 -1.35,1.75 -3.98,7.27 -7.47,12.46 -15.38,16.73 -3.68,1.97 -7.03,5.93 -9.64,9.14 -5.81,7.18 -10.91,14.42 -17.46,21.06 -12.25,12.35 -18.98,22.52 -35.02,28.61 -10.98,13.16 -22.99,19.83 -36.34,31.01 -7.74,6.49 -14.33,11.75 -24.54,13.88 -1.44,1.53 -3.35,4.47 -4.34,5.83l-5.79 7.99 -9.48 2.79c-11.06,3.24 -23.17,5.77 -33.84,10.04 -21.64,8.66 -42.74,4.93 -61.64,-7.99l-5.51 -3.76 -3.29 -5.8c-12.88,-22.69 -8.02,-45.35 4.52,-66.43 6.31,-10.6 11.34,-22.08 16.84,-33.11 6.45,-12.95 14.42,-25.45 24.64,-35.74 24.98,-25.22 51.13,-49.21 76.43,-74.07 3.54,-3.5 18.32,-14.41 19.57,-17.16 3.71,-8.22 9.92,-13.99 17.59,-18.42 2.2,-1.25 4.81,-2.4 6.6,-3.5 4.21,-3.37 8.38,-8.21 12.78,-12.09 3.53,-3.11 8.68,-6.32 11.74,-9.47 19.58,-20.02 38.59,-40.56 58.43,-60.32 13.27,-13.24 26.65,-26.26 41.79,-37.36 0.51,-0.37 1.38,-1.03 2.02,-1.65 -0.09,-0.41 -0.21,-0.85 -0.35,-1.28 -3.31,-1.46 -6.64,-2.99 -10.41,-5.66 -8.67,-6.19 -14.34,-14.31 -17.06,-23.57 -7.1,-4.54 -12.87,-10.14 -16.97,-17.2 -13.74,-8.48 -25.04,-19.77 -34.85,-32.57 -1.47,-1.91 -4.72,-6.77 -7.56,-6.74l-16.09 0.19 -8.62 -13.56c-3.96,-6.25 -7.87,-12.49 -11.87,-18.69 -1.28,-2.01 -2.94,-5.1 -4.45,-6.85 -12.09,-14.14 -15.41,-19.97 -18.73,-34.56 -12.32,-9.77 -22.91,-21.05 -33.51,-32.82 -9.8,-10.89 -19.75,-22.5 -31.22,-31.7 -10.63,-8.5 -14.84,-18.3 -20.75,-29.76 -0.04,-0.07 -0.08,-0.14 -0.12,-0.25 -7.28,5.08 -13.98,10.43 -17.17,15.69 -3.6,5.89 -7.79,10.92 -13.67,14.73 -17.06,11.14 -32.1,26.91 -47.5,40.24 -14.3,12.33 -29.82,22.78 -46.78,31.09 -10.95,5.4 -21.17,12.44 -29.65,21.3 -9.77,10.16 -21.33,18.72 -33.46,25.87 -17.27,10.15 -32.02,24.22 -46.02,38.39l-7.94 8.06 -11.3 0.49c-4.48,0.21 -12.46,2.93 -17.23,3.86 -9.19,1.83 -18.03,2.12 -26.67,0.37 -1.21,0.6 -2.44,1.19 -3.67,1.78 -2.15,6.18 -4.05,12.46 -6.28,18.53 -5.22,14.06 -11.78,26.53 -21.97,37.68l-6.26 6.85 -9.08 1.93c-7.52,1.6 -15.02,3.18 -22.55,4.78 -0.3,0.47 -0.6,0.92 -0.92,1.38l-2.19 3.3 -3.03 2.61c-17.12,14.73 -33,16.55 -52.47,17.83 -6.73,6.23 -12.37,11.9 -20.52,16.92 -0.47,2.69 -0.86,5.47 -1.65,8.2l-3.6 12.75 -12 5.58c-7.58,3.5 -18.76,7.8 -24.62,13.81 -6.6,6.79 -14.54,10.9 -23.35,14.02 -4.04,1.43 -8.59,2.59 -12.47,4.27 -0.94,0.41 -1.92,0.79 -2.88,1.14 -9.92,10.69 -20.26,13.55 -34.25,18.69l-9.22 3.39 -9.39 -2.94c-6.98,-2.21 -13.99,-4.17 -20.85,-6.74 -10.35,-3.88 -18.55,-7.24 -24.82,-17.29 -2.56,-1.76 -9.15,-4.17 -12.08,-5.55 -15.73,-7.52 -26.02,-22.37 -27.09,-39.82 -0.7,-11.46 -0.43,-23.02 0.82,-34.43 1.55,-14.14 8.99,-25.95 19.59,-35.18 7.95,-6.94 15.08,-14.84 23.04,-21.87 6.62,-5.83 14.39,-10.61 22.83,-13.29 7.03,-2.21 12.68,-6.47 18.03,-11.45 13.12,-12.27 27.64,-19.22 42.27,-29 28.75,-19.21 59.04,-35.71 89.3,-52.4 16.21,-8.92 27.46,-19.14 44.75,-25.92 11.76,-10.53 23.5,-21.15 35.3,-31.65 7.18,-6.35 11.19,-10.93 21.32,-13.68 11.58,-3.14 25.65,-15.23 35.34,-22.01 18.09,-12.54 38.69,-23.97 54.88,-38.92 5.9,-5.44 12.2,-9.49 18.68,-14.1 1.26,-0.89 2.45,-1.59 3.67,-2.26 7.46,-8.93 16.32,-15.62 26.23,-22.25 6.21,-4.13 14.18,-8.86 19.3,-14.31 6.6,-7.06 12.95,-10.19 20.49,-15.48 16.08,-11.21 32.52,-22.04 48.3,-33.71 -11.05,5.47 -19.45,10.15 -32.15,10.89 -22.36,13.29 -44.49,17.28 -68.03,27.48 -7.23,3.1 -15.32,10.22 -21.46,15.19 -7.31,5.93 -14.38,10.96 -23.09,14.74 -10.68,4.58 -21.03,10.02 -31.36,15.33 -22.89,11.81 -45.34,24.44 -68.62,35.51 -18.84,8.99 -34.65,17.59 -55.71,19.67 -0.51,0.25 -1.04,0.53 -1.53,0.78 -26.95,13.22 -53.96,26.31 -81.85,37.48 -1.91,1.23 -4.53,3.81 -6.24,5.25 -6.23,5.3 -12.13,10.93 -18.16,16.47l-6.32 5.75 -8.44 1.41c-4.22,0.71 -17.8,1.16 -24.81,2.54 -11.82,19.53 -32.94,27.47 -56.14,21.37 -1.53,-0.42 -3.36,-1.02 -5.17,-1.55 -8.31,5.22 -16.59,10.45 -24.9,15.69 -4.62,13.29 -9.25,26.59 -13.86,39.89l-3.02 8.71 -7.5 5.33c-17.17,12.24 -38.14,12.09 -54.24,-1.86 -4.15,-3.58 -9.61,-2.62 -14.61,-1.64 -8.27,1.63 -16.21,1.74 -24.58,1.9 -6.3,0.13 -12.51,-0.27 -18.53,-0.4 -12.74,9.21 -23.48,17.29 -37.88,21.68 -3.75,7.24 -7.5,14.46 -11.25,21.7l-6.19 11.92 -13.09 2.94c-7.96,1.93 -12.09,3.88 -21.04,3.5 -11.24,-0.47 -19.91,4.17 -28.21,11.42 -5.76,5.03 -11,7.03 -17.97,9.34l-5.09 2.12 -6.21 -0.17c-3.8,-0.1 -6.86,-0.52 -9.55,-1.17 -1.94,6.63 -4.66,12.78 -8.96,18.63 -3.22,4.43 -5.97,10.77 -8.81,15.63 -6.4,10.99 -14.19,19.89 -25.27,26.45l-6.26 3.72 -7.27 0.29c-12.88,0.55 -25.78,1.08 -38.66,1.62 -1,0.97 -1.99,1.95 -2.97,2.95 -16.54,16.74 -37.21,26.31 -61.01,25.41 -9.42,-0.35 -18.87,-0.04 -28.28,-0.04l-8.52 0 -7.15 -4.64c-10.73,-6.94 -21.41,-16.58 -32.51,-22.37 -30.79,-16.06 -39.03,-54.08 -21.74,-83.14 2.02,-3.42 5.29,-7.25 6.86,-10.23 7.87,-21.01 23.17,-35.4 42.56,-46.34 11.4,-6.43 27.94,-12.7 37.63,-21.24l5.18 -4.56 6.68 -1.72c15.76,-4.05 30.63,-10.23 43.97,-19.66l6.32 -4.46 7.71 -0.69c11.2,-1.03 28.57,-13.44 38.71,-18.58 35.98,-18.19 70.25,-37.93 108.93,-50.21 7.66,-2.4 15.62,-3.92 23.2,-6.42 3.94,-1.27 8.04,-3.53 11.76,-5.36 15.46,-7.73 27.78,-14.95 45.45,-17.32 0.7,-0.1 1.86,-0.28 2.47,-0.56 33.7,-17.38 71.11,-26.17 104.31,-43.58 22.64,-11.85 46.57,-19.89 69.97,-29.91 23.42,-10.02 46.61,-20.49 70.08,-30.33 10.55,-4.41 21.41,-7.72 32.23,-11.31 11.17,-3.67 24.81,-7.83 33.78,-15.8 8.58,-7.58 17.04,-10.99 26.8,-16.18 26.66,-14.17 51.61,-28.25 81.42,-35.04 16.63,-3.78 32.69,-8.89 49.62,-11.53 3.79,-0.6 8.37,-1.55 11.26,-4.27 9.45,-8.82 19.96,-13.75 32.07,-17.77 1.94,-0.67 6.69,-2.36 8.27,-3.74 9.28,-8.99 19.69,-15.41 31.08,-19.71 -15.99,2.47 -31.99,4.41 -48.31,4.94 -3.98,0.14 -8.53,1.02 -13,1.98 -10.07,10.12 -20.85,18.54 -35.2,22.77l-3.61 1.06 -3.75 0.14c-9.11,0.25 -18.21,0.43 -27.3,0.78 -11.65,0.49 -23.47,0.49 -35.07,1.73 -23.49,2.54 -46.83,3.14 -70.32,0.1 -10.03,-1.3 -20.63,-0.56 -30.94,-0.24 -7.06,4.05 -12.5,9.03 -17.45,16.07 -9.74,13.89 -20.88,22.57 -38.55,23.77l-10.45 0.71 -8.49 -6.18c-4.63,-3.38 -9.28,-6.77 -13.92,-10.15 -12.35,-2.85 -24.95,-4.72 -37.67,-4.23 -4.52,0.18 -7.42,0.88 -10.51,4.2 -6.87,7.44 -14.55,13.92 -21.54,21.19 -10.33,10.71 -22.96,15.9 -37.77,16.99l-7.04 0.5 -6.46 -2.82c-9.01,-3.88 -18.76,-6.39 -28.47,-7.66 -15.11,-1.97 -29.25,-0.21 -43.41,5.4 -13.88,5.47 -27.89,10.29 -42.53,12.12 -0.99,1.84 -1.99,3.67 -2.88,5.05 -6.53,10.15 -15.12,17.52 -26.71,21.44l-10.23 3.49 -10 -4.13c-8.49,-3.49 -16.55,-4.16 -25.08,-0.17 -9.02,4.19 -13.98,3.35 -22.62,3.84 -1.33,0.25 -3.2,0.39 -4.88,0.71 -15.36,9.2 -30.58,12.51 -47.17,16.64 -1.32,1.8 -2.67,3.63 -4.23,5.36 -7.88,8.68 -17.68,14.21 -29.38,15.76l-4.23 0.56 -4.19 -0.7c-4.32,-0.71 -8.62,-1.41 -12.9,-2.12l-18.79 21.76 -21.2 -18.58c-2.04,-0.14 -5.92,0.17 -9.96,0.56 -4.18,3.6 -8.35,7.23 -12.52,10.82l-10.32 8.96 -13.46 -2.33c-10.7,-1.87 -19.64,-7.3 -26.32,-15.83 -1.17,-1.48 -2.12,-2.96 -3.03,-4.48 -1.86,-0.53 -3.72,-1.13 -5.62,-1.83 -17.36,-6.6 -30.68,-20.06 -34.34,-38.61 -1.41,-7.16 -4.55,-12.23 -10.06,-16.96 -4.24,-3.6 -7.22,-7.65 -10.16,-12.3 -11.59,-18.26 -6.19,-44.25 12.59,-55.53 5.52,-3.32 10.89,-5.29 16.69,-7.8 3.39,-1.48 7.26,-2.47 10.59,-3.77 14.41,-13.65 30.64,-18.76 49.83,-22.92 6.53,-1.42 20.04,-3.6 25.26,-8.12l7.8 -6.77 10.3 -0.28c20.53,-0.57 43.18,2.64 63.79,0.28 4,-3.88 7.99,-7.73 11.98,-11.6l9.66 -9.35 13.37 1.38c1.67,0.18 3.33,0.35 5,0.49 0.21,-0.31 0.43,-0.63 0.65,-0.95 6.57,-9.45 15.67,-15.86 26.96,-18.44l2.62 -0.6 2.7 -0.07c12.36,-0.49 23.14,4.34 32.06,12.58 1.82,1.7 4.09,4.38 6.12,6.28 6.43,-5.29 13.51,-8.6 22.12,-8.71 6.49,-0.07 14.58,-2.86 20.7,-4.73 9.19,-2.75 17.88,-5.08 27.03,-5.96 3.22,-2.47 6.45,-4.97 9.66,-7.44l9.87 -7.59 12.28 1.94c1.65,0.28 3.29,0.53 4.94,0.81 8.67,-4.34 17.33,-8.71 26,-13.04l5.33 -2.64 5.95 -0.36c8.95,-0.49 17.87,-1.02 26.79,-1.51 2.39,-1.49 4.77,-2.97 7.2,-4.41 14.9,-8.72 31.63,-11.64 48.42,-6.95 8.22,2.29 15.47,2.64 23.03,-1.77 7.14,-4.16 11.51,-4.3 18.8,-6.21 8.18,-2.22 16.37,-4.41 24.56,-6.63l7.67 -2.05 7.64 2.16c6.6,1.87 13.99,4.94 20.69,5.89 10.2,1.48 19.87,-0.21 29.17,-4.62 12.15,-5.75 24.53,-10.93 36.85,-16.29 10.68,-4.69 18.41,-8.5 29.99,-8.82 7.42,-4.23 14.9,-7.09 22.43,-8.79 -8.17,-0.35 -16.32,-1.65 -24.36,-3.84 -23.63,-6.42 -48.05,-7.87 -72.41,-7.41 -1.31,0.04 -3.77,0.11 -4.68,0.32 -14.72,7.44 -29.81,9.07 -46.41,8.89 -1.25,0 -3.25,-0.07 -4.86,0 -10.82,9.31 -24.1,12.19 -38.23,11.38 -15.88,-0.91 -27.65,0.07 -42.87,-6.45 -2.25,-0.28 -5.54,-0.21 -7.62,-0.32 -22.65,-1.02 -45.29,-2.29 -67.95,-2.5 -10.7,-0.11 -29.55,-2.37 -39.32,2.92 -9.22,4.98 -17.25,5.22 -27.18,5.58 -19.14,0.63 -41.24,0.14 -59.49,6.59 -7.27,2.58 -11.77,2.12 -18.95,2.16 -24.85,0.42 -49.71,1.23 -74.58,1.16 -36.25,-0.07 -72.5,-0.88 -108.76,-1.13 -8.9,-0.07 -17.81,0.18 -26.67,0.99 -15.04,1.41 -27.23,3.49 -42.19,0.53 -1.41,0.25 -5.8,2.79 -7.34,3.63l-9.18 5.15 -10.3 -1.97c-11.73,-2.26 -23.5,-4.45 -35.22,-6.81 -7.55,-1.52 -14.29,-2.54 -21.6,-5.43 -5.78,-2.33 -10.98,-2.58 -16.78,-0.22 -11.61,4.77 -23.72,6.99 -36.25,6.42 -31.44,-1.41 -61.34,1.1 -92.9,-4.86 -0.62,0.14 -1.82,1.02 -2.32,1.41 -2.27,1.73 -4.43,3.56 -6.67,5.32l-4.37 3.46 -5.34 1.62c-12.12,3.64 -24.38,2.86 -35.7,-2.89 -3.36,-1.69 -5.8,-3.46 -8.3,-5.33 -7.73,-0.49 -15.43,-0.98 -23.17,-1.48l-23.74 -1.48 -3.06 -23.59c-0.83,-6.46 -2.1,-12.16 -2.1,-18.79 -0.02,-13.22 -1.42,-26.42 -5.84,-39 -2.3,-6.53 -3.58,-13.25 -4.49,-20.1 -0.73,-5.57 -0.1,-10.22 1.22,-15.55l1.4 -8.32 6.64 -6.56c14.91,-14.7 29.84,-29.45 44.74,-44.19l2.79 -2.75 3.42 -1.9c11.54,-6.46 19.41,-3.25 30.8,-3.25 48.51,0.04 97.01,0.14 145.53,0 13.52,0 25.69,1.87 37.72,8.5 0.57,0.32 1.74,0.71 2.39,0.74 24.87,-0.07 49.45,2.72 74.18,5.37 25.88,2.71 52.46,1.27 78.49,1.37 13.79,0.07 27.43,1.45 41.16,2.44 22.9,1.65 46.07,1.73 68.92,-0.57 12.7,-1.3 27.78,-1.48 39.87,-5.57 13.48,-4.55 22.43,-2.4 35.54,-2.68 10.74,-0.21 21.2,-1.52 31.57,-4.48 24.01,-6.85 48.53,-7.34 71.93,2.29 7.06,2.89 13.5,1.83 20.57,-0.56 25.92,-8.82 52.28,-16.08 78.48,-23.95 12.32,-3.7 24.52,-3.14 36.95,-0.28l9.81 2.26 6.28 7.86c2.48,3.11 4.97,6.25 7.43,9.35 7.25,1.94 14.5,3.88 21.77,5.72 0.56,0.14 1.14,0.32 1.73,0.46 24.58,-2.47 47.3,1.58 71.54,1.09 6.56,-0.11 26.36,0.21 31.64,-4.02l6.91 -5.54 8.82 -0.71c24.71,-1.94 50.81,-2.22 75.05,-7.37 21.8,-4.62 43.4,-2.19 65.07,1.8 4.67,0.88 9.59,1.62 14.35,1.62 27.41,0.14 54.78,-0.81 82.18,0.04 14.67,0.46 28.48,-2.15 41.76,-8.36 16.35,-7.59 32.99,-8.19 49.62,-0.92 7.42,3.21 16.71,5.19 24.51,7.62l9.84 3.03 5.67 8.54c11.28,17 24.03,31.31 33.79,49.69 8.86,16.71 18.98,32.75 29.09,48.73 1.74,2.79 6.05,6.53 8.46,8.79 16.67,15.47 32.67,30.99 45.82,49.72 0.66,0.95 1.73,2.5 2.67,3.46 18.61,9.91 30.6,25.35 40.6,43.51 1.15,2.15 2.86,5.78 5.41,6.49 6.82,1.9 9.67,4.51 15.13,7.94l6.56 4.09 3.64 6.84c8.27,15.51 13.41,32.05 18.47,48.84 3.04,10.13 6.12,20.77 10.29,30.71 25.27,13.71 46.12,32.12 62.28,56.45 1.1,1.66 2.26,3.77 3.44,5.54 15.04,9.06 23.25,21.72 29.72,37.02 22.41,20.06 42.64,41.61 57.62,68.06 0.93,1.65 2.09,3.24 3.37,4.62 21.88,23.83 41.99,49.15 62.9,73.83 8.39,9.91 17.57,18.58 25.3,29.02 2.17,2.33 8.58,6.21 11.49,8.43 11.18,8.61 22.63,16.86 33.64,25.64 3.75,2.99 13.08,13.21 15.94,14.57 8.29,3.48 11.69,7.79 17.19,14.05 22.69,25.07 44.2,51.46 68.43,75.11 7.22,7.06 15.8,13.02 23.89,19.04 11.35,8.45 20.69,17.7 27.78,30.11 4.16,7.31 11.02,14.48 16.48,20.91 15.14,17.82 30.09,35.85 46.01,52.99 11.73,12.59 24.63,24.18 37.37,35.75 14.25,12.96 26.95,21.98 37.37,38.84 1.66,1.52 4.96,3.54 6.62,4.66 20.22,13.62 37.14,28.46 47.34,50.87 17.63,4.88 32.72,11.91 43.49,26.26 7.55,4.79 14.02,10.74 20.19,17.5 4.97,5.45 9.73,11.61 15.04,16.65 8.03,7.6 16.18,15.2 25.12,21.73 13.73,10.04 25.31,21.97 37.56,33.64 6.68,6.35 12.74,13.23 18.72,20.25 4.3,5.01 8.31,10.3 12.34,15.54 0.34,0.21 0.7,0.41 1.04,0.63 -0.05,-0.84 -0.09,-1.67 -0.13,-2.5 -0.45,-7.71 -0.21,-15.42 0.28,-23.11 1,-15.8 2.11,-31.59 3.49,-47.36 0.71,-8.03 1.82,-16 3.78,-23.84 2.2,-8.9 1.28,-18.3 -0.28,-27.22 -5.4,-31.25 -5.92,-62.43 2.73,-93.17 3,-10.71 2.07,-23.45 1.34,-34.39 -1.41,-21.43 -2.61,-42.84 -3.79,-64.28 -0.48,-8.59 -2.26,-16.32 -6.14,-24.07 -8.82,-17.67 -15.3,-36.13 -22.6,-54.42 -0.44,-1.12 -1.08,-2.87 -1.72,-4.14 -25.58,-18.15 -40.23,-41.55 -58.61,-66.27 -2.6,-3.53 -5.66,-6.8 -8.98,-9.65 -12.46,-10.67 -25.47,-20.73 -37.96,-31.37 -5.6,-4.79 -9.4,-9.87 -14.21,-15.15 -23.54,-25.85 -47.12,-52.78 -75.05,-74.01 -7.36,-5.57 -12.99,-12.26 -18.63,-19.42 -8.06,-10.26 -15.97,-20.56 -23.2,-31.42 -3.28,-4.86 -5.94,-9.94 -8.53,-15.05 -1.82,-0.63 -3.64,-1.31 -5.46,-1.98l-10.35 -3.77 -5.21 -9.7c-4.34,-8.15 -8.88,-16.11 -12.93,-24.37 -2.87,-5.85 -4.77,-11.74 -7.18,-17.7 -9.76,-24.08 -2.37,-44.6 19.52,-56.66 1.49,-5.82 2.46,-11.74 1.73,-16.85 -2.9,-20.28 4.25,-38.22 16.85,-53.81 10.35,-12.79 22.15,-23.8 35.31,-33.63 10.7,-8.01 20.25,-19.82 29.44,-29.55 8.2,-8.72 15.82,-17.91 23.69,-26.91 2.45,-2.79 6.79,-6.74 8.72,-9.7 8.42,-13.01 19.77,-22.78 34.27,-28.36 3.87,-1.48 5.04,-3.38 6.16,-7.37 2.37,-8.43 6.45,-15.55 11.09,-22.85 10.15,-15.83 20.58,-31.45 30.81,-47.22 -0.23,-1.55 -0.45,-3.06 -0.67,-4.58l-2.15 -14.88 10.93 -10.25c5.26,-4.98 10.49,-7.87 15.88,-9.32 1.68,-10.78 3.37,-21.61 5.06,-32.43l1.12 -7.27 4.46 -5.82c0.85,-1.13 2.05,-2.29 2.98,-3.42 0.56,-2.33 0.88,-5.12 1.43,-7.41l4.46 -18.94 19.23 -2.96c6.65,-1.02 12.98,-0.42 18.61,1.55 2.28,-5.89 4.33,-11.98 6.96,-17.63 3.41,-7.4 6.02,-15.23 8.11,-23.09 2.94,-10.89 7.29,-23.66 7.94,-34.91 1.61,-27.47 1.01,-55.04 1.33,-82.54 0.31,-24.3 -0.05,-48.53 1.25,-72.78 0.44,-8.11 1.99,-15.83 3.66,-23.73 1.01,-4.73 2.21,-9.91 2.43,-14.7 0.66,-13.89 -1.95,-25.39 0.45,-40.09 1.89,-11.49 1.57,-23.91 1.89,-35.54 0.03,-1.06 0.11,-5.26 -0.61,-6.24 -5.23,-7.52 -8.71,-16.72 -9.34,-25.85 -0.94,-13.57 -1.39,-27.19 -1.9,-40.8 -0.28,-0.42 -0.55,-0.81 -0.81,-1.23 -6.37,6.63 -14.16,11.73 -23.24,14.77 -3.28,1.13 -8.66,6.7 -11.02,8.96 -17.71,16.78 -33.12,34.3 -53.09,48.73 -6.85,13.86 -17.31,22.92 -30.21,29.63 -4.36,8.25 -10.15,15.51 -16.93,22.46 -6.25,6.42 -13.55,12.44 -19.32,19.18 -12.78,14.98 -28.46,25.67 -43.58,37.76 -1.24,2.54 -2.48,5.08 -3.73,7.62l-5.89 12.02 -13 3.28c-3.8,0.95 -6.97,1.94 -10.99,2.36 -7.09,0.78 -14.48,-0.45 -20.86,-3.66 -11.23,-5.65 -19.38,-13.72 -26.99,-23.45 -3.68,-4.73 -7.59,-10.79 -11.87,-14.88 -15.93,-15.27 -14.75,-34.52 -11.32,-54.23 5.08,-29.16 7.06,-34.55 24.1,-58.64 28.37,-40.16 61.41,-76.44 95.27,-111.98 12.41,-13 27.19,-25.63 37.79,-40.16l3.06 -4.16 4.31 -2.89c7.08,-4.66 13.37,-12.09 18.86,-18.48 7.61,-8.89 14.86,-17.31 23.66,-24.75 4.19,-6.74 9.23,-12.62 14.79,-18.48 4.22,-4.41 9.06,-8.89 12.71,-13.75 12.13,-16.08 24.9,-31.66 37.7,-47.22 9.18,-11.1 14.35,-16.25 22.41,-20.76 0.07,-1.1 0.14,-2.23 0.2,-3.36l0.7 -12.02 9.02 -7.93c14.64,-12.9 31.32,-18.41 50.41,-20.42 7.25,-0.77 15.24,-0.88 22.88,-1.55 0.77,-1.17 1.55,-2.33 2.33,-3.49l8.59 -12.76 15.4 0c20.21,0.03 36.57,9.34 48.12,25.7 6.51,9.21 15.2,16.26 24.56,22.43 21.65,14.31 40.48,29.13 51.32,53.42 1.08,1.76 3.53,4.37 5.01,6.24 9,11.49 16.4,23.13 20.38,36.46 32.41,19.81 58.54,43.62 69.53,81.06 2.66,2.22 5.32,4.48 7.98,6.7l7.02 5.93 1.73 6.6 14.92 1.66 6.37 15.26c11.27,0.42 21.65,3.35 32.58,12.3l3.75 3.07 2.55 4.13c6.96,11.35 11.07,23.66 11.84,36.21 3.46,1.3 7.03,3.14 11.01,6 11.04,7.93 14.96,16.21 22.83,26.13l7.98 10.05 -2.13 12.66c-0.45,2.71 -0.92,5.43 -1.37,8.18 1.31,3.35 2.7,6.67 4.27,9.31 2,3.36 7.25,8.44 9.92,11.6l9.48 11.35 -3.67 14.31c-2.14,8.36 -3.44,16.08 -6.61,24.26 -9.48,24.44 -37.35,36.36 -61.33,25.29 -17.41,-8.05 -34.5,-16.71 -51.62,-25.32 -4.4,-2.22 -8.48,-5.61 -12.31,-7.52 -22.07,-8.36 -38.48,-23.62 -49.67,-44 -5.24,-2.75 -10.3,-5.4 -15.39,-9 -12.44,-8.89 -21.76,-15.12 -29.3,-29.2 -3.47,-3.49 -11.64,-8.43 -15.82,-11.95l-7.94 -6.7 -1.86 -10.19c-0.23,-1.3 -0.37,-2.46 -0.48,-3.59 -0.87,-0.14 -1.72,-0.25 -2.59,-0.39l-13.07 -2.01 -2.92 -4.69c-0.55,5.25 -0.73,10.53 -0.51,15.79 0.92,20.95 0.99,41.43 -2.57,62.09 8.94,23.63 6.22,47.04 -3.81,70.11 -0.65,3.84 -0.65,7.93 -1.49,12.02 -0.26,1.3 -0.57,2.64 -0.9,3.95 12.69,22.6 14.84,47.99 6.36,73.83 -0.1,0.35 -0.16,1.02 -0.14,1.23 3.07,12.66 2.22,23.59 0.91,36.39 -1.09,10.47 -3.78,25.11 -1.63,35.43 1.96,9.46 1.42,19.82 -1.4,28.75 -0.32,2.68 0.33,7.9 0.3,11.06 -0.1,11.14 5.89,25.22 9.36,35.68 4.03,12.24 6.38,24.12 5.67,37.1 -0.24,4.58 0.38,9.77 1.04,14.8 12.74,16.08 21.58,33.6 28.9,52.68 3.25,2.01 6.53,3.98 9.8,5.96l5.43 3.32 3.55 5.25c7.18,10.61 14.35,21.27 21.5,31.94 0.44,0.64 0.85,1.27 1.22,1.94 14.88,14.63 26.47,31.28 40.5,46.27 3.19,2.57 12.11,6.38 16.34,8.92l6.78 4.06 3.79 6.95c0.69,1.27 1.84,3.71 2.85,5.19 8.21,3.49 13.88,9.1 19.52,15.86 18.15,21.83 35.57,44.33 54.43,65.59 3.73,4.2 8.65,7.97 13,11.52 7.38,6.07 14.29,12.09 20.3,19.61 7.39,9.24 15.56,17.87 23.37,26.76 3.78,4.27 6.69,8.79 9.76,13.51 0.68,1.05 1.83,2.96 2.8,4.09 8.81,3.67 13.47,9.66 18.08,17.59 4.6,7.87 9.03,15.8 13.51,23.73l3.58 6.35 0.15 7.27c0.46,22.43 -9.18,40.55 -24.93,55.85 -19.64,19.08 -36.65,39.92 -58.22,57.16 -10.97,8.78 -20.56,19.57 -30.04,29.9 -11.76,12.8 -23.5,25.11 -37.52,35.51 -2.4,2.61 -5.11,7.23 -7.4,10.12 -12.53,15.76 -23.06,29.73 -39.6,39.81 -6.19,10.78 -14.84,19.47 -25.36,26.92 -9.54,6.75 -18.5,14.33 -27.38,21.92 -1.4,2.02 -2.62,4.18 -4.14,6.24 -5.95,8.03 -7.91,13.26 -17.63,18.92 -6.14,3.58 -13.74,14.5 -18.3,19.88 -10.74,12.62 -22.58,24.19 -33.45,36.65 -1.11,1.26 -2.9,3.17 -4.02,4.75 -2.53,11.68 -7.91,19.95 -15.28,27.83 -3.29,24.82 -5.33,49.84 -5.03,74.89 0.59,48.88 0.61,97.75 -0.42,146.61 -0.46,21.95 0.47,43.89 0.35,65.83 -0.04,6.56 1.17,13.58 1.57,20.18 0.87,14.19 1.85,28.38 2.32,42.57 0.22,6.55 0.33,13.06 0.44,19.58 0.53,-0.55 1.07,-1.12 1.61,-1.71 15.58,-17.02 30.24,-34.16 48.45,-48.59 4.12,-3.28 7.96,-7.94 11.37,-11.93 9.19,-10.84 18.62,-19.96 31.54,-26.33 0.88,-0.44 2.09,-1.51 2.79,-2.17 19.52,-18.54 39.09,-37.01 58.21,-55.94 8.38,-8.28 13.18,-17.48 23.1,-25.7 16.59,-13.73 29.19,-38.06 42.96,-55.23 4.48,-5.58 8.47,-11.33 13.29,-16.69 14.3,-15.88 28.84,-31.55 43.28,-47.33 8.74,-18.27 21.07,-28.12 34.31,-43.47 7.24,-8.4 15.06,-16.28 22.76,-24.25 0.21,-0.85 0.4,-1.69 0.61,-2.53l1.91 -8.01 5.86 -5.79c7.64,-7.55 14.89,-15.42 22.96,-22.52 17.55,-15.39 30.81,-31.03 51.55,-42.9 3.38,-2.51 10.48,-12.04 14.02,-15.75l5.29 -5.53 7.33 -2.2c8.2,-2.43 16.42,-10.49 21.86,-16.76 8.53,-9.82 21.67,-20.39 28.38,-31.16 3,-4.82 7.05,-9.07 11.77,-12.27 18.24,-12.23 33.33,-36.32 48.23,-52.64 3.62,-3.99 7.59,-7.45 11.69,-10.93 2,-1.69 3.92,-2.93 5.91,-4.27 8.71,-12.65 19.46,-22.04 31.01,-32.26 6.95,-6.1 15.4,-13.53 19.63,-21.93 3.28,-6.52 7.55,-10.85 12.78,-15.65 33.17,-30.37 64.46,-62.73 97.52,-93.19 8.99,-8.29 17.08,-17.77 25.52,-26.66 2.59,-2.75 8.42,-15.69 10.67,-19.64l2.77 -4.87 4.39 -3.49c12.2,-9.63 24.55,-18.65 38.24,-25.78 8.04,-22.46 12.88,-45.1 24.27,-67.17l3.91 -7.59 7.42 -4.23c5.27,-3.04 10.54,-6.03 15.8,-9.03 4.81,-6.56 9.68,-13.08 14.15,-19.85 6.96,-10.44 15.57,-19.01 25.59,-26.45 4.62,-3.42 9.53,-9.63 13.54,-13.86 13.08,-13.96 25.78,-28.24 39.21,-41.85 2.26,-2.29 8.68,-7.8 9.95,-10.13 8.57,-19.35 20.94,-34.97 31.13,-53.09 7.97,-14.14 17.13,-27.62 27.12,-40.38 8.82,-11.21 20.24,-16.82 33.77,-19.95 2.93,-0.68 10.79,-1.87 13.12,-3.07 14.52,-9.78 28.03,-6.35 42.94,-0.57 9.67,3.78 19.61,6.88 29.56,9.81 1.51,0.14 3.45,0.03 4.9,0.03 32.86,0.18 65.76,0.25 98.62,0.29 0.67,0 1.34,0.03 2.05,0.03 19.78,-6.98 33.84,-3.91 54.05,-5.68 7.69,-0.63 15.09,-0.32 22.43,2.47 7.33,2.79 15.86,3.39 23.66,3.71 12.09,0.49 23.98,0.42 36,2.15 12.3,1.76 19.85,1.62 30.95,9.17 2.19,1.52 7.48,1.62 9.91,1.66 17.84,0.14 35.97,0.88 53.7,-0.81 12.27,-1.2 23.34,-1.87 34.76,-0.11 7.69,-3.88 15.97,-6.24 24.51,-6.95 1.41,-2.05 2.82,-4.06 4.24,-6.1l5.85 -8.4 9.81 -2.82c6,-1.91 9.49,-3.39 16.29,-3.25 8.53,0.18 16,0.22 24.43,2.61 15.09,4.38 29.88,9.78 44.93,14.39 14.56,4.44 29.3,7.37 43.72,12.55 1.7,0.46 5.97,-1.1 7.48,-1.77 25.18,-11.17 50.11,-9.38 76.2,-3.14 3.7,0.88 8.85,2.97 12.44,3.53 27.05,-0.49 53.52,3.28 80.15,7.44 17.06,2.65 34.27,3.96 51.51,3.64 11.31,-0.25 25.99,0.77 36.95,-2.3 6.1,-1.72 11.67,-1.86 17.91,-1.79 42.84,0.49 86.04,0.88 128.6,-4.87 11.98,-1.63 23.69,-1.31 35.71,-1.38 1.27,0 6.46,0.04 7.69,-0.77 9.49,-6.32 20.91,-8.58 32.12,-8.65 51.87,-0.35 103.78,-0.35 155.67,-0.35 5.54,0 10.79,0.63 16.26,1.02l11.52 0.81 7.8 8.54c7.58,8.33 15.41,16.4 22.64,25.04 1.97,2.26 6.67,5.4 9.1,7.51 8.64,7.48 14.95,16.01 18.3,27.09l2.54 8.43 -2.58 8.36c-6.35,20.77 -14.06,43.02 -11.45,65.02l3.1 26.48 -26.13 5.19c-6.21,1.23 -12.12,2.82 -18.47,3.39 -3.46,0.31 -6.78,0.35 -10.13,0.31 -3.14,2.09 -5.96,4.2 -9.95,6.04 -12.19,5.57 -25.18,5.57 -37.62,0.77l-4.37 -1.69 -3.6 -2.96c-1.8,-1.49 -3.53,-3 -5.43,-4.38 -1.2,-0.92 -2.12,-0.95 -3.64,-0.85 -18.93,1.45 -37.87,2.69 -56.8,3.96 -3.28,0.24 -8.43,-0.07 -11.49,0.45 -20.56,3.78 -40.44,1.56 -59.73,-6.52 -5.4,-2.26 -10.13,-2.4 -15.51,0 -8.01,3.56 -14.39,4.02 -22.57,5.71 -11.35,2.3 -22.71,4.52 -34.06,6.78l-11.7 2.32 -9.91 -6.63c-2.44,-1.62 -5.01,-2.61 -7.94,-1.73 -7.76,2.3 -15.51,2.09 -23.35,0.64 -23.73,-4.45 -49.33,-2.58 -73.4,-2.54 -37.1,0.1 -74.19,-0.18 -111.29,-0.32 -11.32,-0.07 -22.6,-0.42 -33.92,-0.21 -11.14,0.21 -21.9,-1.2 -32.79,-3.35 -15.61,-3.11 -31.97,-3.88 -47.85,-5.01 -14.59,-1.06 -25.88,-1.48 -39.6,-8.4 -3.35,-1.73 -24.19,0.14 -28.98,0.04 -17.42,-0.46 -35.01,1.41 -52.43,2.04 -10.96,0.39 -26.73,-0.6 -37.09,3.29 -14.32,5.36 -24.9,3.35 -39.18,3.45 -10.43,0.11 -20.66,-2.33 -28.7,-9.38 -2.93,-2.58 -15.06,-2.01 -18.55,-2.05 -9.17,-0.07 -17.73,-0.95 -26.24,-4.87 -15.19,-6.98 -33.6,-4.86 -49.68,-2.71 -12.66,1.69 -26.56,2.47 -38.79,6.28 -6.24,1.94 -12.69,3.14 -19.18,3.63 6.77,1.45 13.15,4.2 19.08,8.54 25.35,3.31 43.3,14.8 66.78,25.28 7.41,3.32 15.2,5.4 23.35,5.19 2.5,-0.07 11.66,-0.28 13.81,-1.62l11.53 -9.64 14.52 3.99c9.18,2.51 18.34,4.9 27.48,7.55 7.86,2.22 14.45,3.56 21.82,7.51 3.95,2.12 7.55,2.86 11.88,1.63 21.65,-6.28 42.32,-3.14 61.04,8.99 1.3,0.6 4.72,1.03 6.31,1.2 6.18,0.71 12.83,0.07 19.08,0.07l6.91 0 6.18 3.11c9.34,4.8 18.72,9.56 28.1,14.31 1.52,-0.25 3.07,-0.53 4.59,-0.81l12.79 -2.19 10.15 8.12c2.72,2.22 5.51,4.41 8.22,6.63 7.2,0.7 14.14,2.29 21.27,4.3 6.13,1.73 12.69,3.99 18.97,4.91 11.2,1.65 20.83,4.26 30.4,10.74 0.03,0 0.07,0 0.1,0 2.12,-2.01 4.48,-4.72 6.46,-6.49 9.13,-8.25 19.99,-12.9 32.5,-12.44l2.15 0.07 2.16 0.39c10.78,2.05 19.57,7.94 26.06,16.68 0.63,0.84 1.2,1.72 1.76,2.61l22.89 0 8.64 9.94c2.75,3.21 5.54,6.43 8.32,9.64 19.64,2.32 42.95,-1.13 62.06,-0.89l11.21 0.11 8.15 7.65c4.2,3.96 19.36,6.28 24.83,7.52 20.2,4.62 37.37,9.74 52.35,24.61 0.92,0.18 1.98,0.32 2.76,0.43 22.6,3.21 37.26,18.65 42.52,40.47l3.92 16.26 -12.16 11.45c-4.63,4.34 -9.21,8.72 -13.79,13.05 -0.56,0.53 -2.33,2.25 -2.68,3.24 -3,26.73 -19.57,43.73 -43.19,50.53 -2.86,3.36 -5.72,6.74 -8.58,10.13l-10.75 12.72 -16.14 -2.92c-10.22,-1.1 -18.51,-4.06 -24.9,-13.72 -2.4,-3.59 -8.01,-4.23 -13.32,-4.09 -0.25,0.18 -0.5,0.35 -0.75,0.53l-8.25 6.46 -10.47 -0.36c-9.84,-0.38 -16.92,-3.7 -22.57,-9.2 -7.44,1.94 -14.7,2.68 -22.39,1.44l-2.18 -0.35 -2.09 -0.71c-12.02,-3.91 -19.74,-10.57 -27.26,-18.97 -15.68,-4.41 -30.43,-8.25 -45.03,-16.21 -8.57,-0.99 -16.74,-3.11 -25.31,-5.29 -5.44,-1.38 -12.34,-3.25 -18.06,-2.97 -5.15,0.21 -13.43,3.14 -18.75,4.27l-9.32 2.05 -8.71 -3.88c-10.72,-4.84 -18.44,-12.73 -24.16,-22.85 -0.56,-0.96 -1.09,-2.01 -1.58,-3.11 -15.83,-2.29 -30.33,-7.62 -45.7,-13.57 -10.86,-4.23 -22.43,-6.21 -34.06,-4.69 -14.03,1.87 -27.69,5.54 -40.94,10.43l-11.7 4.34 -11.18 -5.61c-12.93,-6.46 -23.02,-15.3 -33.14,-25.43 -4.72,-4.72 -9.66,-9.98 -14.91,-14.45 -19.82,-1.59 -39.67,-1.48 -55.46,12.94l-17.03 15.58 -18.93 -13.25c-5.65,-3.96 -10.54,-6.6 -15.66,-11.64 -7.12,-7.09 -13.5,-14.8 -20.52,-22 -1.34,-1.37 -2.4,-1.76 -4.34,-1.8 -15.12,-0.39 -32.36,-1.83 -47.25,1.38 -8.4,1.8 -16.5,1.73 -24.97,1.16 -25.39,-1.66 -51.01,-5.15 -76.48,-4.9 -20.69,0.21 -38.25,-5.72 -53.34,-20.1 -1.45,-1.38 -2.82,-2.79 -4.16,-4.23 -5.72,-1.13 -11.53,-2.23 -16.96,-2.4 -14.21,-0.39 -28.18,-1.94 -42.1,-4.02 11.52,4.12 21.75,10.22 30.36,20.02 0.04,0.04 0.07,0.07 0.14,0.11 16.11,4.66 30.96,12.58 43.8,23.27 27.29,3.78 53.34,11.14 79.47,20.28 30.53,10.61 59.2,26.09 85.58,44.78 7.52,5.36 15.44,9.14 24.33,11.74 20,5.82 37.84,10.22 55.08,22.42 14.59,3.78 27.36,10.19 40.72,17.17 13.75,7.2 28.53,12.62 43.3,17.35 21.44,6.81 40.34,17.56 60.97,25.96 12.9,5.25 25.81,10.57 38.72,15.86 12.9,5.29 25.81,10.54 38.71,15.83 1.73,0.71 3.42,1.62 5.12,2.36 20.34,4.27 39.35,12.06 56.97,23 20.56,2.32 35.72,10.5 54.58,17.98 10.3,4.05 20.53,8.43 30.68,12.9 5.92,2.64 11.49,5.82 17.2,8.89 2.19,1.2 3.95,2.47 5.72,3.95 12.72,6.46 25.6,12.48 38.01,19.58 7.23,4.16 18.37,11.6 26.94,12.53 8.92,0.96 16.43,4.63 23.8,9.42 5.75,3.74 15.97,11.39 23.24,11.65 12.05,0.44 23.84,6.68 32.26,15.15 4.48,4.52 12.58,7.83 18.3,10.31 27.19,11.83 48.1,29.58 58.53,58.09 0.95,2.39 3.28,5.78 4.58,8.18 4.41,8.22 7.06,16.57 7.2,25.99 0.25,24.09 -10.02,46.01 -33.21,55.55 -8.47,3.5 -17.59,12.28 -24.9,17.93l-6.95 5.34 -8.71 0.61c-17.45,1.2 -36.6,4.14 -53.8,0.1 -17.46,-4.09 -31.49,-14.75 -44.29,-26.7 -3.99,-0.23 -7.98,-0.44 -11.95,-0.53 -7.38,-0.21 -14.74,-0.05 -22.15,-0.05l-6.84 0 -6.1 -3.07c-12.55,-6.31 -21.62,-15.55 -28.75,-27.5 -3.45,-5.82 -6.24,-12.7 -9.91,-18.17 -3.7,-5.54 -6.07,-11.03 -8.04,-16.85l-3.14 1.33 -6.35 -0.23c-10.36,-0.35 -19.53,-3.98 -27.75,-10.25 -2.76,-2.11 -5.23,-4.74 -7.8,-6.78 -4.48,-2.01 -9.21,-3.76 -13.89,-5.5 -14.98,2.29 -28.64,0.66 -41.82,-10.15l-4.48 -3.66 -2.72 -5.12c-3.98,-7.5 -7.97,-15 -11.95,-22.51 -3.74,-1.07 -7.44,-2.1 -11.13,-3.16l-5.68 -1.6 -4.59 -3.69c-4.62,-3.71 -9.24,-7.42 -13.85,-11.14 -1.27,-1.05 -2.01,-1.32 -3.67,-1.28 -17.21,0.53 -32.47,1.24 -49.51,-3.1 -1.31,-0.33 -2.47,0.06 -3.39,1.03 -14.95,16.2 -37.51,17.77 -55.46,5.47l-7.66 -5.24 -3.17 -8.73c-4.98,-13.69 -9.95,-27.39 -14.91,-41.08 -8.33,-5.2 -16.64,-10.41 -25.01,-15.63 -0.77,0.25 -1.58,0.5 -2.29,0.67 -26.94,7.37 -41.85,1.1 -57.72,-19.96 -6.98,-1.51 -20.03,-2.01 -24.37,-2.68l-7.69 -1.09 -6.03 -4.76c-6.77,-5.36 -11.52,-7.62 -17.38,-14.84 -5.54,-6.81 -15.94,-11.18 -23.73,-14.63 -22.5,-10.02 -44.79,-20.56 -67.18,-30.82 -1.05,-0.49 -2.08,-1.02 -3.14,-1.55 -29.16,-4.06 -52.74,-17.1 -78.17,-31.09 -23.31,-12.84 -47.32,-24.37 -71.22,-36.07 -10.92,-5.33 -20.45,-9.42 -29.16,-18.59 -11.67,-12.23 -31.63,-18.26 -47.01,-24.12 -10.4,-3.95 -20.41,-6.49 -30.46,-11.7 -6.31,-3.24 -13.46,-7.02 -20.56,-8.04 -2.96,-0.46 -5.6,-1.06 -8.04,-1.8 5.43,4.27 10.82,8.54 16.29,12.73 5.08,3.95 10.93,7.3 16.32,10.82 10.13,6.59 19.43,10.71 28.57,19.32 17.84,16.85 37.97,31.06 55.88,47.96 9.49,8.96 20.74,16.25 31.42,23.62 10.32,7.09 20.73,14.77 31.9,20.49 15.8,8.01 31.03,17.24 45.53,27.47 14.1,9.91 27.79,20.24 38.96,33.49 3.7,4.45 10.18,7.66 15.16,10.4 23.31,12.9 46.09,26.64 68.9,40.33 16.01,9.58 31.55,21.28 48.28,29.41 21.54,10.49 39.1,24.84 57.19,39.94 4.94,1.54 9.84,3.09 14.77,4.64l6.42 2.02 4.87 4.66c9.56,9.16 18.9,18.52 28.74,27.41 12.79,11.62 20.45,26.46 19.67,44.07 -0.7,15.7 1.77,26.12 -3.56,42.36l-2.5 7.59 -6.07 5.24c-6.11,5.28 -12.73,8.82 -19.96,12.3 -1.59,0.75 -4.73,2.16 -6.6,3.36l-4.3 10.6 -12.48 4.26c-9.56,3.26 -19.14,6.53 -28.74,9.79l-10.82 3.7 -10.4 -4.74c-10.92,-4.84 -17.45,-5.07 -27.12,-14.95 -3.67,-3.74 -16.21,-7.95 -20.98,-10.06 -12.19,-5.4 -21.86,-9.64 -31.44,-19.46 -3.78,-2.42 -11.32,-5.08 -15.59,-7.3l-14.2 -7.44 -1.17 -16.03c-0.21,-3.05 -1.83,-3.6 -4.69,-4.88 -9.49,-4.26 -13.68,-9.26 -18.55,-15.16 -7.12,-0.59 -14.45,-0.69 -21.82,-2.26 -15.2,-3.24 -27.37,-10.67 -36.04,-22.14 -2.47,-0.48 -4.97,-1 -7.44,-1.62 -6.67,-1.67 -12.97,-4.11 -19.46,-6.25l-7.17 -2.35 -5.08 -5.53c-13.04,-14.17 -20.16,-30.57 -25.6,-48.13 -7.12,-0.54 -14.24,-0.82 -21.37,-1.28l-9.13 -0.58 -7.09 -5.72c-3.43,-2.74 -10.54,-8.91 -15.23,-9.37 -14.63,-1.47 -27.33,-9.78 -34.91,-21.95 -5.85,-2.82 -9.91,-6.51 -15.02,-11.06 -4.3,-3.81 -8.22,-7.99 -12.44,-11.81 -5.54,-4.96 -11.31,-9.59 -16.78,-14.57 -5.05,-4.58 -10.33,-10.92 -15.66,-14.83 -9.34,-6.92 -16.57,-12.27 -22.25,-22.11 -0.17,-0.11 -0.38,-0.25 -0.56,-0.39 -13.01,-8.5 -26.06,-17.07 -39.74,-24.51 -15.62,-8.47 -27.89,-20.63 -41.18,-31.98 -8.05,-2.18 -16.08,-4.37 -24.09,-6.59l-12.02 -3.32 -2.87 -5.43c-3.94,5.15 -8.41,9.14 -16.36,12.41 -3.42,2.39 -8.35,8 -11.75,10.85l-9.24 7.76 -12.02 -1.13c-10.42,-0.95 -19.75,-4.58 -27.19,-10.82l-3.16 3.14c-6.77,6.71 -13.73,13.19 -20.26,20.1 -18.1,19.15 -34.54,39.42 -54.36,56.95 -9.29,8.23 -16.68,17.99 -23.65,28.19 -8.89,13.01 -19.99,23.88 -32.68,33.18 -4.77,3.47 -9,7.39 -12.69,11.78 1.55,4.11 3.09,8.22 4.65,12.31l8.57 22.73 -20.92 12.31c-1.2,0.7 -2.39,1.41 -3.57,2.11 0.8,2.63 1.49,5.22 2.07,7.81 10.82,11.23 22.09,22.29 34.69,31.41 7.34,5.36 14.12,11.73 19.8,18.86 11.89,14.86 23.19,30.2 34.82,45.25 1.89,2.42 5.39,7.84 7.5,9.69 14.19,10.87 24.85,23.73 36.69,36.95 7.58,8.45 15.48,16.76 24.47,23.69 10.22,7.85 16.42,16.81 25.13,25.68 9.7,9.88 19.7,19.47 29.55,29.19l8.8 8.68 -0.17 10.82c1.39,2.87 5.16,7.87 8.43,12.21 13.61,8.28 27.23,16.56 40.83,24.85l11.64 7.09 1.94 13.48c0.91,6.51 3.59,13.78 5.11,20.33 3.07,13.22 3.56,25.95 -0.39,39.09l-1.65 5.5 -3.64 4.46c-10.36,12.67 -20.8,20.89 -37.8,22.9l-10.91 1.3 -9 -6.32c-2.15,-1.49 -4.3,-3.01 -6.45,-4.53 -28.16,4.94 -51.89,-5.97 -73.96,-23.4 -6.71,-5.3 -14.33,-13.05 -21.6,-17.18 -7.15,-4.1 -13.54,-9.87 -17.75,-16.99 -1.93,-3.26 -5.83,-6.53 -8.7,-8.94 -6.83,-5.73 -13.45,-10.89 -19.4,-17.64 -12.13,-13.84 -29.44,-24.09 -44.52,-34.46 -4.38,-3.02 -8.48,-6.34 -12.72,-9.51 -15.14,-11.28 -27.76,-23.55 -35.15,-40.29 -9.22,-6.72 -17.28,-14.48 -24.44,-23.7 -9.45,-12.16 -20.81,-22.74 -34.02,-30.73 -15.57,-9.42 -28.76,-20.84 -36.19,-36.67 -3.82,-1.66 -7.86,-3.15 -11.18,-4.62 -6.42,-2.85 -12.3,-6.09 -17.56,-10.07 -4.8,3.79 -9.59,7.59 -14.38,11.35 -16.88,13.31 -34.11,27.58 -46.39,45.45 -5.73,8.37 -11.91,12.75 -18.66,19.64 -18.4,18.79 -34.1,40.39 -51.22,60.37 -14.26,16.59 -25.36,33.33 -42.58,47.55 -1.17,0.96 -2.87,3.42 -3.75,4.65 -3.35,4.64 -6.48,9.17 -10.36,13.39 -12.28,13.4 -25.07,26.34 -37.6,39.49 -1.2,1.25 -2.5,2.41 -3.74,3.58 -5.47,12.03 -12.73,22.52 -20.56,33.19 -5.8,7.9 -12.3,16.24 -16.54,25.11l-3.61 7.53 -7.07 4.44c-11.33,7.09 -20.72,18.01 -29.29,28.09 -12.41,14.62 -24.12,28.66 -39.45,40.44l-5.66 4.37 -7.04 1.22c-2.04,0.33 -4.07,0.69 -6.09,1.03 -5.32,6.85 -8.55,11.98 -18.5,16.59 -2.27,1.07 -5.81,6.7 -6.93,8.4 -3.82,6.65 -5.47,11.01 -11.99,16.55 -2.76,2.33 -4.04,8.04 -4.8,11.35l-1.43 6.29 -3.99 5.08c-8.59,10.97 -16.76,22.42 -25.99,32.85 -10.56,11.94 -16.97,22.91 -30.33,33.03 -0.07,0.07 -0.18,0.15 -0.29,0.24 -0.03,1.26 0.87,3.54 1.31,4.46 11.98,25.24 25.11,39.19 49.01,53.64l7.47 4.54 3.7 7.91c3.99,8.52 8,17.02 11.98,25.54 1.67,1.21 3.35,2.42 5.03,3.63 16.5,11.82 30.59,25.79 41.52,42.98 10.22,16.07 23.61,30.13 37.1,43.44 18.9,18.67 39.98,35.11 60.11,52.39 18.12,-17.47 36.58,-34.61 54.79,-51.97 5.8,-5.54 11.29,-11.39 16.96,-17.05 11.35,-11.29 20.36,-21.17 34.92,-28.49 0.29,-0.29 0.59,-0.66 0.84,-0.95 12.98,-15.63 25.18,-28.15 44.79,-32.55 12.7,-8.03 25.46,-15.97 37.99,-24.25 1.58,-2.11 2.99,-4.18 4.89,-6.26 5.72,-6.23 9.8,-11.58 17.02,-16.53 4.18,-2.86 10.16,-6.96 12.53,-11.67 4.51,-9.01 12.42,-16.76 21.39,-21.34 5.39,-2.74 10.27,-8.95 13.97,-13.5 15.47,-19.03 37.53,-27.9 61.76,-28.56l14.5 -0.4 8.96 11.41c2.77,3.52 6.91,10.23 10.05,13.05 2.71,2.07 8.96,4.69 12.29,6.58l21.51 12.24 -6.3 16.48c5.3,3.5 10.61,7.03 15.9,10.54l16.84 11.13 -4.73 19.65c-4.6,19.11 -15.78,28.82 -31.48,38.52l-0.16 0.11 0.95 5.71 -6.31 9.47c-8.66,12.99 -19.89,22.04 -33.55,29.29 -8.13,4.32 -16.43,8.22 -24.76,12.11 -7.12,16.51 -18.12,30.26 -33.86,40.21 -2.26,3.32 -4.29,7.6 -6.69,10.96l-5.87 8.27 -9.75 2.79c-5.24,1.48 -10.46,2.99 -15.7,4.49 -1.63,2.78 -3.26,5.58 -4.85,8.38l-5.53 9.51 -10.43 3.43c-1.96,0.64 -3.5,4.68 -4.07,6.32 -6.63,19.59 -21.93,33.06 -41.46,39.02 -0.52,0.21 -1.14,0.51 -1.8,0.88 -0.53,1.77 -1.07,3.53 -1.59,5.3l-3.22 10.68 -1.16 0.7 0.9 2.71 -9.13 12.06c-3.29,4.37 -6.49,8.76 -9.86,13.04 -0.03,0.03 -0.05,0.05 -0.07,0.08 0.04,0.13 0.07,0.24 0.11,0.32 2.8,7.73 6.25,16.65 11.81,22.84 12.19,13.56 23.9,27.53 35.88,41.26 0.37,0.43 0.76,0.88 1.13,1.34 8.53,4.56 14.95,10.79 21.42,18.3 1.4,1.64 5.47,6.78 7.25,7.84l6.8 3.56 4.14 6.5c15.17,23.89 33.15,42.65 45.33,69.01 5.36,11.6 11.32,23.7 19.67,33.47 6.23,7.29 7.41,12.71 11.49,20.38 1.22,2.31 2.46,4.59 3.73,6.87 9.47,2.62 18.95,5.2 28.38,8 14.01,4.15 25.99,11.06 38.1,19.06 24.29,16 35.4,39.42 37.4,67.82 0.01,0.27 0.04,0.55 0.05,0.81 1.3,0.7 2.65,1.53 4.11,2.58 12.62,9.01 17.65,23.26 15.86,38.39l-3.37 28.59 -28.6 -3.31c-0.97,-0.12 -1.94,-0.23 -2.92,-0.34 -0.43,0.49 -0.88,0.99 -1.32,1.5l-10.37 11.58 -15.3 -2.29c-5.42,8.85 -13.73,15.01 -23.94,17.93l-16.1 4.61 -11.98 -11.71c-1.97,-1.92 -3.94,-3.85 -5.91,-5.78 -2.92,-0.83 -5.83,-1.64 -8.74,-2.48 -3.58,1.57 -7.18,3.12 -10.75,4.68l-10.63 4.62 -10.86 -4.03c-6.81,-2.45 -10.78,-2.96 -17.15,-7.82 -17.92,-13.71 -33.76,-29.69 -48.4,-46.79 -8.71,-10.17 -17.54,-20.2 -25.93,-30.62 -5.37,-6.67 -11.78,-11.51 -19.35,-15.45 -9.96,-5.18 -17.19,-13.7 -22.88,-23.18 -3.04,-5.06 -5.62,-10.27 -8.1,-15.52 -9.43,-3.83 -17.93,-9.4 -25.95,-16.28 -13.17,-11.29 -26.49,-22.47 -40.39,-32.86 -15.11,-11.31 -28.83,-23.99 -38.3,-40.48 -2.95,-5.14 -13.19,-12.76 -19.22,-18.22 -16.74,4.62 -32.24,3.58 -49.63,2.52 -5.41,4.3 -10.25,9.34 -14.9,14.39 -13.69,14.88 -23.73,29.84 -39.95,42.68 -2.9,2.29 -7.25,8.37 -9.97,11.32 -3.66,3.97 -7.27,7.95 -11.13,11.7 -10.15,9.83 -21.05,19.16 -30.63,29.57 -8.28,9 -15.4,19.4 -22.88,28.91 -2.92,3.95 -5.54,7.03 -9.85,9.94 -9.07,6.12 -18.82,24.29 -25.61,33.2 -4.12,5.38 -2.74,10.2 -0.39,16.22 3.56,9.11 6.91,17.89 9.02,27.49 2.16,9.78 7.26,18.51 13.1,26.51 14.72,20.16 32.05,37.85 51,54.03 16.52,14.09 30.35,30.55 46.34,45.04 8.16,7.39 19.36,13.28 28.26,20.27 14.91,11.69 29.87,23.28 43.67,36.28 16.57,15.61 31.97,32.34 47.59,48.88 7.42,7.85 15.83,15.38 25.79,19.84l5.8 2.6 4 4.6c3.02,3.13 5.4,5.86 7.51,10.1 5.21,10.4 11.31,21.13 22.74,25.49 11.16,4.23 17.2,10.5 25.95,17.71 4.99,4.1 6.94,7.58 10.64,12.29l6.66 8.48 -0.54 10.74c-0.83,16.9 -7.58,30.13 -16.61,43.83 -14.95,22.71 -29.65,42.46 -54.41,55.43 -2.27,1.19 -6.76,6.31 -8.45,8.22 -4.04,4.53 -7.76,11.13 -11.28,16.19l-4.06 5.84 -6.34 3.27c-6.08,3.16 -13.61,7.4 -17.16,13.47 -3.91,6.87 -8.22,11.99 -15.73,15.49 -3.21,1.48 -6.57,6.15 -8.57,8.9 -6.44,8.89 -11.8,17.15 -19.9,24.58 -9.62,20.26 -25.6,30.94 -45,39.98 -6.26,7.73 -12.54,15.44 -18.68,23.27 -2.48,3.17 -7.79,8.39 -9.81,11.69 -7.13,21.51 -19.95,32.31 -35.48,47.37 -16.84,16.32 -33.11,33.21 -49.34,50.17 -2.24,2.34 -5.07,7.53 -7,10.34 -16.1,23.47 -31.06,47.63 -48.6,70.11 -11.87,15.23 -19.28,31.45 -21.69,50.67 -2.64,21.12 -5.75,42.81 -4.92,64.14 0.4,10.07 0.55,19.24 -2.44,29.1 -2.95,9.72 -1.97,23.97 -2.26,34.08 -0.24,8.06 0.03,16.96 3.12,24.53 5.41,13.1 6.58,26.1 6.54,40.09 -0.04,16.1 -0.21,32.2 0.36,48.3 0.48,13.7 2.08,27.4 2.88,41.1 0.7,11.9 1.17,23.83 1.35,35.75 0.24,16.9 -0.51,33.9 0.37,50.77 0.59,11.48 1.06,26.1 7.25,36.25 5.73,9.41 7.4,19.89 7.69,30.68 0.48,17.55 0.33,35.09 0.34,52.64 0.03,37.05 0.06,74.11 -0.04,111.2 -0.01,5.79 -0.61,11.32 -0.97,17.05l-0.75 12.1 -9.18 7.94c-5.44,4.68 -11.66,7.85 -18.4,9.25 -0.23,31.29 -0.46,62.57 -0.47,93.85 -0.01,4.05 1.35,9.67 1.82,13.86 1.09,9.8 2.11,19.61 3.17,29.43l1.2 11.16 -6.67 9.04c-3.09,4.19 -6.18,8.38 -9.26,12.56 -0.18,60.27 -0.36,120.56 -0.24,180.82 0,1.62 0.08,5.18 0.6,6.63 10.87,22.31 13.48,45.15 2.97,68.14 -0.76,4.52 -0.96,8.11 -2.61,12.98 -3.57,10.42 -7.72,20.62 -11.65,30.91 -7.64,19.86 -24.52,32.1 -46.02,31.8 -22.77,-0.34 -41.86,-9.38 -50.54,-31.8 -3.63,-9.36 -7.89,-16.74 -10.18,-26.89 -6.64,-29.29 -13.11,-58.62 -18.33,-88.2 -2.62,-14.86 -2.37,-29.52 -2.3,-44.53 0.25,-65.87 0.8,-131.72 1.24,-197.59l0.03 -2.75 0.54 -2.68c4.5,-22.69 1.55,-47.29 -0.47,-70.14 -2.57,-28.67 -0.91,-57.13 -1.56,-85.82 -0.25,-10.97 -1.88,-22.06 -2.61,-33.04 -1.19,-17.53 -2.22,-35.07 -3.28,-52.61 -9.27,-12.22 -12.53,-26.44 -12.46,-42.1 0.08,-24.77 -0.31,-49.55 0,-74.31 0.32,-26.12 1.02,-52.22 3.13,-78.27 2.64,-32.52 0.11,-65.62 -0.58,-98.2 -0.3,-14.89 -2.37,-29.66 -2.5,-44.63 -0.36,-44.52 -0.13,-89.04 -0.15,-133.55 0,-2.93 0,-5.85 0,-8.8 -5.67,-8.85 -11.74,-18.34 -18.95,-25.12 -5.77,-5.45 -9.19,-11.46 -12.65,-18.41 -9,-18.03 -17.27,-36.48 -26.91,-54.19 -4.43,-8.16 -13.4,-15.2 -20.7,-20.68 -7.37,-5.54 -12.43,-7.06 -18.98,-15.18 -11.78,-14.67 -27.85,-26.62 -42.6,-38.16 -22.34,-17.49 -35.67,-39.61 -50.66,-62.92 -8.11,-12.57 -16.3,-25.4 -26.11,-36.73 -14.18,-16.36 -27.34,-33.55 -41,-50.35 -1.88,-2.3 -4.45,-6.26 -6.27,-8.02 -29.17,-21.28 -47.57,-49.05 -73.19,-73.56 -4.98,-4.77 -8.17,-9.81 -11.74,-15.53 -4.84,-7.76 -13.19,-14.86 -19.87,-20.98 -6.35,-5.83 -10.65,-12.46 -14.98,-19.8 -1.09,-1.85 -3.36,-6.05 -4.82,-7.51 -23.06,-20.6 -34.04,-46.33 -39.84,-76.17l-2.86 -14.67 10.36 -10.79c11.94,-12.44 25.18,-23.15 38.89,-33.54 27.41,-20.78 52.74,-44.04 75.71,-69.64 6.28,-6.99 11.89,-14.6 17.2,-22.35 7.47,-10.85 16.34,-19.54 28.07,-25.74 19.71,-10.4 38.17,-22.98 51.91,-40.8 5.79,-7.5 11.66,-10.97 18.92,-16.36 18.35,-13.61 35.51,-29.03 50.67,-46.16 0.98,-16.91 1.94,-33.82 2.92,-50.73l0.62 -10.71 7.46 -7.69c5.99,-6.2 15.63,-15.01 18.8,-23.29 2.81,-7.33 6.16,-11.26 10.25,-14.83 -19.46,-5.4 -33.67,-19.61 -40.84,-40.4 -1.25,-3.64 -2.99,-7.35 -4.77,-10.99 -0.94,-0.68 -1.91,-1.3 -2.85,-1.8 -24.06,-13.18 -42.75,-31.47 -61.4,-51.22 -5.19,-5.52 -11.7,-10.06 -17.97,-14.25 -22.3,-14.92 -42.89,-30.48 -58.88,-51.45 -10.12,5.51 -20.21,11 -30.27,16.6 -0.24,0.14 -0.47,0.26 -0.7,0.4 -7.57,10.14 -16.69,18.11 -26.92,25.79 -6.71,5.04 -13.8,9.86 -20.27,15.27 -8.16,16.76 -20.14,30.53 -36.92,39.24 -0.52,1.07 -1.01,2.19 -1.5,3.14 -2.48,4.97 -5.22,9.55 -8.85,13.8l-5.69 6.7 -8.47 2.36c-2.1,0.6 -4.19,1.19 -6.29,1.78 -20.84,31.42 -47.9,56.83 -82.95,72.63 -11,4.94 -19.6,2.49 -29.37,-2.4l-12.57 -5.58 -0.07 -0.21c-7.8,8.77 -16.46,16.5 -26.99,22.87 -2.19,2.99 -4.22,6.64 -6.57,9.66l-3.5 4.49 -4.96 2.83c-9.1,5.19 -18.2,10.37 -27.31,15.56l-8.31 4.73 -9.49 -1.17c-15.66,-1.93 -27.88,-10.12 -36.36,-23.09 -11.8,1.23 -22.98,-2.97 -31.48,-11.59l-13.99 -14.15 8.3 -18.11c1.8,-3.91 2.84,-10.41 3.92,-14.68 2.93,-11.59 7.22,-21.78 15.38,-30.77 9.87,-10.85 19.89,-21.55 30.52,-31.67 4.44,-4.23 8.32,-6.3 12.57,-7.73 2.66,-4.59 5.36,-9.15 8.24,-13.61 5.8,-8.98 12.23,-16.41 22.67,-20.12 2.72,-2.33 6.8,-7.88 9.38,-10.5 13.82,-14.18 27.44,-28.6 41.41,-42.62 4.85,-4.88 9.14,-11.25 13.5,-16.64 7.84,-9.69 16.32,-17.82 27.52,-23.64 3.09,-1.59 6.88,-6.1 9.1,-8.62 6.25,-7.18 11.95,-13.78 19.59,-19.57 10.5,-25.32 28.29,-35.19 48.06,-53.26 0.34,-0.31 0.67,-0.6 0.98,-0.89 0.55,-4.75 1.09,-9.52 1.63,-14.26l0.62 -5.47 2.33 -4.34c1.43,-3.19 2.88,-5.9 4.9,-8.51 -7.91,-13.61 -18.25,-25 -31.78,-33.16 -4.36,-2.63 -10.42,-8.18 -14.58,-10.66l-7.32 0.67 -8.02 -4.79c-22.58,-13.41 -41.5,-23.06 -53.7,-48.17 -1.92,-3.91 -5.25,-6.92 -8.71,-9.45 -10.44,-7.65 -17.98,-17.2 -25.75,-27.32 -4.83,-6.3 -13.28,-21.02 -19.75,-25.24 -6.74,-4.4 -12.02,-11.06 -15.2,-18.42 -3.86,-8.93 -11.49,-16.79 -18.98,-23.67 -0.2,-0.02 -0.37,-0.04 -0.55,-0.07l-16.55 -2.35 -5.78 -14.55c-26.06,-13.28 -37.02,-37.95 -39.28,-67.03 -2.12,-2.28 -4.23,-4.58 -6.27,-6.93 -5.98,-6.86 -11.97,-13.54 -17.33,-20.9 -10.49,-14.4 -13.14,-31.12 -7.84,-48.16l2.52 -8.07 6.49 -5.43c7.89,-6.61 15.69,-13.32 23.68,-19.79 11.84,-9.58 25.95,-13.86 41.05,-13.9 4.19,-0.01 8.37,-0.11 12.57,-0.23 9.29,-8.06 21.58,-11.73 35.3,-10.6l8.69 0.73 6.84 5.41c5.29,4.19 10.52,8.45 15.88,12.53 2.24,1.71 4.7,4.1 7,5.76 20.08,6.82 34.36,20.2 44.23,38.06 21.8,13.11 40.37,29.86 53.81,51.6 24.65,11.03 41.57,27.75 62.68,44.38 4.55,3.59 8.72,7.51 12.21,12.15 4,5.29 7.82,10.74 11.61,16.18 8.38,3.05 15,6.41 20.81,13.67 24.72,11.5 37.81,30.1 55.06,50.61 8.14,9.71 15.86,19.75 23.6,29.79 0.79,1.02 1.81,1.94 2.92,2.77 2.83,-1.75 5.32,-3.68 6.69,-5.71 4.59,-6.72 10.6,-12.73 17.57,-16.95 20.36,-12.37 36.49,-30.56 51.26,-48.95 4.34,-5.41 9.18,-9.81 14.01,-14.67 2.52,-2.55 6.2,-5.27 8.49,-7.8 8.58,-13.55 19.15,-25.09 30.36,-36.49 8.86,-9.04 18.26,-18.05 25.98,-28.13 9.99,-13.02 19.82,-26.17 29.78,-39.2 5.32,-6.94 7.87,-11.65 16.02,-16.55 12.07,-7.23 23.37,-23.04 34.24,-35.93 -7.48,-9.08 -11.73,-18.25 -18.43,-27.99 -5.58,-8.12 -16.46,-16.46 -23.65,-23.41 -5.05,-4.55 -9.04,-6.5 -13.77,-12.46 -10.41,-13.15 -21.86,-27.56 -36.21,-36.65 -5.43,-3.44 -8.99,-7.54 -12.73,-12.57 -1.26,-1.69 -11.24,-18.69 -12.58,-19.36 -14.78,-7.46 -23.31,-18.06 -34.72,-29.17 -5.83,-5.65 -10.09,-11.93 -14.43,-18.66 -0.83,-1.25 -2.25,-3.65 -3.38,-4.95 -9.12,-4.13 -12.9,-9.35 -19.38,-16.33 -18.87,-20.36 -37.66,-40.81 -56.47,-61.22l-4.11 -4.47 -1.96 -5.75c-0.5,-1.43 -1.98,-6.13 -3.05,-7.2 -0.08,-0.04 -0.14,-0.04 -0.22,-0.07 -10.14,-3.49 -14.42,-9.23 -19.93,-17.16 -2.37,-3.07 -5.33,-8.08 -7.92,-10.71 -2.32,-2 -6.47,-4.29 -9.21,-6.23l-7.48 -5.29 -3.05 -8.66c-1.51,-4.31 -3.08,-8.62 -4.57,-12.94 -0.69,-2.01 -1.82,-3.35 -3.49,-4.7 -20.1,-16.16 -37.79,-34.72 -54.46,-54.29zm-937.07 -799.45c13.29,0.84 26.68,4.62 40.13,10.22 6.81,2.82 12.93,3.14 19.65,0 9.3,-4.38 18.73,-8.08 28.32,-11.21 -3.16,-0.32 -6.31,-0.78 -9.51,-1.31 -19.68,-3.53 -40.58,-2.71 -60.55,-2.89 -1.79,0.46 -4.13,1.38 -5.76,1.9 -4.05,1.38 -8.17,2.47 -12.28,3.29zm2862.08 0.88c-5.97,-0.99 -11.85,-2.51 -17.6,-4.55 -1.44,-0.5 -4.83,-1.63 -6.42,-1.56 -20.13,0.46 -41.61,-0.81 -61.39,3.14 -1.87,0.39 -3.74,0.67 -5.61,0.96 8.75,2.4 15.45,3.67 23.56,9.27 10.36,7.2 18.44,4.98 28.88,-1.19 3,-1.77 5.58,-2.69 8.86,-3.6l3.45 -1.13 3.78 -0.21c7.51,-0.39 15.02,-0.74 22.5,-1.13zm-1432.22 2605.4c7.27,-8.97 15.63,-16.82 24.56,-25.2 37.14,-34.88 71.62,-72.49 105.55,-110.48 10.6,-11.87 19.78,-25.17 29.82,-37.55 11.92,-14.67 25.35,-28.61 36.21,-44.07 16.33,-23.22 34.1,-45.38 52.96,-66.62 -5.09,-7.44 -10.15,-14.89 -15.21,-22.33 -15.61,-8.82 -26.45,-23.63 -36.33,-38.59 -1.31,-1.98 -2.7,-4.63 -3.97,-6.27 -9.8,-10.27 -19.53,-21.57 -30.53,-30.88 -11.24,-9.49 -24.6,-17.35 -36.69,-25.78l-5.94 -4.14 -3.28 -6.43c-3.27,-6.43 -6.69,-12.97 -13.46,-16.21 -15.56,-7.42 -29.9,-20.35 -39.1,-34.91 -4.13,-6.57 -8.5,-11.61 -15.71,-14.71l-14.27 -6.15 -2.73 -15.3c-0.44,-2.48 -3.5,-6.05 -7.02,-9.53 -3.31,0.55 -6.6,1.07 -9.88,1.61l-11.39 1.87 -9.55 -6.5c-1.32,-0.91 -2.66,-1.82 -4,-2.73 -3.58,3.43 -7.09,6.93 -10.11,10.6 -10.46,12.78 -21.13,23.39 -35.87,31.31 -2.13,1.15 -5.44,4.2 -7.44,5.75 -5.97,4.69 -12.01,8.44 -18.99,10.89 -11.05,16.67 -24.66,25.97 -39.95,38.48 -4.31,3.53 -8.39,7.34 -12.29,11.28 -9.11,9.18 -17.37,18.9 -27.04,27.57 -6,5.37 -11.21,12.26 -16.21,18.55 -12.38,15.53 -23.52,30.93 -39.53,43.17 -9.29,7.11 -17.07,16.34 -24.61,25.2 -1.55,1.84 -3.3,5.45 -4.98,9.31 0.04,0.11 0.07,0.21 0.11,0.31 0.52,1.52 1.04,3.05 1.55,4.58 5.63,5.43 11.5,11.3 17.41,15.21 19.64,13.03 34.67,30.62 46.75,50.65 6.04,10.02 14.27,17.34 24.5,22.9 13.98,7.61 22.39,17.09 33.8,27.41 12.52,11.31 21.11,25.68 23.52,42.58 0.88,6.23 2.16,12.38 3.44,18.54 6.99,7.53 13.75,14.29 19.23,23.91 2.3,4.04 4.94,6.79 8.59,9.63 10.49,8.16 20.76,16.18 29.66,26.17 12.67,14.23 23.57,29.81 36,44.18 0.8,0.92 1.6,1.81 2.43,2.72zm181.62 -1096.78c-19.96,-8.11 -35.52,-24.38 -46.96,-42.42 -9.59,-15.11 -22.14,-27.77 -35.54,-39.49 -6.09,-5.33 -11.35,-11.67 -17.42,-16.8 -19.6,-16.62 -37.61,-39.34 -59.04,-52.94 -4.93,-3.1 -9.22,-7.16 -12.38,-12.04 -2.69,-4.17 -9.37,-8.47 -15.08,-11.91 -1.77,0.08 -3.59,0.43 -5.39,0.93 -5.75,11.12 -13.79,20.41 -23.03,29.85 -14.79,15.06 -29.1,30.85 -41.04,48.31 -4.72,6.92 -10.96,12.8 -17.8,17.6 -10.38,7.26 -21.1,13.99 -31.73,20.87 -2.25,1.46 -4.44,2.5 -6.65,3.62 -6.97,9.33 -15.59,16.11 -25.43,21.5 -2.04,8.05 -4.13,15.88 -7.99,23.85 -5.84,12.1 -13.73,21.37 -21.17,32.27l-3.98 5.82 -6.22 3.33c-3.14,1.69 -6.28,3.37 -9.44,5.05 -6.24,11.93 -12.8,22.72 -22.52,32.27 1.66,6.5 4,13.18 7.79,17.6 8.67,10.12 17.45,20.14 26.79,29.65 11.83,12.02 23.59,24.63 36.71,35.24 9.93,8.03 16.36,17.2 23.55,27.51 2.84,4.08 6.98,10.2 11.21,13.01l5.32 3.54 3.33 5.46c12.77,20.91 33.47,35.67 53.79,48.58 17.74,11.28 33.42,24.03 46.09,40.97 0.11,0.12 0.21,0.26 0.32,0.41 10.04,-2.67 20.09,-5.32 30.04,-8.34 2.18,-0.66 3.86,-1.65 5.39,-3.36 7.22,-8.05 14.53,-15.59 23.64,-21.58 13.08,-8.6 26.13,-18.36 34.95,-31.52 2.96,-4.43 6.23,-7.64 9.87,-11.38 14.24,-14.66 27.71,-29.9 42.96,-43.58 6.38,-5.72 11.93,-13.2 17.34,-19.83 7.51,-9.15 15.12,-17.51 24.54,-24.48 0.36,-0.72 0.7,-1.46 1.08,-2.14 8.65,-16.55 20.76,-30.3 34.83,-42.42 2.23,-1.9 4.38,-4.01 5.77,-6.64 3.69,-6.96 7.26,-13.48 12.34,-19.6 1.71,-2.06 2.76,-4.33 3.38,-6.71 -8.8,-9.61 -17.59,-19.49 -27.58,-27.43 -8.74,-6.95 -16.6,-14.89 -24.64,-22.61zm-174.87 -1508.52c-3,2.72 -6.09,5.37 -9.81,7.73 -6.38,4.09 -12.05,5.71 -18.47,8.85 -0.33,0.15 -0.66,0.32 -1,0.46 -7.97,9.14 -17.07,15.3 -27.03,22.57 -3.99,2.93 -10.01,7.27 -12.14,11.91 -3.68,8.08 -8.47,11.81 -15.24,16.29 -5.43,5.01 -10.74,10.13 -16.01,15.3 -4.97,4.94 -8.57,9.74 -14.28,14.28 -1.47,1.16 -4.32,3.42 -5.23,5.19 -3.79,7.37 -7.74,10.39 -13.11,15.9 -2.32,2.36 -5.76,5.01 -7.71,7.3 -13.88,18.79 -27.82,37.69 -41.23,56.98 -10.33,14.8 -23.12,29.9 -27.96,47.64 0,0.07 0.03,0.14 0.05,0.21 7.22,10.68 15.17,20.91 22.74,31.34 5.85,8.12 14.69,15.2 22.24,21.62 9.53,8.11 18.39,16.04 26,25.6 5.8,3.07 10.89,7.27 15.45,12.41 3.18,3.56 5.78,7.72 8.91,11.17 7.93,8.75 16.85,20.45 26.37,27.29 15.55,11.21 27.9,25.47 42.91,36.67 11.4,8.54 23.99,15.48 35.92,23.45 5.62,-4.27 11.37,-8.18 18.62,-11.31 3.53,-1.55 5.79,-3.21 8.2,-6.21 10.41,-12.9 23.2,-22.32 39.49,-26.31 4.3,-1.06 8.33,-5.32 11.05,-8.46 2.17,-2.54 7.55,-7.76 9.03,-10.4 7,-12.69 16.79,-22.6 29.25,-29.98 4.01,-2.36 6.97,-7.09 9.2,-10.99 5.24,-9.21 11.65,-17.14 18.14,-25.43 8.2,-10.43 16.75,-20.63 25.15,-30.88l6.58 -8.05 10.17 -2.01c1.09,-0.21 2.84,-3.77 3.17,-4.58 3.82,-9.28 8.01,-11.99 14,-18.41 0.13,-0.74 0.16,-1.83 0.16,-2.4 0.02,-6.24 -2.91,-9.66 -7.67,-13.43l-10.54 -8.29 -0.41 -13.46c-0.12,-3.67 -10.37,-20.67 -12.3,-25.15 -5.6,-12.9 -17.8,-22.85 -28.39,-31.73 -24.44,-20.41 -47.86,-39.77 -65.75,-66.36 -1.09,-1.37 -3.18,-3.14 -4.56,-4.48 -8.03,-7.76 -14.29,-10.57 -20.58,-21.44 -3.7,-6.38 -9.81,-12.02 -15.27,-16.89 -8.5,-7.62 -16.88,-14.66 -24.3,-23.3 -1.05,-0.15 -2.36,-0.22 -3.8,-0.22zm711.71 -62.55c-3.39,31.45 -23.91,51.05 -51.41,65.09 -2.51,1.27 -10.38,4.91 -12.49,6.88l-7.61 12.87 -15.31 0.92c-14.46,0.84 -28.93,1.72 -43.39,2.57l-14.02 0.81 -9.3 -10.5c-10.14,-11.46 -20.66,-22.6 -30.25,-34.55 -11.14,-13.89 -15.8,-31.59 -10.84,-49.02 0.55,-1.9 -2.16,-9.35 -2.78,-11.07 -15.78,-45.2 5.8,-89.42 49.35,-107.86 44.23,-18.72 88.13,-10.22 123.79,21.26 26.94,23.77 34.15,58.15 27.75,92.49 -0.74,4.02 -1.93,6.95 -3.48,10.12zm-1244.44 2380.85c-4.85,32.45 -26.36,51.69 -54.64,66.67l-6.54 3.46 -1.21 -0.01c-2.06,2.34 -4.08,4.86 -6.4,7.05l-7.56 7.2 -10.4 0.68c-14.25,0.94 -28.51,1.88 -42.76,2.83l-13.14 0.87 -9.28 -9.39c-3.88,-3.93 -7.85,-7.66 -11.52,-11.77 -3.32,-3.76 -7.07,-9.52 -10.54,-12.71 -17.43,-16 -25.9,-36.42 -20.76,-60.08 0.6,-2.83 -1.12,-7.63 -2.06,-10.14 -15.42,-41.83 1.84,-86.09 41.82,-105.97 45.25,-22.48 93.05,-16.02 130.29,17.88 27.25,24.84 35.59,59.97 27.62,95.37 -0.69,3.09 -1.65,5.55 -2.91,8.07zm-28.89 -2384.06c-3.96,34.94 -26.72,57.65 -58.4,71.15 -3.85,1.62 -6.57,4.52 -9.28,7.66l-7.8 8.96 -11.82 0.84c-17.68,1.34 -34.59,3.92 -52.32,0.53l-9.53 -1.8 -6.5 -7.23c-8.66,-9.63 -17.51,-19.04 -25.9,-28.88 -13.05,-15.27 -19.16,-33.78 -13.64,-53.63 0.35,-1.27 -1.94,-7.87 -2.36,-8.99 -16.43,-46.66 4.77,-92.7 51.2,-110.09 24.13,-9.03 48.57,-11.77 73.59,-4.45 56.88,16.64 90.19,68.38 72.74,125.92zm1240.42 2454.44c-1.4,1.19 -2.79,2.44 -4.23,3.55 -11.71,8.92 -26.01,12.76 -40.5,9.18 -16.67,-4.14 -33.26,-8.68 -49.89,-13.05l-11.98 -3.16 -5.95 -10.86c-7.27,-13.23 -14.75,-26.35 -21.63,-39.79 -3.88,-7.59 -5.44,-15.99 -5.61,-24.45 -0.23,-11.92 -0.09,-23.86 0.27,-35.78 0.56,-18.69 9.23,-34.64 25.51,-43.94 11.16,-18.39 25.55,-23.11 43.68,-33.85l7.77 -4.62 9.01 0.65c38.1,2.73 63.47,20.77 91.03,44.93l4.32 3.79 2.55 5.15c7.25,14.75 7.98,30.58 7.09,46.67 -0.78,14.34 -1.57,28.34 -5.32,42.31 -6.94,25.89 -19.16,46.4 -46.11,53.29z"/>
   <path class="fil1" d="M5687.01 855.38l-0.14 -4.34c5.93,-7.23 12.34,-13.71 19.32,-19.46 6.99,-5.79 17.67,-8.82 31.87,-10.82 6.18,-0.89 13.19,-2.51 21.37,-3.25 8.15,-0.74 15.09,-2.89 21.3,-5.4 7.94,-3.24 15.19,-4.34 21.33,-4.34 12.27,0 24.55,0 36.81,0 12.27,0 120.13,15.2 130.33,13.75l0.07 2.19 64.39 0c12.3,0 21.4,-2.19 27.43,-6.49 4.06,-1.45 9.18,-0.74 15.41,2.15 26.8,7.2 52.36,7.2 76.69,0 6.03,-2.89 11.63,-3.99 16.75,-3.24 5.15,0.7 11.8,1.79 20.06,3.24 12.34,2.89 32.82,4.34 61.46,4.34 28.67,0 51.09,-1.45 67.38,-4.34 6.11,0 11.74,-0.39 16.82,-1.09 5.08,-0.71 9.74,0.35 13.89,3.24 16.43,1.45 32.82,2.54 49.19,3.25 16.4,0.7 125.04,-2.12 140.97,-9.74 8.26,-3.91 18.09,-3.1 30.75,2.19 8.11,3.35 17.45,2.15 27.54,-2.19 2.04,0 4.09,-0.35 6.1,-1.09 2.05,-0.71 5.08,-1.06 9.17,-1.06 10.22,0 19.43,0 27.62,0 8.18,0 17.38,0.95 27.68,2.15 2.04,0.25 12.87,2.19 32.4,6.49 19.57,4.34 30.56,6.99 32.51,8.68 6.49,5.54 11.7,14.03 16.11,24.86 4.44,10.79 8.82,19.82 13.15,27.01 0.1,2.9 -0.89,4.34 -2.93,4.34 -5.82,10.09 -14.77,17.32 -27.05,17.32l-116.6 0c-16.33,0 -31.59,2.85 -45.7,8.64l-12.31 0 -15.47 -4.34c-20.24,5.78 -131.81,7.94 -150.25,6.49 -18.44,-1.45 -37.91,-1.45 -58.29,0 -8.18,0 -14.24,2.89 -18.12,8.64 -1.87,5.79 -3.81,9.39 -5.78,10.82 -5.93,7.24 -9.28,14.78 -10.06,22.71 -0.74,7.94 -0.99,15.51 -0.77,22.71 2.85,25.96 4.19,51.55 3.98,76.8 -0.21,25.21 0.07,50.8 0.92,76.76 0.35,10.09 -1.48,17.31 -5.43,21.61 -6,4.34 -6.88,9.39 -2.58,15.13 6.42,8.67 9.81,18.75 10.15,30.29 0.78,24.51 1.55,48.66 2.33,72.46 0.74,23.76 2.54,47.92 5.4,72.42 0.24,8.67 0.03,17.66 -0.71,27.04 -0.7,9.35 3.14,18.38 11.63,27.03l0.14 4.34c-7.97,7.2 -11.27,15.49 -9.94,24.86 1.3,9.38 0.07,18.39 -3.74,27.04 -1.94,4.33 -3.35,7.93 -4.27,10.81 -0.95,2.88 0.7,6.49 4.97,10.81 4.16,2.88 5.82,6.85 4.98,11.88 -0.89,5.06 0.81,9.74 5.04,14.06 4.23,4.33 4.45,10.8 0.64,19.46 0.07,2.89 1.69,5.42 4.83,7.57 3.14,2.17 4.76,4.69 4.83,7.58 4.48,11.52 3.81,22.34 -2.01,32.43 -4.02,2.88 -4.87,7.94 -2.61,15.13 6.39,7.22 9.7,14.78 9.95,22.73 0.25,7.92 -0.49,16.2 -2.26,24.86 -3.74,11.53 -2.47,19.46 3.85,23.79 4.16,2.88 7.33,6.49 9.52,10.81l3.21 4.31c-7.9,8.66 -11.7,17.31 -11.42,25.97 0.25,8.65 -0.49,16.57 -2.33,23.77 0.25,7.22 0.99,14.44 2.23,21.64 1.27,7.21 -0.04,14.42 -3.92,21.63 -1.9,4.33 -3.32,7.94 -4.23,10.8 -0.96,2.89 0.7,6.5 4.94,10.83 8.6,12.95 9.1,28.82 1.51,47.56 -3.95,4.33 -3.74,10.81 0.64,19.48 6.59,14.4 5.96,26.67 -1.91,36.76 -3.98,2.88 -4.94,5.4 -2.82,7.56 2.12,2.17 4.23,4.69 6.39,7.57 0.07,2.89 0.67,5.06 1.72,6.49 1.1,1.44 1.63,2.89 1.7,4.33 -7.87,10.1 -11.56,22.35 -11.1,36.75 0.28,8.67 -3.5,18.75 -11.28,30.3 -1.87,5.76 -1.7,11.52 0.53,17.3 10.46,7.22 12.72,13.68 6.77,19.46 -5.86,8.65 -8.64,17.29 -8.36,25.95 0.21,7.21 -0.07,14.42 -0.85,21.62 -0.81,7.23 -1.09,14.42 -0.85,21.63 0.08,2.89 -2.85,6.85 -8.81,11.9 -6,5.04 -11,8.29 -15.06,9.74 -16.36,0 -28.6,0.72 -36.74,2.15 -4.02,1.44 -8.57,2.89 -13.64,4.34 -5.08,1.43 -10.64,2.87 -16.75,4.33l-6.14 0c-14.52,-7.23 -28.45,-10.1 -41.67,-8.67 -13.26,1.44 -27.05,1.44 -41.4,0 -6.14,0 -11.31,-1.43 -15.48,-4.31 -6.24,-2.9 -11.45,-6.51 -15.69,-10.83 -2.15,-2.88 -1.2,-5.76 2.79,-8.65 7.76,-12.97 7.41,-23.79 -1.06,-32.43 -4.2,-4.33 -5.32,-7.22 -3.35,-8.66 3.92,-5.77 7.8,-12.97 11.6,-21.62 6,-4.33 7.94,-7.21 5.85,-8.66 -4.34,-8.65 -4.58,-15.13 -0.63,-19.46 0,0 -0.04,-1.43 -0.14,-4.32l-0.04 -2.17c-8.39,-5.77 -9.59,-12.25 -3.7,-19.46 5.85,-8.65 8.61,-18.75 8.22,-30.29l-4.41 -138.4c-0.25,-7.21 0.63,-12.25 2.57,-15.13 5.93,-7.21 9.28,-14.42 10.06,-21.63 0.77,-7.21 1.06,-14.4 0.84,-21.62l-1.94 -60.55c-0.17,-5.78 -3.42,-10.82 -9.7,-15.14 -4.3,-7.2 -4.48,-12.25 -0.49,-15.13 5.78,-11.54 8.5,-22.36 8.18,-32.44l-1.02 -32.44c-0.25,-7.21 -3.53,-13.69 -9.84,-19.46 -4.27,-5.76 -6.46,-9.39 -6.49,-10.81l-3.53 -110.29c-0.11,-2.89 1.87,-5.77 5.86,-8.65 3.98,-2.89 4.9,-6.49 2.71,-10.82 -12.62,-11.51 -13.01,-23.8 -1.16,-36.76 2.01,-1.44 1.94,-2.89 -0.14,-4.32 -8.44,-7.23 -11.71,-14.77 -9.95,-22.71 1.8,-7.93 -0.5,-15.51 -6.85,-22.71 -4.23,-4.34 -4.86,-8.29 -1.9,-11.87 2.93,-3.64 3.35,-6.88 1.2,-9.78 -4.34,-7.19 -3.49,-13.67 2.43,-19.46 1.98,-2.86 2.86,-7.2 2.68,-12.94l-0.42 -12.97c-0.39,-11.53 -3.7,-20.2 -10.05,-25.95l8.39 -25.96c3.71,-11.52 0.36,-20.2 -10.05,-25.99 -4.41,-10.09 -4.66,-17.27 -0.67,-21.61 5.89,-7.2 8.75,-13.68 8.57,-19.43l-4.8 -149.23c-0.24,-8.68 2.58,-15.86 8.54,-21.65 3.99,-2.85 5.96,-5.75 5.86,-8.64 -0.29,-8.64 -0.5,-15.12 -0.64,-19.46 -0.14,-4.34 -0.25,-8.29 -0.35,-11.92 -0.14,-3.6 -0.25,-7.55 -0.39,-11.88 -0.14,-4.3 -0.35,-10.82 -0.63,-19.46 -0.18,-5.75 -5.4,-8.64 -15.62,-8.64 -12.27,0 -24.02,-0.36 -35.3,-1.1 -11.27,-0.7 -22.99,1.1 -35.11,5.44 -3.99,2.85 -13.19,5.32 -27.47,4.3l-222.39 -15.9c-10.19,-0.74 -25.74,-5.43 -46.55,-16.22 -20.8,-10.82 -34.37,-19.81 -40.76,-27.01zm623.3 80.78l0 0 0 0zm-213.99 1461.88c-4.48,-12.97 -2.79,-23.79 5.11,-32.44 7.9,-8.65 7.66,-16.56 -0.78,-23.78 -8.36,-5.76 -8.57,-12.25 -0.59,-19.47 11.94,-10.08 12.61,-20.17 2.08,-30.28 -10.54,-10.1 -11.85,-18.74 -3.88,-25.95 5.99,-4.33 8.39,-9.37 7.19,-15.13 -1.23,-5.78 -0.88,-11.52 0.96,-17.3 -0.15,-4.33 3.84,-7.94 11.94,-10.81 10.13,-2.89 19.71,-6.13 28.82,-9.74 9.1,-3.6 18.79,-4.68 29.06,-3.24 16.35,0 31.62,-2.16 45.8,-6.5 3.99,-2.88 9.56,-4.32 16.71,-4.32 7.2,0 13.82,0 19.96,0 14.24,-2.89 27.05,-2.17 38.43,2.17 11.35,4.32 23.24,7.92 35.61,10.8 10.36,4.33 17.74,11.53 22.18,21.63 2.15,4.33 3.42,11.52 3.74,21.63 0.28,8.65 3.64,17.29 10.06,25.95 4.23,4.33 4.37,9.37 0.46,15.13 -6,4.33 -6.85,9.39 -2.58,15.14 8.36,5.77 9.56,10.8 3.56,15.13 -9.87,11.52 -14.1,23.79 -12.62,36.76 1.41,12.98 3.39,25.97 5.82,38.94 8.44,7.21 12.76,14.76 13.01,22.7 0.28,7.94 0.5,15.49 0.74,22.7 0.36,11.54 -7.62,17.3 -24.01,17.3 -8.22,-1.44 -15.9,-1.8 -23.03,-1.08 -7.16,0.72 -14.84,-0.36 -23.13,-3.24 -8.29,-4.32 -17.49,-4.32 -27.58,0 -4.05,1.44 -11.21,2.17 -21.44,2.17 -10.22,0 -17.94,-1.81 -23.16,-5.42 -5.22,-3.61 -12.94,-4.69 -23.1,-3.24l-9.21 0 -18.47 -2.18c-16.36,0 -29.24,-1.79 -38.54,-5.4 -9.32,-3.59 -19.22,-9.73 -29.73,-18.38 -4.23,-4.33 -7.45,-9 -9.67,-14.05 -2.18,-5.04 -5.43,-10.45 -9.73,-16.22z"/>
   <path class="fil1" d="M8231.74 1524.61c9.52,0 14.28,3.36 14.24,10.13 4.69,12.16 2.26,22.29 -7.37,30.4 -9.6,9.46 -17.98,18.57 -25.22,27.36 -7.19,8.78 -16.78,17.22 -28.77,25.33 -4.8,2.7 -7.2,5.41 -7.23,8.11 -0.04,5.4 -1.24,9.79 -3.67,13.16 -2.4,3.38 -6,7.1 -10.79,11.14 -4.8,4.05 -8.43,8.12 -10.82,12.16 -2.4,4.05 -7.2,7.44 -14.35,10.12 -4.79,2.71 -8.43,6.1 -10.82,10.15 -2.4,4.05 -6.03,8.11 -10.82,12.16 -9.59,8.1 -14.38,16.2 -14.45,24.31 2.36,5.4 -1.27,13.51 -10.89,24.31 -4.84,6.77 -8.43,13.16 -10.86,19.26 -2.4,6.07 -7.23,12.49 -14.42,19.24 -2.4,2.7 -3.03,5.74 -1.83,9.12 1.16,3.38 0.53,6.42 -1.87,9.12 -0.04,5.4 -4.83,9.47 -14.38,12.16 -7.2,1.35 -13.15,4.73 -17.95,10.13 -9.6,6.77 -15.62,13.84 -18.05,21.28 -2.44,7.43 -3.67,15.19 -3.71,23.3 2.33,6.76 -1.27,12.84 -10.85,18.23 -9.63,9.46 -24.62,24.66 -45.03,45.59 -20.42,20.94 -30.64,36.82 -30.71,47.62 -2.4,4.06 -4.83,8.12 -7.23,12.16 -2.43,4.05 -4.83,7.43 -7.23,10.12 -4.84,6.77 -9.03,13.86 -12.66,21.28 -3.63,7.43 -11.42,13.85 -23.38,19.26 -4.83,6.75 -11.42,13.5 -19.85,20.26 -8.36,6.76 -10.18,14.19 -5.47,22.29 -0.03,2.7 -1.23,5.4 -3.66,8.1l0 4.05 -3.6 2.04c-21.55,12.15 -31.17,24.32 -28.89,36.47 -14.34,9.46 -21.61,22.97 -21.72,40.52l-3.6 4.06 0 2.02 -10.82 12.16 -0.03 2.03 -3.6 4.05c-2.43,8.1 -6.03,15.53 -10.85,22.28 -4.84,6.76 -7.24,13.51 -7.31,20.26 -0.03,5.41 -2.47,10.81 -7.26,16.22 -4.8,5.4 -8.44,11.48 -10.86,18.23 -4.8,9.47 -12.02,18.56 -21.62,27.36 -9.63,8.78 -15.65,18.58 -18.08,29.38 0,1.35 -6,5.4 -17.98,12.16 -9.56,5.4 -14.39,12.82 -14.46,22.29 -2.43,9.45 -14.42,16.87 -35.93,22.28 -16.67,1.35 -33.42,4.73 -50.14,10.14 -7.16,1.36 -14.91,2.02 -23.27,2.02 -8.37,0 -14.92,1.35 -19.71,4.06 -7.17,2.7 -14.35,4.05 -21.51,4.05 -7.17,0 -15.52,0 -25.04,0 -9.56,0 -20.28,-2.02 -32.19,-6.07 -4.73,-4.06 -10.09,-7.77 -16.01,-11.15 -5.96,-3.38 -11.28,-7.76 -16.04,-13.17 -2.33,-5.4 -8.25,-13.5 -17.7,-24.31 -11.9,-8.1 -17.76,-19.59 -17.69,-34.45 2.47,-9.45 -2.25,-18.89 -14.13,-28.36 -4.77,-2.7 -11.28,-7.79 -19.57,-15.2 -8.33,-7.43 -13.64,-13.17 -16.01,-17.22l-31.98 -36.47c0.04,-1.35 -0.56,-2.03 -1.76,-2.03 -1.2,0 -1.8,-0.67 -1.76,-2.02l-7.13 -8.1c0,-1.36 -0.6,-2.04 -1.8,-2.04 -1.16,0 -1.76,-0.68 -1.76,-2.03l-14.17 -18.23c-9.49,-8.11 -16.61,-13.5 -21.37,-16.21 -7.16,-2.69 -10.72,-5.39 -10.68,-8.11 0.03,-6.75 -2.29,-12.83 -7.06,-18.23 -4.72,-5.4 -9.49,-10.8 -14.2,-16.21 -4.73,-5.41 -8.89,-10.8 -12.41,-16.21 -3.56,-5.4 -8.89,-10.13 -16.04,-14.17 -9.53,-4.07 -16.04,-9.12 -19.57,-15.2 -3.53,-6.08 -8.89,-11.14 -16.01,-15.18 -11.88,-8.12 -21.97,-16.55 -30.26,-25.33 -8.29,-8.79 -19.57,-16.56 -33.84,-23.32 -9.53,-4.04 -14.25,-10.13 -14.21,-18.23 0.04,-4.06 -2.33,-7.42 -7.09,-10.14 -11.88,-6.76 -21.37,-14.51 -28.46,-23.3 -7.13,-8.78 -16.61,-16.54 -28.49,-23.29 -4.73,-5.42 -9.46,-11.49 -14.18,-18.25l0.04 -6.08c-2.4,-2.7 -3.56,-4.05 -3.56,-4.05 -9.53,-5.41 -16.65,-10.8 -21.37,-16.21 -4.76,-5.4 -10.68,-11.47 -17.81,-18.22 -16.6,-9.47 -26.09,-19.6 -28.42,-30.41 0.07,-8.1 -8.86,-17.9 -26.66,-29.38 -17.81,-11.48 -32.68,-18.58 -44.61,-21.28 -19.04,-4.05 -30.92,-12.82 -35.61,-26.34 0.04,-5.42 -1.13,-8.79 -3.49,-10.14 -7.16,-4.05 -11.28,-8.45 -12.44,-13.17 -1.17,-4.72 -1.73,-9.8 -1.7,-15.19 0.04,-6.76 0.07,-13.84 0.14,-21.28 0.04,-7.43 1.27,-14.51 3.71,-21.26 2.43,-5.42 6.63,-10.47 12.62,-15.19 5.99,-4.75 11.38,-9.8 16.18,-15.21 4.83,-6.76 10.82,-13.84 18.05,-21.27 7.2,-7.44 9.63,-15.2 7.3,-23.3 -2.36,-1.37 -1.16,-4.73 3.64,-10.14l18.02 -18.24 10.85 -18.23c2.4,-6.76 7.23,-13.17 14.42,-19.25 7.2,-6.07 9.63,-12.48 7.27,-19.25 0.03,-2.7 1.23,-5.06 3.63,-7.08 2.4,-2.04 4.8,-4.4 7.2,-7.11 4.83,-6.74 9.63,-13.15 14.45,-19.24 4.8,-6.08 9.63,-12.49 14.42,-19.24 0.07,-5.42 2.47,-10.15 7.27,-14.19 4.79,-4.05 9.59,-8.79 14.42,-14.18 2.39,-2.71 4.79,-5.75 7.19,-9.13 2.4,-3.37 3.64,-6.42 3.64,-9.12 0.1,-12.14 6.13,-23.64 18.12,-34.44 4.8,-4.04 8.43,-8.78 10.82,-14.18 2.43,-5.4 6.03,-10.13 10.82,-14.18 9.59,-6.77 14.98,-13.85 16.25,-21.26 1.24,-7.44 5.47,-14.52 12.66,-21.3 0.07,-10.78 4.3,-20.59 12.69,-29.37 8.39,-8.79 15.01,-17.91 19.85,-27.37 7.23,-10.78 14.45,-20.59 21.68,-29.37 7.2,-8.79 9.63,-18.59 7.34,-29.38 0.04,-8.11 3.67,-16.22 10.89,-24.33 9.6,-9.46 17.42,-18.9 23.45,-28.36 6,-9.49 11.42,-19.6 16.29,-30.39 4.76,-2.72 6.6,-6.43 5.43,-11.14 -1.16,-4.73 0.67,-10.47 5.47,-17.24l7.23 -10.13c2.4,-2.71 3.6,-4.06 3.6,-4.06 0.07,-8.11 4.31,-15.51 12.66,-22.28 8.43,-6.77 11.45,-14.17 9.1,-22.29 2.43,-4.05 7.83,-8.11 16.18,-12.16 8.4,-4.05 16.15,-6.06 23.31,-6.06l93.01 0c11.95,0 25.07,0.31 39.39,1.02 14.3,0.63 28.62,0.99 42.9,0.99 7.2,0 13.11,2.71 17.88,8.11 4.72,5.4 14.24,9.45 28.53,12.16 19.04,6.74 28.53,14.84 28.45,24.3 -2.43,10.82 2.26,22.28 14.11,34.44 0,0 0,3.39 -0.04,10.15l-3.6 2.01 -3.63 4.06c4.76,5.4 7.09,10.82 7.09,16.22 -0.07,5.4 2.29,10.12 7.06,14.17 4.72,6.74 8.89,12.83 12.4,18.23 3.53,5.4 10.09,10.12 19.61,14.17 11.88,6.77 17.77,17.56 17.66,32.44 2.29,14.84 4.62,24.96 6.99,30.36 2.32,5.43 13,15.55 31.97,30.44 11.88,10.78 21.94,20.91 30.26,30.39 8.29,9.46 15.97,20.91 23.03,34.45 2.36,2.68 3.56,5.05 3.53,7.09 0,2.01 2.36,4.38 7.12,7.09 14.28,6.74 21.97,14.84 23.1,24.3 1.13,9.47 7.65,17.58 19.53,24.33 -0.03,8.1 2.9,15.52 8.82,22.28 5.93,6.76 12.45,13.5 19.57,20.26 16.5,27.02 43.8,50.66 81.84,70.92 14.28,5.41 17.81,12.83 10.57,22.28 -9.59,8.12 -9.63,16.23 -0.14,24.33 0,0 2.37,2.7 7.09,8.11 4.73,13.5 -2.5,22.29 -21.61,26.34l-35.82 6.08c-4.77,0 -9.56,1.35 -14.35,4.07 -4.8,5.4 -9.63,10.12 -14.42,14.17 -4.8,4.05 -9.6,8.11 -14.38,12.16 -4.8,2.69 -7.2,7.42 -7.24,14.18 -2.43,4.04 -6.03,8.78 -10.82,14.17 -21.58,17.56 -35.36,29.38 -41.39,35.45 -6,6.08 -15.02,18.58 -27.08,37.49 -2.4,4.05 -5.44,8.45 -9.04,13.16 -3.59,4.73 -7.79,9.13 -12.58,13.17 -9.63,12.15 -19.85,23.98 -30.64,35.46 -10.82,11.47 -18.65,23.31 -23.48,35.45 -0.07,5.42 -4.87,9.46 -14.42,12.16 -11.95,4.05 -23.91,7.77 -35.86,11.13 -11.95,3.39 -25.07,5.07 -39.38,5.07 -11.92,-1.35 -22.04,-1.68 -30.44,-1.01 -8.32,0.68 -17.27,1.01 -26.8,1.01 -19.11,0 -33.39,-4.05 -42.87,-12.15 -9.52,-8.1 -9.45,-17.56 0.18,-28.36 4.79,-6.77 9.62,-12.84 14.41,-18.25 4.83,-5.4 9.63,-11.47 14.42,-18.24 4.87,-10.79 12.05,-18.23 21.61,-22.28 11.99,-6.75 17.98,-16.21 18.09,-28.37 0.07,-9.46 3.67,-15.53 10.86,-18.23 14.34,-10.81 23.97,-19.59 28.77,-26.35 12.02,-13.5 24.05,-27.35 36.07,-41.53 12.02,-14.18 27.61,-28.03 46.79,-41.54l0 -4.05c2.44,-6.76 3.67,-14.19 3.74,-22.29 0.04,-8.11 -3.49,-14.86 -10.6,-20.28 -14.28,-6.73 -23.74,-17.55 -28.43,-32.4 0,-2.72 -4.73,-6.75 -14.24,-12.14 -11.88,-6.77 -17.81,-14.19 -17.74,-22.29 -2.36,-6.77 -6.49,-13.18 -12.4,-19.26 -5.93,-6.07 -8.86,-12.49 -8.82,-19.25 -16.57,-21.61 -35.51,-43.22 -56.84,-64.83 -2.4,-2.71 -5.36,-5.42 -8.93,-8.14 -3.56,-2.68 -7.69,-5.36 -12.47,-8.08 -4.73,-2.71 -5.33,-5.08 -1.73,-7.09 3.6,-2.05 5.4,-4.41 5.43,-7.13 0,-4.02 -3.56,-6.73 -10.68,-8.07 -9.52,-4.06 -16.63,-9.49 -21.36,-16.22l-14.2 -18.23c0.03,-8.11 -3.5,-14.88 -10.61,-20.28 -7.13,-5.39 -14.24,-10.78 -21.37,-16.18 -4.76,-1.37 -7.13,-3.07 -7.13,-5.08 0,-2.04 -1.16,-4.41 -3.52,-7.09 -2.37,-4.06 -7.13,-6.1 -14.28,-6.1 -9.56,2.71 -14.35,4.73 -14.35,6.1 -2.43,6.74 -4.87,12.83 -7.27,18.23 -2.43,5.4 -8.43,10.12 -18.01,14.17 -4.77,0 -7.17,1.34 -7.17,4.06 -2.43,8.11 -7.26,15.86 -14.45,23.31 -7.2,7.44 -10.86,15.86 -10.89,25.32 -0.11,12.16 -8.5,22.28 -25.25,30.4 -7.2,4.06 -10.78,10.8 -10.86,20.27 -0.1,12.14 -6.1,20.94 -18.05,26.34 -14.38,8.1 -20.41,17.55 -18.08,28.36 -0.08,10.81 -8.47,19.6 -25.22,26.35 -7.2,4.05 -10.78,6.77 -10.78,8.12 0,2.7 2.36,5.06 7.09,7.08 4.76,2.03 4.76,4.4 -0.04,7.1 -21.54,12.16 -31.16,24.31 -28.85,36.47 -0.03,4.05 -3.66,9.47 -10.82,16.19l-0.03 4.07c-2.4,1.35 -3.63,2.03 -3.63,2.03l-10.79 12.15c-4.8,2.71 -7.2,5.4 -7.2,8.12 -2.43,4.04 -3.66,8.1 -3.66,12.14 -0.04,4.06 -2.44,8.11 -7.24,12.15 -4.79,5.42 -9.63,13.51 -14.45,24.33 -0.07,6.75 -1.31,11.46 -3.7,14.18 -4.8,5.39 -38.97,29.66 -43.8,34.37 -4.8,4.74 -8.4,10.48 -10.82,17.23l10.68 6.1 21.4 14.18c6.81,4.5 14.24,8.1 21.37,12.14 7.16,4.05 13.29,8.6 17.81,14.19 9.7,11.96 18.93,23.97 28.38,35.45 9.49,11.46 20.81,22.7 32.02,35.45 7.76,8.9 17.31,20.19 32.01,30.4 6.7,4.69 14.42,13.58 24.86,26.34 6.21,7.61 13.64,13.51 19.57,20.26 5.93,6.77 11.03,13.67 15.97,20.26 9.24,12.32 27.89,25.46 51.69,32.21 4.76,2.71 5.96,5.06 3.56,7.09 -2.4,2.04 -4.8,4.41 -7.23,7.11 4.76,2.7 13.08,9.1 24.93,19.24 11.88,10.13 23.73,20.94 35.58,32.42 11.87,11.47 22.53,22.28 32.01,32.42 9.49,10.12 15.4,17.21 17.77,21.26 11.88,6.75 25.52,17.22 40.92,31.4 15.41,14.19 23.24,27.54 30.19,35.47l3.57 4.04c11.91,2.69 19.64,6.42 23.2,11.15 3.53,4.73 5.89,10.11 8.85,15.19 1.8,3.1 3.53,4.05 3.53,4.05 4.8,0 65.09,4.41 69.86,1.71 2.43,-2.71 3.63,-4.05 3.63,-4.05l7.2 -6.1c4.86,-13.49 13.25,-23.63 25.25,-30.38 7.16,-4.06 10.01,-8.18 10.78,-12.16 1.69,-8.27 7.87,-15.87 16.25,-23.3 8.43,-7.42 10.93,-15.75 9.14,-25.33 -0.49,-2.64 1.83,-7.43 5.43,-14.18 3.64,-6.75 7.83,-11.47 12.62,-14.17l36.07 -40.53c5.51,-6.19 10.19,-12.49 16.18,-17.22 6,-4.73 5.83,-15.56 10.61,-20.95 4.8,-5.4 7.23,-10.48 7.27,-15.21 0.04,-4.72 2.43,-9.78 7.23,-15.19 4.8,-2.7 7.23,-6.42 7.27,-11.13 0.03,-4.73 1.23,-8.45 3.63,-11.14 4.8,-2.7 16.57,-1.57 20.14,-4.27 3.59,-2.71 7.79,-5.41 12.58,-8.12 4.8,-6.75 8.43,-13.5 10.86,-20.26 2.43,-6.74 7.23,-12.82 14.45,-18.22 0,-6.77 2.47,-12.49 7.27,-17.23 4.8,-4.73 9.59,-10.46 14.42,-17.22 4.79,-6.75 9.63,-14.53 14.45,-23.31 4.83,-8.79 12.62,-14.92 21.62,-21.26 10.25,-7.24 12.4,-12.27 12.44,-16.32 0.07,-10.79 4.3,-20.95 12.69,-30.4 8.43,-9.46 10.18,-9.31 17.38,-18.76 4.83,-2.7 7.8,-4.73 9,-6.08 1.2,-1.37 10.29,-12.13 15.01,-13.66 12.02,-3.87 17.99,-9.46 18.02,-16.2 0.07,-9.46 4.83,-22.2 18.12,-34.44 13.22,-12.19 24.58,-23.29 32.44,-36.47 1.83,-3.1 2.4,-6.09 0.03,-10.14 -2.36,-4.05 -1.51,-8.64 3.67,-12.15 6.85,-4.63 13.19,-10.14 18.02,-18.23 0,-1.35 1.2,-2.71 3.6,-4.06 2.47,-9.46 -24.23,-47.03 -24.19,-55.14 0.07,-8.1 -5.86,-15.52 -17.74,-22.29 -11.87,-6.75 -20.2,-13.51 -24.93,-20.26 -4.72,-6.75 -13.04,-13.51 -24.93,-20.28l-3.56 -4.03c-14.1,-29.73 -35.44,-54.71 -63.93,-74.97 -7.13,-4.06 -10.68,-8.79 -10.64,-14.17 -4.7,-9.49 -9.46,-15.55 -14.18,-18.23 -16.64,-9.46 -24.93,-18.94 -24.89,-28.39 -14.17,-21.62 -31.94,-41.19 -53.28,-58.78 -2.4,-1.34 -3.56,-2.33 -3.56,-3 0,-0.7 -1.2,-1.73 -3.56,-3.07l-7.16 -4.05c0,-1.34 -2.37,-3.36 -7.1,-6.07l-17.77 -18.23c0,-1.34 -1.19,-2.05 -3.59,-2.05l-3.53 -4.05c-7.13,-6.74 -13.04,-12.48 -17.81,-17.21 -4.72,-4.73 -9.45,-10.47 -14.2,-17.2 -4.73,-6.78 -10.06,-13.54 -15.97,-20.28 -5.93,-6.77 -12.41,-13.5 -19.54,-20.27 -4.76,-5.4 -10.68,-10.47 -17.8,-15.2 -7.13,-4.73 -11.85,-10.47 -14.21,-17.2l-3.53 -4.06 0 -2.05 -10.64 -12.16 0 -2.01 -3.57 -4.06c-2.32,-9.45 -9.41,-17.55 -21.29,-24.29 -2.4,-2.72 -4.77,-5.08 -7.13,-7.13 -2.36,-2.01 -3.56,-4.37 -3.53,-7.05 -4.72,-10.82 -11.81,-20.95 -21.29,-30.4 -9.49,-9.46 -17.74,-19.61 -24.87,-30.44 -4.72,-5.4 -9.45,-10.12 -14.2,-14.13 -4.77,-4.06 -8.29,-8.15 -10.65,-12.17 -7.09,-16.21 -15.33,-29.05 -24.82,-38.5 -11.85,-10.82 -21.34,-21.61 -28.43,-32.43 -4.72,-6.74 -8.85,-13.82 -12.37,-21.27 -3.53,-7.44 -6.49,-15.19 -8.82,-23.31 -4.69,-9.45 1.31,-14.17 17.98,-14.17l118.09 0c23.87,0 40.51,6.78 50,20.24 7.13,4.09 10.68,8.79 10.61,14.21 -0.07,13.5 7.02,26.34 21.26,38.5 4.73,5.4 11.81,14.84 21.27,28.36 2.36,5.39 5.92,10.46 10.64,15.19 4.73,4.73 9.49,10.47 14.21,17.21 14.24,6.77 22.57,14.87 24.89,24.33 2.33,9.45 8.22,17.56 17.74,24.29 -0.11,14.88 11.74,30.4 35.5,46.62 11.85,8.12 18.97,17.56 21.27,28.39 0,2.68 4.72,6.74 14.24,12.13 4.72,4.05 9.49,8.14 14.24,12.16 4.73,4.05 7.09,9.45 7.06,16.21 7.09,9.46 14.17,18.59 21.29,27.37 7.09,8.78 15.41,17.88 24.86,27.37 11.92,4.05 19.64,9.1 23.17,15.19 3.56,6.07 8.89,12.48 15.97,19.22 7.13,8.11 14.21,16.21 21.34,24.33 7.09,8.11 16.6,15.55 28.49,22.28 7.09,10.82 15.97,20.95 26.62,30.4 10.68,9.46 17.21,19.57 19.5,30.4 -0.03,4.06 2.37,7.45 7.09,10.13 4.77,2.71 10.72,6.1 17.84,10.15l7.13 6.07c2.36,1.34 3.56,2.68 3.56,4.05 -0.07,9.46 8.22,20.28 24.83,32.4 7.13,6.78 13.64,13.18 19.57,19.26 5.93,6.08 10.05,13.17 12.41,21.27 -0.07,4.07 2.32,7.44 7.05,10.14 16.68,8.11 27.93,17.9 33.81,29.39 5.89,11.47 14.77,21.95 26.66,31.4 2.37,2.7 3.53,6.09 3.5,10.13 7.09,13.52 22.53,20.95 46.4,22.3 11.92,0 20.28,0.67 25.04,2.02z"/>
   <line class="fil1" x1="8846.75" y1="936.16" x2="8846.75" y2= "936.16" />
   <path class="fil1" d="M9371.74 1433.54c-0.84,-15.85 4.7,-27.4 16.57,-34.61 5.93,-4.32 11.81,-8.65 17.74,-12.99 5.93,-4.3 9.7,-10.09 11.38,-17.27 3.85,-4.34 8.22,-8.64 13.12,-12.97 4.87,-4.34 9.24,-8.65 13.11,-12.98 3.81,-5.78 7.62,-10.82 11.49,-15.16 3.85,-4.3 8.79,-7.9 14.74,-10.78 7.9,-5.79 12.79,-10.09 14.66,-12.97 3.67,-8.65 9.42,-15.87 17.28,-21.62 7.9,-5.78 15.76,-11.52 23.66,-17.31 3.85,-4.34 7.62,-10.82 11.24,-19.46 -0.38,-7.23 1.42,-12.27 5.33,-15.13 21.69,-15.86 40.09,-35.33 55.25,-58.39 3.85,-4.34 8.79,-7.93 14.77,-10.82 7.87,-5.78 11.71,-10.78 11.49,-15.12 -0.38,-7.2 3.35,-13.71 11.25,-19.46 3.91,-2.9 8.85,-6.5 14.73,-10.83 5.93,-4.33 10.82,-8.64 14.67,-12.97 7.44,-14.42 16.99,-27.01 28.7,-37.83 11.74,-10.82 24.44,-22 38.16,-33.53 19.53,-17.31 28.81,-35.29 27.85,-54.05 -2.22,-2.89 -0.35,-6.49 5.54,-10.82 10.09,-2.89 22.04,-9.38 35.83,-19.46 11.87,-7.2 23.23,-15.13 34.02,-23.81 10.78,-8.64 24.26,-15.12 40.41,-19.42 17.63,-14.42 37.02,-25.25 58.1,-32.44 21.09,-7.23 42.67,-15.12 64.71,-23.8 4.02,-1.45 15.65,-4.31 34.83,-8.68 19.22,-4.3 29.84,-6.46 31.88,-6.46 8.18,0 15.82,0 22.99,0 7.16,0 13.92,2.16 20.31,6.46 12.55,5.78 16.04,13.71 10.43,23.8l0.1 2.15 -5.92 4.34c0.46,8.68 -1.2,16.22 -4.94,22.71 -3.74,6.49 -7.48,13.33 -11.21,20.56 0.39,7.2 2.75,12.97 7.06,17.31l9.87 12.97 2.05 38.93c0.32,5.75 -2.5,10.78 -8.43,15.12 -3.64,8.65 -5.29,15.83 -5.01,21.62l1.69 32.43c0.53,10.09 -2.08,18.76 -7.83,25.96 -1.97,1.44 -0.78,5.04 3.63,10.82 8.72,10.09 10.19,18.72 4.41,25.95 -7.79,7.2 -11.35,17.28 -10.68,30.26l2.97 56.24c0.42,8.64 -2.29,15.12 -8.22,19.46 -1.87,2.9 -2.82,4.34 -2.82,4.34 -3.74,7.2 -4.87,14.77 -3.43,22.71 1.42,7.9 -1.76,15.48 -9.56,22.71l6.35 4.3 0.15 2.19c4.44,7.2 4.76,12.97 0.88,17.31 -2.05,0 -3.04,0.71 -2.93,2.15l-8.89 6.46c-1.98,1.48 -2.93,2.93 -2.86,4.34 -5.89,4.34 -3.67,7.94 6.74,10.82 6.28,2.89 8.5,6.49 6.7,10.78 -3.81,5.79 -5.36,15.16 -4.69,28.15 0.53,10.09 -5.22,17.31 -17.28,21.61 -21.96,10.09 -42.03,17.31 -60.22,21.63 -16.11,4.34 -31.73,8.66 -46.86,12.98 -15.13,4.33 -30.71,9.37 -46.76,15.13 -14.17,2.89 -25.57,0 -34.2,-8.65 -6.35,-4.32 -9.6,-7.22 -9.67,-8.65 -0.46,-8.66 -1.94,-17.67 -4.48,-27.06 -2.54,-9.35 1.13,-17.63 10.96,-24.86 3.81,-5.79 1.38,-12.97 -7.26,-21.62 -4.38,-5.78 -4.66,-10.82 -0.78,-15.16 5.68,-8.64 8.33,-16.53 7.97,-23.76l-0.7 -12.98c-0.29,-5.78 -0.04,-10.82 0.77,-15.12 0.78,-4.34 0.04,-8.68 -2.22,-12.97 -0.25,-4.34 2.12,-8.33 7.06,-11.92 4.9,-3.59 5.22,-7.55 0.88,-11.88 -2.26,-4.33 -4.02,-8.64 -5.26,-12.97 -1.23,-4.34 0.04,-8.64 3.92,-12.97 3.77,-5.79 5.57,-10.82 5.36,-15.12 1.8,-4.34 2.47,-11.53 1.94,-21.65 1.87,-2.9 3.81,-5.4 5.75,-7.55 1.91,-2.19 2.79,-4.7 2.65,-7.59 -2.19,-2.89 -4.38,-5.4 -6.53,-7.58 -2.15,-2.16 -1.27,-4.66 2.68,-7.55 3.92,-2.9 2.79,-5.79 -3.53,-8.68 -6.14,0 -10.18,0.74 -12.16,2.19 -3.95,2.89 -6.35,5.39 -7.27,7.55 -0.91,2.18 -2.29,4.69 -4.19,7.58 -13.26,20.17 -28.82,36.03 -46.62,47.57 -5.96,2.89 -12.83,8.64 -20.56,17.31 0.6,11.53 -2.5,20.56 -9.35,27.05 -6.8,6.49 -15.16,13.32 -25,20.52 -17.73,12.97 -26.16,27.4 -25.35,43.27 -3.64,8.64 -11.39,16.57 -23.28,23.76l-9.2 0c-20.03,8.68 -29.7,19.5 -28.99,32.48 0.67,12.97 -3.92,23.06 -13.79,30.26 -11.94,5.77 -19.78,12.25 -23.52,19.47 -7.4,14.42 -21.19,24.5 -41.36,30.28 -5.96,2.88 -8.82,7.57 -8.46,14.06 0.31,6.49 2.64,11.88 6.98,16.21l25.46 17.29 0.11 2.17c2.11,1.45 3.17,2.16 3.17,2.16l18.97 10.81 3.18 2.16 0.14 2.17c14.81,10.08 29.52,17.29 44.08,21.62l84.27 28.12c16.68,5.77 27.15,10.8 31.45,15.13 17.13,14.42 35.89,21.63 56.34,21.63 4.09,0 10.4,2.88 18.87,8.65 6.31,2.89 11.59,6.51 15.9,10.81 10.6,7.22 23.09,10.81 37.37,10.81 12.2,-1.44 23.03,0.37 32.51,5.41 9.45,5.05 18.47,11.17 27.01,18.39 8.5,5.76 12.94,12.24 13.29,19.46 0.39,7.21 3.81,13.67 10.22,19.45 -1.91,2.89 -6.81,6.5 -14.77,10.82l-8.96 4.33c-2.05,0 -3.07,0.35 -3.04,1.07 0.04,0.73 -0.95,1.08 -3,1.08l-38.85 19.47c-4.02,1.45 -10.02,4.33 -17.98,8.66 -7.94,4.32 -11.85,7.93 -11.67,10.8 -3.28,15.87 -11.84,28.12 -25.71,36.76l-5.78 6.51c-2.01,1.43 -2.93,2.88 -2.86,4.31 -1.52,10.1 -9.31,17.3 -23.42,21.63 -12.12,2.88 -26.09,9.72 -41.85,20.55 -15.79,10.8 -23.41,21.98 -22.81,33.52 0.31,5.76 -4.59,10.1 -14.63,12.97 -10.09,2.88 -14.95,7.92 -14.56,15.13 -3.57,10.09 -6.39,15.12 -8.44,15.12 -10.09,2.88 -16.53,6.5 -19.35,10.83 -2.86,4.31 -7.27,7.92 -13.26,10.8 -7.94,4.32 -15.79,10.8 -23.52,19.46 0.07,1.44 -4.94,3.6 -15.02,6.5 -18.01,7.2 -31.8,17.29 -41.32,30.28 -5.47,12.97 -17.28,21.62 -35.47,25.95 -10.09,2.88 -16.01,6.49 -17.84,10.81 -3.57,10.1 -10.82,18.01 -21.76,23.78 -10.96,5.78 -22.43,11.53 -34.37,17.3 -6,2.89 -6.85,5.78 -2.61,8.67 22.85,7.21 36.66,17.28 41.43,30.28 8.71,10.08 19.21,15.12 31.48,15.12 10.29,1.45 24.83,5.41 43.58,11.9 18.73,6.49 31.34,13.34 37.87,20.55 4.23,2.88 8.01,6.49 11.28,10.79 3.32,4.33 7.09,7.94 11.31,10.81 8.33,2.89 15.66,6.13 21.97,9.74 6.35,3.61 12.62,6.85 18.94,9.74l28.63 19.46c4.24,2.88 8.43,5.05 12.59,6.5 10.46,4.32 21.93,8.28 34.37,11.88 12.45,3.61 24.02,9.03 34.59,16.22 10.36,2.88 19.78,6.85 28.21,11.9 8.47,5.04 17.95,10.45 28.46,16.21 8.19,0 13.26,-0.73 15.23,-2.17 4.09,0 3.95,-2.89 -0.46,-8.65 -6.49,-7.21 -7.86,-13.7 -4.09,-19.46 1.91,-2.88 3.88,-4.7 5.86,-5.42 2.04,-0.71 2.96,-2.52 2.82,-5.4l-4.87 -92.99c-0.14,-2.87 -1.83,-5.41 -5.01,-7.57 -3.17,-2.16 -4.83,-4.69 -5.01,-7.58 -0.14,-2.88 0.78,-5.04 2.75,-6.49 1.94,-1.43 3.92,-3.6 5.79,-6.49 1.97,-1.43 2.89,-3.6 2.75,-6.49 7.73,-8.66 7.3,-16.58 -1.27,-23.79 -2.54,-10.1 -4.13,-20.18 -4.62,-30.28 -0.57,-10.1 4.09,-19.46 13.85,-28.11 1.98,-1.45 2.9,-3.24 2.79,-5.42 -0.11,-2.15 1.87,-3.24 5.96,-3.24 10.09,-2.89 19.04,-7.58 26.87,-14.06 7.87,-6.49 18.87,-11.15 33,-14.04l9 -4.33c1.97,-1.45 3.99,-2.17 6.03,-2.17 20.06,-7.2 33.14,-11.18 39.25,-11.89 6.1,-0.72 20.34,-1.79 42.77,-3.25l21.47 0c18.58,2.89 31.03,6.5 37.41,10.82 4.31,4.32 11.77,10.08 22.36,17.3 2.26,4.32 2.54,9.37 0.81,15.13 -9.88,7.21 -10.47,15.14 -1.84,23.79 6.43,5.77 5.86,14.42 -1.72,25.95 -3.95,2.88 -5.82,6.13 -5.65,9.74 0.21,3.6 0.39,6.85 0.53,9.73 2.82,14.42 0.35,26.68 -7.3,36.77 -1.98,1.44 -2.86,3.6 -2.72,6.5l0.25 4.31c10.82,11.54 16.04,23.8 15.69,36.76 -0.36,12.98 -0.18,25.97 0.53,38.94 -1.91,2.88 -2.86,4.32 -2.86,4.32 -7.9,5.76 -7.55,12.25 1.02,19.47 2.33,5.76 1.63,11.52 -2.18,17.29 -7.87,5.78 -7.48,13.69 1.27,23.79 8.6,8.66 9.2,19.47 1.69,32.43 -6,2.89 -6.88,5.77 -2.65,8.66 10.68,8.66 11.14,17.3 1.38,25.95 -3.81,5.77 -2.44,12.26 4.09,19.48 2.05,0 3.11,0.71 3.18,2.15l9.56 6.49c0.07,1.45 1.16,2.89 3.28,4.32 6.35,4.34 7.65,9.37 3.84,15.14 -7.65,10.1 -11.14,20.91 -10.57,32.45 0.25,4.31 -0.57,8.28 -2.44,11.88 -1.87,3.61 -4.72,7.58 -8.57,11.89 -3.74,7.21 -13.68,12.25 -29.9,15.12 -12.13,2.9 -24.26,5.78 -36.35,8.67 -12.13,2.88 -24.37,3.6 -36.71,2.17 -8.18,0 -15.23,1.79 -21.19,5.39 -5.96,3.61 -13.11,3.25 -21.51,-1.08 -16.22,2.89 -28.49,2.89 -36.85,0l-3.06 0 -5.9 4.33c-6.06,1.45 -12.16,2.16 -18.3,2.16 -10.36,-2.89 -19.21,-6.13 -26.58,-9.73 -7.34,-3.61 -15.13,-6.13 -23.42,-7.56 -12.41,-2.9 -32.12,-8.3 -59.09,-16.23 -27.02,-7.94 -42.85,-16.94 -47.43,-27.02 -21.3,-15.87 -40.62,-33.17 -57.93,-51.91 -6.53,-7.21 -17.07,-12.96 -31.59,-17.3 -6.28,-2.88 -12.02,-5.4 -17.28,-7.56 -5.22,-2.19 -9.95,-4.7 -14.17,-7.59 -10.47,-4.32 -21.44,-9.01 -32.97,-14.05 -11.49,-5.05 -21.54,-11.17 -30.08,-18.38 -16.67,-5.77 -31.3,-12.25 -43.97,-19.46 -12.65,-7.22 -27.26,-12.97 -43.87,-17.3 -22.88,-7.21 -39.66,-15.86 -50.42,-25.95 -8.5,-5.76 -16.43,-11.18 -23.88,-16.22 -7.4,-5.05 -15.33,-9.73 -23.73,-14.06 -6.45,-5.76 -14.84,-10.09 -25.21,-12.98 -8.33,-2.86 -16.18,-6.11 -23.52,-9.73 -7.34,-3.59 -14.24,-8.29 -20.7,-14.05l-79.51 -54.06c-6.35,-4.31 -9.77,-10.81 -10.19,-19.46l-1.23 -23.79c-0.39,-7.21 1.38,-12.26 5.33,-15.13 7.9,-5.78 16.25,-11.54 25.17,-17.31 8.89,-5.77 15.16,-12.96 18.83,-21.62l6 -2.16c8.04,-2.88 17.98,-7.94 29.91,-15.14 11.87,-7.21 17.62,-14.4 17.27,-21.62 -0.46,-8.66 3.28,-15.14 11.21,-19.46 32.15,-11.54 54.79,-28.12 67.99,-49.75 -0.07,-1.44 3.91,-3.61 11.94,-6.48 8.12,-1.45 12.52,-4.33 13.33,-8.67 0.81,-4.32 4.2,-7.93 10.19,-10.81 3.91,-2.88 7.93,-4.69 11.98,-5.4 4.02,-0.73 8.04,-2.53 11.95,-5.4 17.66,-14.42 35.89,-27.78 54.68,-40.02 18.8,-12.25 37.06,-24.88 54.76,-37.84 3.88,-4.33 3.6,-9.38 -0.78,-15.14 -4.23,-2.88 -3.38,-5.77 2.62,-8.65 9.87,-7.21 19.18,-14.42 28,-21.63 8.85,-7.21 18.19,-14.42 28.03,-21.62 7.87,-5.78 6.6,-10.82 -3.84,-15.14 -6.39,-4.33 -12.62,-6.5 -18.76,-6.5 -4.16,-1.44 -8.29,-2.15 -12.37,-2.15 -4.1,0 -7.2,-0.73 -9.32,-2.17 -6.28,-2.89 -11.63,-6.85 -15.97,-11.89 -4.37,-5.05 -11.63,-7.58 -21.86,-7.58 -8.18,0 -14.42,-1.44 -18.65,-4.32 -4.24,-2.89 -8.47,-5.77 -12.69,-8.65 -2.15,-1.45 -4.24,-2.16 -6.28,-2.16l-15.65 -6.49c2.04,0 -1.13,-1.45 -9.46,-4.33l-3.28 -4.33c-4.48,-7.22 -10.82,-11.52 -19.08,-12.98 -26.58,0 -46.26,-4.32 -58.99,-12.97 -4.3,-4.33 -10.6,-7.57 -18.89,-9.73 -8.29,-2.17 -15.59,-4.69 -21.87,-7.58 -6.28,-2.88 -12.12,-6.85 -17.48,-11.89 -5.4,-5.05 -10.19,-9.01 -14.42,-11.89 -8.5,-5.76 -14.81,-9.37 -19.01,-10.81 -12.33,-1.43 -21.82,-7.21 -28.49,-17.3 -8.64,-8.65 -16.08,-13.68 -22.25,-15.13 -10.4,-2.88 -17.24,-6.49 -20.52,-10.81 -3.28,-4.33 -7.09,-8.65 -11.39,-12.97 -2.29,-4.33 -2.47,-7.92 -0.6,-10.81 3.88,-4.32 8.29,-8.29 13.19,-11.9 4.93,-3.6 9.27,-8.27 13.07,-14.04 3.85,-4.33 9.32,-7.57 16.36,-9.74 7.06,-2.15 11.42,-6.13 13.19,-11.89 -0.14,-2.87 3.77,-5.77 11.8,-8.65 10.09,-2.89 14.92,-7.94 14.56,-15.13z"/>
   <path class="fil1" d="M11708.17 1055.9c5.08,5.79 4.94,10.82 -0.42,15.13 -3.6,2.89 -4.13,5.78 -1.59,8.68 7.41,7.19 7.97,13.32 1.69,18.37 -6.28,5.04 -3.7,11.17 7.8,18.37 2.29,1.44 2.79,4.34 1.48,8.67l-6.56 15.13 1.9 10.82c3.78,10.09 5.93,19.46 6.42,28.11 0.5,8.64 -1.58,17.27 -6.24,25.95 -1.8,1.45 -0.14,5.04 4.97,10.82 5.08,5.75 8.15,11.53 9.14,17.28 0.99,5.78 2.15,12.26 3.39,19.46 1.27,7.23 2.5,14.42 3.77,21.61 1.24,7.24 -0.56,14.46 -5.46,21.66 7.9,10.08 13.11,22.35 15.61,36.77 1.52,8.64 -0.07,17.28 -4.69,25.92 -8.22,11.53 -5.18,23.1 9.1,34.61 7.13,5.78 8.15,11.53 3,17.3 0,0 -1.55,2.9 -4.62,8.66 -2.58,8.65 -2.05,17.66 1.62,27.04 3.71,9.37 2.19,18.37 -4.48,27.03 0,0 0.25,1.44 0.74,4.32 15.02,15.86 17.81,31.71 8.29,47.59 -4.65,8.65 -3.14,17.3 4.52,25.95 17.84,20.18 21.44,41.09 10.89,62.72 -5.36,4.32 -4.48,9.37 2.65,15.13 9.94,10.1 11.42,18.74 4.51,25.95 -3.1,5.78 -4.27,10.81 -3.49,15.14l8.64 49.74c1.27,7.22 2.44,14.06 3.57,20.55 1.16,6.49 -1.77,13.33 -8.68,20.55 -1.8,1.43 -2.01,3.24 -0.6,5.4 1.41,2.16 2.22,3.97 2.5,5.42 9.42,7.2 15.02,15.85 16.75,25.94 1.02,5.77 0.88,10.82 -0.42,15.14 -1.31,4.33 -2.44,9.37 -3.5,15.14 7.62,8.65 12.2,17.3 13.72,25.95 1.27,7.21 -0.57,14.4 -5.44,21.63 -1.55,2.89 -0.91,6.49 1.87,10.8 7.16,5.78 11.32,12.26 12.59,19.48 -1.03,5.76 -3.25,10.79 -6.56,15.12 -3.36,4.33 -1.45,9.38 5.71,15.13 -5.15,5.78 -7.23,11.53 -6.21,17.3 0.99,5.78 2.12,12.25 3.39,19.48 1.52,8.64 3.03,17.3 4.51,25.95 1.52,8.65 -0.17,16.57 -5.04,23.77 -1.8,1.45 -0.28,4.34 4.55,8.67 7.66,8.66 11.21,17.3 10.64,25.95 -0.53,8.64 -2.08,17.3 -4.69,25.96 -2.08,11.52 -2.86,18.73 -2.36,21.62 0.74,4.33 3.49,8.3 8.18,11.89 4.73,3.62 5.54,8.29 2.47,14.05 -3.35,4.33 -4.13,11.53 -2.36,21.63 1.76,10.1 -1.48,18.03 -9.67,23.79 -8.22,5.77 -16.92,11.54 -26.13,17.31 -14.06,1.43 -26.34,4.31 -36.84,8.64 -10.51,4.33 -21.65,7.94 -33.39,10.81 -3.6,2.88 -8.47,4.32 -14.6,4.32 -10.46,-1.44 -20.06,-0.71 -28.77,2.17 -8.72,2.89 -17.91,5.77 -27.65,8.66 -9.7,2.89 -19.68,1.44 -29.91,-4.33 -10.18,-5.77 -15.93,-12.25 -17.17,-19.47 -2.78,-4.32 -4.05,-8.65 -3.81,-12.97 0.29,-4.31 0.04,-8.65 -0.7,-12.97 6.91,-7.21 10.32,-14.04 10.22,-20.53 -0.11,-6.5 2.26,-13.33 7.16,-20.55 6.95,-7.21 3.74,-13.69 -9.53,-19.47 -5.36,-7.2 -7.26,-12.25 -5.71,-15.13 3.35,-4.33 5.26,-7.94 5.78,-10.81 0.53,-2.89 -1.62,-6.5 -6.45,-10.81 -7.41,-7.21 -9.56,-13.7 -6.49,-19.47 6.45,-10.09 9.35,-19.82 8.75,-29.19 -0.64,-9.37 -2.83,-19.11 -6.6,-29.19 -2.05,-11.54 0.18,-22.36 6.6,-32.45 5.15,-5.78 4.9,-12.97 -0.71,-21.61 -7.87,-10.1 -10.25,-18.03 -7.2,-23.8 2.86,-7.21 2.51,-15.14 -1.05,-23.79 -3.57,-8.66 -5.08,-17.3 -4.52,-25.95 -0.49,-2.89 -5.61,-8.66 -15.3,-17.31 -1.23,-7.2 -0.95,-11.53 0.81,-12.96 6.7,-8.66 6.21,-17.3 -1.44,-25.96 -11.71,-8.65 -14.88,-20.89 -9.46,-36.76 1.06,-5.77 2.72,-10.8 5.05,-15.13 2.29,-4.34 5,-9.37 8.07,-15.13 1.8,-1.45 1.31,-4.35 -1.48,-8.67 -14.52,-12.96 -17.94,-26.67 -10.22,-41.09 3.11,-5.76 1.98,-12.24 -3.38,-19.46 -3.32,-7.21 -3.18,-12.26 0.42,-15.12 8.75,-8.67 7.23,-17.31 -4.52,-25.97 -6.88,-4.33 -8.78,-9.37 -5.71,-15.14 4.65,-8.65 6.21,-17.29 4.69,-25.95 -1.23,-7.22 -2.5,-14.41 -3.74,-21.62 -1.27,-7.21 -1.52,-14.42 -0.71,-21.63 -1.72,-10.1 -0.95,-17.3 2.37,-21.62 3.1,-5.78 -1.1,-12.26 -12.59,-19.46 -9.41,-7.23 -11.45,-12.98 -6.06,-17.3 3.59,-2.89 5.08,-6.13 4.44,-9.74 -0.63,-3.61 0.85,-6.87 4.45,-9.73 3.07,-5.78 1.2,-10.82 -5.72,-15.15 -7.12,-5.76 -9.42,-12.97 -6.84,-21.61 1.3,-4.34 3.17,-8.31 5.61,-11.9 2.43,-3.61 0.21,-7.56 -6.67,-11.89 8.47,-10.09 10.78,-20.18 6.98,-30.28 -3.77,-10.1 -6.56,-20.18 -8.32,-30.3 -0.74,-4.3 -4.2,-6.49 -10.33,-6.49 -1.06,5.78 -4.27,10.82 -9.63,15.16 -5.4,4.3 -7.58,9.35 -6.6,15.12 3.07,5.78 3.36,10.46 0.92,14.06 -2.43,3.6 -5.33,7.57 -8.68,11.89 -1.51,2.88 -1.58,5.41 -0.21,7.58 1.41,2.15 2.37,4.68 2.86,7.58 1.76,10.08 -1.84,18.73 -10.82,25.95 -9.21,5.76 -12.69,15.12 -10.43,28.1l1.13 6.49 -1.2 10.81 1.13 6.49c3.31,7.22 1.62,15.15 -5.05,23.8 -2.82,7.21 -4.76,13.69 -5.82,19.46 -1.02,5.77 -3.1,11.53 -6.21,17.3 -1.52,2.88 -1.55,8.65 -0.07,17.3 1.76,10.09 -2.72,19.46 -13.5,28.11 -6.67,8.66 -9.63,15.14 -8.89,19.46 1.52,8.66 2.96,16.95 4.34,24.88 1.37,7.93 -2.4,15.5 -11.39,22.72 -1.02,5.76 -0.6,11.15 1.31,16.21 1.9,5.04 1.3,10.45 -1.8,16.21 -3.32,4.34 -6.1,9.02 -8.29,14.06 -2.19,5.04 -4.94,9.74 -8.29,14.05 2.5,14.41 3,28.84 1.37,43.26 -3.06,5.76 -5.78,10.8 -8.07,15.13 -2.33,4.32 -2.86,10.09 -1.59,17.3 -6.95,7.21 -9.6,15.49 -7.97,24.88 1.65,9.37 2.18,18.37 1.65,27.02 2.26,12.98 -1.09,23.08 -10.09,30.28 -9.2,5.78 -12.58,15.85 -10.09,30.28 4.1,11.52 3.14,23.79 -2.78,36.76 -3.6,2.9 -4.52,9.39 -2.75,19.46 1.27,7.22 1.76,12.98 1.48,17.31 -0.28,4.32 -1.94,9.38 -5.05,15.13 -3.56,2.89 -5.08,6.13 -4.44,9.74 0.63,3.6 1.34,7.57 2.08,11.89 1.23,7.21 0.07,12.25 -3.49,15.14 -9.25,5.77 -14.7,12.61 -16.36,20.54 -1.7,7.93 -3.99,15.49 -6.81,22.71 -2.58,8.66 -1.45,15.14 3.39,19.46 2.54,2.88 4.19,6.49 4.94,10.81 -3.32,4.33 -5.65,8.65 -6.92,12.97 -1.3,4.33 -3.63,8.65 -6.98,12.97 -5.12,5.78 -6.42,15.87 -3.92,30.28 1.02,5.78 -1.2,10.81 -6.56,15.15 -1.55,2.86 -3.04,6.12 -4.45,9.72 -1.41,3.6 -0.74,7.57 2.08,11.89 2.02,11.52 -3.28,22.36 -15.86,32.45 -5.36,4.32 -7.55,9.37 -6.56,15.12 2.5,14.42 0.56,26.68 -5.86,36.77 -3.6,2.88 -4.65,8.66 -3.14,17.29 2.26,12.98 -3.03,23.79 -15.83,32.44 -9.49,4.33 -9.38,10.81 0.32,19.47 0.25,1.43 1.41,2.16 3.46,2.16l0.74 4.32c2.29,1.45 3.46,2.17 3.46,2.17l11.45 12.97c4.59,2.88 7.16,5.77 7.66,8.66 4.83,4.32 4.69,9.37 -0.46,15.13 -5.37,4.33 -7.34,10.81 -5.82,19.46 0.98,5.78 -1.2,10.81 -6.57,15.13 -4.86,7.23 -12.44,10.81 -22.67,10.81 -9.95,1.45 -26.2,2.17 -48.7,2.17 -12.26,0 -21.22,1.44 -26.87,4.32 -13.54,4.32 -28.92,4.32 -46.02,0 -11.21,-5.76 -23.48,-5.76 -36.81,0 -7.65,2.89 -16.99,2.16 -27.96,-2.16 0,0 -2.3,-1.43 -6.92,-4.33l-10.68 -8.65 -6.91 -4.33c-7.37,-7.2 -8.5,-13.69 -3.39,-19.46 1.31,-4.33 0.67,-7.92 -1.87,-10.81 -7.4,-7.2 -8.78,-15.13 -4.12,-23.79 6.66,-8.65 4.76,-19.46 -5.68,-32.43 -5.08,-5.77 -8.01,-10.81 -8.75,-15.13 -1.27,-7.22 -1.87,-10.81 -1.87,-10.81 8.96,-7.22 12.23,-14.78 9.84,-22.71 -2.4,-7.94 -4.37,-16.22 -5.86,-24.87 -0.77,-4.33 -3.7,-9.38 -8.78,-15.13 -7.66,-8.67 -12.2,-17.31 -13.71,-25.97l-5.26 -30.28 -7.48 -60.55 -5.29 -30.28c-1.48,-8.65 -3.07,-17.65 -4.69,-27.02 -1.62,-9.39 -6.28,-18.4 -13.89,-27.04 -2.58,-2.9 -0.25,-7.23 6.95,-12.98 6.91,-7.2 6.81,-13.68 -0.35,-19.46 -4.59,-2.89 -7.77,-9.38 -9.53,-19.47l-13.54 -77.85c-1.76,-10.09 -5.04,-17.3 -9.87,-21.61 -4.63,-2.89 -5.12,-5.77 -1.52,-8.67 3.1,-5.77 4.23,-10.81 3.49,-15.13l-10.54 -60.57c-1.23,-7.2 -1.97,-14.4 -2.22,-21.61 -0.21,-7.2 2.08,-14.4 6.99,-21.64 -6.88,-4.31 -9.14,-8.28 -6.67,-11.88 2.43,-3.61 4.3,-7.56 5.57,-11.88 -0.49,-2.88 -0.6,-6.49 -0.35,-10.82 0.28,-4.31 -1.87,-7.93 -6.46,-10.8 -4.62,-2.89 -6.24,-6.5 -4.97,-10.81 5.68,-14.42 5.79,-28.48 0.35,-42.17 -5.47,-13.7 -8.53,-28.47 -9.28,-44.34 -0.49,-2.88 -2.08,-6.13 -4.76,-9.73 -2.64,-3.61 -5.25,-6.86 -7.83,-9.74 -4.83,-4.33 -5.47,-7.92 -1.87,-10.81 6.42,-10.1 8.82,-19.82 7.2,-29.2 -1.63,-9.37 -4.34,-19.09 -8.15,-29.21l-3.78 -21.61 -4.83 -45.41 -3.77 -21.64c-1.73,-10.09 -5.05,-17.29 -9.92,-21.61 -2.29,-1.45 -7.51,-2.17 -15.69,-2.17 -6.13,0 -6.66,2.89 -1.55,8.66 4.59,2.88 7.13,5.76 7.62,8.64 5.61,8.66 5.86,15.86 0.71,21.64 -3.35,4.33 -9.49,10.09 -18.48,17.29 -3.56,2.89 -4.55,6.14 -2.89,9.73 1.66,3.62 2.86,7.58 3.6,11.9 0.53,2.88 3.07,5.77 7.65,8.65 4.59,2.89 5.22,6.49 1.87,10.81 -2.04,0 -2.93,0.72 -2.68,2.17l-8.08 6.49c0.25,1.44 -0.53,2.88 -2.33,4.32 -6.91,7.21 -5.78,13.69 3.39,19.47 0.25,1.44 1.52,2.87 3.85,4.32 5.08,5.78 4.93,10.81 -0.46,15.14l-6.56 15.13c-1.06,5.77 -0.6,11.17 1.27,16.22 1.9,5.05 1.34,10.45 -1.77,16.22l0.39 2.16 -2.72 2.16 0.39 2.17 -6.17 17.31c0.49,2.86 -0.18,5.02 -1.94,6.49 -2.86,7.21 -4.17,14.4 -3.92,21.61 0.21,7.2 -3.24,13.69 -10.43,19.46l0.78 4.33c2.01,11.54 1.2,21.64 -2.4,30.28 -3.64,8.67 -8.65,18.03 -15.06,28.13 -1.8,1.43 -1.3,4.32 1.48,8.65 12.24,11.54 15.16,22.34 8.72,32.43 -3.56,2.88 -5.05,6.14 -4.41,9.75 0.6,3.59 0.14,6.85 -1.41,9.73 1.76,10.1 0.99,17.29 -2.37,21.62 -6.42,10.09 -7.58,20.9 -3.56,32.43 3.32,7.22 2.79,15.85 -1.62,25.97 -3.56,2.88 -2.72,7.92 2.64,15.12 7.66,8.65 6.64,14.42 -3.1,17.3 -11.28,5.77 -16.43,11.54 -15.41,17.3l4.52 25.95c-1.06,5.77 -1.69,10.82 -1.98,15.15 -0.24,4.33 -1.94,9.37 -5.04,15.13l-2.29 4.32c-0.29,10.11 0,17.66 0.88,22.71 0.88,5.06 0.67,9.73 -0.64,14.04 -1.3,4.35 -3.03,9.03 -5.22,14.07 -2.19,5.05 -5.71,11.16 -10.61,18.38 -2.82,7.21 -0.56,14.41 6.85,21.62 6.88,4.33 8.78,9.38 5.71,15.14 -3.1,5.77 -5.29,10.81 -6.6,15.15 -3.06,5.76 -3.52,11.87 -1.37,18.37 2.15,6.49 0.77,13.33 -4.09,20.54l-2.72 2.16 0.39 2.18 -3.14 17.28c0.53,2.9 -0.14,5.05 -1.94,6.49 -4.62,8.66 -6.07,18.03 -4.31,28.12 0.75,4.33 -0.07,8.31 -2.54,11.9 -2.43,3.61 -4.3,7.58 -5.6,11.89 -1.27,4.31 -0.99,9.01 0.91,14.05 1.91,5.06 1.2,9.74 -2.15,14.04 -3.1,5.78 -5.64,11.54 -7.73,17.32 -2.04,5.76 -1.44,12.24 1.84,19.46 3.32,7.21 3.88,13.33 1.69,18.39 -2.18,5.03 -4.83,10.43 -7.94,16.21 -4.86,7.2 -3.63,14.41 3.78,21.62l6.88 4.33c5.11,5.77 10.15,11.16 15.12,16.21 4.94,5.05 8.08,11.18 9.32,18.39 -3.07,5.77 -5.65,11.52 -7.73,17.29 -2.08,5.77 -5.68,11.52 -10.78,17.3 -11.28,5.76 -16.79,15.14 -16.58,28.11 -1.3,4.34 -3.56,9.01 -6.77,14.06 -3.21,5.04 -6.38,10.45 -9.45,16.22l-5.75 2.15c-7.94,1.45 -17.03,2.18 -27.26,2.18l-52.5 -2.18 -24.54 0c-8.19,0 -13.44,-0.72 -15.73,-2.15 -8.68,-2.9 -17.17,-4.7 -25.46,-5.42 -8.32,-0.71 -17.7,-1.8 -28.21,-3.24 -14.31,0 -25.39,-5.05 -33.28,-15.14 -7.91,-10.09 -14.53,-18.74 -19.86,-25.94 0,0 -0.52,-2.9 -1.51,-8.66 7.19,-5.78 7.09,-12.26 -0.32,-19.46 -5.11,-5.76 -6.74,-9.37 -4.97,-10.81 6.95,-7.21 9.84,-14.04 8.71,-20.54 -1.13,-6.49 -1.31,-13.32 -0.49,-20.55 -1.03,-5.77 1.55,-8.65 7.69,-8.65 13.57,-4.33 15.76,-9.39 6.56,-15.13 1.3,-4.33 2.08,-8.66 2.36,-12.98 0.25,-4.34 -3.03,-8.65 -9.95,-12.97 -0.74,-4.32 -0.35,-7.94 1.2,-10.8 6.67,-8.67 9.25,-17.3 7.76,-25.97 -3.56,-8.66 -2.01,-17.29 4.7,-25.95 6.91,-7.21 10.64,-15.12 11.17,-23.79 3.1,-5.76 4.27,-10.81 3.53,-15.12 -4.84,-15.87 -2.47,-31.73 7.05,-47.58 3.07,-5.77 5.15,-11.54 6.18,-17.31 1.05,-5.76 3.14,-11.53 6.2,-17.3 1.06,-5.77 1.77,-10.45 2.16,-14.06 0.42,-3.6 -1.8,-7.56 -6.67,-11.88 -2.79,-4.33 -2.65,-9.37 0.42,-15.14 3.35,-4.32 2.75,-7.92 -1.87,-10.8 -9.66,-8.66 -8.25,-18.03 4.31,-28.13 9.24,-5.77 12.97,-13.69 11.21,-23.78l-5.65 -32.45c-1.52,-8.63 2.47,-15.12 11.95,-19.44 8.96,-7.21 8.61,-15.15 -1.09,-23.81 -2.79,-4.32 -2.65,-9.37 0.45,-15.13 3.57,-2.88 7.62,-6.13 12.1,-9.73 4.48,-3.61 6.35,-7.58 5.6,-11.9 -2.01,-11.52 0.22,-22.34 6.64,-32.43 6.42,-10.09 7.62,-20.9 3.56,-32.43 -2.54,-2.89 -2.05,-5.76 1.55,-8.66 3.11,-5.77 4.73,-11.16 4.87,-16.21 0.11,-5.05 -0.28,-10.45 -1.31,-16.22 -2.01,-11.54 0.22,-22.35 6.64,-32.43 1.51,-2.88 1.69,-7.94 0.42,-15.14 0.81,-7.22 -0.07,-18.03 -2.57,-32.44 -4.06,-11.53 -0.71,-21.62 10.08,-30.28 8.97,-7.21 12.06,-18.73 9.32,-34.58 -3.32,-7.23 -5.43,-13.71 -6.46,-19.48 -1.02,-5.77 2.08,-11.52 9.24,-17.3 3.36,-4.32 4.17,-11.53 2.4,-21.62 -1.27,-7.23 -1.13,-12.24 0.43,-15.14 5.11,-5.77 7.72,-11.52 7.72,-17.3 0.04,-5.77 -0.6,-12.25 -1.83,-19.46 -0.78,-4.32 0.67,-7.93 4.23,-10.81 4.66,-8.65 5.82,-19.46 3.56,-32.43 0.82,-7.21 0.57,-14.42 -0.67,-21.62 -1.27,-7.23 -2.54,-14.42 -3.77,-21.64 7.16,-5.76 10.12,-12.26 8.89,-19.46 -1.27,-7.21 0.56,-14.41 5.43,-21.62 2.33,-10.1 5.33,-19.47 8.93,-28.13 3.6,-8.65 7.72,-17.29 12.34,-25.95 6.17,-11.52 4.93,-24.49 -3.71,-38.91 -7.41,-7.24 -8.54,-13.72 -3.39,-19.47 3.6,-2.89 5.26,-5.04 5.01,-6.49 -0.24,-1.44 0.39,-3.6 1.94,-6.49 5.15,-5.75 6.57,-15.12 4.34,-28.11 -1.27,-7.23 -1.13,-12.26 0.43,-15.15 6.91,-7.2 9.8,-14.07 8.67,-20.53 -1.12,-6.49 -1.27,-13.36 -0.49,-20.55 -1.52,-8.65 0.28,-15.87 5.43,-21.65 3.11,-5.75 3.78,-13.68 2.01,-23.77l-5.71 -15.16 -1.52 -8.61c-1.51,-8.68 -1.48,-14.45 0.07,-17.31 8.47,-10.09 11.32,-20.2 8.54,-30.29 -2.79,-10.09 -4.16,-20.91 -4.13,-32.44 -2.01,-11.52 -0.42,-20.17 4.69,-25.95 3.6,-2.9 4.63,-5.79 3.11,-8.65 -1.52,-2.89 -1.52,-5.78 0.03,-8.67 -1.23,-7.2 -2.43,-14.04 -3.56,-20.53 -1.16,-6.49 1.77,-13.32 8.68,-20.55 -0.74,-4.34 -0.99,-8.65 -0.71,-12.98 0.25,-4.3 -0.1,-9.38 -1.09,-15.12 -6.07,-23.06 2.54,-43.97 25.88,-62.73 6.92,-7.2 13.96,-13.68 21.16,-19.46 7.16,-5.79 15.51,-10.79 24.97,-15.13 9.24,-5.78 18.97,-11.52 29.2,-17.31 10.25,-5.75 22.28,-10.09 36.1,-12.97 17.38,-5.75 34.66,-6.49 51.76,-2.15 17.1,4.34 31.91,10.09 44.43,17.31 12.51,7.2 26.27,12.94 41.36,17.28 5.08,5.78 10.06,10.82 14.91,15.12 4.84,4.34 7.73,9.38 8.75,15.16 5.86,10.09 9.07,19.82 9.7,29.2 0.6,9.38 2.93,19.82 6.99,31.34l-3.07 0 7.51 43.27c0.78,4.34 3.71,9.38 8.79,15.12 9.45,7.23 10.96,15.87 4.51,25.96 -3.31,4.33 -4.12,11.52 -2.36,21.65 1.76,10.09 0.81,16.57 -2.75,19.42 -3.6,2.9 -3.99,6.5 -1.2,10.82 7.16,5.75 10.78,11.88 10.85,18.37 0.15,6.5 4.8,12.62 13.96,18.41 3.04,5.75 2.9,10.78 -0.42,15.12 -3.35,4.34 -4.51,9.39 -3.53,15.16 3.32,7.2 5.08,14.39 5.29,21.62 0.25,7.19 2.02,14.38 5.3,21.61 0.53,2.9 1.97,5.4 4.41,7.59 2.4,2.15 3.88,4.65 4.37,7.55 0.53,2.89 -0.07,5.43 -1.73,7.58 -1.69,2.15 -2.26,4.69 -1.76,7.59 -0.78,7.19 -0.18,16.57 1.83,28.1l28.6 164.36c1.77,10.09 7.34,18.74 16.79,25.95l1.86 10.8c0.25,1.45 -0.52,2.89 -2.29,4.33l-7.72 8.67c0,0 -1.8,1.43 -5.37,4.31 -3.59,2.89 -2.96,6.5 1.87,10.81 4.84,4.34 7.69,9.02 8.58,14.06 0.88,5.04 1.83,10.45 2.82,16.22 1.27,7.2 2.4,13.69 3.42,19.46 0.99,5.78 5.19,12.26 12.55,19.46 4.37,1.44 3.84,4.33 -1.55,8.66 -5.4,4.32 -9.32,8.29 -11.74,11.88 -2.43,3.61 0.03,9.02 7.44,16.22 4.34,1.45 6.25,3.61 5.72,6.49 -0.5,2.89 -0.53,5.78 0,8.66l10.5 60.54c0.74,4.35 2.08,9.02 4.02,14.06 1.87,5.05 5.26,9.75 10.09,14.05 2.29,1.45 2.79,4.33 1.52,8.67 -5.12,5.76 -6.7,14.4 -4.69,25.94l5.99 34.59c1.03,5.78 -0.91,12.26 -5.78,19.48 -1.31,4.33 0.39,8.3 5.15,11.88 4.69,3.61 4.48,8.3 -0.64,14.06 -3.59,2.88 -4.97,6.85 -4.09,11.88 0.88,5.06 2.72,9.74 5.54,14.06 0.74,4.33 3.67,9.39 8.78,15.14 4.84,4.33 5.97,10.8 3.39,19.46 -7.2,5.77 -6.7,8.67 1.48,8.67 6.39,1.43 11.39,0.72 14.95,-2.18 9.53,-15.85 18.02,-31.7 25.5,-47.58 1.51,-2.88 1.94,-6.49 1.16,-10.8 -1.48,-8.66 0.07,-17.3 4.73,-25.96 4.62,-8.65 8.29,-16.94 10.99,-24.87 2.72,-7.94 4.2,-16.94 4.48,-27.03 -1.23,-7.22 0.25,-13.35 4.49,-18.39 4.23,-5.04 4.72,-11.16 1.41,-18.37 -1.27,-7.22 0.6,-14.06 5.64,-20.55 4.97,-6.51 6.88,-13.33 5.61,-20.55 -1.23,-7.21 0.25,-13.33 4.48,-18.37 4.23,-5.06 5.72,-11.18 4.45,-18.39 0.56,-8.65 4.3,-16.58 11.2,-23.79 5.15,-5.77 7.66,-11.88 7.55,-18.37 -0.1,-6.49 1.38,-12.62 4.48,-18.39 5.12,-5.77 7.69,-11.53 7.73,-17.3 0.03,-5.77 -0.6,-12.25 -1.87,-19.46 -0.74,-4.33 0.7,-7.94 4.27,-10.81 3.6,-2.89 2.82,-7.2 -2.26,-12.97 -4.59,-2.89 -5.15,-6.13 -1.69,-9.74 3.45,-3.6 5.96,-6.85 7.51,-9.74 2.82,-7.21 5.86,-13.33 9.07,-18.38 3.21,-5.05 4.2,-11.18 2.96,-18.38 3.07,-5.76 5.15,-11.53 6.17,-17.3 1.06,-5.76 1.98,-12.24 2.76,-19.46 -1.24,-7.21 -0.29,-13.33 2.92,-18.38 3.25,-5.05 6.39,-10.45 9.46,-16.22 6.21,-11.52 7.76,-20.18 4.69,-25.97 -3.28,-7.19 -3.46,-14.03 -0.49,-20.52 2.96,-6.49 5.85,-13.36 8.67,-20.56 4.91,-7.19 7.94,-13.32 9.11,-18.37 1.16,-5.04 0.98,-11.87 -0.53,-20.55l0.81 -12.97 -1.13 -6.5c6.95,-7.19 10.33,-14.03 10.22,-20.52 -0.07,-6.49 1.27,-13.36 4.13,-20.55 1.51,-2.9 3.14,-5.4 4.8,-7.59 1.69,-2.15 1.23,-4.69 -1.31,-7.58 -3.32,-7.2 -2.96,-14.03 1.02,-20.53 3.99,-6.49 7.41,-13.32 10.22,-20.52 9.53,-15.86 11.85,-31.73 7.06,-47.6 -0.74,-4.34 -0.35,-7.94 1.2,-10.82 1.55,-2.9 2.96,-6.49 4.27,-10.79 3.07,-5.78 6.74,-11.17 10.96,-16.22 4.23,-5.04 5.71,-11.17 4.48,-18.4 -1.02,-5.75 0.14,-10.79 3.49,-15.12 3.35,-4.34 5.54,-9.39 6.56,-15.13 -0.98,-5.78 1.59,-14.42 7.76,-25.95 3.11,-5.79 1.2,-10.82 -5.68,-15.16 -9.2,-5.75 -8.92,-10.09 0.82,-12.94 12.55,-10.12 16.67,-21.65 12.37,-34.62 -1.02,-5.75 -0.28,-10.47 2.15,-14.03 2.43,-3.64 4.3,-7.59 5.61,-11.92 -7.13,-5.75 -9.49,-10.43 -7.06,-14.03 2.44,-3.63 5.47,-6.88 9.07,-9.77 8.96,-7.2 18.44,-14.42 28.42,-21.61 9.99,-7.2 22.68,-13.68 38.05,-19.47 15.34,-5.75 30.36,-10.43 45.1,-14.03 14.7,-3.63 30.36,-4.69 46.97,-3.24l46.02 0c6.14,0 11.49,1.44 16.11,4.3 4.59,2.89 9.17,5.79 13.75,8.68 6.38,1.41 8.29,6.49 5.71,15.12 -1.55,2.86 -3.07,5.79 -4.65,8.65 -1.52,2.89 0.14,6.49 4.97,10.82l0 0c2.29,1.44 2.54,2.89 0.74,4.3 -6.91,7.23 -8.61,15.16 -5.04,23.8 3.52,8.65 2.85,16.57 -2.01,23.8 -5.65,2.9 -6.14,5.75 -1.56,8.65 7.13,5.78 11.71,14.42 13.72,25.95 1.23,7.23 3.07,14.77 5.5,22.71 2.4,7.94 3.17,15.51 2.4,22.71 0.99,5.75 6.6,14.42 16.78,25.95zm-532.05 873.7c6.14,0 8.96,-1.45 8.44,-4.34 0,0 -0.11,-0.72 -0.36,-2.17l-3.07 0c-4.09,0 -5.78,2.17 -5.01,6.51zm-2.08 41.07c4.09,0 5.89,-1.43 5.4,-4.32 -0.99,-5.77 -2.01,-11.53 -3,-17.29 -1.02,-5.78 -0.99,-11.54 0.04,-17.31 -6.14,0 -9.99,1.44 -11.49,4.32 -2.09,11.53 -0.36,21.63 5.25,30.29 2.54,2.89 3.81,4.32 3.81,4.32zm698.34 451.98c1.23,7.21 2.36,13.69 3.39,19.46 0.98,5.78 4.05,11.53 9.13,17.3 5.12,5.78 5.72,9.38 1.91,10.8 -2.05,0 -2.97,0.72 -2.72,2.18l-8.08 6.49 0.39 2.15c0.25,1.44 -0.67,2.16 -2.68,2.16 -3.6,2.9 -8.29,5.4 -14.03,7.58 -5.75,2.16 -11.7,3.24 -17.84,3.24l-33.74 0c-20.95,-2.88 -38.08,-1.43 -51.41,4.33l-5.75 2.16c-11.49,-7.21 -23.17,-9.73 -35.08,-7.57 -11.88,2.16 -23.17,1.8 -33.92,-1.08 -4.09,0 -8.53,-2.16 -13.39,-6.49 -4.83,-4.33 -8.26,-9.37 -10.29,-15.14 -2.01,-5.76 -5.47,-10.8 -10.29,-15.12l5.82 -19.47 -8.68 -49.74c-1.77,-10.1 -0.74,-19.1 2.96,-27.02 3.74,-7.94 9.07,-15.51 16.01,-22.72 0,0 1.8,-1.45 5.4,-4.32 15.58,-4.33 30.49,-9.75 44.71,-16.23 14.2,-6.49 30.26,-11.17 48.17,-14.04 4.09,0 8.46,-1.45 13.04,-4.35 4.62,-2.88 9.1,-3.59 13.43,-2.15 10.72,2.9 20.95,5.77 30.64,8.64 9.7,2.9 19.28,7.94 28.7,15.15l3.46 2.17c5.36,7.2 7.62,14.41 6.84,21.62 -0.81,7.21 3.53,14.41 12.98,21.63l0.35 2.16c0.25,1.45 -0.64,2.17 -2.68,2.17 -4.62,8.65 -5.65,17.65 -2.97,27.04 2.65,9.37 4.73,18.37 6.25,27.02z"/>
   <path class="fil1" d="M8229.21 855.38l-0.14 -4.34c5.92,-7.23 12.33,-13.71 19.32,-19.46 6.95,-5.79 17.66,-8.82 31.87,-10.82 6.17,-0.89 13.18,-2.51 21.33,-3.25 8.19,-0.74 15.13,-2.89 21.34,-5.4 7.93,-3.24 15.19,-4.34 21.29,-4.34 12.31,0 24.55,0 36.85,0 12.27,0 120.13,15.2 130.29,13.75l0.07 2.19 64.42 0c12.27,0 21.41,-2.19 27.41,-6.49 4.05,-1.45 9.2,-0.74 15.4,2.15 26.84,7.2 52.39,7.2 76.69,0 6.07,-2.89 11.63,-3.99 16.78,-3.24 5.12,0.7 11.81,1.79 20.03,3.24 12.37,2.89 32.86,4.34 61.5,4.34 28.63,0 51.08,-1.45 67.35,-4.34 6.13,0 11.73,-0.39 16.85,-1.09 5.08,-0.71 9.7,0.35 13.89,3.24 16.39,1.45 32.82,2.54 49.19,3.25 16.39,0.7 125.04,-2.12 140.97,-9.74 8.22,-3.91 18.09,-3.1 30.74,2.19 8.08,3.35 17.42,2.15 27.55,-2.19 2.04,0 4.05,-0.35 6.1,-1.09 2.01,-0.71 5.08,-1.06 9.17,-1.06 10.22,0 19.39,0 27.61,0 8.15,0 17.38,0.95 27.69,2.15 2.01,0.25 12.83,2.19 32.4,6.49 19.57,4.34 30.56,6.99 32.5,8.68 6.49,5.54 11.67,14.03 16.11,24.86 4.45,10.79 8.82,19.82 13.12,27.01 0.1,2.9 -0.85,4.34 -2.93,4.34 -5.79,10.09 -14.74,17.32 -27.05,17.32l-116.57 0c-16.36,0 -31.59,2.85 -45.73,8.64l-12.27 0 -15.48 -4.34c-20.27,5.78 -131.8,7.94 -150.28,6.49 -18.44,-1.45 -37.87,-1.45 -58.25,0 -8.18,0 -14.24,2.89 -18.16,8.64 -1.87,5.79 -3.77,9.39 -5.78,10.82 -5.89,7.24 -9.24,14.78 -10.02,22.71 -0.78,7.94 -1.02,15.51 -0.81,22.71 2.89,25.96 4.23,51.55 4.02,76.8 -0.25,25.21 0.07,50.8 0.92,76.76 0.31,10.09 -1.52,17.31 -5.47,21.61 -6,4.34 -6.85,9.39 -2.58,15.13 6.42,8.67 9.81,18.75 10.15,30.29 0.81,24.51 1.59,48.66 2.33,72.46 0.78,23.76 2.58,47.92 5.4,72.42 0.28,8.67 0.03,17.66 -0.67,27.04 -0.74,9.35 3.17,18.38 11.6,27.03l0.14 4.34c-7.98,7.2 -11.28,15.49 -9.95,24.86 1.34,9.38 0.1,18.39 -3.74,27.04 -6.21,14.09 0.46,210.31 2.75,223.49 1.27,7.21 -0.25,14.31 -3.92,21.61 -2.11,4.25 -3.31,7.95 -4.26,10.82 -0.92,2.88 1.34,5.96 4.97,10.81 9.24,12.5 9.1,28.85 1.52,47.58 -3.95,4.33 -3.53,10.71 0.63,19.46 6.81,14.32 5.96,26.68 -1.9,36.78 -4.02,2.87 -4.94,5.4 -2.83,7.56 2.12,2.17 4.24,4.68 6.39,7.57 0.07,2.89 0.67,5.05 1.73,6.49 1.06,1.44 1.62,2.88 1.66,4.34 -7.84,10.08 -11.53,22.34 -11.07,36.74 0.25,8.66 -4.52,18.13 -11.31,30.3 -2.93,5.29 7.16,-0.36 9.38,5.4 10.47,7.22 12.02,13.07 6.77,19.47 -6.59,8.08 -8.64,17.3 -8.36,25.96 0.21,7.19 -0.07,14.4 -0.88,21.61 -0.78,7.21 -1.06,14.42 -0.81,21.63 0.07,2.89 -2.86,6.86 -8.86,11.89 -5.96,5.06 -10.96,8.29 -15.01,9.74 -16.33,0 -28.71,0.26 -36.74,2.17 -4.17,0.99 -8.61,2.88 -13.65,4.32 -5.08,1.45 -10.64,2.88 -16.74,4.33l-6.14 0c-14.53,-7.22 -28.43,-10.1 -41.68,-8.65 -13.25,1.43 -27.01,1 -41.4,0 -6.13,-0.43 -11.03,-1.88 -15.51,-4.35 -6,-3.32 -11.67,-6.27 -15.65,-10.79 -2.4,-2.69 -1.24,-5.77 2.78,-8.66 7.77,-12.96 7.41,-23.78 -1.05,-32.44 -4.2,-4.31 -5.33,-7.21 -3.32,-8.66 3.88,-5.76 7.76,-12.95 11.56,-21.61 6,-4.32 7.97,-7.22 5.86,-8.66 -4.38,-8.64 -4.59,-15.13 -0.64,-19.45 0,0 1.8,-6.46 -0.14,-4.34l-8.89 9.74c-8.36,-5.77 -9.24,-11.98 -3.7,-19.46 6.24,-8.4 8.61,-18.75 8.25,-30.29l-4.44 -138.4c-0.21,-7.21 0.46,-12.39 2.61,-15.12 5.71,-7.37 9.24,-14.43 10.05,-21.64 0.78,-7.21 1.06,-14.42 0.85,-21.62 -2.79,-86.26 4.09,-153.69 1.55,-232.15 -0.07,-2.89 1.87,-5.77 5.86,-8.65 4.02,-2.89 4.94,-6.49 2.75,-10.82 -12.66,-11.51 -13.04,-23.8 -1.2,-36.76 2.01,-1.44 1.97,-2.89 -0.14,-4.32 -8.4,-7.23 -11.7,-14.77 -9.91,-22.71 1.79,-7.93 -0.5,-15.51 -6.88,-22.71 -4.24,-4.34 -4.87,-8.29 -1.91,-11.87 2.96,-3.64 3.35,-6.88 1.24,-9.78 -4.34,-7.19 -3.53,-13.67 2.43,-19.46 1.94,-2.86 2.82,-7.2 2.65,-12.94l-0.43 -12.97c-0.35,-11.53 -3.7,-20.2 -10.02,-25.95l8.36 -25.96c3.74,-11.52 0.39,-20.2 -10.01,-25.99 -4.41,-10.09 -4.66,-17.27 -0.71,-21.61 5.89,-7.2 8.78,-13.68 8.57,-19.43l-4.76 -149.23c-0.28,-8.68 2.54,-15.86 8.5,-21.65 4.02,-2.85 5.96,-5.75 5.86,-8.64 -0.25,-8.64 -0.46,-15.12 -0.6,-19.46 -0.14,-4.34 -0.28,-8.29 -0.39,-11.92 -0.11,-3.6 -0.25,-7.55 -0.39,-11.88 -0.14,-4.3 -0.35,-10.82 -0.63,-19.46 -0.18,-5.75 -5.37,-8.64 -15.59,-8.64 -12.3,0 -24.05,-0.36 -35.32,-1.1 -11.28,-0.7 -22.96,1.1 -35.12,5.44 -3.99,2.85 -13.18,5.32 -27.44,4.3l-222.42 -15.9c-10.18,-0.74 -25.74,-5.43 -46.51,-16.22 -20.8,-10.82 -34.41,-19.81 -40.76,-27.01zm623.26 80.78l0 0z"/>
   <path class="fil1" d="M8824.12 2396.41c0.31,26.19 -138.61,17.73 -147.08,-9.09 -1.76,-5.63 -11.52,0.86 -17.27,-1 -4.34,0.16 -7.94,-3.83 -10.82,-11.91 -2.9,-10.14 -6.14,-19.73 -9.74,-28.83 -3.6,-9.09 -4.69,-18.77 -3.25,-29.05 0,-13.37 -3.1,-28.54 -6.31,-44.17 -5.36,-26.34 -10.96,-54.02 -2.33,-76.73 4.3,-11.36 7.9,-23.24 10.82,-35.61 4.3,-10.36 11.49,-17.76 21.62,-22.17 4.3,-2.2 11.52,-3.44 21.61,-3.75 8.64,-0.29 17.31,-3.64 25.96,-10.05 4.33,-4.23 9.38,-4.39 15.12,-0.5 4.34,6.01 9.38,6.87 15.16,2.6 -16.54,13.12 105.57,-26.56 152.42,36.54 4.31,5.76 -0.35,14.83 -3.24,23.1 -4.3,8.33 -9.91,22.89 0,27.62 39.6,18.85 10.68,132.53 -14.03,133.9 -9.99,0.54 -9.74,19.21 -18.37,29.73 -4.34,4.23 -9.03,7.44 -14.07,9.64 -5.04,2.22 -16.32,2.55 -16.21,9.73z"/>
  </g>
 </g>
</svg>
