<svg xmlns="http://www.w3.org/2000/svg" xmlns:xlink="http://www.w3.org/1999/xlink" version="1.1" id="Layer_1" x="0px" y="0px" viewBox="0 0 88 50" style="enable-background:new 0 0 88 50;" xml:space="preserve" width="300"  height="170" >
<style type="text/css">
	.st0{fill:#ffffff;}
</style>
<g>
	<path class="st0" d="M39.07,31.94c-0.33,0-0.68,0.09-1.06,0.28c-0.38,0.19-0.7,0.49-0.95,0.91c-0.25,0.41-0.38,0.87-0.38,1.36   c0,0.7,0.24,1.31,0.72,1.8c0.48,0.5,1.06,0.75,1.74,0.75c0.67,0,1.26-0.25,1.74-0.75c0.48-0.5,0.72-1.1,0.72-1.8   c0-0.69-0.24-1.29-0.71-1.79C40.41,32.19,39.8,31.94,39.07,31.94 M40.49,35.89c-0.37,0.39-0.82,0.58-1.34,0.58   c-0.52,0-0.98-0.2-1.35-0.58c-0.37-0.39-0.56-0.86-0.56-1.4c0-0.52,0.18-0.99,0.54-1.39c0.36-0.4,0.84-0.6,1.42-0.6   c0.27,0,0.55,0.08,0.85,0.24c0.29,0.16,0.54,0.4,0.72,0.71c0.19,0.31,0.28,0.66,0.28,1.04C41.05,35.03,40.86,35.5,40.49,35.89"/>
	<path class="st0" d="M39.74,34.81c-0.04-0.05-0.1-0.09-0.16-0.13c0.18-0.05,0.33-0.13,0.43-0.24c0.12-0.13,0.18-0.31,0.18-0.52   c0-0.22-0.07-0.41-0.22-0.56c-0.14-0.15-0.37-0.23-0.69-0.23h-1.26v2.75h0.6v-1.09h0.1c0.15,0,0.27,0.04,0.36,0.13   c0.09,0.09,0.21,0.26,0.33,0.51l0.23,0.45h0.73l-0.33-0.6C39.9,35.04,39.8,34.88,39.74,34.81 M39.45,34.19   c-0.08,0.05-0.23,0.08-0.43,0.08h-0.39v-0.64h0.44c0.17,0,0.3,0.03,0.38,0.08c0.08,0.05,0.12,0.13,0.12,0.23   C39.56,34.06,39.52,34.14,39.45,34.19"/>
	<path class="st0" d="M27.17,20.77c-0.25-0.22-0.52-0.4-0.8-0.53c-0.75-0.72-1.65-1.03-2.63-0.84c-3.17,0.6-5.52,5.38-5.82,11.56   c-0.18,3.8,0.66,6.8,2.02,8.39c0.32,0.56,0.69,1.04,1.11,1.4c0.63,0.56,1.35,0.85,2.08,0.85c0.16,0,0.33-0.01,0.5-0.04   c3.29-0.57,5.7-5.31,6-11.8C29.81,25.62,28.89,22.26,27.17,20.77 M20.88,30.48c0.19-4.14,1.3-6.39,2.66-6.65   c0.5-0.09,0.93,0.11,1.28,0.61c-0.16-0.03-0.33-0.03-0.5,0c-1.59,0.3-2.64,2.86-2.82,6.84c-0.09,2.04,0.09,3.59,0.52,4.6   C21.22,35.25,20.74,33.5,20.88,30.48 M25.62,29.57c-0.18,4-1.34,6.3-2.65,6.55c-0.13,0.02-0.25,0.03-0.37,0.01   c-0.55-0.87-0.81-2.58-0.71-4.84c0.2-4.45,1.42-6.25,2.49-6.46c0.07-0.01,0.13-0.02,0.19-0.02c0.19,0,0.37,0.06,0.54,0.18   C25.52,25.97,25.72,27.5,25.62,29.57 M29.21,29.74c-0.28,6.19-2.61,10.89-5.66,11.41c-0.8,0.14-1.55-0.1-2.24-0.71   c-0.04-0.04-0.09-0.08-0.13-0.12c0.5,0.23,1.04,0.31,1.59,0.21c3.29-0.57,5.55-5.52,5.83-11.6c0.15-3.22-0.38-5.81-1.32-7.48   C28.66,23.02,29.38,26.06,29.21,29.74"/>
	<path class="st0" d="M39.14,23.78c0-3.06-0.65-5.12-1.93-6.12c-0.2-0.16-0.42-0.29-0.65-0.39c-0.84-0.85-2.01-1.11-3.49-0.74   c-0.48,0.12-0.98,0.25-1.47,0.39c-0.5,0.14-0.99,0.27-1.48,0.41c-0.22,0.06-0.33,0.09-0.55,0.15c0,0.08,0,0.11,0,0.19   c0,0,0.54-0.14,0.53,3.48c-0.03,5.41-0.05,8.12-0.08,13.53c-0.04,3.63-0.57,3.77-0.57,3.77c0,0.08,0,0.11,0,0.19   c0.39-0.1,0.68-0.18,0.97-0.26c-0.1,0.5-0.2,0.66-0.24,0.7l-0.11,0.03l0,0.61l0.26-0.07c0.77-0.2,1.16-0.31,1.93-0.52l0.21-0.06   c0.77-0.21,1.16-0.32,1.93-0.54l0.15-0.04l0-0.61l-0.18,0.05c-0.09-0.12-0.35-0.71-0.35-3.25l0.01-1.52   C37.31,32.07,39.13,28.74,39.14,23.78 M33.04,21.02c0.87-0.19,1.48,0.07,1.86,0.61c-0.32-0.08-0.68-0.09-1.08,0l-0.16,0.03   l-0.03,5.63c-0.19,0.11-0.39,0.2-0.62,0.28C33.02,24.95,33.03,23.64,33.04,21.02 M35.38,23.66c-0.01,1.35-0.44,2.6-1.35,3.35   L34.06,22c0.45-0.07,0.82,0,1.12,0.19C35.32,22.61,35.39,23.11,35.38,23.66 M34.03,38.19c-0.63,0.18-1.01,0.28-1.7,0.47l-0.21,0.06   c-0.63,0.17-1,0.27-1.53,0.41c0.09-0.18,0.18-0.46,0.25-0.89c0.16-0.04,0.33-0.09,0.52-0.14c0.08-0.02,0.12-0.03,0.21-0.06   c0.77-0.21,1.16-0.32,1.93-0.54c0-0.08,0-0.11,0-0.19c0,0-0.54,0.15-0.53-3.47c0-0.67,0.01-1,0.01-1.66   c3.29-1.01,5.14-4.23,5.14-9.23c0-2.02-0.29-3.6-0.85-4.7c0.97,1.01,1.46,2.86,1.46,5.51c0,4.84-1.78,8.05-5,9.03l-0.14,0.04   l-0.01,1.81C33.57,36.63,33.73,37.81,34.03,38.19"/>
	<path class="st0" d="M55.12,30.3l-0.03,0.1c0,0-0.1,0.25-0.52,0.57c0-0.42,0-0.86,0-1.35c-0.04,0.01-0.06,0.02-0.1,0.03   c0,0-0.26,0.85-2.25,1.45c-1.46,0.44-2.63,0.38-3.57-0.07c-1.47-1.41-2.27-4.38-2.44-9.05c-0.06-1.81,0.21-5.24,0.97-8.5   C48,9.96,49.1,7.81,50.29,7.44c0.55-0.17,1.02-0.11,1.41,0.17c0.02,0.01,0.03,0.03,0.05,0.04c0.2,0.49,0.31,1.08,0.31,1.76   c0.03,3.86-2.38,5.07-3.5,3.56c0.35,2.19,0.9,3.49,1.54,4.12c0.62,1.23,1.35,1.52,1.96,1.48c2.15-0.15,4.5-4.97,4.56-9.37   c0.05-3.51-1.01-6.29-2.92-7.61c-0.16-0.11-0.32-0.21-0.48-0.29c-1.2-1.07-2.69-1.35-4.09-0.8C44.3,2.4,41.8,13.26,41.66,22.04   c-0.09,5.52,1.1,11.76,3.48,14.76c0.5,0.83,1.08,1.52,1.72,2.01c0.72,0.54,1.48,0.82,2.29,0.82c0.37,0,0.74-0.06,1.12-0.17   c2.02-0.61,3.05-0.91,5.16-1.51l0.15-0.04l0-7.75L55.12,30.3z M50.16,7.05C47.15,8,45.65,17.9,45.8,22   c0.13,3.74,0.65,6.37,1.6,8.07c-1.49-1.72-2.07-4.97-2.21-8.89c-0.15-4.06,1.34-13.84,4.22-14.74c0.84-0.26,1.52-0.02,1.98,0.58   C51.02,6.9,50.6,6.91,50.16,7.05 M56.21,9.2c-0.06,4.47-2.41,8.84-4.18,8.97c-0.44,0.03-0.83-0.19-1.18-0.64   c2.1,0.48,4.69-4.49,4.76-9.14c0.03-2.4-0.45-4.28-1.23-5.63C55.59,4.18,56.24,6.45,56.21,9.2 M50.16,39.08   c-1.1,0.32-2.12,0.12-3.05-0.58c-0.1-0.08-0.2-0.16-0.3-0.25c0.78,0.4,1.65,0.5,2.6,0.22c2.06-0.62,3.1-0.93,5.16-1.52   c0-2.25,0-3.63,0-5.48c0.28-0.18,0.47-0.35,0.61-0.49l0,6.64C53.17,38.18,52.14,38.49,50.16,39.08"/>
	<path class="st0" d="M63.78,10.65c-0.24-0.2-0.48-0.35-0.74-0.47c-0.76-0.73-1.67-1.03-2.65-0.82c-3.17,0.69-5.48,5.7-5.71,11.89   c-0.14,3.68,0.68,6.51,1.98,8.05c0.34,0.6,0.74,1.1,1.19,1.48c0.63,0.53,1.33,0.81,2.06,0.81c0.2,0,0.4-0.02,0.6-0.06   c3.29-0.66,5.64-5.39,5.87-11.78C66.52,15.53,65.55,12.13,63.78,10.65 M57.64,20.54c0.14-4.14,1.23-6.45,2.59-6.75   c0.5-0.11,0.95,0.1,1.3,0.6c-0.17-0.03-0.35-0.03-0.53,0.01c-1.58,0.35-2.61,2.94-2.75,6.94c-0.07,2,0.12,3.52,0.54,4.51   C58.03,25.24,57.54,23.53,57.64,20.54 M62.39,19.5c-0.14,4-1.28,6.3-2.58,6.59c-0.14,0.03-0.28,0.04-0.41,0.02   c-0.4-0.63-0.83-1.95-0.73-4.75c0.16-4.48,1.36-6.33,2.43-6.56c0.07-0.02,0.15-0.02,0.22-0.02c0.19,0,0.37,0.06,0.53,0.18   C62.25,15.92,62.46,17.45,62.39,19.5 M65.96,19.73c-0.22,6.19-2.44,10.77-5.54,11.39c-0.81,0.16-1.62-0.06-2.32-0.66   c-0.06-0.05-0.12-0.11-0.18-0.16c0.54,0.25,1.12,0.33,1.72,0.21c3.28-0.66,5.49-5.5,5.7-11.59c0.11-3.21-0.43-5.82-1.38-7.51   C65.33,12.98,66.09,16.08,65.96,19.73"/>
	<path class="st0" d="M75.38,23.24c0,0-0.04,0.33-0.55,0.63c0.01-0.44,0.03-0.9,0.05-1.44c-0.04,0-0.06,0.01-0.11,0.01   c0,0-0.03,0.94-2.04,1.21c-0.85,0.1-1.41,0.18-2.08,0.27l0.41-11.74c0.11-2.83,0.47-3.38,0.55-3.46l0.13-0.02l0.02-0.6l-0.8,0.12   c-0.21,0.03-0.39,0.06-0.56,0.08c0.16-0.57,0.32-0.59,0.32-0.59c0-0.07,0-0.11,0.01-0.19c-0.22,0.03-0.33,0.05-0.55,0.08   c-0.63,0.09-0.95,0.14-1.59,0.25c-0.77,0.13-1.16,0.19-1.93,0.33c0,0.07,0,0.11-0.01,0.19c0,0,0.54-0.09,0.43,3.47   c-0.19,5.32-0.28,7.99-0.46,13.31c-0.14,3.57-0.68,3.66-0.68,3.66c0,0.07,0,0.11-0.01,0.19c0.34-0.06,0.67-0.12,0.98-0.17   c-0.11,0.43-0.21,0.57-0.24,0.61l-0.12,0.02l-0.02,0.6L66.78,30c3.46-0.61,5.22-0.88,8.76-1.23l0.18-0.02l0.19-5.73l-0.51,0.05   L75.38,23.24z M71.02,8.61l0.19-0.03c-0.29,0.51-0.48,1.74-0.55,3.57l-0.41,11.82c-0.2,0.03-0.41,0.06-0.64,0.09   c0.05-1.53,0.08-2.29,0.13-3.81c0.06-1.72,0.09-2.58,0.15-4.3c0.06-1.61,0.08-2.41,0.14-4.02c0.01-0.24,0.01-0.35,0.02-0.59   c0.05-1.26,0.15-2.09,0.26-2.63C70.52,8.69,70.74,8.65,71.02,8.61 M75.32,28.38c-3.31,0.33-5.06,0.59-8.24,1.15   c0.1-0.18,0.19-0.45,0.26-0.79c2.64-0.45,4.36-0.69,7.36-0.99c0.05-1.4,0.08-2.34,0.11-3.42c0.3-0.14,0.51-0.29,0.65-0.44   L75.32,28.38z"/>
	<path class="st0" d="M87.71,27.24c-0.08-0.1-0.4-0.66-0.41-3.37l0-0.28l0,0v-17l-0.21,0c-0.28,0-0.55,0-0.81,0.01V5.99   c-2.79,0.02-4.18,0.1-6.97,0.37c0,0.07,0,0.11,0,0.19c0,0,0.47-0.04,0.6,0.93l0,0.11l0.02,0c0.04,0.42,0.03,1-0.09,1.82   c-1.07,6.43-1.61,9.66-2.68,16.12c-0.26,1.75-0.77,1.81-0.77,1.81c0,0.06,0,0.13,0,0.19c0.43-0.06,0.8-0.1,1.14-0.14   c-0.18,0.49-0.35,0.57-0.35,0.57L77,27.97l-0.01,0.17c0,0.05,0,0.09,0,0.14l-0.01,0.29l0.23-0.03c1.46-0.19,2.15-0.26,3.55-0.39   l0.19-0.02v-0.37l0.03-0.18l-0.18-0.02c0,0-0.28-0.19-0.05-1.53c0.15-0.86,0.33-1.77,0.51-2.66c0.08-0.39,0.16-0.79,0.24-1.18   c0.59,0.37,1.18,0.82,1.82,1.41c-0.01,1.05,0.06,2.68-0.53,3.14c0,0.08,0,0.11,0,0.19c0.36-0.02,0.68-0.04,0.98-0.05   c-0.07,0.23-0.16,0.42-0.29,0.51l-0.08,0.06l-0.01,0.51l0.22-0.01c1.66-0.09,2.45-0.11,4.05-0.11h0.2v-0.59L87.71,27.24z    M83.33,18.31c-0.31-0.26-0.63-0.5-0.96-0.71c0.39-2.09,0.71-3.89,0.97-5.45C83.33,14.21,83.33,16.26,83.33,18.31 M83.24,11.15   l-0.16,0.01l-0.03,0.16c-0.27,1.69-0.62,3.66-1.06,6.03c-0.22-0.17-0.45-0.32-0.67-0.46c0.41-2.22,0.8-4.38,1.12-6.35   c0.36-0.02,0.53-0.03,0.89-0.05c0,0.22,0,0.44,0,0.66C83.3,11.15,83.28,11.15,83.24,11.15 M81.45,21.69l-0.25-0.14l-0.05,0.28   c-0.09,0.49-0.19,0.98-0.29,1.46c-0.18,0.89-0.36,1.81-0.51,2.67c-0.15,0.89-0.12,1.5,0.09,1.8c-1.08,0.1-1.75,0.17-2.83,0.31   c0.12-0.15,0.24-0.39,0.35-0.75c0.6-0.07,1.18-0.12,1.98-0.19v-0.19c0,0-0.5-0.05-0.2-1.76c0.23-1.32,0.53-2.75,0.8-4.13   c0.4,0.23,0.78,0.5,1.15,0.78C81.61,21.79,81.53,21.74,81.45,21.69 M83.9,27.52c0.13-0.17,0.21-0.4,0.28-0.66   c0.85-0.03,1.57-0.04,2.66-0.04v-0.19c0,0-0.54,0-0.55-3.57c0,0,0,0,0,0c0-6.48,0-9.89,0-16.05c0.2,0,0.4,0,0.61-0.01v17.07h0   c0.02,1.77,0.17,2.9,0.45,3.35C86.03,27.43,85.25,27.45,83.9,27.52"/>
	<path class="st0" d="M17.97,24.7c-0.08-7.2-3.2-10.96-5.99-12.72c-1.58-1.26-3.21-1.84-4.32-1.94c-6.98-0.63-9.03,6.43-6.43,9.12   c0.54,1.08,1.51,1.82,2.77,1.99l0.5,0.07l-0.31-0.39c-0.01-0.01-0.7-0.91-0.57-1.97C3.69,18.28,4,17.76,4.53,17.3   C4.74,26,4.99,39.67,4.99,44.88c-0.01,3.63-0.55,3.66-0.55,3.66v0.19c0.37-0.03,0.66-0.05,0.93-0.07   c-0.08,0.33-0.15,0.45-0.19,0.49l-0.14,0.01v0.6l0.22-0.02c0.86-0.06,1.28-0.1,2.13-0.18c0.07-0.01,0.12-0.03,0.15-0.05   c0.22-0.02,0.44-0.04,0.67-0.05c0.39-0.03,0.78-0.06,1.14-0.1l0.73-0.09v-0.6l-0.16,0.02C9.85,48.58,9.55,48,9.54,45.34l0-4.45   c0.64-0.19,2.11-0.97,3.56-2.4C16.4,35.24,18.03,30.6,17.97,24.7 M8.53,15.77c0.2,0.1,0.4,0.21,0.61,0.34v17.2   c-0.2,0.09-0.41,0.15-0.61,0.19C8.53,29.15,8.53,20.9,8.53,15.77 M10.23,16.93c1.91,1.68,3.11,5.28,3.19,7.59   c0.14,3.99-1.77,7.4-3.87,8.59V16.38C9.77,16.55,10,16.73,10.23,16.93 M4.42,16.86c-0.71,0.55-1.12,1.2-1.21,1.94   c-0.1,0.76,0.17,1.44,0.39,1.85c-0.57-0.15-1.03-0.44-1.39-0.8c0.3,0.14,0.63,0.23,0.99,0.28c0,0-1.72-2.2,0.52-3.93   c0.23-0.18,0.48-0.34,0.75-0.48c0.01,0.34,0.02,0.7,0.03,1.06C4.48,16.82,4.45,16.84,4.42,16.86 M9.31,40.53l-0.18,0.02v4.79   c0.01,1.95,0.16,3.15,0.46,3.58l-0.28,0.03C8.96,49,8.58,49.03,8.2,49.05c-0.29,0.02-0.59,0.04-0.86,0.07   c-0.07,0.01-0.12,0.03-0.15,0.05c-0.63,0.06-1.02,0.09-1.62,0.14c0.09-0.16,0.17-0.39,0.23-0.69c0.23-0.02,0.47-0.04,0.77-0.07   c0.15-0.01-0.18-0.02-0.03-0.04c0.63-0.06,1.35-0.1,1.98-0.17c0.22-0.03,0.33-0.04,0.55-0.07v-0.19c0,0-0.54,0.07-0.55-3.56   c0-3.47,0-1.14,0-4.61c0.4-0.05,1.98-0.76,3.62-2.39c1.9-1.87,4.89-5.78,4.8-13.64c-0.04-3.96-1.04-6.91-2.4-9.04   c1.65,2.11,2.96,5.26,3.01,9.85c0.06,5.78-1.53,10.32-4.74,13.49C11.16,39.84,9.61,40.49,9.31,40.53"/>
</g>
</svg>