<svg xmlns="http://www.w3.org/2000/svg" xmlns:xlink="http://www.w3.org/1999/xlink" version="1.1" id="Layer_1" x="0px" y="0px" viewBox="0 0 82 50" style="enable-background:new 0 0 82 50;" xml:space="preserve" width="292"  height="178" >
<polygon points="4.59,13.89 4.56,13.89 3.79,7.99 1.02,7.99 2.96,16.19 6.17,16.19 8.17,7.99 5.35,7.99 "/>
<rect x="8.49" y="5.37" width="2.73" height="2.03"/>
<path d="M15.3,5.58h-2.73v2.41h-1.35h-0.07H8.49v8.2h2.73V9.82h1.35v4.37c0,0.45,0.04,0.82,0.13,1.1c0.09,0.28,0.22,0.49,0.41,0.63  c0.19,0.14,0.43,0.23,0.72,0.27c0.29,0.04,0.65,0.05,1.06,0.05c0.23,0,0.48-0.01,0.73-0.02c0.25-0.01,0.51-0.02,0.76-0.02v-1.82  h-0.42c-0.22,0-0.39-0.05-0.49-0.14c-0.11-0.1-0.16-0.26-0.16-0.49V9.82h1.08V7.99H15.3V5.58z"/>
<path d="M23.48,14.42v-4c0-0.54-0.08-0.97-0.24-1.31c-0.16-0.34-0.38-0.61-0.67-0.8c-0.29-0.2-0.63-0.33-1.03-0.41  c-0.4-0.08-0.84-0.11-1.31-0.11c-0.31,0-0.65,0.03-1.02,0.1c-0.36,0.07-0.7,0.2-1.02,0.39c-0.31,0.2-0.58,0.48-0.79,0.83  c-0.21,0.36-0.32,0.84-0.32,1.43h2.37c0.01-0.43,0.08-0.73,0.2-0.87c0.12-0.15,0.31-0.22,0.58-0.22c0.46,0,0.7,0.25,0.7,0.76  c0,0.25-0.06,0.45-0.18,0.58c-0.12,0.14-0.33,0.24-0.62,0.31l-1.08,0.26c-0.43,0.1-0.8,0.23-1.09,0.37  c-0.29,0.15-0.53,0.32-0.7,0.53c-0.17,0.21-0.3,0.45-0.37,0.74c-0.08,0.28-0.11,0.62-0.11,1c0,0.35,0.04,0.68,0.12,0.97  c0.08,0.29,0.21,0.55,0.39,0.76c0.18,0.21,0.42,0.37,0.71,0.48c0.29,0.11,0.64,0.16,1.05,0.16c0.42,0,0.8-0.09,1.13-0.27  c0.33-0.18,0.57-0.45,0.72-0.82h0.03c0.02,0.17,0.04,0.33,0.06,0.49c0.02,0.15,0.06,0.3,0.11,0.44h2.64  c-0.11-0.21-0.18-0.46-0.21-0.76C23.5,15.14,23.48,14.8,23.48,14.42 M20.94,13.22c0,0.46-0.07,0.79-0.2,1.02  c-0.13,0.22-0.35,0.33-0.65,0.33c-0.2,0-0.36-0.08-0.49-0.24c-0.12-0.16-0.18-0.38-0.18-0.65c0-0.27,0.04-0.49,0.12-0.66  c0.08-0.17,0.23-0.3,0.44-0.4c0.2-0.09,0.39-0.15,0.55-0.17c0.17-0.02,0.29-0.09,0.37-0.2h0.03V13.22z"/>
<path d="M34.68,8.23C34.48,8.06,34.26,7.94,34,7.88c-0.26-0.07-0.54-0.1-0.84-0.1c-0.42,0-0.82,0.09-1.19,0.28  c-0.37,0.19-0.66,0.51-0.87,0.98c-0.17-0.42-0.41-0.74-0.71-0.95c-0.3-0.21-0.73-0.31-1.3-0.31c-0.97,0-1.63,0.4-1.99,1.21h-0.03v-1  h-2.64v8.2h2.73v-5.41c0-0.34,0.05-0.59,0.15-0.74c0.1-0.15,0.27-0.23,0.52-0.23c0.24,0,0.41,0.08,0.52,0.23  c0.1,0.15,0.15,0.4,0.15,0.74v5.41h2.73v-5.41c0-0.34,0.05-0.59,0.15-0.74c0.1-0.15,0.27-0.23,0.52-0.23c0.24,0,0.41,0.08,0.52,0.23  c0.1,0.15,0.15,0.4,0.15,0.74v5.41h2.73v-6.19c0-0.44-0.06-0.81-0.17-1.09C35.02,8.63,34.87,8.4,34.68,8.23"/>
<rect x="36.18" y="14.16" width="2.73" height="2.03"/>
<rect x="36.18" y="5.37" width="2.73" height="8.2"/>
<path d="M46.04,8.23c-0.19-0.17-0.42-0.29-0.68-0.36c-0.26-0.07-0.54-0.1-0.84-0.1c-0.97,0-1.63,0.4-1.99,1.21H42.5v-1h-2.64v8.2  h2.73v-5.41c0-0.34,0.05-0.59,0.15-0.74c0.1-0.15,0.27-0.23,0.52-0.23c0.24,0,0.41,0.08,0.52,0.23c0.1,0.15,0.15,0.4,0.15,0.74v5.41  h2.73v-6.19c0-0.44-0.06-0.81-0.17-1.09C46.38,8.63,46.23,8.4,46.04,8.23"/>
<path d="M57.01,14.42v-4c0-0.54-0.08-0.97-0.24-1.31c-0.16-0.34-0.38-0.61-0.67-0.8c-0.29-0.2-0.63-0.33-1.03-0.41  c-0.4-0.08-0.84-0.11-1.31-0.11c-0.31,0-0.65,0.03-1.02,0.1c-0.36,0.07-0.7,0.2-1.02,0.39c-0.31,0.2-0.58,0.48-0.79,0.83  c-0.21,0.36-0.32,0.84-0.32,1.43h2.37c0.01-0.43,0.08-0.73,0.2-0.87c0.12-0.15,0.31-0.22,0.58-0.22c0.46,0,0.7,0.25,0.7,0.76  c0,0.25-0.06,0.45-0.18,0.58c-0.12,0.14-0.33,0.24-0.62,0.31l-1.08,0.26c-0.43,0.1-0.8,0.23-1.09,0.37  c-0.29,0.15-0.53,0.32-0.7,0.53c-0.17,0.21-0.3,0.45-0.37,0.74c-0.08,0.28-0.11,0.62-0.11,1c0,0.35,0.04,0.68,0.12,0.97  c0.08,0.29,0.21,0.55,0.39,0.76c0.18,0.21,0.42,0.37,0.71,0.48c0.29,0.11,0.64,0.16,1.05,0.16c0.42,0,0.8-0.09,1.13-0.27  c0.33-0.18,0.57-0.45,0.72-0.82h0.03c0.02,0.17,0.04,0.33,0.06,0.49c0.02,0.15,0.06,0.3,0.11,0.44h2.64  c-0.11-0.21-0.18-0.46-0.21-0.76C57.03,15.14,57.01,14.8,57.01,14.42 M54.46,13.22c0,0.46-0.07,0.79-0.2,1.02  c-0.13,0.22-0.35,0.33-0.65,0.33c-0.2,0-0.36-0.08-0.49-0.24c-0.12-0.16-0.18-0.38-0.18-0.65c0-0.27,0.04-0.49,0.12-0.66  c0.08-0.17,0.23-0.3,0.44-0.4c0.2-0.09,0.39-0.15,0.55-0.17c0.17-0.02,0.29-0.09,0.37-0.2h0.03V13.22z"/>
<path d="M62.15,9.11h-0.03c-0.17-0.46-0.4-0.79-0.7-1.01c-0.29-0.22-0.68-0.33-1.17-0.33c-0.91,0-1.55,0.37-1.91,1.11  c-0.36,0.74-0.55,1.87-0.55,3.38c0,0.79,0.06,1.45,0.17,1.98c0.12,0.53,0.28,0.96,0.49,1.27c0.21,0.32,0.48,0.54,0.79,0.66  c0.31,0.12,0.67,0.18,1.06,0.18c0.38,0,0.73-0.08,1.04-0.23c0.31-0.15,0.53-0.44,0.67-0.86h0.03v3.55h2.73V7.99h-2.64V9.11z   M62.03,13.19c-0.02,0.29-0.06,0.53-0.11,0.71c-0.06,0.18-0.13,0.3-0.24,0.37c-0.1,0.07-0.23,0.11-0.38,0.11  c-0.16,0-0.29-0.04-0.39-0.11c-0.1-0.07-0.18-0.19-0.24-0.37c-0.06-0.18-0.09-0.41-0.11-0.71c-0.02-0.29-0.03-0.66-0.03-1.11  c0-0.45,0.01-0.81,0.03-1.1c0.02-0.29,0.06-0.52,0.11-0.7c0.06-0.18,0.13-0.3,0.24-0.37c0.1-0.07,0.23-0.11,0.39-0.11  c0.15,0,0.28,0.04,0.38,0.11c0.1,0.07,0.18,0.19,0.24,0.37c0.06,0.18,0.09,0.41,0.11,0.7c0.02,0.29,0.03,0.65,0.03,1.1  C62.06,12.53,62.05,12.9,62.03,13.19"/>
<path d="M69.81,13.4c0,0.34-0.05,0.59-0.15,0.74c-0.1,0.15-0.27,0.23-0.52,0.23c-0.24,0-0.41-0.08-0.52-0.23  c-0.1-0.15-0.15-0.4-0.15-0.74V7.99h-2.73v6.19c0,0.43,0.06,0.8,0.17,1.08c0.11,0.29,0.26,0.52,0.45,0.68  c0.19,0.17,0.42,0.28,0.67,0.33c0.26,0.06,0.54,0.08,0.84,0.08c0.98,0,1.64-0.39,1.99-1.17h0.03v1h2.64v-8.2h-2.73V13.4z"/>
<path d="M79.82,14.42v-4c0-0.54-0.08-0.97-0.24-1.31c-0.16-0.34-0.38-0.61-0.67-0.8c-0.29-0.2-0.63-0.33-1.03-0.41  c-0.4-0.08-0.84-0.11-1.31-0.11c-0.31,0-0.65,0.03-1.02,0.1c-0.36,0.07-0.7,0.2-1.02,0.39c-0.31,0.2-0.58,0.48-0.79,0.83  c-0.21,0.36-0.32,0.84-0.32,1.43h2.37c0.01-0.43,0.08-0.73,0.2-0.87c0.12-0.15,0.31-0.22,0.58-0.22c0.46,0,0.7,0.25,0.7,0.76  c0,0.25-0.06,0.45-0.18,0.58c-0.12,0.14-0.33,0.24-0.62,0.31l-1.08,0.26c-0.43,0.1-0.8,0.23-1.09,0.37  c-0.29,0.15-0.53,0.32-0.7,0.53c-0.17,0.21-0.3,0.45-0.37,0.74c-0.08,0.28-0.11,0.62-0.11,1c0,0.35,0.04,0.68,0.12,0.97  c0.08,0.29,0.21,0.55,0.39,0.76c0.18,0.21,0.42,0.37,0.71,0.48c0.29,0.11,0.64,0.16,1.05,0.16c0.42,0,0.8-0.09,1.13-0.27  c0.33-0.18,0.57-0.45,0.72-0.82h0.03c0.02,0.17,0.04,0.33,0.06,0.49c0.02,0.15,0.06,0.3,0.11,0.44h2.64  c-0.11-0.21-0.18-0.46-0.21-0.76C79.84,15.14,79.82,14.8,79.82,14.42 M77.27,13.22c0,0.46-0.07,0.79-0.2,1.02  c-0.13,0.22-0.35,0.33-0.65,0.33c-0.2,0-0.36-0.08-0.49-0.24c-0.12-0.16-0.18-0.38-0.18-0.65c0-0.27,0.04-0.49,0.12-0.66  c0.08-0.17,0.23-0.3,0.44-0.4c0.2-0.09,0.39-0.15,0.55-0.17c0.17-0.02,0.29-0.09,0.37-0.2h0.03V13.22z"/>
<path d="M34.14,7c0.37,0.06,1.15-0.76,0.94-1.05c-12-0.73-18.29,2.7-18.18-1.45c0.01-0.32,0.04-0.64,0.12-0.96  c0.07-0.32,0.17-0.63,0.3-0.93c0.13-0.3,0.26-0.56,0.4-0.79c0.14-0.23,0.29-0.41,0.44-0.55c0.15-0.14,0.29-0.2,0.41-0.2  c0.14,0,0.23,0.06,0.28,0.19c0.05,0.13,0.07,0.29,0.05,0.5c-0.15,0.21-0.29,0.43-0.44,0.67c-0.14,0.24-0.28,0.48-0.4,0.73  c-0.12,0.24-0.23,0.48-0.33,0.7c-0.1,0.22-0.17,0.42-0.23,0.59c-0.12,0.34-0.15,0.6-0.11,0.77c0.05,0.17,0.14,0.26,0.28,0.25  c0.14,0,0.31-0.1,0.51-0.29c0.2-0.19,0.39-0.47,0.58-0.85c0.09-0.18,0.18-0.4,0.26-0.64c0.08-0.24,0.14-0.48,0.19-0.73  c0.05-0.25,0.08-0.5,0.1-0.74c0.02-0.24,0.01-0.46-0.03-0.66c0.13-0.15,0.25-0.28,0.36-0.37c0.11-0.09,0.21-0.13,0.3-0.13  c0.15,0,0.25,0.06,0.3,0.19c0.04,0.13,0.05,0.29,0.02,0.49c-0.03,0.2-0.09,0.42-0.18,0.66c-0.09,0.24-0.19,0.47-0.31,0.7  c-0.13,0.26-0.24,0.54-0.32,0.83c-0.08,0.29-0.12,0.55-0.11,0.79c0.01,0.24,0.06,0.44,0.17,0.6c0.11,0.16,0.29,0.24,0.55,0.24  c0.17,0,0.33-0.03,0.47-0.09c0.14-0.06,0.27-0.14,0.38-0.23c0.1-0.08,0.17-0.18,0.24-0.28c0.02,0.06,0.05,0.13,0.09,0.18  c0.08,0.13,0.19,0.23,0.32,0.3c0.13,0.07,0.27,0.11,0.42,0.12c0.15,0.01,0.31-0.01,0.48-0.07c0.17-0.05,0.33-0.14,0.49-0.26  c0.16-0.12,0.31-0.27,0.44-0.45c0.14-0.18,0.26-0.4,0.35-0.64c0,0,0,0,0,0l0.23-0.54c0.1,0.04,0.2,0.07,0.29,0.09  c0.09,0.02,0.18,0.02,0.26,0.02c-0.09,0.15-0.17,0.33-0.23,0.53c-0.06,0.2-0.1,0.39-0.11,0.57c-0.01,0.18,0.02,0.34,0.07,0.48  c0.06,0.14,0.16,0.22,0.3,0.25c0.11,0.03,0.21,0.02,0.31-0.03c0.1-0.05,0.19-0.12,0.28-0.2c0.09-0.09,0.17-0.19,0.24-0.3  c0.07-0.11,0.14-0.23,0.2-0.34c0.04-0.07,0.07-0.13,0.1-0.2c0,0.04,0,0.07,0,0.11c0,0.3,0.06,0.54,0.16,0.72  c0.1,0.18,0.26,0.27,0.48,0.27c0.14,0,0.27-0.06,0.39-0.17c0.12-0.11,0.24-0.25,0.34-0.4c0.08-0.12,0.14-0.24,0.21-0.36  c-0.01,0.14-0.02,0.27,0,0.38c0.02,0.14,0.07,0.26,0.14,0.35c0.07,0.09,0.17,0.15,0.3,0.17c0.11,0.02,0.21,0.01,0.31-0.04  c0.1-0.05,0.2-0.12,0.29-0.2c0.09-0.09,0.17-0.19,0.25-0.3c0.04-0.05,0.07-0.11,0.11-0.16c-0.02,0.13-0.03,0.25-0.01,0.35  c0.02,0.14,0.06,0.25,0.12,0.31c0.05,0.06,0.12,0.07,0.19,0.04c0.07-0.03,0.13-0.11,0.18-0.25l0.03-0.09  c0.09-0.24,0.2-0.48,0.34-0.7c0.13-0.23,0.27-0.43,0.42-0.61c0.14-0.18,0.28-0.32,0.41-0.42c0.13-0.11,0.24-0.16,0.32-0.16  c-0.01,0.03-0.03,0.08-0.05,0.14c-0.03,0.07-0.05,0.14-0.09,0.22c-0.03,0.08-0.06,0.17-0.1,0.25c-0.03,0.09-0.06,0.17-0.09,0.24  c-0.07,0.21-0.11,0.39-0.13,0.57c-0.02,0.17-0.02,0.32,0,0.44c0.02,0.13,0.07,0.22,0.14,0.29c0.07,0.07,0.16,0.11,0.27,0.11  c0.16,0,0.31-0.06,0.45-0.17c0.14-0.12,0.27-0.25,0.38-0.41c0.11-0.16,0.21-0.31,0.29-0.47c0.08-0.16,0.14-0.28,0.17-0.37  c0.03-0.08,0.05-0.14,0.06-0.18c0-0.04,0-0.06-0.02-0.06c-0.02,0-0.04,0.02-0.07,0.06c-0.03,0.04-0.06,0.1-0.1,0.18  c-0.07,0.16-0.15,0.31-0.24,0.45c-0.09,0.14-0.18,0.26-0.27,0.36c-0.09,0.1-0.18,0.18-0.26,0.23c-0.08,0.05-0.16,0.07-0.22,0.05  c-0.06-0.02-0.08-0.07-0.07-0.16c0.01-0.09,0.04-0.2,0.1-0.34c0.05-0.13,0.12-0.28,0.19-0.45c0.07-0.16,0.15-0.33,0.21-0.49  c0.07-0.16,0.12-0.32,0.17-0.47c0.04-0.15,0.06-0.28,0.05-0.38c-0.01-0.13-0.06-0.22-0.15-0.28c-0.09-0.06-0.19-0.08-0.32-0.07  c-0.13,0.01-0.27,0.07-0.42,0.16c-0.15,0.09-0.3,0.23-0.44,0.4c-0.18,0.22-0.35,0.47-0.51,0.74c0.06-0.2,0.12-0.4,0.17-0.59  c0.05-0.19,0.1-0.36,0.13-0.51c0.03-0.12,0.02-0.21-0.01-0.26c-0.04-0.05-0.08-0.08-0.14-0.08s-0.12,0.03-0.18,0.08  c-0.06,0.05-0.11,0.12-0.14,0.21c-0.07,0.2-0.14,0.4-0.21,0.59C29.14,3.5,29.07,3.68,29,3.85c-0.05,0.12-0.09,0.22-0.13,0.32  c-0.05,0.11-0.12,0.23-0.2,0.36C28.59,4.66,28.5,4.79,28.4,4.9c-0.1,0.11-0.19,0.2-0.29,0.26c-0.1,0.06-0.18,0.08-0.26,0.05  c-0.05-0.02-0.07-0.07-0.08-0.15c0-0.08,0.01-0.18,0.04-0.3c0.03-0.12,0.07-0.25,0.13-0.39c0.05-0.14,0.11-0.29,0.18-0.43  c0.07-0.14,0.14-0.28,0.21-0.41c0.07-0.13,0.14-0.24,0.21-0.34c0.05-0.07,0.07-0.16,0.04-0.26c-0.03-0.1-0.07-0.18-0.14-0.24  c-0.07-0.07-0.14-0.1-0.23-0.11c-0.09-0.01-0.16,0.05-0.23,0.15c-0.12,0.2-0.23,0.4-0.33,0.61c-0.1,0.21-0.18,0.41-0.24,0.61  c-0.02,0.06-0.03,0.12-0.05,0.18c-0.04,0.09-0.09,0.2-0.17,0.32c-0.07,0.13-0.15,0.24-0.24,0.36c-0.09,0.11-0.18,0.21-0.27,0.29  c-0.09,0.08-0.18,0.12-0.25,0.12c-0.07,0-0.12-0.05-0.15-0.14c-0.03-0.09-0.04-0.22-0.04-0.38c0-0.16,0.03-0.34,0.06-0.56  c0.04-0.21,0.09-0.44,0.16-0.67c0.04-0.06,0.11-0.15,0.18-0.25c0.08-0.11,0.17-0.23,0.26-0.37c0.09-0.14,0.19-0.28,0.3-0.44  c0.11-0.16,0.21-0.32,0.32-0.48c0.19-0.3,0.31-0.55,0.35-0.76c0.05-0.2,0.04-0.35-0.01-0.44c-0.05-0.09-0.15-0.13-0.28-0.12  c-0.13,0.02-0.28,0.09-0.44,0.22c-0.16,0.13-0.33,0.32-0.51,0.57c-0.17,0.25-0.33,0.56-0.47,0.92c-0.16,0.42-0.28,0.82-0.36,1.2  c-0.05,0.21-0.08,0.4-0.1,0.59c0,0,0,0,0,0.01c-0.05,0.12-0.12,0.25-0.21,0.39c-0.09,0.14-0.18,0.26-0.28,0.38s-0.2,0.2-0.29,0.26  c-0.1,0.06-0.18,0.08-0.25,0.05c-0.06-0.02-0.09-0.07-0.1-0.14c-0.01-0.07,0-0.16,0.02-0.26c0.02-0.1,0.06-0.21,0.1-0.34  c0.05-0.12,0.1-0.25,0.16-0.38c0.06-0.13,0.13-0.25,0.2-0.37c0.07-0.12,0.14-0.23,0.21-0.33c0.05-0.07,0.07-0.16,0.04-0.26  c-0.03-0.1-0.07-0.18-0.14-0.24c-0.07-0.07-0.14-0.1-0.23-0.11c-0.09-0.01-0.16,0.05-0.23,0.15l-0.01,0.01  c-0.07,0.11-0.16,0.17-0.26,0.18c-0.1,0.01-0.19,0-0.28-0.05c0.03-0.08,0.05-0.16,0.07-0.24c0.02-0.08,0.01-0.16-0.01-0.23  c-0.02-0.07-0.06-0.12-0.12-0.16c-0.06-0.04-0.14-0.05-0.24-0.05c-0.13,0.01-0.23,0.06-0.29,0.15c-0.06,0.09-0.1,0.19-0.1,0.31  s0.03,0.24,0.1,0.36c0.06,0.12,0.16,0.22,0.29,0.3l-0.26,0.59c0,0,0,0,0,0c-0.06,0.13-0.13,0.25-0.22,0.36  c-0.09,0.11-0.19,0.21-0.3,0.3c-0.11,0.08-0.24,0.15-0.39,0.19c-0.15,0.04-0.31,0.06-0.5,0.04c-0.11-0.01-0.21-0.05-0.29-0.1  c-0.08-0.05-0.14-0.12-0.19-0.2c-0.05-0.08-0.08-0.18-0.1-0.28c-0.02-0.11-0.02-0.21-0.01-0.33c0.05,0.06,0.12,0.12,0.21,0.17  c0.09,0.05,0.19,0.1,0.29,0.13c0.11,0.03,0.22,0.04,0.35,0.03c0.12-0.01,0.25-0.05,0.37-0.13c0.1-0.06,0.19-0.15,0.27-0.25  c0.08-0.11,0.15-0.22,0.2-0.35c0.05-0.12,0.08-0.25,0.09-0.38c0.01-0.13-0.01-0.25-0.05-0.35c-0.04-0.11-0.11-0.19-0.21-0.26  c-0.1-0.07-0.23-0.11-0.4-0.12c-0.17-0.01-0.34,0.03-0.5,0.12c-0.16,0.09-0.31,0.2-0.45,0.35c-0.14,0.14-0.26,0.31-0.37,0.5  c-0.06,0.1-0.1,0.2-0.15,0.3c-0.01-0.01-0.01-0.02-0.02-0.03c-0.07-0.1-0.15-0.16-0.23-0.17c-0.09-0.01-0.16,0-0.24,0.04  c-0.07,0.04-0.13,0.09-0.18,0.16c-0.05,0.07-0.07,0.13-0.07,0.19c0.07,0,0.12,0.03,0.15,0.1c0.04,0.06,0.06,0.14,0.06,0.24  c0,0.09-0.01,0.2-0.03,0.31c-0.02,0.11-0.06,0.21-0.12,0.31c-0.05,0.09-0.12,0.17-0.21,0.24c-0.08,0.06-0.18,0.1-0.3,0.1  c-0.16,0-0.26-0.06-0.3-0.17c-0.04-0.12-0.04-0.27,0.01-0.46c0.05-0.19,0.13-0.41,0.24-0.66c0.11-0.25,0.24-0.5,0.37-0.76  c0.1-0.19,0.18-0.38,0.24-0.58c0.06-0.2,0.1-0.39,0.12-0.58c0.02-0.19,0.02-0.36,0-0.52c-0.02-0.16-0.07-0.3-0.13-0.42  c-0.07-0.12-0.16-0.21-0.27-0.27c-0.11-0.06-0.25-0.09-0.41-0.08c-0.11,0.01-0.23,0.06-0.36,0.14c-0.12,0.09-0.25,0.2-0.37,0.34  C19.19,1.17,19.11,1.05,19,0.96c-0.11-0.09-0.24-0.13-0.41-0.11c-0.19,0.01-0.39,0.1-0.59,0.25c-0.21,0.15-0.41,0.35-0.6,0.58  c-0.19,0.24-0.37,0.51-0.54,0.8c-1.21,2.1-0.68,3.35-0.17,3.83C18.56,8.03,26.8,5.82,34.14,7 M18.69,2.83  c-0.06,0.22-0.13,0.43-0.2,0.64c-0.07,0.21-0.14,0.4-0.22,0.59c-0.07,0.18-0.14,0.34-0.19,0.47c-0.09,0.21-0.18,0.37-0.25,0.46  c-0.07,0.1-0.13,0.15-0.17,0.14c-0.04,0-0.06-0.06-0.06-0.16c0-0.11,0.04-0.25,0.1-0.45c0.05-0.14,0.11-0.31,0.19-0.5  c0.08-0.19,0.17-0.39,0.27-0.59c0.1-0.21,0.21-0.41,0.32-0.63c0.12-0.21,0.23-0.41,0.35-0.6C18.8,2.41,18.75,2.61,18.69,2.83   M26.66,2.89l0.3-0.79c0.15-0.38,0.29-0.66,0.41-0.84C27.49,1.08,27.58,1,27.62,1c0.05,0,0.04,0.09-0.01,0.27  c-0.05,0.18-0.18,0.42-0.37,0.74c-0.1,0.17-0.2,0.33-0.31,0.5c-0.11,0.17-0.21,0.32-0.31,0.46L26.66,2.89z M21.76,3.53  c0.06-0.13,0.13-0.23,0.21-0.33c0.08-0.09,0.18-0.16,0.28-0.21c0.1-0.05,0.21-0.06,0.33-0.05c0.08,0.01,0.13,0.05,0.17,0.11  c0.03,0.06,0.05,0.13,0.04,0.2c-0.01,0.08-0.03,0.16-0.07,0.25c-0.04,0.09-0.08,0.17-0.14,0.25c-0.06,0.08-0.12,0.14-0.2,0.2  c-0.07,0.06-0.15,0.09-0.23,0.1c-0.14,0.02-0.26,0.02-0.34-0.02C21.74,4,21.68,3.96,21.64,3.92C21.66,3.79,21.71,3.66,21.76,3.53"/>
<path d="M28.89,2.2c0.08-0.01,0.17-0.04,0.23-0.09c0.11-0.09,0.17-0.2,0.17-0.34c0-0.13-0.06-0.25-0.17-0.34  c-0.06-0.05-0.14-0.08-0.22-0.09c-0.14-0.01-0.26,0.03-0.36,0.12c-0.08,0.08-0.13,0.2-0.13,0.31c0,0.12,0.05,0.22,0.13,0.3  C28.64,2.16,28.75,2.21,28.89,2.2"/>
<path d="M32.25,2.84c0.04,0.02,0.09,0.02,0.14,0.01c0.06-0.01,0.12-0.04,0.18-0.07c0.06-0.04,0.12-0.09,0.18-0.15  c0.06-0.06,0.11-0.13,0.14-0.21c0.07-0.14,0.08-0.25,0.06-0.34c-0.03-0.09-0.08-0.15-0.16-0.19c-0.08-0.04-0.16-0.04-0.24-0.01  c-0.08,0.03-0.14,0.09-0.17,0.16c-0.04,0.08-0.05,0.15-0.02,0.21c0.02,0.06,0.05,0.13,0.07,0.18c0.02,0.06,0.02,0.12,0.01,0.18  C32.42,2.69,32.36,2.76,32.25,2.84"/>
<path d="M32.8,4.79c0.03,0.2,0.1,0.36,0.21,0.5c0.05,0.07,0.12,0.12,0.2,0.16c0.08,0.04,0.17,0.06,0.26,0.07  c0.09,0.01,0.18,0,0.27-0.01C33.83,5.5,33.92,5.47,34,5.42c0.14-0.07,0.27-0.15,0.38-0.25c0.11-0.1,0.21-0.21,0.3-0.32  c0.09-0.12,0.17-0.24,0.23-0.36c0.07-0.13,0.13-0.24,0.17-0.36c0.02-0.05,0.03-0.08,0.03-0.11c0-0.02-0.01-0.04-0.03-0.04  c-0.02,0-0.04,0.01-0.06,0.04C35,4.05,34.97,4.09,34.96,4.13C34.88,4.3,34.8,4.45,34.7,4.59c-0.09,0.14-0.21,0.26-0.33,0.37  c0.01-0.03,0.02-0.05,0.02-0.08c0-0.03,0.01-0.06,0.01-0.1c0-0.16-0.02-0.31-0.06-0.45c-0.04-0.14-0.08-0.28-0.11-0.41  C34.2,3.79,34.19,3.64,34.2,3.5c0.01-0.15,0.07-0.31,0.18-0.49c0.1-0.16,0.13-0.28,0.09-0.35c-0.04-0.07-0.11-0.1-0.22-0.08  s-0.24,0.08-0.39,0.18c-0.15,0.11-0.29,0.26-0.41,0.45c-0.1,0.15-0.19,0.31-0.28,0.46c-0.09,0.16-0.16,0.3-0.23,0.44  C32.82,4.37,32.77,4.6,32.8,4.79 M33.02,4.46c0.03-0.14,0.08-0.28,0.15-0.41c0.07-0.13,0.14-0.26,0.21-0.39  c0.08-0.12,0.14-0.24,0.2-0.35c-0.05,0.12-0.05,0.25-0.02,0.41c0.04,0.15,0.08,0.31,0.14,0.47c0.06,0.16,0.1,0.32,0.14,0.48  c0.04,0.16,0.03,0.3-0.03,0.42c-0.04,0.09-0.1,0.15-0.18,0.19c-0.08,0.03-0.16,0.04-0.25,0.02c-0.09-0.02-0.16-0.07-0.24-0.14  c-0.07-0.07-0.12-0.17-0.14-0.29C32.98,4.74,32.99,4.6,33.02,4.46"/>
<path d="M80.86,6.6c-0.09-0.17-0.23-0.3-0.4-0.39c-0.17-0.09-0.34-0.14-0.52-0.14c-0.18,0-0.35,0.05-0.52,0.14  c-0.17,0.09-0.3,0.22-0.4,0.39c-0.09,0.17-0.14,0.35-0.14,0.53c0,0.18,0.05,0.36,0.14,0.53c0.09,0.17,0.22,0.3,0.39,0.39  c0.17,0.09,0.34,0.14,0.53,0.14c0.18,0,0.36-0.05,0.53-0.14c0.17-0.09,0.3-0.22,0.39-0.39C80.95,7.49,81,7.31,81,7.13  C81,6.95,80.95,6.77,80.86,6.6 M80.71,7.57c-0.08,0.14-0.19,0.25-0.33,0.33c-0.14,0.08-0.29,0.12-0.44,0.12  c-0.15,0-0.3-0.04-0.44-0.12c-0.14-0.08-0.25-0.19-0.33-0.33c-0.08-0.14-0.12-0.29-0.12-0.44c0-0.15,0.04-0.3,0.12-0.44  c0.08-0.14,0.19-0.25,0.33-0.33c0.14-0.08,0.29-0.11,0.43-0.11c0.15,0,0.29,0.04,0.43,0.11c0.14,0.08,0.25,0.19,0.33,0.33  c0.08,0.14,0.12,0.29,0.12,0.44C80.82,7.28,80.79,7.43,80.71,7.57"/>
<path d="M80.13,7.27c-0.02-0.02-0.06-0.04-0.1-0.06c0.1-0.01,0.18-0.04,0.24-0.1c0.06-0.06,0.09-0.13,0.09-0.22  c0-0.06-0.02-0.11-0.05-0.17c-0.04-0.05-0.08-0.09-0.14-0.11C80.1,6.59,80,6.58,79.87,6.58h-0.39v1.14h0.18V7.23h0.11  c0.06,0,0.11,0.01,0.15,0.04c0.05,0.04,0.11,0.12,0.19,0.27l0.1,0.18h0.22L80.3,7.49C80.23,7.39,80.17,7.31,80.13,7.27 M79.88,7.07  h-0.22V6.73h0.21c0.09,0,0.15,0.01,0.18,0.02c0.03,0.01,0.06,0.03,0.08,0.06c0.02,0.03,0.03,0.06,0.03,0.09  c0,0.05-0.02,0.09-0.06,0.13C80.06,7.06,79.99,7.07,79.88,7.07"/>
<polygon points="11.79,27.68 1.52,27.68 1.52,22.07 19.96,22.07 19.96,27.38 9.18,43.41 19.96,43.41 19.96,49.03 1.02,49.03   1.02,43.72 "/>
<path d="M28.48,38.75c0,0.8,0.06,1.58,0.18,2.33c0.12,0.75,0.31,1.42,0.58,2c0.27,0.59,0.62,1.05,1.05,1.4  c0.43,0.35,0.97,0.53,1.6,0.53c1.17,0,2.02-0.42,2.56-1.25c0.53-0.83,0.9-2.1,1.1-3.81h6.21c-0.13,3.14-0.97,5.53-2.51,7.17  c-1.54,1.64-3.96,2.46-7.27,2.46c-2.51,0-4.46-0.42-5.86-1.25c-1.4-0.83-2.44-1.94-3.11-3.31c-0.67-1.37-1.08-2.91-1.23-4.61  c-0.15-1.7-0.23-3.41-0.23-5.11c0-1.8,0.13-3.54,0.38-5.21c0.25-1.67,0.75-3.16,1.5-4.46c0.75-1.3,1.83-2.34,3.23-3.11  c1.4-0.77,3.27-1.15,5.61-1.15c2,0,3.65,0.33,4.94,0.98c1.29,0.65,2.3,1.57,3.03,2.76c0.73,1.19,1.24,2.62,1.5,4.31  c0.27,1.69,0.4,3.57,0.4,5.64v1.55H28.48V38.75z M35.34,29.76c-0.1-0.78-0.28-1.45-0.53-2c-0.25-0.55-0.6-0.97-1.05-1.25  c-0.45-0.28-1.03-0.43-1.73-0.43c-0.7,0-1.28,0.16-1.73,0.48c-0.45,0.32-0.81,0.74-1.08,1.25c-0.27,0.52-0.46,1.09-0.58,1.73  c-0.12,0.64-0.18,1.27-0.18,1.9v1.05h7.07C35.51,31.45,35.44,30.54,35.34,29.76"/>
<path d="M51.48,22.07v3.61h0.1c0.7-1.3,1.55-2.35,2.56-3.13c1-0.78,2.22-1.18,3.66-1.18c0.2,0,0.41,0.01,0.63,0.03  c0.22,0.02,0.43,0.04,0.63,0.08v6.62c-0.37-0.03-0.73-0.06-1.08-0.08c-0.35-0.02-0.71-0.03-1.08-0.03c-0.6,0-1.2,0.08-1.8,0.25  c-0.6,0.17-1.15,0.44-1.65,0.83c-0.5,0.38-0.9,0.89-1.2,1.5c-0.3,0.62-0.45,1.38-0.45,2.28v16.19h-6.92V22.07H51.48z"/>
<path d="M60.3,29.43c0.37-1.77,0.97-3.25,1.8-4.44c0.83-1.19,1.93-2.09,3.28-2.71c1.35-0.62,3.01-0.93,4.99-0.93  c2.07-0.03,3.79,0.24,5.16,0.83c1.37,0.58,2.46,1.48,3.26,2.68c0.8,1.2,1.37,2.69,1.7,4.46c0.33,1.77,0.5,3.84,0.5,6.21  c0,2.31-0.18,4.34-0.55,6.11c-0.37,1.77-0.97,3.25-1.8,4.44c-0.84,1.19-1.93,2.06-3.28,2.63c-1.35,0.57-3.02,0.85-4.99,0.85  c-2.07,0.03-3.79-0.23-5.16-0.78c-1.37-0.55-2.46-1.42-3.26-2.61c-0.8-1.19-1.37-2.67-1.7-4.46c-0.33-1.79-0.5-3.85-0.5-6.19  C59.75,33.24,59.93,31.2,60.3,29.43 M66.77,39.36c0.07,1.17,0.23,2.17,0.48,3.01c0.25,0.83,0.63,1.49,1.13,1.95  c0.5,0.47,1.17,0.7,2,0.7c1.4,0,2.37-0.73,2.91-2.2c0.53-1.47,0.8-3.89,0.8-7.27c0-3.37-0.27-5.8-0.8-7.27  c-0.54-1.47-1.5-2.2-2.91-2.2c-0.84,0-1.5,0.23-2,0.7c-0.5,0.47-0.88,1.12-1.13,1.95c-0.25,0.84-0.41,1.84-0.48,3.01  c-0.07,1.17-0.1,2.44-0.1,3.81C66.67,36.92,66.7,38.19,66.77,39.36"/>
</svg>