<svg width="176" height="224" viewBox="0 0 176 224" fill="none" xmlns="http://www.w3.org/2000/svg">
<g opacity="0.502697">
<path fill-rule="evenodd" clip-rule="evenodd" d="M130.343 98.3717L44.6729 49.6507L48.1567 43.5403L133.826 92.2613L130.343 98.3717Z" stroke="#010202"/>
<path d="M33.6548 1.19986L150.227 223.028" stroke="#010202"/>
<path fill-rule="evenodd" clip-rule="evenodd" d="M47.8561 113.489C23.5642 112.64 4.55921 92.2874 5.40636 68.028C6.25352 43.7686 26.632 24.7908 50.9239 25.6391C75.2157 26.4874 94.2207 46.8405 93.3736 71.0999C92.5264 95.3593 72.1479 114.337 47.8561 113.489Z" fill="#010202"/>
<path d="M83.907 96.8339L46.5229 25.6908" stroke="#FEFEFE"/>
<path fill-rule="evenodd" clip-rule="evenodd" d="M99.1553 153.817L12.0786 199.968L8.77722 193.755L95.8539 147.606L99.1553 153.817Z" stroke="#010202"/>
<path fill-rule="evenodd" clip-rule="evenodd" d="M73.2434 143.095C68.2527 142.92 64.3473 138.738 64.5214 133.754C64.6954 128.77 68.883 124.87 73.8737 125.045C78.8644 125.219 82.7698 129.401 82.5957 134.385C82.4217 139.369 78.2341 143.269 73.2434 143.095Z" stroke="#010202"/>
</g>
</svg>
