<?xml version="1.0" encoding="UTF-8"?>
<!DOCTYPE svg PUBLIC "-//W3C//DTD SVG 1.1//EN" "http://www.w3.org/Graphics/SVG/1.1/DTD/svg11.dtd">
<!-- Creator: CorelDRAW -->
<svg xmlns="http://www.w3.org/2000/svg" xml:space="preserve" width="52.6389mm" height="57.0151mm" version="1.1" style="shape-rendering:geometricPrecision; text-rendering:geometricPrecision; image-rendering:optimizeQuality; fill-rule:evenodd; clip-rule:evenodd"
viewBox="0 0 5258.05 5695.18"
 xmlns:xlink="http://www.w3.org/1999/xlink"
 xmlns:xodm="http://www.corel.com/coreldraw/odm/2003">
 <defs>
  <style type="text/css">
   <![CDATA[
    .fil1 {fill:#FEFEFE}
    .fil0 {fill:#FEFEFE;fill-rule:nonzero}
   ]]>
  </style>
 </defs>
 <g id="Layer_x0020_1">
  <metadata id="CorelCorpID_0Corel-Layer"/>
  <g id="_2092810636944">
   <path class="fil0" d="M416.28 34.18l-0.1 -3.11c4.25,-5.18 8.87,-9.84 13.87,-13.98 5.01,-4.14 12.7,-6.32 22.89,-7.77 4.45,-0.63 9.49,-1.81 15.35,-2.33 5.85,-0.52 10.85,-2.07 15.3,-3.89 5.71,-2.33 10.92,-3.11 15.32,-3.11 8.82,0 17.63,0 26.45,0 8.81,0 86.3,10.92 93.62,9.88l0.05 1.56 46.28 0c8.82,0 15.38,-1.56 19.69,-4.66 2.91,-1.04 6.59,-0.52 11.07,1.56 19.27,5.17 37.64,5.17 55.1,0 4.34,-2.08 8.35,-2.86 12.05,-2.34 3.69,0.52 8.48,1.3 14.39,2.34 8.88,2.07 23.61,3.11 44.18,3.11 20.57,0 36.7,-1.04 48.39,-3.11 4.41,0 8.44,-0.26 12.1,-0.78 3.66,-0.52 6.99,0.26 9.99,2.33 11.79,1.04 23.57,1.82 35.34,2.33 11.77,0.52 89.81,-1.52 101.27,-6.98 5.92,-2.83 13,-2.25 22.1,1.55 5.8,2.43 12.54,1.56 19.78,-1.55 1.47,0 2.94,-0.27 4.39,-0.78 1.45,-0.52 3.65,-0.78 6.58,-0.78 7.35,0 13.96,0 19.84,0 5.87,0 12.49,0.69 19.89,1.56 1.46,0.17 9.23,1.55 23.28,4.65 14.05,3.11 21.96,5.02 23.34,6.21 4.66,4 8.4,10.1 11.59,17.87 3.19,7.76 6.33,14.24 9.44,19.42 0.07,2.08 -0.63,3.11 -2.1,3.11 -4.19,7.25 -10.6,12.44 -19.44,12.44l-83.76 0c-11.75,0 -22.7,2.07 -32.85,6.21l-8.81 0 -11.13 -3.11c-14.55,4.14 -94.7,5.69 -107.96,4.65 -13.25,-1.03 -27.21,-1.03 -41.86,0 -5.88,0 -10.22,2.08 -13.03,6.21 -1.34,4.15 -2.73,6.74 -4.17,7.77 -4.24,5.18 -6.63,10.62 -7.19,16.31 -0.55,5.7 -0.74,11.14 -0.58,16.31 2.07,18.65 3.03,37.03 2.87,55.16 -0.15,18.13 0.07,36.51 0.67,55.16 0.23,7.24 -1.07,12.43 -3.92,15.53 -4.31,3.11 -4.92,6.73 -1.86,10.88 4.61,6.21 7.05,13.47 7.31,21.75 0.57,17.61 1.12,34.96 1.67,52.05 0.55,17.09 1.84,34.43 3.87,52.04 0.2,6.21 0.04,12.7 -0.48,19.42 -0.52,6.73 2.26,13.22 8.34,19.43l0.1 3.11c-5.71,5.17 -8.1,11.13 -7.15,17.86 0.96,6.73 0.06,13.21 -2.68,19.43 -1.37,3.11 -2.39,5.69 -3.06,7.76 -0.67,2.08 0.51,4.66 3.56,7.77 3,2.07 4.2,4.92 3.58,8.54 -0.62,3.63 0.59,6.99 3.63,10.11 3.04,3.11 3.19,7.76 0.45,13.97 0.07,2.08 1.23,3.89 3.48,5.44 2.26,1.55 3.42,3.37 3.49,5.43 3.21,8.29 2.72,16.05 -1.46,23.3 -2.88,2.07 -3.49,5.69 -1.86,10.88 4.57,5.17 6.95,10.62 7.13,16.31 0.19,5.69 -0.36,11.66 -1.63,17.87 -2.68,8.28 -1.76,13.98 2.75,17.09 3.01,2.07 5.29,4.65 6.86,7.77l2.31 3.1c-5.68,6.21 -8.42,12.44 -8.22,18.65 0.2,6.21 -0.35,11.91 -1.66,17.09 0.16,5.17 0.7,10.36 1.6,15.53 0.9,5.18 -0.03,10.36 -2.81,15.54 -1.37,3.11 -2.39,5.69 -3.06,7.76 -0.67,2.08 0.52,4.66 3.56,7.77 6.17,9.32 6.53,20.72 1.09,34.18 -2.84,3.11 -2.69,7.76 0.45,13.98 4.74,10.36 4.29,19.16 -1.36,26.41 -2.88,2.07 -3.55,3.89 -2.03,5.43 1.52,1.56 3.05,3.37 4.57,5.44 0.07,2.07 0.49,3.62 1.26,4.65 0.77,1.04 1.17,2.07 1.2,3.11 -5.64,7.25 -8.3,16.05 -7.97,26.41 0.2,6.21 -2.51,13.47 -8.12,21.76 -1.34,4.15 -1.2,8.28 0.4,12.43 7.51,5.18 9.13,9.84 4.85,13.98 -4.21,6.21 -6.21,12.43 -6.01,18.64 0.17,5.18 -0.04,10.36 -0.61,15.54 -0.57,5.17 -0.77,10.36 -0.6,15.53 0.07,2.08 -2.05,4.92 -6.34,8.55 -4.29,3.63 -7.88,5.95 -10.79,6.99 -11.76,0 -20.56,0.52 -26.4,1.55 -2.91,1.04 -6.17,2.08 -9.82,3.11 -3.64,1.04 -7.65,2.08 -12.02,3.11l-4.42 0c-10.45,-5.17 -20.43,-7.24 -29.95,-6.21 -9.52,1.04 -19.44,1.04 -29.75,0 -4.42,0 -8.12,-1.03 -11.13,-3.11 -4.48,-2.07 -8.23,-4.66 -11.27,-7.77 -1.53,-2.07 -0.87,-4.14 2.01,-6.21 5.57,-9.32 5.33,-17.09 -0.75,-23.3 -3.04,-3.11 -3.84,-5.17 -2.4,-6.21 2.81,-4.15 5.57,-9.32 8.32,-15.53 4.31,-3.11 5.7,-5.18 4.21,-6.21 -3.14,-6.22 -3.29,-10.88 -0.45,-13.98 0,0 -0.03,-1.04 -0.1,-3.11l-0.05 -1.56c-6,-4.15 -6.89,-8.8 -2.65,-13.98 4.21,-6.21 6.17,-13.47 5.91,-21.75l-3.19 -99.44c-0.16,-5.17 0.46,-8.8 1.86,-10.87 4.25,-5.18 6.64,-10.36 7.21,-15.54 0.57,-5.17 0.78,-10.36 0.61,-15.53l-1.39 -43.5c-0.13,-4.15 -2.46,-7.77 -6.96,-10.88 -3.11,-5.17 -3.23,-8.8 -0.35,-10.88 4.15,-8.28 6.1,-16.05 5.86,-23.3l-0.74 -23.3c-0.17,-5.17 -2.53,-9.84 -7.06,-13.98 -3.08,-4.15 -4.62,-6.73 -4.65,-7.77l-2.54 -79.23c-0.07,-2.07 1.34,-4.15 4.21,-6.21 2.88,-2.08 3.53,-4.66 1.96,-7.77 -9.08,-8.28 -9.36,-17.09 -0.85,-26.41 1.44,-1.04 1.41,-2.07 -0.1,-3.11 -6.04,-5.17 -8.42,-10.62 -7.13,-16.31 1.29,-5.69 -0.36,-11.14 -4.92,-16.31 -3.05,-3.11 -3.5,-5.95 -1.38,-8.55 2.12,-2.59 2.42,-4.91 0.88,-6.99 -3.11,-5.17 -2.52,-9.84 1.76,-13.97 1.4,-2.08 2.04,-5.18 1.9,-9.33l-0.29 -9.32c-0.27,-8.28 -2.67,-14.5 -7.21,-18.64l6.01 -18.65c2.68,-8.28 0.27,-14.5 -7.21,-18.64 -3.17,-7.25 -3.33,-12.43 -0.49,-15.54 4.24,-5.17 6.29,-9.84 6.16,-13.97l-3.44 -107.21c-0.2,-6.21 1.84,-11.39 6.11,-15.53 2.88,-2.07 4.29,-4.15 4.22,-6.21 -0.2,-6.21 -0.35,-10.88 -0.45,-13.98 -0.1,-3.11 -0.19,-5.95 -0.27,-8.54 -0.09,-2.6 -0.18,-5.44 -0.28,-8.55 -0.1,-3.11 -0.25,-7.77 -0.44,-13.98 -0.14,-4.14 -3.88,-6.21 -11.23,-6.21 -8.81,0 -17.27,-0.26 -25.36,-0.78 -8.1,-0.52 -16.51,0.78 -25.22,3.89 -2.88,2.08 -9.49,3.85 -19.74,3.11l-159.78 -11.43c-7.32,-0.53 -18.49,-3.9 -33.42,-11.66 -14.94,-7.76 -24.7,-14.24 -29.28,-19.42zm447.77 58.05c0,0 0,0 0,0zm-153.71 1050.26c-3.24,-9.32 -2.02,-17.09 3.66,-23.3 5.68,-6.21 5.49,-11.91 -0.55,-17.09 -6,-4.15 -6.15,-8.8 -0.44,-13.98 8.58,-7.25 9.09,-14.49 1.51,-21.75 -7.58,-7.25 -8.52,-13.47 -2.81,-18.65 4.32,-3.11 6.03,-6.73 5.16,-10.87 -0.86,-4.15 -0.63,-8.29 0.71,-12.44 -0.1,-3.11 2.76,-5.69 8.56,-7.76 7.28,-2.08 14.18,-4.41 20.72,-6.99 6.52,-2.59 13.49,-3.37 20.87,-2.34 11.75,0 22.71,-1.55 32.9,-4.65 2.87,-2.08 6.88,-3.11 12.02,-3.11 5.14,0 9.92,0 14.32,0 10.23,-2.08 19.43,-1.56 27.61,1.55 8.17,3.11 16.7,5.7 25.58,7.77 7.45,3.11 12.76,8.28 15.93,15.53 1.57,3.11 2.47,8.29 2.7,15.54 0.2,6.21 2.61,12.43 7.21,18.64 3.04,3.11 3.16,6.73 0.35,10.88 -4.32,3.11 -4.92,6.73 -1.86,10.88 6.01,4.14 6.86,7.76 2.56,10.87 -7.08,8.29 -10.12,17.09 -9.08,26.42 1.04,9.32 2.44,18.64 4.21,27.96 6.04,5.18 9.15,10.62 9.34,16.31 0.18,5.7 0.35,11.14 0.52,16.31 0.26,8.29 -5.48,12.44 -17.23,12.44 -5.91,-1.04 -11.44,-1.3 -16.56,-0.78 -5.12,0.52 -10.66,-0.26 -16.6,-2.33 -5.97,-3.11 -12.59,-3.11 -19.84,0 -2.91,1.03 -8.03,1.55 -15.37,1.55 -7.35,0 -12.9,-1.29 -16.65,-3.89 -3.76,-2.59 -9.29,-3.37 -16.6,-2.33l-6.61 0 -13.28 -1.55c-11.76,0 -20.98,-1.3 -27.68,-3.89 -6.68,-2.59 -13.81,-6.99 -21.36,-13.21 -3.04,-3.11 -5.34,-6.47 -6.93,-10.1 -1.59,-3.63 -3.92,-7.51 -6.98,-11.66z"/>
   <path class="fil0" d="M2244.49 515c6.85,0 10.27,2.42 10.24,7.27 3.37,8.73 1.61,16.01 -5.28,21.84 -6.9,6.79 -12.95,13.35 -18.12,19.65 -5.18,6.31 -12.08,12.38 -20.69,18.2 -3.44,1.94 -5.16,3.89 -5.18,5.82 -0.02,3.89 -0.9,7.03 -2.63,9.46 -1.73,2.43 -4.32,5.09 -7.76,8 -3.45,2.92 -6.04,5.82 -7.77,8.74 -1.73,2.91 -5.17,5.33 -10.33,7.27 -3.45,1.95 -6.03,4.38 -7.76,7.28 -1.73,2.92 -4.33,5.82 -7.77,8.74 -6.89,5.81 -10.36,11.64 -10.39,17.46 1.69,3.89 -0.92,9.71 -7.83,17.47 -3.46,4.85 -6.05,9.46 -7.8,13.82 -1.74,4.38 -5.19,8.98 -10.37,13.83 -1.73,1.94 -2.17,4.13 -1.33,6.55 0.85,2.43 0.4,4.6 -1.32,6.54 -0.03,3.89 -3.48,6.79 -10.35,8.74 -5.14,0.97 -9.44,3.4 -12.9,7.27 -6.88,4.85 -11.21,9.95 -12.96,15.28 -1.75,5.34 -2.64,10.93 -2.68,16.74 1.69,4.85 -0.91,9.22 -7.79,13.11 -6.9,6.79 -17.69,17.71 -32.34,32.75 -14.67,15.04 -22.03,26.44 -22.08,34.2 -1.73,2.92 -3.47,5.82 -5.2,8.74 -1.73,2.91 -3.46,5.33 -5.18,7.27 -3.46,4.85 -6.48,9.95 -9.09,15.29 -2.61,5.33 -8.21,9.94 -16.8,13.82 -3.47,4.85 -8.2,9.71 -14.23,14.55 -6.03,4.85 -7.34,10.19 -3.96,16.01 -0.01,1.95 -0.88,3.89 -2.61,5.82l-0.02 2.92 -2.58 1.45c-15.48,8.74 -22.4,17.47 -20.74,26.2 -10.33,6.8 -15.53,16.5 -15.61,29.12l-2.59 2.92 -0.01 1.45 -7.77 8.74 -0.01 1.45 -2.59 2.92c-1.75,5.82 -4.36,11.16 -7.81,16.01 -3.47,4.84 -5.2,9.7 -5.23,14.55 -0.03,3.89 -1.77,7.76 -5.22,11.65 -3.45,3.88 -6.05,8.25 -7.79,13.1 -3.48,6.8 -8.66,13.35 -15.55,19.66 -6.89,6.3 -11.23,13.34 -12.99,21.11 -0.01,0.97 -4.32,3.88 -12.92,8.73 -6.88,3.89 -10.34,9.22 -10.38,16.01 -1.76,6.79 -10.37,12.14 -25.81,16.01 -12.01,0.97 -24.02,3.4 -36.04,7.28 -5.15,0.97 -10.73,1.46 -16.72,1.46 -6,0 -10.72,0.97 -14.16,2.91 -5.15,1.94 -10.3,2.92 -15.44,2.92 -5.14,0 -11.14,0 -18,0 -6.85,0 -14.55,-1.46 -23.1,-4.38 -3.41,-2.91 -7.25,-5.57 -11.52,-8 -4.28,-2.43 -8.11,-5.58 -11.51,-9.46 -1.69,-3.89 -5.94,-9.71 -12.75,-17.47 -8.53,-5.82 -12.77,-14.07 -12.7,-24.75 1.76,-6.79 -1.63,-13.58 -10.16,-20.38 -3.42,-1.94 -8.1,-5.57 -14.06,-10.92 -5.96,-5.33 -9.8,-9.46 -11.5,-12.37l-22.96 -26.21c0,-0.97 -0.42,-1.45 -1.28,-1.45 -0.86,0 -1.29,-0.49 -1.28,-1.46l-5.1 -5.82c0.01,-0.97 -0.42,-1.46 -1.28,-1.46 -0.86,0 -1.28,-0.48 -1.28,-1.45l-10.2 -13.11c-6.81,-5.82 -11.94,-9.7 -15.34,-11.65 -5.13,-1.94 -7.69,-3.88 -7.68,-5.82 0.03,-4.84 -1.65,-9.22 -5.05,-13.1 -3.41,-3.89 -6.81,-7.76 -10.21,-11.65 -3.41,-3.89 -6.38,-7.76 -8.93,-11.65 -2.55,-3.88 -6.37,-7.28 -11.5,-10.19 -6.84,-2.91 -11.54,-6.55 -14.07,-10.92 -2.55,-4.37 -6.37,-8 -11.5,-10.92 -8.54,-5.82 -15.78,-11.89 -21.74,-18.2 -5.96,-6.3 -14.07,-11.89 -24.32,-16.73 -6.84,-2.92 -10.24,-7.28 -10.2,-13.11 0.02,-2.91 -1.68,-5.33 -5.09,-7.28 -8.54,-4.84 -15.36,-10.43 -20.46,-16.73 -5.1,-6.31 -11.93,-11.89 -20.47,-16.74 -3.41,-3.89 -6.8,-8.25 -10.2,-13.11l0.03 -4.37c-1.71,-1.94 -2.56,-2.91 -2.56,-2.91 -6.82,-3.89 -11.95,-7.77 -15.34,-11.65 -3.41,-3.89 -7.66,-8.25 -12.78,-13.11 -11.96,-6.79 -18.77,-14.06 -20.43,-21.84 0.03,-5.82 -6.34,-12.86 -19.15,-21.11 -12.81,-8.25 -23.48,-13.35 -32.04,-15.28 -13.68,-2.91 -22.22,-9.22 -25.58,-18.92 0.02,-3.89 -0.82,-6.31 -2.53,-7.28 -5.12,-2.92 -8.1,-6.06 -8.94,-9.46 -0.84,-3.4 -1.24,-7.03 -1.21,-10.92 0.03,-4.85 0.06,-9.95 0.09,-15.28 0.04,-5.34 0.93,-10.44 2.67,-15.28 1.74,-3.89 4.76,-7.52 9.07,-10.92 4.31,-3.4 8.19,-7.04 11.65,-10.92 3.46,-4.85 7.77,-9.95 12.95,-15.29 5.17,-5.33 6.92,-10.91 5.25,-16.73 -1.72,-0.97 -0.84,-3.4 2.62,-7.28l12.93 -13.11 7.8 -13.1c1.75,-4.85 5.2,-9.46 10.37,-13.82 5.17,-4.38 6.91,-8.98 5.23,-13.83 0.01,-1.94 0.88,-3.64 2.61,-5.09 1.72,-1.46 3.45,-3.16 5.17,-5.09 3.46,-4.85 6.91,-9.46 10.37,-13.83 3.46,-4.37 6.91,-8.97 10.37,-13.82 0.03,-3.88 1.76,-7.28 5.2,-10.19 3.46,-2.91 6.9,-6.3 10.36,-10.19 1.72,-1.94 3.45,-4.13 5.17,-6.55 1.74,-2.43 2.61,-4.6 2.62,-6.55 0.06,-8.73 4.4,-16.98 13.02,-24.74 3.45,-2.91 6.03,-6.3 7.77,-10.19 1.74,-3.89 4.34,-7.28 7.78,-10.19 6.89,-4.85 10.78,-9.95 11.67,-15.28 0.89,-5.34 3.93,-10.44 9.1,-15.29 0.05,-7.76 3.09,-14.79 9.13,-21.11 6.03,-6.3 10.79,-12.86 14.26,-19.65 5.18,-7.76 10.38,-14.8 15.55,-21.11 5.18,-6.3 6.94,-13.35 5.28,-21.11 0.04,-5.82 2.65,-11.65 7.82,-17.47 6.9,-6.79 12.52,-13.58 16.84,-20.38 4.34,-6.79 8.23,-14.07 11.71,-21.84 3.45,-1.94 4.74,-4.6 3.91,-8 -0.84,-3.4 0.48,-7.52 3.94,-12.38l5.19 -7.28c1.72,-1.94 2.59,-2.91 2.59,-2.91 0.04,-5.82 3.07,-11.16 9.1,-16.01 6.03,-4.85 8.2,-10.19 6.53,-16.01 1.73,-2.91 5.6,-5.82 11.62,-8.73 6.02,-2.92 11.61,-4.38 16.74,-4.38l66.85 0c8.57,0 18,0.25 28.28,0.73 10.28,0.49 20.56,0.73 30.85,0.73 5.14,0 9.42,1.94 12.82,5.82 3.41,3.89 10.24,6.79 20.51,8.73 13.68,4.85 20.5,10.68 20.46,17.47 -1.76,7.76 1.61,16.01 10.13,24.74 0,0 -0.02,2.43 -0.05,7.28l-2.58 1.46 -2.59 2.91c3.4,3.89 5.08,7.77 5.06,11.65 -0.03,3.89 1.67,7.28 5.07,10.19 3.4,4.85 6.37,9.22 8.92,13.11 2.55,3.88 7.24,7.28 14.07,10.19 8.54,4.85 12.78,12.62 12.71,23.28 1.65,10.68 3.32,17.96 5,21.84 1.69,3.89 9.36,11.17 22.99,21.84 8.52,7.77 15.76,15.04 21.72,21.84 5.95,6.79 11.48,15.04 16.56,24.75 1.69,1.94 2.54,3.64 2.53,5.09 -0.01,1.46 1.7,3.15 5.11,5.09 10.25,4.85 15.78,10.67 16.6,17.47 0.81,6.79 5.48,12.62 14.02,17.46 -0.03,5.82 2.08,11.16 6.33,16.01 4.26,4.85 8.93,9.71 14.04,14.55 11.87,19.42 31.48,36.4 58.8,50.95 10.26,3.89 12.8,9.22 7.61,16.01 -6.89,5.82 -6.93,11.65 -0.11,17.47 0,0 1.7,1.94 5.1,5.82 3.37,9.7 -1.82,16.01 -15.55,18.92l-25.73 4.37c-3.43,0 -6.86,0.97 -10.31,2.92 -3.45,3.88 -6.89,7.27 -10.35,10.19 -3.44,2.91 -6.89,5.82 -10.34,8.73 -3.44,1.94 -5.17,5.33 -5.2,10.19 -1.73,2.92 -4.33,6.31 -7.77,10.19 -15.51,12.62 -25.42,21.11 -29.73,25.47 -4.32,4.38 -10.81,13.35 -19.46,26.94 -1.73,2.91 -3.9,6.06 -6.49,9.46 -2.59,3.4 -5.6,6.54 -9.05,9.46 -6.91,8.73 -14.25,17.23 -22.03,25.47 -7.76,8.25 -13.39,16.74 -16.87,25.48 -0.02,3.88 -3.47,6.79 -10.34,8.73 -8.58,2.91 -17.17,5.57 -25.76,8 -8.58,2.43 -18.02,3.65 -28.3,3.65 -8.57,-0.97 -15.84,-1.22 -21.85,-0.73 -6,0.48 -12.44,0.73 -19.29,0.73 -13.71,0 -23.97,-2.92 -30.8,-8.74 -6.82,-5.82 -6.77,-12.62 0.13,-20.38 3.46,-4.85 6.91,-9.22 10.37,-13.1 3.46,-3.89 6.91,-8.25 10.37,-13.11 3.48,-7.76 8.65,-13.11 15.52,-16.01 8.6,-4.85 12.94,-11.65 12.99,-20.38 0.05,-6.79 2.64,-11.16 7.79,-13.11 10.34,-7.76 17.23,-14.06 20.69,-18.92 8.63,-9.71 17.27,-19.65 25.9,-29.85 8.64,-10.19 19.85,-20.13 33.61,-29.84l0.02 -2.91c1.75,-4.85 2.64,-10.2 2.68,-16.01 0.04,-5.82 -2.51,-10.68 -7.62,-14.56 -10.26,-4.85 -17.06,-12.62 -20.42,-23.29 0.01,-1.94 -3.4,-4.84 -10.23,-8.73 -8.54,-4.84 -12.8,-10.19 -12.76,-16.01 -1.69,-4.84 -4.64,-9.46 -8.91,-13.82 -4.26,-4.38 -6.37,-8.98 -6.34,-13.83 -11.9,-15.52 -25.5,-31.06 -40.83,-46.58 -1.7,-1.94 -3.84,-3.88 -6.39,-5.82 -2.56,-1.94 -5.54,-3.88 -8.95,-5.82 -3.43,-1.94 -3.84,-3.64 -1.26,-5.09 2.58,-1.46 3.88,-3.15 3.89,-5.09 0.02,-2.91 -2.54,-4.85 -7.67,-5.82 -6.84,-2.91 -11.96,-6.79 -15.35,-11.65l-10.2 -13.1c0.03,-5.82 -2.51,-10.68 -7.62,-14.55 -5.11,-3.89 -10.24,-7.76 -15.35,-11.65 -3.43,-0.97 -5.12,-2.19 -5.11,-3.65 0,-1.45 -0.84,-3.15 -2.54,-5.09 -1.7,-2.91 -5.12,-4.37 -10.26,-4.37 -6.87,1.95 -10.31,3.4 -10.32,4.37 -1.74,4.85 -3.49,9.22 -5.22,13.11 -1.74,3.89 -6.04,7.28 -12.92,10.19 -3.43,0 -5.15,0.97 -5.16,2.91 -1.75,5.82 -5.2,11.41 -10.39,16.74 -5.17,5.34 -7.78,11.41 -7.82,18.2 -0.06,8.73 -6.1,16.01 -18.14,21.84 -5.15,2.91 -7.76,7.76 -7.81,14.55 -0.05,8.73 -4.38,15.04 -12.97,18.93 -10.33,5.82 -14.65,12.62 -12.99,20.38 -0.05,7.76 -6.09,14.07 -18.12,18.92 -5.16,2.92 -7.75,4.85 -7.75,5.82 -0.01,1.95 1.69,3.64 5.11,5.09 3.42,1.46 3.41,3.16 -0.04,5.09 -15.48,8.74 -22.4,17.47 -20.73,26.2 -0.02,2.92 -2.62,6.79 -7.79,11.65l-0.02 2.92c-1.72,0.97 -2.58,1.45 -2.58,1.45l-7.77 8.74c-3.44,1.94 -5.16,3.88 -5.17,5.82 -1.74,2.91 -2.62,5.82 -2.63,8.73 -0.02,2.92 -1.76,5.82 -5.2,8.74 -3.45,3.88 -6.91,9.7 -10.39,17.46 -0.03,4.85 -0.91,8.25 -2.64,10.19 -3.45,3.89 -28.02,21.32 -31.47,24.71 -3.45,3.4 -6.04,7.52 -7.79,12.38l7.69 4.37 15.36 10.19c4.89,3.26 10.24,5.82 15.36,8.74 5.12,2.91 9.54,6.17 12.79,10.19 6.96,8.6 13.6,17.22 20.41,25.47 6.8,8.25 14.93,16.3 22.97,25.47 5.59,6.38 12.45,14.5 23,21.84 4.82,3.36 10.38,9.76 17.87,18.93 4.47,5.45 9.8,9.7 14.05,14.55 4.25,4.84 7.92,9.82 11.47,14.55 6.65,8.85 20.05,18.29 37.16,23.14 3.42,1.94 4.26,3.64 2.54,5.08 -1.72,1.46 -3.45,3.16 -5.17,5.1 3.42,1.94 9.39,6.54 17.91,13.82 8.53,7.28 17.05,15.04 25.56,23.29 8.52,8.25 16.18,16.01 22.99,23.28 6.81,7.28 11.06,12.38 12.76,15.29 8.54,4.84 18.35,12.37 29.43,22.55 11.07,10.19 16.7,19.79 21.69,25.47l2.55 2.92c8.56,1.94 14.12,4.61 16.67,8.01 2.54,3.39 4.23,7.26 6.35,10.91 1.3,2.24 2.55,2.92 2.55,2.92 3.44,0 46.75,3.17 50.18,1.23 1.73,-1.95 2.6,-2.92 2.6,-2.92l5.16 -4.37c3.5,-9.7 9.54,-16.98 18.14,-21.84 5.15,-2.91 7.18,-5.86 7.76,-8.73 1.21,-5.94 5.64,-11.41 11.68,-16.74 6.03,-5.33 7.85,-11.32 6.54,-18.2 -0.36,-1.89 1.32,-5.33 3.93,-10.19 2.6,-4.85 5.62,-8.25 9.06,-10.19l25.9 -29.11c3.97,-4.46 7.34,-8.98 11.65,-12.38 4.31,-3.4 4.17,-11.18 7.62,-15.05 3.45,-3.89 5.18,-7.53 5.21,-10.92 0.02,-3.4 1.76,-7.04 5.2,-10.92 3.45,-1.95 5.17,-4.61 5.19,-8.01 0.02,-3.39 0.9,-6.06 2.63,-8 3.44,-1.95 11.89,-1.13 14.47,-3.07 2.58,-1.94 5.59,-3.89 9.03,-5.82 3.46,-4.85 6.06,-9.7 7.8,-14.55 1.75,-4.85 5.2,-9.22 10.37,-13.11 0.03,-4.85 1.78,-8.98 5.22,-12.38 3.45,-3.39 6.9,-7.52 10.36,-12.37 3.47,-4.85 6.92,-10.44 10.39,-16.74 3.47,-6.31 9.06,-10.74 15.53,-15.28 7.37,-5.19 8.92,-8.81 8.94,-11.72 0.05,-7.76 3.1,-15.05 9.14,-21.84 6.04,-6.8 7.3,-6.69 12.49,-13.49 3.45,-1.94 5.59,-3.4 6.46,-4.37 0.86,-0.97 7.39,-8.72 10.79,-9.81 8.63,-2.79 12.9,-6.8 12.93,-11.65 0.05,-6.79 3.47,-15.95 13.02,-24.74 9.52,-8.76 17.67,-16.74 23.3,-26.21 1.33,-2.23 1.75,-4.37 0.05,-7.27 -1.7,-2.92 -1.11,-6.21 2.63,-8.74 4.91,-3.32 9.48,-7.27 12.94,-13.1 0.01,-0.97 0.87,-1.95 2.6,-2.92 1.76,-6.79 -17.42,-33.79 -17.38,-39.62 0.04,-5.82 -4.22,-11.16 -12.76,-16.01 -8.54,-4.84 -14.5,-9.7 -17.9,-14.55 -3.4,-4.85 -9.37,-9.71 -17.91,-14.55l-2.55 -2.92c-10.15,-21.35 -25.46,-39.3 -45.93,-53.86 -5.12,-2.91 -7.67,-6.3 -7.65,-10.19 -3.39,-6.79 -6.78,-11.16 -10.2,-13.1 -11.96,-6.79 -17.91,-13.58 -17.87,-20.39 -10.18,-15.52 -22.94,-29.6 -38.29,-42.21 -1.72,-0.97 -2.57,-1.7 -2.57,-2.18 0.01,-0.49 -0.85,-1.22 -2.56,-2.19l-5.12 -2.91c0.01,-0.97 -1.7,-2.43 -5.1,-4.37l-12.78 -13.11c0,-0.97 -0.85,-1.46 -2.57,-1.46l-2.55 -2.91c-5.11,-4.85 -9.37,-8.98 -12.78,-12.38 -3.41,-3.4 -6.81,-7.52 -10.21,-12.37 -3.4,-4.85 -7.22,-9.71 -11.47,-14.56 -4.26,-4.85 -8.94,-9.7 -14.04,-14.55 -3.41,-3.89 -7.67,-7.52 -12.8,-10.92 -5.11,-3.4 -8.52,-7.52 -10.2,-12.38l-2.56 -2.91 0.01 -1.46 -7.65 -8.73 0.01 -1.46 -2.56 -2.92c-1.67,-6.78 -6.77,-12.61 -15.31,-17.46 -1.7,-1.94 -3.41,-3.65 -5.11,-5.09 -1.7,-1.46 -2.55,-3.16 -2.54,-5.09 -3.38,-7.76 -8.47,-15.04 -15.28,-21.84 -6.81,-6.79 -12.77,-14.07 -17.86,-21.84 -3.41,-3.89 -6.81,-7.28 -10.22,-10.19 -3.42,-2.92 -5.96,-5.82 -7.66,-8.73 -5.06,-11.65 -11.01,-20.87 -17.81,-27.66 -8.52,-7.77 -15.33,-15.53 -20.43,-23.29 -3.4,-4.85 -6.36,-9.95 -8.9,-15.28 -2.54,-5.34 -4.64,-10.92 -6.32,-16.74 -3.38,-6.79 0.93,-10.19 12.93,-10.19l84.84 0c17.14,0 29.11,4.85 35.9,14.55 5.12,2.92 7.68,6.3 7.65,10.19 -0.06,9.71 5.02,18.93 15.25,27.66 3.4,3.89 8.5,10.68 15.29,20.38 1.69,3.89 4.24,7.52 7.64,10.92 3.41,3.4 6.8,7.52 10.2,12.38 10.26,4.85 16.22,10.67 17.89,17.47 1.67,6.79 5.92,12.62 12.75,17.46 -0.07,10.68 8.43,21.84 25.49,33.48 8.54,5.82 13.63,12.62 15.3,20.38 -0.02,1.94 3.4,4.85 10.23,8.74 3.41,2.91 6.81,5.81 10.23,8.73 3.41,2.91 5.09,6.79 5.06,11.65 5.09,6.79 10.2,13.35 15.3,19.65 5.1,6.31 11.06,12.87 17.87,19.66 8.55,2.91 14.09,6.54 16.64,10.91 2.55,4.38 6.36,8.98 11.48,13.83 5.1,5.82 10.21,11.65 15.31,17.47 5.1,5.82 11.93,11.16 20.47,16.01 5.09,7.76 11.48,15.04 19.14,21.84 7.67,6.79 12.35,14.06 14,21.83 -0.02,2.92 1.68,5.34 5.09,7.28 3.42,1.94 7.69,4.37 12.82,7.28l5.1 4.37c1.72,0.97 2.57,1.94 2.56,2.91 -0.04,6.79 5.9,14.56 17.85,23.29 5.11,4.85 9.79,9.46 14.05,13.82 4.26,4.38 7.22,9.47 8.89,15.28 -0.01,2.92 1.69,5.34 5.1,7.28 11.96,5.82 20.06,12.87 24.28,21.11 4.24,8.25 10.62,15.77 19.14,22.56 1.71,1.94 2.55,4.37 2.53,7.28 5.07,9.7 16.19,15.04 33.32,16.01 8.57,0 14.56,0.48 17.99,1.46z"/>
   <path class="fil0" d="M2686.32 92.23c0,0 0,0 0,0z"/>
   <path class="fil0" d="M3063.49 449.56c-0.59,-11.39 3.39,-19.68 11.93,-24.85 4.25,-3.11 8.49,-6.21 12.74,-9.32 4.25,-3.12 6.97,-7.25 8.17,-12.44 2.77,-3.11 5.91,-6.21 9.43,-9.32 3.51,-3.11 6.65,-6.21 9.43,-9.32 2.72,-4.15 5.47,-7.77 8.25,-10.88 2.77,-3.11 6.31,-5.69 10.61,-7.77 5.66,-4.15 9.17,-7.24 10.53,-9.32 2.62,-6.21 6.75,-11.39 12.42,-15.53 5.66,-4.15 11.32,-8.29 16.98,-12.44 2.78,-3.11 5.47,-7.76 8.09,-13.97 -0.28,-5.18 1.01,-8.81 3.84,-10.88 15.56,-11.4 28.79,-25.38 39.69,-41.95 2.78,-3.11 6.31,-5.69 10.61,-7.76 5.66,-4.15 8.41,-7.77 8.25,-10.88 -0.27,-5.18 2.43,-9.84 8.08,-13.98 2.83,-2.07 6.36,-4.66 10.62,-7.77 4.24,-3.11 7.75,-6.21 10.53,-9.32 5.33,-10.36 12.21,-19.42 20.62,-27.19 8.41,-7.77 17.54,-15.79 27.4,-24.08 14.04,-12.43 20.71,-25.37 20.01,-38.84 -1.58,-2.08 -0.24,-4.66 4,-7.77 7.24,-2.07 15.81,-6.73 25.72,-13.98 8.54,-5.17 16.69,-10.87 24.45,-17.09 7.76,-6.21 17.43,-10.87 29.02,-13.97 12.69,-10.36 26.6,-18.13 41.76,-23.31 15.15,-5.17 30.65,-10.87 46.49,-17.09 2.89,-1.03 11.23,-3.11 25.02,-6.21 13.79,-3.11 21.43,-4.65 22.89,-4.65 5.87,0 11.39,0 16.52,0 5.14,0 10.01,1.55 14.57,4.65 9.03,4.15 11.54,9.84 7.51,17.09l0.08 1.56 -4.25 3.11c0.32,6.21 -0.87,11.66 -3.56,16.31 -2.7,4.66 -5.38,9.58 -8.05,14.76 0.27,5.17 1.96,9.32 5.06,12.43l7.09 9.32 1.46 27.97c0.22,4.15 -1.8,7.77 -6.04,10.88 -2.61,6.21 -3.81,11.39 -3.6,15.53l1.22 23.3c0.38,7.25 -1.5,13.47 -5.63,18.64 -1.42,1.04 -0.55,3.63 2.61,7.77 6.25,7.25 7.31,13.47 3.18,18.65 -5.6,5.17 -8.16,12.43 -7.68,21.75l2.11 40.4c0.33,6.21 -1.63,10.88 -5.87,13.98 -1.37,2.07 -2.05,3.11 -2.05,3.11 -2.67,5.18 -3.49,10.62 -2.45,16.31 1.03,5.69 -1.26,11.14 -6.86,16.31l4.56 3.12 0.08 1.55c3.21,5.18 3.43,9.32 0.65,12.43 -1.47,0 -2.18,0.52 -2.12,1.56l-6.37 4.66c-1.41,1.03 -2.1,2.07 -2.04,3.11 -4.25,3.11 -2.65,5.69 4.81,7.76 4.51,2.08 6.12,4.66 4.81,7.77 -2.73,4.15 -3.85,10.88 -3.36,20.2 0.38,7.25 -3.76,12.43 -12.42,15.53 -15.78,7.25 -30.21,12.44 -43.26,15.54 -11.59,3.11 -22.81,6.21 -33.67,9.32 -10.86,3.11 -22.06,6.73 -33.59,10.88 -10.18,2.07 -18.37,0 -24.57,-6.21 -4.56,-3.11 -6.87,-5.18 -6.93,-6.22 -0.32,-6.21 -1.4,-12.69 -3.22,-19.42 -1.82,-6.73 0.81,-12.69 7.88,-17.87 2.73,-4.14 0.98,-9.32 -5.21,-15.53 -3.16,-4.15 -3.35,-7.77 -0.57,-10.88 4.08,-6.21 5.98,-11.91 5.71,-17.08l-0.48 -9.33c-0.22,-4.14 -0.04,-7.76 0.53,-10.88 0.58,-3.11 0.04,-6.21 -1.59,-9.32 -0.16,-3.11 1.53,-5.95 5.06,-8.54 3.54,-2.59 3.76,-5.44 0.66,-8.55 -1.64,-3.11 -2.9,-6.21 -3.8,-9.32 -0.9,-3.11 0.04,-6.21 2.82,-9.32 2.72,-4.15 4.01,-7.77 3.84,-10.88 1.31,-3.11 1.78,-8.28 1.4,-15.53 1.36,-2.08 2.74,-3.89 4.13,-5.44 1.39,-1.55 2.03,-3.37 1.92,-5.43 -1.58,-2.07 -3.15,-3.89 -4.69,-5.44 -1.55,-1.55 -0.91,-3.36 1.92,-5.43 2.84,-2.07 1.99,-4.15 -2.53,-6.21 -4.41,0 -7.32,0.52 -8.73,1.56 -2.84,2.07 -4.57,3.88 -5.22,5.43 -0.65,1.55 -1.67,3.37 -3.03,5.43 -9.53,14.5 -20.69,25.9 -33.47,34.18 -4.3,2.07 -9.23,6.21 -14.78,12.43 0.44,8.29 -1.8,14.76 -6.69,19.43 -4.9,4.65 -10.89,9.58 -17.96,14.75 -12.75,9.33 -18.81,19.69 -18.22,31.08 -2.61,6.21 -8.19,11.91 -16.73,17.09l-6.61 0c-14.37,6.21 -21.32,13.98 -20.83,23.3 0.49,9.32 -2.81,16.57 -9.88,21.76 -8.6,4.14 -14.23,8.8 -16.9,13.97 -5.33,10.36 -15.24,17.61 -29.72,21.76 -4.31,2.07 -6.33,5.43 -6.08,10.1 0.24,4.66 1.92,8.54 5.01,11.65l18.28 12.44 0.08 1.55c1.53,1.04 2.29,1.56 2.29,1.56l13.62 7.77 2.29 1.55 0.08 1.56c10.66,7.24 21.22,12.43 31.66,15.53l60.56 20.2c11.97,4.15 19.51,7.77 22.6,10.88 12.3,10.36 25.78,15.53 40.48,15.53 2.95,0 7.46,2.07 13.55,6.21 4.51,2.08 8.32,4.66 11.42,7.77 7.62,5.17 16.57,7.77 26.86,7.77 8.76,-1.04 16.54,0.25 23.34,3.88 6.79,3.63 13.28,8.03 19.42,13.22 6.09,4.14 9.28,8.8 9.55,13.98 0.27,5.17 2.71,9.83 7.34,13.97 -1.37,2.08 -4.9,4.66 -10.62,7.77l-6.44 3.11c-1.47,0 -2.2,0.26 -2.17,0.78 0.03,0.52 -0.69,0.77 -2.16,0.77l-27.93 13.98c-2.88,1.04 -7.18,3.11 -12.9,6.22 -5.71,3.11 -8.52,5.69 -8.41,7.76 -2.35,11.4 -8.49,20.2 -18.46,26.41l-4.16 4.66c-1.42,1.04 -2.1,2.07 -2.05,3.11 -1.09,7.25 -6.69,12.43 -16.82,15.53 -8.7,2.08 -18.73,6.99 -30.08,14.76 -11.35,7.77 -16.81,15.79 -16.37,24.08 0.21,4.15 -3.3,7.25 -10.54,9.32 -7.23,2.08 -10.72,5.69 -10.45,10.88 -2.56,7.25 -4.57,10.87 -6.04,10.87 -7.24,2.08 -11.88,4.66 -13.91,7.77 -2.05,3.11 -5.22,5.7 -9.52,7.77 -5.71,3.11 -11.35,7.77 -16.9,13.98 0.06,1.03 -3.54,2.59 -10.78,4.65 -12.95,5.18 -22.85,12.44 -29.72,21.76 -3.92,9.32 -12.41,15.53 -25.47,18.65 -7.23,2.07 -11.51,4.65 -12.82,7.76 -2.56,7.25 -7.77,12.95 -15.63,17.09 -7.86,4.15 -16.1,8.28 -24.7,12.43 -4.3,2.08 -4.92,4.15 -1.88,6.21 16.43,5.18 26.36,12.44 29.79,21.76 6.25,7.25 13.79,10.88 22.6,10.88 7.4,1.04 17.84,3.89 31.31,8.54 13.47,4.66 22.53,9.59 27.22,14.76 3.05,2.07 5.75,4.65 8.12,7.76 2.36,3.12 5.06,5.7 8.11,7.77 5.98,2.08 11.25,4.41 15.79,6.99 4.54,2.59 9.07,4.92 13.59,6.99l20.57 13.98c3.04,2.07 6.06,3.63 9.05,4.66 7.51,3.11 15.74,5.95 24.69,8.54 8.95,2.59 17.23,6.47 24.85,11.66 7.45,2.07 14.21,4.91 20.28,8.54 6.06,3.63 12.89,7.51 20.45,11.65 5.87,0 9.52,-0.51 10.94,-1.55 2.94,0 2.83,-2.08 -0.33,-6.21 -4.67,-5.18 -5.65,-9.84 -2.94,-13.98 1.37,-2.07 2.77,-3.37 4.22,-3.89 1.44,-0.52 2.11,-1.81 2,-3.89l-3.5 -66.81c-0.1,-2.07 -1.3,-3.89 -3.59,-5.43 -2.28,-1.56 -3.49,-3.37 -3.59,-5.44 -0.11,-2.07 0.54,-3.62 1.96,-4.65 1.42,-1.04 2.81,-2.59 4.17,-4.66 1.41,-1.03 2.07,-2.59 1.96,-4.65 5.55,-6.22 5.25,-11.92 -0.89,-17.09 -1.85,-7.25 -2.97,-14.5 -3.35,-21.76 -0.38,-7.25 2.95,-13.98 9.97,-20.2 1.42,-1.03 2.09,-2.33 2,-3.89 -0.08,-1.55 1.35,-2.33 4.3,-2.33 7.23,-2.07 13.66,-5.43 19.3,-10.1 5.63,-4.66 13.54,-8.03 23.72,-10.1l6.44 -3.11c1.42,-1.04 2.86,-1.56 4.33,-1.56 14.42,-5.17 23.82,-8.02 28.21,-8.54 4.38,-0.52 14.62,-1.3 30.73,-2.33l15.43 0c13.34,2.07 22.29,4.65 26.85,7.76 3.11,3.11 8.46,7.25 16.08,12.44 1.63,3.11 1.82,6.73 0.56,10.87 -7.07,5.18 -7.51,10.88 -1.31,17.09 4.62,4.15 4.22,10.36 -1.23,18.65 -2.83,2.07 -4.18,4.4 -4.05,6.99 0.14,2.59 0.26,4.91 0.37,6.99 2.01,10.35 0.27,19.16 -5.23,26.41 -1.42,1.03 -2.07,2.59 -1.96,4.65l0.16 3.11c7.78,8.29 11.55,17.09 11.3,26.41 -0.25,9.33 -0.13,18.65 0.36,27.97 -1.36,2.08 -2.04,3.11 -2.04,3.11 -5.66,4.15 -5.42,8.81 0.73,13.98 1.68,4.15 1.17,8.29 -1.56,12.43 -5.66,4.15 -5.36,9.85 0.89,17.09 6.2,6.21 6.61,13.98 1.22,23.3 -4.3,2.08 -4.92,4.15 -1.88,6.21 7.67,6.22 8,12.44 0.98,18.65 -2.73,4.15 -1.75,8.8 2.93,13.98 1.47,0 2.24,0.52 2.29,1.55l6.85 4.66c0.06,1.04 0.85,2.07 2.37,3.11 4.57,3.11 5.49,6.73 2.78,10.88 -5.5,7.25 -8.03,15.01 -7.6,23.3 0.16,3.11 -0.42,5.95 -1.76,8.54 -1.34,2.6 -3.39,5.44 -6.16,8.55 -2.67,5.17 -9.83,8.8 -21.48,10.88 -8.7,2.07 -17.41,4.14 -26.12,6.21 -8.71,2.07 -17.49,2.59 -26.36,1.55 -5.88,0 -10.96,1.3 -15.22,3.89 -4.28,2.59 -9.44,2.33 -15.47,-0.78 -11.65,2.08 -20.46,2.08 -26.44,0l-2.21 0 -4.25 3.11c-4.36,1.04 -8.74,1.56 -13.15,1.56 -7.45,-2.07 -13.81,-4.41 -19.1,-6.99 -5.27,-2.59 -10.88,-4.41 -16.81,-5.43 -8.92,-2.08 -23.08,-5.95 -42.48,-11.66 -19.4,-5.69 -30.76,-12.17 -34.07,-19.42 -15.28,-11.4 -29.16,-23.82 -41.61,-37.29 -4.67,-5.17 -12.25,-9.32 -22.69,-12.43 -4.51,-2.08 -8.64,-3.89 -12.4,-5.44 -3.76,-1.55 -7.16,-3.37 -10.21,-5.43 -7.5,-3.11 -15.39,-6.47 -23.66,-10.1 -8.27,-3.63 -15.48,-8.03 -21.63,-13.21 -11.98,-4.15 -22.5,-8.81 -31.58,-13.98 -9.09,-5.18 -19.59,-9.32 -31.5,-12.43 -16.43,-5.18 -28.51,-11.4 -36.23,-18.65 -6.09,-4.14 -11.82,-8.02 -17.14,-11.65 -5.33,-3.63 -11.02,-6.99 -17.06,-10.1 -4.61,-4.15 -10.66,-7.25 -18.11,-9.33 -5.99,-2.07 -11.62,-4.4 -16.9,-6.98 -5.27,-2.6 -10.23,-5.96 -14.85,-10.1l-57.12 -38.85c-4.57,-3.11 -7.02,-7.77 -7.34,-13.98l-0.9 -17.09c-0.27,-5.17 1.01,-8.8 3.85,-10.87 5.65,-4.15 11.69,-8.29 18.08,-12.44 6.39,-4.15 10.9,-9.32 13.51,-15.53l4.33 -1.55c5.76,-2.08 12.93,-5.7 21.47,-10.88 8.55,-5.18 12.69,-10.36 12.42,-15.54 -0.33,-6.21 2.37,-10.88 8.08,-13.98 23.07,-8.28 39.36,-20.2 48.83,-35.73 -0.05,-1.03 2.81,-2.59 8.57,-4.65 5.82,-1.04 9.02,-3.12 9.59,-6.22 0.58,-3.11 3.02,-5.69 7.31,-7.76 2.83,-2.08 5.7,-3.37 8.61,-3.89 2.92,-0.52 5.78,-1.82 8.61,-3.89 12.69,-10.36 25.78,-19.94 39.28,-28.74 13.5,-8.81 26.61,-17.87 39.36,-27.2 2.77,-3.1 2.59,-6.72 -0.57,-10.87 -3.05,-2.07 -2.42,-4.15 1.88,-6.21 7.07,-5.18 13.78,-10.36 20.12,-15.54 6.34,-5.17 13.06,-10.36 20.13,-15.53 5.66,-4.15 4.73,-7.77 -2.77,-10.88 -4.57,-3.11 -9.06,-4.66 -13.48,-4.66 -2.99,-1.03 -5.95,-1.55 -8.89,-1.55 -2.94,0 -5.16,-0.52 -6.69,-1.56 -4.51,-2.07 -8.33,-4.91 -11.47,-8.54 -3.13,-3.63 -8.36,-5.44 -15.71,-5.44 -5.87,0 -10.34,-1.03 -13.39,-3.11 -3.05,-2.07 -6.09,-4.14 -9.14,-6.2 -1.52,-1.04 -3.02,-1.56 -4.49,-1.56l-11.27 -4.66c1.47,0 -0.79,-1.03 -6.77,-3.11l-2.37 -3.11c-3.21,-5.17 -7.78,-8.28 -13.7,-9.32 -19.1,0 -33.22,-3.11 -42.36,-9.32 -3.1,-3.11 -7.63,-5.44 -13.58,-6.99 -5.96,-1.56 -11.2,-3.37 -15.71,-5.44 -4.51,-2.07 -8.71,-4.91 -12.57,-8.54 -3.87,-3.63 -7.32,-6.47 -10.37,-8.55 -6.09,-4.14 -10.64,-6.73 -13.62,-7.76 -8.87,-1.04 -15.7,-5.18 -20.49,-12.44 -6.2,-6.21 -11.53,-9.84 -15.99,-10.87 -7.46,-2.08 -12.37,-4.66 -14.73,-7.77 -2.37,-3.11 -5.09,-6.21 -8.2,-9.32 -1.63,-3.11 -1.77,-5.7 -0.4,-7.77 2.78,-3.11 5.93,-5.95 9.47,-8.55 3.54,-2.59 6.66,-5.95 9.39,-10.09 2.78,-3.12 6.69,-5.44 11.76,-6.99 5.06,-1.56 8.21,-4.41 9.47,-8.55 -0.11,-2.07 2.72,-4.15 8.49,-6.21 7.23,-2.07 10.72,-5.69 10.45,-10.88z"/>
   <path class="fil0" d="M4742.05 178.26c3.66,4.15 3.56,7.77 -0.31,10.88 -2.58,2.07 -2.96,4.15 -1.12,6.21 5.3,5.18 5.7,9.58 1.19,13.21 -4.5,3.63 -2.65,8.03 5.6,13.21 1.65,1.04 2.01,3.11 1.08,6.21l-4.71 10.88 1.35 7.77c2.74,7.25 4.28,13.98 4.62,20.2 0.34,6.21 -1.15,12.43 -4.48,18.64 -1.29,1.04 -0.1,3.63 3.56,7.77 3.66,4.15 5.85,8.28 6.57,12.43 0.72,4.15 1.53,8.81 2.43,13.98 0.91,5.18 1.81,10.36 2.71,15.54 0.9,5.17 -0.4,10.36 -3.91,15.53 5.66,7.25 9.4,16.05 11.21,26.41 1.08,6.21 -0.04,12.43 -3.38,18.64 -5.9,8.29 -3.73,16.58 6.53,24.86 5.13,4.15 5.85,8.29 2.17,12.43 0,0 -1.11,2.08 -3.33,6.22 -1.86,6.21 -1.47,12.69 1.17,19.42 2.65,6.73 1.57,13.21 -3.23,19.42 0,0 0.18,1.04 0.54,3.11 10.8,11.4 12.78,22.78 5.94,34.18 -3.33,6.21 -2.24,12.43 3.25,18.64 12.81,14.5 15.42,29.53 7.84,45.06 -3.87,3.11 -3.24,6.73 1.89,10.88 7.14,7.25 8.22,13.47 3.25,18.64 -2.22,4.15 -3.06,7.77 -2.52,10.88l6.22 35.73c0.9,5.18 1.76,10.1 2.57,14.76 0.81,4.66 -1.27,9.58 -6.24,14.76 -1.29,1.03 -1.44,2.33 -0.43,3.88 1.01,1.56 1.6,2.86 1.78,3.89 6.78,5.18 10.8,11.4 12.06,18.65 0.72,4.15 0.62,7.76 -0.31,10.88 -0.93,3.11 -1.77,6.72 -2.51,10.87 5.48,6.21 8.77,12.43 9.85,18.65 0.9,5.17 -0.4,10.36 -3.91,15.53 -1.11,2.07 -0.66,4.66 1.35,7.77 5.12,4.15 8.14,8.8 9.04,13.98 -0.74,4.14 -2.32,7.76 -4.71,10.87 -2.4,3.12 -1.03,6.73 4.1,10.88 -3.69,4.15 -5.16,8.29 -4.45,12.43 0.72,4.15 1.53,8.81 2.44,13.98 1.08,6.21 2.16,12.44 3.24,18.65 1.09,6.21 -0.13,11.91 -3.64,17.09 -1.29,1.03 -0.19,3.11 3.29,6.21 5.49,6.21 8.04,12.43 7.65,18.64 -0.39,6.21 -1.51,12.43 -3.37,18.65 -1.5,8.28 -2.07,13.47 -1.71,15.53 0.55,3.11 2.51,5.95 5.89,8.55 3.4,2.59 3.99,5.95 1.76,10.1 -2.4,3.11 -2.96,8.28 -1.7,15.53 1.26,7.25 -1.06,12.95 -6.94,17.09 -5.89,4.14 -12.16,8.28 -18.78,12.43 -10.11,1.04 -18.93,3.11 -26.47,6.21 -7.54,3.11 -15.53,5.69 -23.99,7.77 -2.58,2.07 -6.06,3.11 -10.48,3.11 -7.52,-1.04 -14.41,-0.52 -20.67,1.56 -6.24,2.07 -12.87,4.14 -19.85,6.21 -6.99,2.07 -14.15,1.03 -21.49,-3.11 -7.33,-4.15 -11.45,-8.81 -12.35,-13.98 -2.01,-3.11 -2.92,-6.21 -2.72,-9.33 0.19,-3.11 0.02,-6.21 -0.53,-9.32 4.97,-5.17 7.43,-10.1 7.35,-14.75 -0.08,-4.66 1.64,-9.58 5.14,-14.76 4.97,-5.17 2.7,-9.84 -6.84,-13.98 -3.84,-5.17 -5.2,-8.8 -4.1,-10.88 2.4,-3.11 3.79,-5.69 4.16,-7.76 0.38,-2.08 -1.17,-4.66 -4.65,-7.77 -5.3,-5.17 -6.85,-9.84 -4.63,-13.98 4.61,-7.24 6.7,-14.24 6.26,-20.98 -0.43,-6.73 -2.02,-13.71 -4.74,-20.97 -1.45,-8.29 0.14,-16.05 4.75,-23.3 3.7,-4.15 3.53,-9.33 -0.49,-15.54 -5.67,-7.24 -7.4,-12.95 -5.18,-17.08 2.04,-5.18 1.78,-10.88 -0.77,-17.09 -2.55,-6.22 -3.63,-12.44 -3.25,-18.65 -0.36,-2.07 -4.02,-6.21 -10.98,-12.43 -0.9,-5.18 -0.71,-8.29 0.58,-9.33 4.8,-6.21 4.46,-12.43 -1.04,-18.64 -8.42,-6.21 -10.69,-15.01 -6.79,-26.41 0.75,-4.15 1.95,-7.77 3.62,-10.88 1.66,-3.11 3.6,-6.73 5.82,-10.88 1.29,-1.03 0.93,-3.11 -1.09,-6.21 -10.44,-9.32 -12.89,-19.16 -7.34,-29.52 2.23,-4.15 1.41,-8.8 -2.43,-13.98 -2.38,-5.17 -2.27,-8.8 0.31,-10.88 6.26,-6.21 5.18,-12.43 -3.25,-18.64 -4.94,-3.11 -6.31,-6.73 -4.1,-10.88 3.33,-6.21 4.45,-12.43 3.37,-18.64 -0.9,-5.18 -1.8,-10.36 -2.7,-15.53 -0.91,-5.18 -1.07,-10.36 -0.5,-15.54 -1.27,-7.25 -0.7,-12.43 1.7,-15.53 2.22,-4.15 -0.8,-8.81 -9.04,-13.98 -6.78,-5.18 -8.24,-9.32 -4.37,-12.44 2.58,-2.07 3.64,-4.4 3.19,-6.98 -0.45,-2.6 0.62,-4.92 3.2,-6.99 2.22,-4.15 0.85,-7.77 -4.1,-10.88 -5.13,-4.15 -6.77,-9.32 -4.91,-15.53 0.93,-3.11 2.27,-5.96 4.03,-8.55 1.75,-2.59 0.15,-5.43 -4.79,-8.54 6.08,-7.25 7.76,-14.5 5.03,-21.76 -2.74,-7.25 -4.72,-14.5 -5.99,-21.76 -0.54,-3.11 -3.02,-4.65 -7.42,-4.65 -0.75,4.15 -3.06,7.77 -6.92,10.88 -3.87,3.11 -5.44,6.73 -4.71,10.87 2.19,4.15 2.4,7.51 0.65,10.11 -1.75,2.59 -3.83,5.43 -6.22,8.54 -1.11,2.07 -1.17,3.89 -0.16,5.43 1.01,1.56 1.69,3.37 2.05,5.44 1.27,7.25 -1.33,13.47 -7.77,18.64 -6.62,4.15 -9.13,10.88 -7.5,20.2l0.81 4.66 -0.86 7.76 0.81 4.66c2.38,5.17 1.16,10.88 -3.63,17.09 -2.05,5.17 -3.44,9.84 -4.19,13.98 -0.75,4.15 -2.23,8.28 -4.45,12.43 -1.11,2.08 -1.13,6.21 -0.05,12.44 1.27,7.24 -1.97,13.97 -9.7,20.19 -4.8,6.21 -6.92,10.88 -6.38,13.98 1.08,6.21 2.12,12.17 3.11,17.87 0.99,5.69 -1.74,11.14 -8.18,16.31 -0.75,4.15 -0.44,8.03 0.93,11.66 1.36,3.62 0.93,7.5 -1.28,11.65 -2.4,3.11 -4.39,6.47 -5.96,10.1 -1.57,3.63 -3.56,6.99 -5.95,10.1 1.81,10.36 2.14,20.72 1,31.08 -2.22,4.15 -4.16,7.77 -5.82,10.88 -1.66,3.11 -2.04,7.25 -1.14,12.43 -4.97,5.18 -6.87,11.14 -5.7,17.87 1.17,6.73 1.56,13.21 1.17,19.42 1.63,9.32 -0.79,16.57 -7.23,21.75 -6.62,4.15 -9.04,11.4 -7.23,21.76 2.91,8.29 2.24,17.09 -2.02,26.41 -2.58,2.07 -3.24,6.73 -1.98,13.98 0.9,5.17 1.26,9.32 1.07,12.43 -0.2,3.11 -1.41,6.73 -3.63,10.88 -2.58,2.07 -3.64,4.41 -3.19,6.99 0.45,2.59 0.94,5.43 1.49,8.54 0.9,5.18 0.06,8.81 -2.52,10.88 -6.62,4.15 -10.55,9.06 -11.76,14.76 -1.21,5.69 -2.84,11.13 -4.87,16.31 -1.86,6.21 -1.05,10.88 2.43,13.98 1.83,2.07 3.02,4.65 3.56,7.76 -2.4,3.11 -4.06,6.22 -4.98,9.33 -0.93,3.11 -2.59,6.21 -4.98,9.32 -3.7,4.15 -4.63,11.4 -2.83,21.75 0.72,4.15 -0.86,7.77 -4.72,10.88 -1.11,2.07 -2.17,4.41 -3.19,6.99 -1.02,2.59 -0.53,5.43 1.49,8.54 1.44,8.29 -2.36,16.06 -11.38,23.31 -3.87,3.11 -5.43,6.73 -4.71,10.87 1.8,10.36 0.39,19.17 -4.23,26.42 -2.58,2.07 -3.33,6.2 -2.25,12.43 1.63,9.32 -2.17,17.09 -11.37,23.3 -6.8,3.11 -6.73,7.77 0.23,13.98 0.18,1.03 1.01,1.55 2.48,1.55l0.54 3.11c1.65,1.04 2.47,1.56 2.47,1.56l8.24 9.32c3.3,2.07 5.12,4.15 5.48,6.21 3.48,3.11 3.38,6.73 -0.31,10.88 -3.87,3.11 -5.26,7.77 -4.18,13.98 0.72,4.14 -0.86,7.76 -4.72,10.87 -3.51,5.18 -8.93,7.77 -16.28,7.77 -7.16,1.04 -18.83,1.56 -34.98,1.56 -8.82,0 -15.25,1.03 -19.3,3.11 -9.74,3.11 -20.77,3.11 -33.06,0 -8.06,-4.15 -16.88,-4.15 -26.44,0 -5.51,2.07 -12.22,1.55 -20.11,-1.56 0,0 -1.65,-1.03 -4.94,-3.11l-7.7 -6.21 -4.94 -3.11c-5.3,-5.18 -6.11,-9.84 -2.44,-13.98 0.93,-3.11 0.48,-5.69 -1.35,-7.76 -5.3,-5.18 -6.29,-10.88 -2.98,-17.09 4.79,-6.22 3.45,-13.98 -4.05,-23.3 -3.67,-4.15 -5.76,-7.77 -6.3,-10.88 -0.9,-5.18 -1.35,-7.77 -1.35,-7.77 6.44,-5.17 8.8,-10.62 7.07,-16.31 -1.73,-5.69 -3.13,-11.66 -4.22,-17.87 -0.54,-3.11 -2.64,-6.73 -6.29,-10.87 -5.49,-6.22 -8.77,-12.44 -9.86,-18.65l-3.78 -21.76 -5.37 -43.5 -3.79 -21.75c-1.08,-6.21 -2.21,-12.69 -3.38,-19.42 -1.17,-6.73 -4.5,-13.21 -9.99,-19.43 -1.83,-2.07 -0.17,-5.17 4.98,-9.32 4.97,-5.17 4.9,-9.84 -0.23,-13.98 -3.3,-2.07 -5.57,-6.73 -6.83,-13.97l-9.74 -55.94c-1.26,-7.25 -3.63,-12.43 -7.1,-15.53 -3.31,-2.07 -3.67,-4.15 -1.09,-6.21 2.22,-4.15 3.06,-7.77 2.52,-10.88l-7.57 -43.5c-0.9,-5.18 -1.43,-10.36 -1.6,-15.53 -0.17,-5.18 1.5,-10.36 5,-15.54 -4.94,-3.11 -6.54,-5.95 -4.79,-8.54 1.76,-2.6 3.1,-5.44 4.03,-8.55 -0.36,-2.07 -0.44,-4.65 -0.25,-7.77 0.2,-3.11 -1.36,-5.69 -4.65,-7.76 -3.3,-2.08 -4.49,-4.66 -3.56,-7.77 4.08,-10.36 4.16,-20.46 0.24,-30.3 -3.92,-9.84 -6.13,-20.46 -6.65,-31.84 -0.36,-2.08 -1.5,-4.41 -3.42,-6.99 -1.92,-2.59 -3.8,-4.92 -5.62,-6.99 -3.48,-3.11 -3.93,-5.7 -1.35,-7.77 4.61,-7.25 6.33,-14.24 5.16,-20.98 -1.17,-6.73 -3.13,-13.71 -5.85,-20.97l-2.71 -15.54 -3.47 -32.62 -2.71 -15.54c-1.26,-7.24 -3.64,-12.43 -7.11,-15.53 -1.65,-1.03 -5.41,-1.55 -11.29,-1.55 -4.41,0 -4.78,2.07 -1.12,6.21 3.3,2.07 5.12,4.14 5.48,6.21 4.03,6.21 4.19,11.39 0.5,15.53 -2.4,3.11 -6.81,7.25 -13.27,12.44 -2.58,2.07 -3.28,4.4 -2.09,6.99 1.19,2.59 2.05,5.43 2.59,8.54 0.36,2.07 2.2,4.15 5.49,6.21 3.3,2.08 3.75,4.66 1.35,7.77 -1.47,0 -2.11,0.52 -1.93,1.55l-5.8 4.66c0.18,1.04 -0.38,2.07 -1.67,3.11 -4.97,5.18 -4.17,9.84 2.44,13.98 0.18,1.04 1.1,2.07 2.75,3.11 3.66,4.15 3.56,7.77 -0.31,10.88l-4.72 10.87c-0.75,4.15 -0.44,8.03 0.93,11.66 1.36,3.63 0.94,7.51 -1.28,11.66l0.27 1.55 -1.94 1.56 0.27 1.55 -4.45 12.43c0.36,2.08 -0.11,3.63 -1.39,4.66 -2.05,5.18 -2.98,10.36 -2.82,15.54 0.17,5.17 -2.33,9.83 -7.48,13.97l0.54 3.11c1.45,8.29 0.87,15.54 -1.72,21.76 -2.6,6.21 -6.2,12.95 -10.82,20.2 -1.29,1.04 -0.93,3.11 1.09,6.21 8.78,8.29 10.87,16.05 6.25,23.3 -2.58,2.07 -3.64,4.41 -3.19,6.99 0.45,2.59 0.12,4.91 -0.99,6.99 1.26,7.25 0.69,12.43 -1.71,15.53 -4.61,7.25 -5.46,15.02 -2.56,23.3 2.38,5.18 1.99,11.4 -1.16,18.65 -2.58,2.07 -1.95,5.69 1.89,10.88 5.49,6.21 4.74,10.35 -2.25,12.43 -8.09,4.15 -11.78,8.28 -11.06,12.43l3.25 18.65c-0.75,4.14 -1.22,7.76 -1.42,10.87 -0.19,3.11 -1.39,6.73 -3.61,10.88l-1.67 3.11c-0.21,7.25 0.01,12.69 0.64,16.31 0.63,3.63 0.48,6.99 -0.45,10.1 -0.93,3.11 -2.19,6.47 -3.76,10.1 -1.57,3.63 -4.12,8.03 -7.62,13.21 -2.04,5.18 -0.4,10.36 4.91,15.54 4.94,3.11 6.31,6.73 4.1,10.88 -2.22,4.14 -3.8,7.76 -4.72,10.87 -2.22,4.15 -2.55,8.55 -1.01,13.21 1.55,4.66 0.57,9.58 -2.94,14.76l-1.94 1.55 0.28 1.56 -2.25 12.43c0.36,2.08 -0.11,3.63 -1.4,4.66 -3.33,6.21 -4.36,12.95 -3.1,20.2 0.54,3.11 -0.07,5.95 -1.82,8.54 -1.75,2.6 -3.1,5.44 -4.03,8.55 -0.93,3.11 -0.71,6.47 0.66,10.1 1.37,3.63 0.85,6.99 -1.55,10.1 -2.22,4.15 -4.07,8.28 -5.55,12.43 -1.48,4.15 -1.04,8.81 1.33,13.98 2.38,5.17 2.78,9.58 1.2,13.21 -1.57,3.63 -3.47,7.51 -5.68,11.66 -3.51,5.17 -2.61,10.36 2.71,15.53l4.94 3.11c3.66,4.15 7.27,8.03 10.85,11.66 3.57,3.63 5.8,8.02 6.7,13.21 -2.22,4.14 -4.07,8.28 -5.55,12.43 -1.48,4.15 -4.07,8.28 -7.75,12.43 -8.1,4.15 -12.07,10.88 -11.92,20.2 -0.93,3.11 -2.55,6.47 -4.85,10.1 -2.31,3.63 -4.56,7.51 -6.78,11.66l-4.14 1.55c-5.7,1.04 -12.22,1.56 -19.57,1.56l-37.74 -1.56 -17.63 0c-5.87,0 -9.64,-0.51 -11.29,-1.55 -6.24,-2.07 -12.35,-3.37 -18.31,-3.89 -5.96,-0.52 -12.72,-1.3 -20.24,-2.33 -10.29,0 -18.26,-3.63 -23.93,-10.88 -5.66,-7.25 -10.42,-13.47 -14.26,-18.65 0,0 -0.36,-2.07 -1.08,-6.21 5.15,-4.15 5.08,-8.8 -0.23,-13.98 -3.66,-4.14 -4.84,-6.73 -3.56,-7.76 4.97,-5.18 7.06,-10.1 6.24,-14.76 -0.81,-4.65 -0.93,-9.58 -0.36,-14.75 -0.72,-4.15 1.12,-6.22 5.53,-6.22 9.74,-3.11 11.32,-6.73 4.71,-10.87 0.93,-3.11 1.49,-6.21 1.69,-9.33 0.19,-3.11 -2.19,-6.21 -7.13,-9.32 -0.54,-3.11 -0.26,-5.69 0.85,-7.77 4.79,-6.21 6.65,-12.43 5.57,-18.64 -2.56,-6.21 -1.43,-12.43 3.37,-18.64 4.97,-5.18 7.65,-10.88 8.04,-17.09 2.22,-4.15 3.06,-7.77 2.52,-10.88 -3.46,-11.4 -1.76,-22.78 5.07,-34.18 2.22,-4.15 3.7,-8.29 4.45,-12.43 0.75,-4.15 2.24,-8.29 4.45,-12.43 0.75,-4.15 1.27,-7.51 1.56,-10.11 0.28,-2.59 -1.32,-5.43 -4.79,-8.54 -2.02,-3.11 -1.91,-6.73 0.31,-10.88 2.4,-3.11 1.95,-5.69 -1.35,-7.76 -6.96,-6.22 -5.93,-12.96 3.1,-20.2 6.62,-4.15 9.3,-9.85 8.04,-17.09l-4.06 -23.3c-1.08,-6.22 1.78,-10.88 8.59,-13.98 6.44,-5.18 6.18,-10.88 -0.77,-17.09 -2.02,-3.11 -1.91,-6.73 0.31,-10.88 2.58,-2.07 5.47,-4.41 8.7,-6.99 3.22,-2.59 4.56,-5.43 4.03,-8.54 -1.45,-8.29 0.14,-16.05 4.75,-23.3 4.61,-7.25 5.47,-15.02 2.56,-23.3 -1.83,-2.08 -1.45,-4.15 1.13,-6.22 2.22,-4.14 3.38,-8.02 3.48,-11.65 0.1,-3.63 -0.2,-7.51 -0.92,-11.66 -1.45,-8.28 0.14,-16.05 4.75,-23.3 1.11,-2.07 1.21,-5.69 0.31,-10.87 0.57,-5.18 -0.05,-12.96 -1.85,-23.31 -2.92,-8.28 -0.5,-15.53 7.23,-21.75 6.44,-5.18 8.67,-13.47 6.69,-24.86 -2.37,-5.17 -3.92,-9.84 -4.63,-13.97 -0.72,-4.15 1.5,-8.29 6.65,-12.44 2.4,-3.11 2.97,-8.28 1.71,-15.53 -0.91,-5.18 -0.8,-8.81 0.31,-10.88 3.69,-4.15 5.53,-8.29 5.55,-12.43 0.01,-4.15 -0.44,-8.81 -1.34,-13.98 -0.54,-3.11 0.48,-5.69 3.06,-7.77 3.33,-6.21 4.19,-13.98 2.56,-23.3 0.57,-5.17 0.4,-10.36 -0.5,-15.53 -0.9,-5.18 -1.8,-10.36 -2.71,-15.54 5.16,-4.14 7.29,-8.8 6.38,-13.98 -0.9,-5.17 0.41,-10.35 3.92,-15.53 1.68,-7.25 3.81,-13.98 6.4,-20.2 2.59,-6.21 5.55,-12.43 8.87,-18.64 4.44,-8.29 3.56,-17.61 -2.66,-27.97 -5.31,-5.17 -6.12,-9.84 -2.44,-13.98 2.59,-2.07 3.78,-3.63 3.6,-4.65 -0.18,-1.04 0.29,-2.59 1.4,-4.66 3.69,-4.15 4.71,-10.88 3.1,-20.2 -0.9,-5.17 -0.8,-8.8 0.31,-10.88 4.97,-5.17 7.05,-10.1 6.24,-14.75 -0.81,-4.66 -0.93,-9.59 -0.36,-14.76 -1.08,-6.21 0.22,-11.4 3.91,-15.53 2.22,-4.15 2.7,-9.84 1.44,-17.09l-4.1 -10.88 -1.09 -6.21c-1.08,-6.21 -1.07,-10.36 0.04,-12.43 6.08,-7.25 8.13,-14.5 6.13,-21.76 -1.99,-7.25 -2.98,-15.02 -2.95,-23.3 -1.45,-8.28 -0.32,-14.5 3.37,-18.64 2.58,-2.08 3.32,-4.15 2.23,-6.22 -1.1,-2.07 -1.09,-4.14 0.02,-6.21 -0.91,-5.17 -1.76,-10.1 -2.58,-14.75 -0.81,-4.66 1.28,-9.59 6.25,-14.76 -0.54,-3.11 -0.71,-6.21 -0.52,-9.32 0.19,-3.11 -0.07,-6.73 -0.79,-10.88 -4.36,-16.57 1.85,-31.59 18.61,-45.06 4.97,-5.17 10.04,-9.84 15.19,-13.98 5.15,-4.14 11.14,-7.76 17.94,-10.87 6.62,-4.15 13.61,-8.29 20.98,-12.44 7.36,-4.14 16,-7.24 25.93,-9.32 12.5,-4.14 24.9,-4.65 37.19,-1.55 12.3,3.11 22.93,7.24 31.91,12.43 8.99,5.17 18.89,9.32 29.72,12.43 3.66,4.15 7.22,7.77 10.71,10.88 3.48,3.11 5.57,6.73 6.29,10.88 4.21,7.25 6.52,14.24 6.96,20.98 0.44,6.73 2.11,14.23 5.02,22.52l-2.21 0 5.4 31.08c0.54,3.11 2.65,6.73 6.3,10.87 6.78,5.18 7.86,11.4 3.25,18.65 -2.4,3.11 -2.97,8.28 -1.71,15.53 1.26,7.25 0.6,11.92 -1.98,13.98 -2.58,2.07 -2.86,4.66 -0.85,7.77 5.12,4.14 7.73,8.54 7.81,13.21 0.08,4.66 3.42,9.06 10.01,13.21 2.19,4.15 2.09,7.77 -0.31,10.88 -2.4,3.11 -3.24,6.73 -2.52,10.87 2.37,5.18 3.64,10.36 3.81,15.54 0.17,5.17 1.44,10.36 3.81,15.53 0.36,2.07 1.41,3.89 3.15,5.44 1.74,1.55 2.79,3.36 3.15,5.43 0.37,2.07 -0.05,3.89 -1.25,5.43 -1.2,1.56 -1.62,3.37 -1.26,5.44 -0.57,5.17 -0.13,11.91 1.31,20.2l20.55 118.08c1.26,7.25 5.28,13.46 12.06,18.64l1.36 7.77c0.18,1.03 -0.38,2.07 -1.67,3.11l-5.53 6.21c0,0 -1.29,1.04 -3.87,3.11 -2.58,2.07 -2.13,4.66 1.36,7.77 3.48,3.11 5.52,6.47 6.16,10.1 0.63,3.63 1.3,7.51 2.03,11.65 0.9,5.18 1.71,9.84 2.43,13.98 0.72,4.15 3.74,8.81 9.05,13.98 3.12,1.03 2.75,3.11 -1.13,6.21 -3.87,3.11 -6.67,5.95 -8.43,8.55 -1.75,2.59 0.03,6.47 5.33,11.65 3.13,1.04 4.5,2.59 4.13,4.66 -0.38,2.07 -0.39,4.14 -0.03,6.21l7.57 43.5c0.54,3.11 1.5,6.47 2.87,10.1 1.36,3.63 3.79,6.99 7.26,10.1 1.65,1.03 2.01,3.11 1.08,6.21 -3.69,4.15 -4.8,10.36 -3.37,18.64l4.33 24.86c0.72,4.15 -0.67,8.81 -4.18,13.98 -0.93,3.11 0.3,5.95 3.69,8.54 3.39,2.6 3.25,5.95 -0.44,10.1 -2.59,2.08 -3.56,4.92 -2.93,8.55 0.63,3.63 1.95,6.99 3.97,10.1 0.54,3.11 2.64,6.73 6.29,10.88 3.49,3.11 4.3,7.76 2.44,13.97 -5.15,4.15 -4.79,6.22 1.08,6.22 4.58,1.03 8.17,0.51 10.75,-1.56 6.84,-11.4 12.94,-22.78 18.3,-34.18 1.11,-2.07 1.39,-4.65 0.85,-7.77 -1.08,-6.21 0.04,-12.43 3.38,-18.64 3.32,-6.21 5.95,-12.17 7.9,-17.87 1.95,-5.69 3.03,-12.17 3.24,-19.42 -0.9,-5.17 0.17,-9.58 3.21,-13.21 3.05,-3.63 3.39,-8.03 1.01,-13.21 -0.9,-5.18 0.45,-10.1 4.05,-14.76 3.6,-4.65 4.94,-9.58 4.05,-14.75 -0.9,-5.18 0.17,-9.58 3.21,-13.21 3.05,-3.63 4.12,-8.03 3.22,-13.21 0.39,-6.21 3.07,-11.92 8.04,-17.09 3.69,-4.15 5.49,-8.55 5.42,-13.21 -0.08,-4.66 0.99,-9.07 3.21,-13.21 3.69,-4.15 5.54,-8.29 5.55,-12.44 0.01,-4.14 -0.43,-8.8 -1.34,-13.97 -0.54,-3.12 0.48,-5.7 3.06,-7.77 2.58,-2.08 2.04,-5.18 -1.62,-9.32 -3.3,-2.08 -3.71,-4.41 -1.22,-6.99 2.49,-2.59 4.29,-4.92 5.39,-6.99 2.04,-5.18 4.22,-9.58 6.52,-13.21 2.31,-3.63 3.01,-8.03 2.11,-13.22 2.22,-4.14 3.7,-8.28 4.46,-12.43 0.74,-4.14 1.4,-8.8 1.97,-13.97 -0.9,-5.18 -0.2,-9.59 2.11,-13.22 2.31,-3.63 4.57,-7.5 6.79,-11.65 4.44,-8.29 5.55,-14.5 3.37,-18.65 -2.37,-5.17 -2.49,-10.1 -0.36,-14.75 2.13,-4.66 4.21,-9.59 6.24,-14.76 3.51,-5.17 5.68,-9.58 6.51,-13.21 0.85,-3.63 0.72,-8.54 -0.36,-14.75l0.58 -9.33 -0.81 -4.65c4.97,-5.18 7.43,-10.1 7.35,-14.76 -0.08,-4.66 0.9,-9.58 2.94,-14.76 1.11,-2.07 2.27,-3.88 3.47,-5.43 1.19,-1.55 0.88,-3.37 -0.95,-5.43 -2.37,-5.18 -2.13,-10.1 0.74,-14.76 2.86,-4.66 5.31,-9.58 7.34,-14.76 6.83,-11.39 8.53,-22.78 5.07,-34.17 -0.54,-3.12 -0.25,-5.7 0.86,-7.77 1.11,-2.08 2.12,-4.66 3.05,-7.77 2.23,-4.15 4.85,-8.02 7.89,-11.65 3.05,-3.63 4.12,-8.03 3.22,-13.21 -0.72,-4.15 0.12,-7.77 2.52,-10.88 2.4,-3.11 3.97,-6.73 4.71,-10.88 -0.72,-4.15 1.14,-10.36 5.57,-18.64 2.22,-4.15 0.85,-7.77 -4.1,-10.88 -6.6,-4.15 -6.4,-7.25 0.58,-9.32 9.02,-7.25 11.99,-15.54 8.9,-24.86 -0.72,-4.15 -0.21,-7.51 1.55,-10.1 1.75,-2.59 3.1,-5.43 4.03,-8.54 -5.13,-4.15 -6.82,-7.51 -5.06,-10.1 1.75,-2.59 3.92,-4.92 6.49,-6.99 6.45,-5.18 13.26,-10.36 20.44,-15.54 7.18,-5.17 16.29,-9.84 27.32,-13.98 11.04,-4.14 21.84,-7.5 32.4,-10.1 10.57,-2.59 21.83,-3.36 33.75,-2.33l33.05 0c4.42,0 8.26,1.04 11.57,3.11 3.3,2.08 6.59,4.15 9.9,6.21 4.58,1.04 5.95,4.66 4.1,10.88 -1.11,2.07 -2.22,4.15 -3.33,6.21 -1.11,2.08 0.07,4.66 3.56,7.77l0 0c1.65,1.04 1.83,2.07 0.54,3.11 -4.97,5.18 -6.19,10.88 -3.64,17.09 2.55,6.21 2.07,11.92 -1.44,17.09 -4.05,2.07 -4.43,4.15 -1.12,6.21 5.12,4.15 8.41,10.36 9.85,18.64 0.91,5.18 2.22,10.62 3.95,16.32 1.73,5.69 2.3,11.13 1.74,16.31 0.72,4.15 4.73,10.36 12.06,18.64zm-382.25 627.68c4.42,0 6.43,-1.04 6.07,-3.11 0,0 -0.09,-0.52 -0.27,-1.56l-2.21 0c-2.94,0 -4.14,1.56 -3.6,4.66zm-1.47 29.52c2.94,0 4.23,-1.04 3.87,-3.11 -0.73,-4.15 -1.45,-8.29 -2.17,-12.44 -0.72,-4.15 -0.71,-8.28 0.04,-12.43 -4.41,0 -7.16,1.04 -8.27,3.11 -1.5,8.29 -0.24,15.53 3.79,21.76 1.83,2.07 2.75,3.11 2.75,3.11zm501.68 324.71c0.9,5.17 1.71,9.84 2.43,13.98 0.73,4.15 2.92,8.28 6.57,12.43 3.67,4.15 4.12,6.73 1.35,7.77 -1.47,0 -2.11,0.52 -1.93,1.55l-5.8 4.66 0.27 1.56c0.18,1.03 -0.46,1.55 -1.93,1.55 -2.59,2.08 -5.94,3.89 -10.08,5.43 -4.14,1.56 -8.41,2.34 -12.82,2.34l-24.24 0c-15.05,-2.08 -27.36,-1.04 -36.93,3.11l-4.14 1.56c-8.24,-5.18 -16.64,-7 -25.18,-5.44 -8.55,1.56 -16.67,1.3 -24.38,-0.78 -2.94,0 -6.14,-1.55 -9.63,-4.65 -3.48,-3.11 -5.94,-6.73 -7.4,-10.88 -1.46,-4.15 -3.93,-7.77 -7.4,-10.88l4.19 -13.98 -6.22 -35.73c-1.26,-7.25 -0.55,-13.72 2.13,-19.42 2.69,-5.69 6.51,-11.14 11.49,-16.31 0,0 1.3,-1.04 3.87,-3.12 11.22,-3.11 21.93,-6.98 32.13,-11.65 10.21,-4.66 21.75,-8.03 34.61,-10.1 2.94,0 6.06,-1.04 9.38,-3.11 3.31,-2.07 6.52,-2.59 9.64,-1.56 7.71,2.08 15.04,4.15 22.02,6.21 6.97,2.08 13.85,5.7 20.63,10.88l2.48 1.56c3.85,5.17 5.47,10.36 4.91,15.53 -0.58,5.18 2.53,10.36 9.31,15.54l0.27 1.55c0.18,1.04 -0.47,1.56 -1.94,1.56 -3.32,6.21 -4.04,12.69 -2.13,19.42 1.91,6.73 3.41,13.21 4.49,19.42z"/>
   <path class="fil1" d="M2113.64 2406c-17.91,-4.58 -33.13,-14.26 -45.89,-28.71 -7.66,-8.67 -21.69,-17.1 -31.04,-24.45l-7.05 -5.55 -2.88 -8.51c-1.29,-3.84 -3.25,-8.57 -6.92,-10.71 -8.29,-4.8 -15.48,-11.57 -19.6,-20.35 -1.82,-3.9 -6.65,-8.52 -9.66,-11.5 -4.29,-4.25 -8.33,-8.29 -12.03,-12.64 -15.74,20.99 -35.55,37.01 -56.02,53.68 -3.75,3.06 -11.21,8.88 -13.33,13.39l-5.55 11.83 -12.44 4.03c-1.48,0.48 -2.96,0.95 -4.44,1.43 -9.85,8.65 -19.73,17.21 -29.19,25.87 -1.43,1.67 -3.04,4.33 -4.62,6.37 -8.21,10.65 -14.71,19.35 -26.14,26.47 -0.48,0.59 -0.95,1.21 -1.41,1.83 -4.17,7.6 -7.8,13.03 -16.09,17.48 -3.84,2.07 -7.34,6.19 -10.05,9.54 -6.08,7.5 -11.42,15.09 -18.27,22.02 -12.8,12.93 -19.83,23.54 -36.6,29.91 -11.47,13.75 -24.01,20.73 -37.97,32.41 -8.09,6.78 -14.97,12.29 -25.64,14.5 -1.51,1.62 -3.51,4.67 -4.53,6.09l-6.05 8.36 -9.9 2.9c-11.57,3.39 -24.22,6.03 -35.37,10.49 -22.62,9.05 -44.68,5.15 -64.43,-8.35l-5.75 -3.94 -3.44 -6.05c-13.47,-23.69 -8.37,-47.38 4.72,-69.41 6.59,-11.09 11.86,-23.07 17.6,-34.62 6.74,-13.52 15.08,-26.57 25.75,-37.35 26.1,-26.35 53.44,-51.41 79.88,-77.41 3.71,-3.65 19.15,-15.06 20.45,-17.94 3.87,-8.58 10.37,-14.61 18.39,-19.24 2.3,-1.32 5.02,-2.51 6.89,-3.67 4.4,-3.51 8.76,-8.57 13.36,-12.64 3.69,-3.26 9.08,-6.61 12.29,-9.89 20.45,-20.92 40.34,-42.39 61.07,-63.05 13.86,-13.82 27.85,-27.43 43.67,-39.04 0.53,-0.39 1.43,-1.08 2.1,-1.73 -0.09,-0.42 -0.22,-0.88 -0.36,-1.34 -3.46,-1.52 -6.95,-3.12 -10.89,-5.92 -9.05,-6.45 -14.99,-14.94 -17.84,-24.61 -7.41,-4.73 -13.45,-10.61 -17.73,-17.99 -14.37,-8.85 -26.16,-20.66 -36.42,-34.03 -1.54,-2 -4.92,-7.08 -7.91,-7.05l-16.8 0.21 -9.01 -14.19c-4.14,-6.51 -8.22,-13.05 -12.41,-19.53 -1.34,-2.1 -3.07,-5.31 -4.64,-7.15 -12.66,-14.78 -16.12,-20.86 -19.58,-36.13 -12.89,-10.2 -23.94,-21.99 -35.02,-34.3 -10.24,-11.38 -20.66,-23.5 -32.64,-33.11 -11.12,-8.9 -15.49,-19.13 -21.69,-31.12 -0.04,-0.07 -0.08,-0.15 -0.12,-0.24 -7.6,5.28 -14.61,10.9 -17.96,16.38 -3.76,6.15 -8.13,11.42 -14.26,15.41 -17.85,11.62 -33.56,28.12 -49.66,42.02 -14.93,12.91 -31.14,23.83 -48.88,32.53 -11.45,5.61 -22.14,13.01 -30.98,22.23 -10.21,10.65 -22.31,19.59 -34.99,27.06 -18.04,10.61 -33.46,25.29 -48.08,40.12l-8.3 8.42 -11.82 0.52c-4.67,0.21 -13.04,3.05 -18.01,4.04 -9.6,1.91 -18.84,2.21 -27.86,0.38 -1.28,0.62 -2.56,1.25 -3.84,1.86 -2.26,6.44 -4.24,13.04 -6.57,19.37 -5.44,14.68 -12.32,27.72 -22.95,39.38l-6.53 7.16 -9.48 2.01c-7.86,1.66 -15.72,3.33 -23.57,4.99 -0.32,0.48 -0.64,0.96 -0.96,1.44l-2.3 3.47 -3.16 2.72c-17.91,15.41 -34.51,17.29 -54.85,18.64 -7.03,6.5 -12.93,12.43 -21.45,17.67 -0.47,2.81 -0.9,5.7 -1.72,8.58l-3.77 13.32 -12.56 5.82c-7.9,3.67 -19.6,8.15 -25.71,14.45 -6.89,7.09 -15.2,11.39 -24.4,14.65 -4.21,1.49 -8.99,2.71 -13.04,4.47 -0.99,0.42 -2,0.8 -3.01,1.18 -10.38,11.18 -21.18,14.17 -35.8,19.54l-9.64 3.55 -9.8 -3.09c-7.29,-2.3 -14.62,-4.35 -21.8,-7.03 -10.82,-4.05 -19.39,-7.56 -25.94,-18.07 -2.68,-1.85 -9.56,-4.36 -12.62,-5.81 -16.45,-7.84 -27.2,-23.35 -28.32,-41.6 -0.74,-11.98 -0.44,-24.05 0.86,-35.98 1.62,-14.79 9.39,-27.12 20.47,-36.77 8.31,-7.25 15.77,-15.52 24.08,-22.85 6.91,-6.09 15.04,-11.11 23.84,-13.89 7.35,-2.33 13.28,-6.77 18.85,-11.99 13.73,-12.82 28.9,-20.08 44.18,-30.29 30.04,-20.09 61.71,-37.34 93.33,-54.77 16.95,-9.35 28.7,-20.02 46.78,-27.07 12.3,-11.03 24.54,-22.12 36.89,-33.09 7.49,-6.65 11.71,-11.45 22.28,-14.31 12.12,-3.28 26.8,-15.94 36.95,-22.98 18.9,-13.14 40.44,-25.07 57.36,-40.7 6.16,-5.68 12.75,-9.91 19.53,-14.71 1.3,-0.92 2.55,-1.68 3.82,-2.36 7.81,-9.35 17.07,-16.36 27.42,-23.25 6.49,-4.33 14.81,-9.26 20.18,-14.97 6.9,-7.38 13.52,-10.66 21.4,-16.16 16.82,-11.74 34,-23.04 50.48,-35.26 -11.56,5.72 -20.32,10.61 -33.61,11.41 -23.35,13.87 -46.49,18.05 -71.09,28.7 -7.54,3.26 -16,10.68 -22.43,15.89 -7.63,6.2 -15.02,11.45 -24.13,15.37 -11.17,4.8 -21.98,10.5 -32.76,16.06 -23.92,12.35 -47.4,25.51 -71.72,37.1 -19.7,9.38 -36.22,18.39 -58.24,20.55 -0.54,0.28 -1.07,0.56 -1.6,0.82 -28.16,13.83 -56.39,27.52 -85.52,39.18 -2.02,1.3 -4.73,3.97 -6.52,5.48 -6.5,5.54 -12.69,11.45 -19,17.21l-6.59 6.02 -8.81 1.47c-4.42,0.73 -18.6,1.22 -25.93,2.65 -12.35,20.42 -34.42,28.72 -58.66,22.32 -1.61,-0.43 -3.52,-1.04 -5.4,-1.61 -8.68,5.46 -17.36,10.94 -26.03,16.41 -4.83,13.89 -9.66,27.79 -14.47,41.68l-3.16 9.09 -7.83 5.58c-17.96,12.79 -39.88,12.64 -56.71,-1.95 -4.34,-3.75 -10.03,-2.74 -15.26,-1.71 -8.63,1.7 -16.96,1.82 -25.69,1.99 -6.56,0.12 -13.08,-0.3 -19.37,-0.42 -13.32,9.61 -24.53,18.06 -39.58,22.64 -3.93,7.56 -7.85,15.12 -11.77,22.68l-6.47 12.47 -13.68 3.07c-8.31,2.01 -12.65,4.06 -21.99,3.67 -11.75,-0.5 -20.81,4.35 -29.48,11.94 -6.01,5.25 -11.51,7.34 -18.79,9.74l-5.31 2.23 -6.49 -0.18c-3.96,-0.11 -7.16,-0.54 -9.97,-1.23 -2.04,6.93 -4.86,13.36 -9.35,19.48 -3.39,4.61 -6.24,11.27 -9.2,16.34 -6.71,11.49 -14.85,20.79 -26.42,27.64l-6.53 3.88 -7.59 0.32c-13.48,0.57 -26.95,1.12 -40.43,1.68 -1.04,1.02 -2.07,2.05 -3.09,3.08 -17.29,17.51 -38.9,27.5 -63.78,26.56 -9.83,-0.36 -19.7,-0.05 -29.55,-0.05l-8.9 0 -7.47 -4.83c-11.21,-7.25 -22.37,-17.33 -33.97,-23.38 -32.17,-16.78 -40.78,-56.52 -22.72,-86.89 2.12,-3.56 5.52,-7.57 7.17,-10.7 8.23,-21.95 24.21,-36.99 44.49,-48.42 11.92,-6.72 29.18,-13.28 39.32,-22.2l5.41 -4.76 6.98 -1.8c16.46,-4.25 32.01,-10.71 45.95,-20.54l6.6 -4.66 8.05 -0.73c11.71,-1.07 29.86,-14.05 40.47,-19.41 37.6,-19.01 73.41,-39.68 113.83,-52.46 8,-2.53 16.33,-4.11 24.23,-6.71 4.13,-1.36 8.41,-3.69 12.3,-5.62 16.16,-8.07 29.03,-15.6 47.5,-18.09 0.75,-0.1 1.94,-0.3 2.59,-0.58 35.23,-18.19 74.32,-27.34 109.01,-45.54 23.66,-12.41 48.67,-20.81 73.13,-31.26 24.47,-10.45 48.71,-21.42 73.25,-31.68 11.03,-4.61 22.36,-8.08 33.68,-11.83 11.66,-3.86 25.93,-8.19 35.3,-16.51 8.95,-7.94 17.8,-11.49 28,-16.92 27.87,-14.83 53.95,-29.52 85.11,-36.63 17.38,-3.97 34.15,-9.29 51.85,-12.08 3.96,-0.62 8.74,-1.59 11.78,-4.43 9.86,-9.24 20.86,-14.39 33.5,-18.6 2.05,-0.68 7,-2.46 8.64,-3.9 9.71,-9.41 20.59,-16.1 32.49,-20.59 -16.7,2.57 -33.44,4.59 -50.48,5.14 -4.17,0.13 -8.91,1.06 -13.58,2.07 -10.53,10.56 -21.81,19.38 -36.79,23.81l-3.77 1.11 -3.93 0.11c-9.52,0.27 -19.03,0.45 -28.54,0.84 -12.18,0.5 -24.52,0.52 -36.64,1.82 -24.55,2.63 -48.95,3.26 -73.49,0.1 -10.48,-1.36 -21.58,-0.61 -32.35,-0.27 -7.36,4.25 -13.08,9.44 -18.23,16.81 -10.17,14.51 -21.83,23.57 -40.29,24.83l-10.94 0.74 -8.86 -6.45c-4.85,-3.54 -9.7,-7.07 -14.55,-10.61 -12.92,-2.98 -26.07,-4.91 -39.37,-4.41 -4.72,0.18 -7.76,0.91 -10.99,4.4 -7.19,7.77 -15.21,14.52 -22.51,22.11 -10.8,11.22 -24.01,16.64 -39.48,17.76l-7.35 0.53 -6.76 -2.93c-9.4,-4.07 -19.6,-6.68 -29.74,-8.01 -15.81,-2.06 -30.57,-0.22 -45.37,5.62 -14.5,5.73 -29.15,10.77 -44.45,12.69 -1.04,1.9 -2.06,3.83 -3.01,5.28 -6.82,10.6 -15.81,18.3 -27.91,22.41l-10.69 3.63 -10.45 -4.3c-8.87,-3.66 -17.3,-4.37 -26.2,-0.21 -9.45,4.42 -14.64,3.52 -23.66,4.05 -1.38,0.23 -3.34,0.41 -5.09,0.73 -16.05,9.61 -31.96,13.09 -49.29,17.4 -1.39,1.89 -2.79,3.79 -4.43,5.58 -8.22,9.05 -18.48,14.88 -30.71,16.48l-4.42 0.58 -4.39 -0.72c-4.49,-0.74 -8.98,-1.48 -13.48,-2.21l-19.63 22.74 -22.17 -19.43c-2.13,-0.15 -6.19,0.18 -10.41,0.58 -4.37,3.77 -8.72,7.54 -13.08,11.32l-10.8 9.35 -14.07 -2.44c-11.18,-1.94 -20.53,-7.62 -27.5,-16.51 -1.22,-1.56 -2.22,-3.13 -3.18,-4.68 -1.94,-0.57 -3.89,-1.19 -5.87,-1.95 -18.13,-6.88 -32.04,-20.97 -35.88,-40.35 -1.47,-7.46 -4.74,-12.79 -10.51,-17.7 -4.44,-3.79 -7.55,-8.01 -10.63,-12.86 -12.11,-19.13 -6.45,-46.28 13.16,-58.08 5.77,-3.48 11.39,-5.5 17.45,-8.14 3.55,-1.55 7.59,-2.56 11.07,-3.95 15.07,-14.25 32.03,-19.58 52.08,-23.92 6.82,-1.48 20.95,-3.77 26.4,-8.5l8.14 -7.06 10.78 -0.3c21.45,-0.6 45.14,2.75 66.67,0.3 4.17,-4.05 8.34,-8.08 12.52,-12.13l10.1 -9.78 13.97 1.44c1.74,0.18 3.49,0.36 5.22,0.54 0.22,-0.34 0.45,-0.68 0.68,-1.02 6.86,-9.89 16.38,-16.56 28.18,-19.25l2.74 -0.63 2.8 -0.11c12.94,-0.5 24.18,4.54 33.52,13.19 1.91,1.76 4.28,4.55 6.39,6.56 6.72,-5.51 14.12,-9.03 23.12,-9.12 6.76,-0.07 15.23,-2.99 21.64,-4.92 9.6,-2.9 18.67,-5.31 28.25,-6.22 3.36,-2.6 6.72,-5.18 10.09,-7.78l10.29 -7.93 12.85 2.04c1.72,0.27 3.44,0.55 5.16,0.82 9.06,-4.52 18.12,-9.06 27.17,-13.59l5.57 -2.79 6.21 -0.36c9.33,-0.53 18.67,-1.06 28.01,-1.58 2.49,-1.57 4.97,-3.12 7.51,-4.6 15.57,-9.1 33.05,-12.18 50.59,-7.28 8.59,2.4 16.18,2.77 24.06,-1.83 7.47,-4.36 12.04,-4.5 19.65,-6.51 8.56,-2.3 17.11,-4.59 25.67,-6.89l8.01 -2.15 7.98 2.25c6.88,1.94 14.63,5.14 21.63,6.16 10.66,1.55 20.77,-0.24 30.49,-4.83 12.69,-6 25.63,-11.44 38.5,-17.05 11.18,-4.87 19.26,-8.88 31.35,-9.21 7.76,-4.4 15.58,-7.39 23.44,-9.18 -8.53,-0.35 -17.05,-1.71 -25.46,-4 -24.68,-6.71 -50.2,-8.21 -75.68,-7.72 -1.36,0.03 -3.95,0.09 -4.89,0.33 -15.38,7.74 -31.16,9.44 -48.5,9.29 -1.31,-0.02 -3.4,-0.1 -5.07,0 -11.32,9.73 -25.17,12.75 -39.95,11.89 -16.62,-0.96 -28.9,0.04 -44.82,-6.74 -2.35,-0.32 -5.77,-0.23 -7.96,-0.32 -23.65,-1.07 -47.32,-2.43 -71,-2.63 -11.19,-0.1 -30.88,-2.49 -41.1,3.03 -9.64,5.2 -18.02,5.49 -28.4,5.84 -20,0.67 -43.09,0.13 -62.17,6.89 -7.61,2.69 -12.32,2.23 -19.81,2.24 -25.97,0.46 -51.95,1.29 -77.95,1.22 -37.89,-0.08 -75.78,-0.91 -113.66,-1.19 -9.29,-0.06 -18.61,0.19 -27.86,1.05 -15.72,1.48 -28.47,3.67 -44.09,0.57 -1.48,0.26 -6.06,2.91 -7.67,3.81l-9.59 5.34 -10.78 -2.07c-12.27,-2.35 -24.55,-4.62 -36.8,-7.09 -7.89,-1.59 -14.94,-2.65 -22.57,-5.69 -6.05,-2.42 -11.49,-2.69 -17.54,-0.2 -12.15,4.97 -24.78,7.3 -37.9,6.71 -32.86,-1.48 -64.1,1.15 -97.08,-5.08 -0.65,0.14 -1.92,1.07 -2.43,1.45 -2.37,1.82 -4.64,3.72 -6.97,5.57l-4.55 3.64 -5.58 1.68c-12.67,3.8 -25.48,3 -37.32,-3.01 -3.5,-1.77 -6.04,-3.63 -8.66,-5.57 -8.07,-0.52 -16.15,-1.03 -24.22,-1.54l-24.81 -1.57 -3.19 -24.65c-0.87,-6.72 -2.19,-12.73 -2.2,-19.63 -0.02,-13.84 -1.48,-27.63 -6.09,-40.75 -2.41,-6.84 -3.75,-13.85 -4.69,-21.03 -0.77,-5.81 -0.11,-10.7 1.28,-16.24l1.45 -8.68 6.94 -6.85c15.58,-15.39 31.18,-30.8 46.76,-46.2l2.91 -2.89 3.59 -1.99c12.07,-6.74 20.28,-3.38 32.18,-3.37 50.7,0.05 101.4,0.13 152.09,0 14.14,-0.03 26.85,1.96 39.43,8.87 0.61,0.33 1.82,0.75 2.49,0.78 26.01,-0.08 51.68,2.84 77.53,5.58 27.06,2.87 54.85,1.32 82.04,1.46 14.42,0.06 28.67,1.51 43.02,2.55 23.93,1.73 48.15,1.8 72.02,-0.6 13.28,-1.34 29.03,-1.57 41.66,-5.81 14.09,-4.74 23.45,-2.51 37.15,-2.8 11.24,-0.23 22.17,-1.6 32.99,-4.67 25.1,-7.15 50.71,-7.69 75.2,2.36 7.37,3.03 14.09,1.93 21.5,-0.58 27.08,-9.19 54.63,-16.79 82.01,-25.01 12.9,-3.87 25.64,-3.29 38.63,-0.3l10.26 2.36 6.55 8.23c2.59,3.25 5.17,6.49 7.76,9.74 7.57,2.04 15.15,4.08 22.75,5.99 0.58,0.15 1.19,0.33 1.8,0.48 25.69,-2.6 49.44,1.66 74.78,1.15 6.85,-0.13 27.54,0.19 33.07,-4.23l7.22 -5.77 9.21 -0.73c25.82,-2.05 53.1,-2.32 78.44,-7.71 22.77,-4.84 45.35,-2.28 67.98,1.88 4.88,0.9 10.03,1.7 15,1.72 28.64,0.14 57.26,-0.85 85.9,0.02 15.31,0.47 29.74,-2.24 43.64,-8.72 17.09,-7.95 34.47,-8.55 51.85,-0.99 7.74,3.38 17.45,5.43 25.61,7.96l10.26 3.18 5.94 8.95c11.8,17.75 25.11,32.7 35.3,51.9 9.27,17.46 19.85,34.24 30.42,50.93 1.82,2.88 6.32,6.81 8.84,9.15 17.42,16.2 34.14,32.41 47.87,51.99 0.69,0.98 1.82,2.61 2.8,3.6 19.46,10.34 31.99,26.49 42.43,45.5 1.21,2.21 2.98,6.01 5.65,6.75 7.12,1.98 10.11,4.72 15.82,8.3l6.84 4.28 3.8 7.13c8.63,16.24 14.02,33.49 19.3,51.02 3.2,10.61 6.41,21.76 10.77,32.14 26.41,14.32 48.21,33.55 65.1,58.98 1.14,1.73 2.36,3.93 3.59,5.77 15.73,9.46 24.3,22.68 31.06,38.68 23.41,21.01 44.57,43.48 60.22,71.14 0.98,1.72 2.18,3.38 3.52,4.83 22.87,24.92 43.9,51.37 65.75,77.17 8.77,10.36 18.36,19.41 26.44,30.3 2.26,2.45 8.96,6.5 12.01,8.85 11.69,8.97 23.63,17.59 35.17,26.77 3.91,3.12 13.66,13.8 16.65,15.22 8.66,3.64 12.23,8.13 17.97,14.69 23.72,26.19 46.2,53.79 71.52,78.51 7.54,7.36 16.52,13.59 24.96,19.89 11.86,8.82 21.62,18.5 29.02,31.46 4.36,7.63 11.53,15.14 17.23,21.86 15.82,18.63 31.44,37.48 48.09,55.38 12.26,13.18 25.73,25.27 39.04,37.38 14.9,13.54 28.18,22.96 39.08,40.58 1.74,1.6 5.18,3.71 6.92,4.87 21.13,14.22 38.81,29.73 49.47,53.17 18.43,5.09 34.2,12.45 45.44,27.44 7.89,5 14.66,11.23 21.11,18.29 5.2,5.68 10.16,12.15 15.72,17.41 8.39,7.93 16.91,15.87 26.25,22.69 14.36,10.5 26.44,22.96 39.26,35.17 6.98,6.64 13.32,13.84 19.58,21.16 4.49,5.23 8.68,10.77 12.88,16.26 0.37,0.21 0.74,0.42 1.1,0.64 -0.05,-0.87 -0.1,-1.74 -0.15,-2.6 -0.44,-8.06 -0.2,-16.12 0.31,-24.17 1.03,-16.5 2.21,-33 3.65,-49.49 0.73,-8.38 1.91,-16.73 3.94,-24.91 2.32,-9.3 1.34,-19.13 -0.27,-28.46 -5.64,-32.66 -6.19,-65.22 2.84,-97.37 3.14,-11.19 2.16,-24.49 1.41,-35.94 -1.48,-22.38 -2.74,-44.77 -3.98,-67.16 -0.5,-9 -2.36,-17.07 -6.39,-25.16 -9.22,-18.47 -15.99,-37.77 -23.62,-56.89 -0.47,-1.17 -1.13,-3 -1.8,-4.33 -26.73,-18.97 -42.05,-43.42 -61.25,-69.27 -2.73,-3.67 -5.92,-7.09 -9.4,-10.07 -13.03,-11.16 -26.6,-21.67 -39.67,-32.79 -5.83,-4.98 -9.82,-10.3 -14.86,-15.83 -24.59,-26.98 -49.23,-55.18 -78.43,-77.33 -7.67,-5.83 -13.57,-12.82 -19.47,-20.33 -8.4,-10.7 -16.68,-21.5 -24.25,-32.81 -3.42,-5.1 -6.18,-10.39 -8.9,-15.73 -1.9,-0.69 -3.8,-1.38 -5.69,-2.07l-10.83 -3.95 -5.44 -10.16c-4.53,-8.48 -9.27,-16.82 -13.51,-25.46 -3,-6.09 -4.98,-12.26 -7.51,-18.49 -10.18,-25.14 -2.47,-46.62 20.42,-59.22 1.54,-6.05 2.57,-12.27 1.8,-17.62 -3.02,-21.2 4.44,-39.95 17.61,-56.23 10.83,-13.38 23.14,-24.87 36.92,-35.15 11.18,-8.35 21.15,-20.72 30.76,-30.89 8.56,-9.07 16.53,-18.71 24.76,-28.09 2.56,-2.92 7.09,-7.06 9.1,-10.17 8.8,-13.57 20.67,-23.77 35.83,-29.61 4.04,-1.56 5.25,-3.53 6.42,-7.7 2.48,-8.81 6.73,-16.25 11.61,-23.86 10.6,-16.56 21.5,-32.91 32.19,-49.38 -0.23,-1.6 -0.47,-3.2 -0.7,-4.8l-2.24 -15.52c3.81,-3.59 7.61,-7.16 11.43,-10.75 5.48,-5.15 10.96,-8.22 16.59,-9.68 1.76,-11.32 3.52,-22.62 5.28,-33.94 0.39,-2.53 0.78,-5.04 1.17,-7.57 1.55,-2.03 3.11,-4.06 4.65,-6.08 0.89,-1.17 2.16,-2.4 3.12,-3.58 0.59,-2.43 0.92,-5.33 1.49,-7.74 1.56,-6.6 3.11,-13.2 4.66,-19.8 6.7,-1.02 13.41,-2.05 20.11,-3.08 6.94,-1.07 13.56,-0.45 19.44,1.6 1.1,-2.82 4.85,-5.17 5.92,-8.03 37.88,-15.35 109.93,-61.16 113.83,-34.03 4.72,-0.02 112.82,31.07 117.56,33.52 1.47,7.46 2.13,15 1.71,22.95 -0.26,4.81 0.38,10.19 1.08,15.46 13.31,16.82 22.54,35.13 30.18,55.1 3.42,2.08 6.83,4.15 10.26,6.21 1.89,1.15 3.79,2.3 5.67,3.44l3.71 5.5c7.49,11.13 15,22.24 22.48,33.37 0.46,0.69 0.88,1.37 1.27,2.05 15.55,15.31 27.66,32.7 42.32,48.35 3.32,2.68 12.65,6.69 17.07,9.33l7.09 4.24 3.95 7.25c0.73,1.34 1.94,3.88 3,5.44 8.57,3.62 14.5,9.48 20.39,16.55 18.98,22.82 37.19,46.34 56.89,68.54 3.91,4.4 9.05,8.34 13.59,12.07 7.71,6.32 14.94,12.66 21.21,20.49 7.72,9.66 16.27,18.69 24.44,27.97 3.93,4.46 6.97,9.17 10.18,14.12 0.71,1.09 1.93,3.09 2.94,4.26 9.2,3.85 14.06,10.11 18.9,18.38 4.8,8.22 9.42,16.54 14.1,24.82l3.76 6.62 0.16 7.61c0.48,23.42 -9.59,42.36 -26.05,58.36 -20.53,19.95 -38.31,41.72 -60.85,59.73 -11.47,9.17 -21.5,20.47 -31.41,31.26 -12.3,13.39 -24.54,26.24 -39.21,37.1 -2.5,2.72 -5.33,7.55 -7.73,10.58 -13.09,16.48 -24.09,31.09 -41.38,41.61 -6.46,11.28 -15.51,20.35 -26.5,28.13 -9.96,7.05 -19.34,14.98 -28.62,22.89 -1.45,2.13 -2.73,4.39 -4.32,6.52 -6.22,8.4 -8.26,13.87 -18.42,19.79 -6.42,3.74 -14.37,15.15 -19.14,20.77 -11.23,13.21 -23.59,25.28 -34.97,38.31 -1.15,1.32 -3.02,3.31 -4.19,4.96 -2.64,12.22 -8.26,20.85 -15.97,29.08 -3.45,25.95 -5.57,52.09 -5.25,78.28 0.62,51.07 0.63,102.16 -0.44,153.23 -0.48,22.91 0.49,45.86 0.36,68.78 -0.03,6.84 1.23,14.19 1.65,21.1 0.91,14.82 1.93,29.65 2.42,44.49 0.23,6.82 0.35,13.64 0.45,20.46 0.57,-0.59 1.13,-1.19 1.69,-1.79 16.29,-17.79 31.6,-35.7 50.62,-50.77 4.33,-3.43 8.34,-8.29 11.9,-12.49 9.6,-11.32 19.47,-20.86 32.96,-27.51 0.92,-0.45 2.2,-1.58 2.93,-2.28 20.4,-19.36 40.85,-38.67 60.84,-58.46 8.74,-8.64 13.76,-18.26 24.13,-26.85 17.34,-14.37 30.5,-39.78 44.89,-57.73 4.68,-5.84 8.85,-11.85 13.89,-17.44 14.96,-16.6 30.15,-32.99 45.24,-49.48 9.14,-19.09 22.03,-29.38 35.86,-45.43 7.56,-8.77 15.73,-17.01 23.78,-25.33 0.21,-0.89 0.42,-1.77 0.64,-2.66l2 -8.35 6.11 -6.05c7.97,-7.89 15.55,-16.11 24,-23.52 18.34,-16.09 32.19,-32.43 53.88,-44.84 3.53,-2.63 10.95,-12.59 14.65,-16.47l5.52 -5.78 7.66 -2.28c8.57,-2.56 17.15,-10.97 22.84,-17.53 8.91,-10.25 22.63,-21.32 29.65,-32.56 3.14,-5.04 7.37,-9.5 12.32,-12.82 19.05,-12.8 34.83,-37.99 50.38,-55.05 3.8,-4.17 7.95,-7.78 12.24,-11.41 2.08,-1.76 4.1,-3.06 6.17,-4.47 9.09,-13.22 20.33,-23.02 32.41,-33.7 7.24,-6.4 16.08,-14.15 20.51,-22.93 3.44,-6.84 7.89,-11.35 13.38,-16.36 34.66,-31.72 67.37,-65.54 101.92,-97.4 9.39,-8.66 17.86,-18.57 26.66,-27.85 2.72,-2.87 8.8,-16.4 11.15,-20.54l2.9 -5.08 4.59 -3.64c12.76,-10.09 25.65,-19.52 39.96,-26.93 8.43,-23.48 13.48,-47.15 25.36,-70.21l4.1 -7.94 7.76 -4.43c5.5,-3.15 11.01,-6.28 16.51,-9.43 5.01,-6.85 10.1,-13.66 14.79,-20.73 7.26,-10.93 16.24,-19.87 26.75,-27.66 4.82,-3.58 9.94,-10.05 14.12,-14.49 13.68,-14.56 26.95,-29.5 40.99,-43.74 2.34,-2.37 9.05,-8.11 10.41,-10.55 8.92,-20.24 21.86,-36.55 32.53,-55.51 8.31,-14.76 17.9,-28.85 28.34,-42.17 9.2,-11.75 21.15,-17.59 35.3,-20.89 3.04,-0.7 11.28,-1.96 13.7,-3.19 15.18,-10.23 29.29,-6.65 44.87,-0.6 10.11,3.94 20.49,7.19 30.9,10.25 1.58,0.14 3.63,0.04 5.13,0.05 34.35,0.16 68.7,0.25 103.06,0.29 0.69,0 1.41,0.02 2.13,0.03 20.68,-7.29 35.36,-4.12 56.49,-5.92 8.07,-0.69 15.76,-0.33 23.45,2.58 7.68,2.9 16.59,3.54 24.72,3.87 12.65,0.53 25.04,0.43 37.63,2.25 12.84,1.85 20.77,1.68 32.35,9.58 2.3,1.58 7.83,1.69 10.37,1.71 18.61,0.17 37.57,0.95 56.12,-0.84 12.83,-1.24 24.38,-1.94 36.32,-0.1 8.06,-4.05 16.71,-6.51 25.62,-7.26 1.48,-2.13 2.95,-4.25 4.43,-6.37l6.1 -8.77 10.24 -2.98c6.26,-1.95 9.94,-3.52 17.02,-3.37 8.93,0.18 16.75,0.21 25.54,2.75 15.8,4.57 31.23,10.21 46.95,15.01 15.23,4.64 30.66,7.7 45.72,13.12 1.77,0.49 6.23,-1.12 7.82,-1.83 26.29,-11.68 52.36,-9.82 79.61,-3.3 3.87,0.92 9.28,3.09 13,3.69 28.29,-0.5 55.95,3.43 83.8,7.76 17.83,2.77 35.8,4.15 53.84,3.81 11.83,-0.22 27.14,0.82 38.59,-2.39 6.39,-1.79 12.22,-1.96 18.73,-1.88 44.77,0.52 89.94,0.93 134.41,-5.08 12.53,-1.69 24.75,-1.35 37.32,-1.43 1.33,-0.01 6.75,0.03 8.04,-0.83 9.91,-6.58 21.84,-8.94 33.56,-9.01 54.24,-0.36 108.47,-0.36 162.71,-0.36 5.77,0 11.28,0.65 17,1.05l12.04 0.85 8.13 8.92c7.93,8.7 16.11,17.16 23.68,26.17 2.06,2.34 6.93,5.64 9.49,7.84 9.05,7.79 15.64,16.75 19.14,28.32l2.65 8.77 -2.69 8.77c-6.65,21.69 -14.7,44.94 -12.01,67.94l3.25 27.65 -27.31 5.42c-6.48,1.29 -12.66,2.94 -19.28,3.57 -3.62,0.34 -7.09,0.36 -10.6,0.32 -3.26,2.16 -6.21,4.37 -10.4,6.29 -12.74,5.84 -26.29,5.83 -39.31,0.82l-4.55 -1.76 -3.77 -3.11c-1.89,-1.56 -3.71,-3.12 -5.67,-4.59 -1.26,-0.94 -2.22,-0.99 -3.81,-0.87 -19.77,1.51 -39.56,2.81 -59.34,4.15 -3.47,0.23 -8.83,-0.1 -12.01,0.47 -21.51,3.97 -42.28,1.63 -62.45,-6.81 -5.63,-2.36 -10.58,-2.52 -16.2,-0.02 -8.38,3.73 -15.04,4.23 -23.61,5.97 -11.85,2.42 -23.71,4.72 -35.58,7.09l-12.22 2.43 -10.37 -6.91c-2.57,-1.71 -5.25,-2.74 -8.31,-1.82 -8.08,2.42 -16.19,2.18 -24.37,0.65 -24.81,-4.62 -51.57,-2.69 -76.73,-2.63 -38.77,0.1 -77.52,-0.2 -116.29,-0.37 -11.82,-0.05 -23.64,-0.41 -35.45,-0.2 -11.65,0.22 -22.89,-1.26 -34.29,-3.52 -16.34,-3.23 -33.39,-4.03 -49.98,-5.21 -15.28,-1.09 -27.08,-1.56 -41.38,-8.78 -3.51,-1.78 -25.28,0.17 -30.32,0.04 -18.2,-0.46 -36.59,1.48 -54.79,2.14 -11.48,0.42 -27.92,-0.64 -38.74,3.42 -14.96,5.6 -26.05,3.51 -40.98,3.65 -10.9,0.1 -21.57,-2.44 -29.99,-9.82 -3.06,-2.68 -15.74,-2.1 -19.37,-2.13 -9.57,-0.09 -18.56,-1.02 -27.41,-5.09 -15.9,-7.3 -35.15,-5.08 -51.92,-2.85 -13.25,1.78 -27.78,2.61 -40.53,6.57 -6.55,2.03 -13.29,3.28 -20.06,3.79 7.08,1.53 13.74,4.37 19.93,8.93 26.48,3.47 45.26,15.46 69.79,26.41 7.74,3.46 15.88,5.63 24.41,5.41 2.61,-0.06 12.2,-0.29 14.42,-1.69l12.05 -10.06 15.19 4.15c9.58,2.62 19.18,5.14 28.73,7.88 8.17,2.33 15.07,3.75 22.8,7.87 4.13,2.21 7.89,3.01 12.42,1.7 22.6,-6.55 44.21,-3.27 63.79,9.38 1.37,0.63 4.92,1.1 6.57,1.29 6.45,0.73 13.44,0.04 19.95,0.04l7.22 0 6.44 3.28c9.79,4.97 19.58,9.96 29.37,14.94 1.61,-0.28 3.22,-0.55 4.82,-0.83l13.37 -2.31 10.59 8.49c2.88,2.3 5.74,4.6 8.62,6.91 7.49,0.74 14.76,2.4 22.22,4.5 6.38,1.79 13.25,4.18 19.8,5.13 11.72,1.72 21.8,4.43 31.78,11.22 0.03,0 0.07,0.01 0.12,0.02 2.22,-2.1 4.66,-4.96 6.72,-6.81 9.54,-8.61 20.91,-13.49 33.97,-13l2.27 0.08 2.23 0.42c11.29,2.15 20.48,8.26 27.24,17.41 0.67,0.9 1.27,1.82 1.85,2.74l23.93 0 9.02 10.41c2.9,3.35 5.78,6.68 8.68,10.03 20.54,2.45 44.88,-1.17 64.88,-0.92l11.69 0.14 8.54 7.99c4.39,4.1 20.22,6.54 25.94,7.85 21.12,4.82 39.05,10.17 54.69,25.68 0.99,0.21 2.1,0.35 2.9,0.46 23.64,3.37 38.98,19.51 44.46,42.32l4.09 16.99 -12.73 11.99c-4.8,4.53 -9.61,9.07 -14.41,13.6 -0.59,0.55 -2.45,2.37 -2.79,3.42 -3.13,27.9 -20.44,45.7 -45.15,52.77 -2.98,3.53 -5.96,7.06 -8.94,10.59l-11.26 13.32 -16.86 -3.07c-10.71,-1.17 -19.38,-4.24 -26.02,-14.31 -2.5,-3.79 -8.34,-4.45 -13.95,-4.31 -0.25,0.19 -0.49,0.39 -0.74,0.58l-8.63 6.71 -10.94 -0.38c-10.3,-0.36 -17.68,-3.84 -23.61,-9.6 -7.76,2.04 -15.37,2.83 -23.4,1.51l-2.26 -0.37 -2.17 -0.71c-12.59,-4.09 -20.63,-11.06 -28.52,-19.86 -16.4,-4.57 -31.78,-8.61 -47.04,-16.92 -8.98,-1.05 -17.49,-3.24 -26.45,-5.52 -5.69,-1.46 -12.92,-3.4 -18.87,-3.13 -5.4,0.25 -14.06,3.28 -19.62,4.5l-9.74 2.13 -9.08 -4.09c-11.21,-5.03 -19.28,-13.29 -25.26,-23.85 -0.56,-1 -1.12,-2.1 -1.67,-3.24 -16.51,-2.43 -31.66,-7.99 -47.72,-14.2 -11.38,-4.41 -23.43,-6.49 -35.61,-4.89 -14.65,1.93 -28.95,5.78 -42.79,10.9l-12.25 4.52 -11.67 -5.83c-13.53,-6.76 -24.07,-16.02 -34.65,-26.58 -4.94,-4.92 -10.08,-10.42 -15.56,-15.1 -20.75,-1.67 -41.48,-1.54 -57.98,13.52l-17.83 16.27 -19.78 -13.84c-5.89,-4.13 -11.02,-6.87 -16.34,-12.16 -7.46,-7.41 -14.14,-15.47 -21.46,-22.99 -1.41,-1.44 -2.5,-1.84 -4.51,-1.89 -15.83,-0.4 -33.84,-1.91 -49.43,1.45 -8.72,1.88 -17.24,1.79 -26.06,1.21 -26.54,-1.74 -53.32,-5.37 -79.91,-5.11 -21.64,0.22 -40.02,-5.98 -55.79,-21.02 -1.5,-1.43 -2.94,-2.91 -4.35,-4.42 -5.97,-1.19 -12.03,-2.33 -17.73,-2.5 -14.82,-0.43 -29.43,-2.05 -43.98,-4.23 12.05,4.32 22.73,10.72 31.73,20.94 0.04,0.04 0.08,0.08 0.12,0.13 16.86,4.85 32.36,13.15 45.78,24.3 28.53,3.94 55.76,11.67 83.07,21.18 31.91,11.1 61.89,27.29 89.42,46.83 7.88,5.6 16.17,9.55 25.45,12.26 20.87,6.07 39.52,10.7 57.55,23.44 15.28,3.95 28.61,10.65 42.58,17.96 14.37,7.51 29.81,13.2 45.24,18.11 22.41,7.13 42.17,18.35 63.71,27.12 13.5,5.5 26.99,11.05 40.49,16.57 13.48,5.52 26.96,11.05 40.45,16.57 1.82,0.75 3.57,1.68 5.35,2.45 21.25,4.47 41.11,12.62 59.55,24.04 21.47,2.42 37.32,11 57.03,18.78 10.79,4.26 21.47,8.8 32.06,13.51 6.19,2.77 12.04,6.05 17.99,9.29 2.26,1.23 4.14,2.57 5.98,4.11 13.28,6.76 26.74,13.05 39.7,20.46 7.58,4.35 19.24,12.15 28.17,13.11 9.33,1.01 17.16,4.83 24.88,9.85 6,3.91 16.7,11.91 24.27,12.19 12.63,0.46 24.92,6.97 33.71,15.83 4.7,4.72 13.16,8.17 19.13,10.77 28.43,12.38 50.29,30.92 61.17,60.71 1,2.51 3.44,6.05 4.79,8.56 4.63,8.58 7.4,17.3 7.5,27.15 0.27,25.18 -10.44,48.08 -34.69,58.07 -8.87,3.66 -18.39,12.83 -26.03,18.73l-7.23 5.59 -9.12 0.63c-18.25,1.25 -38.27,4.32 -56.22,0.11 -18.26,-4.29 -32.9,-15.42 -46.31,-27.91 -4.16,-0.24 -8.31,-0.46 -12.47,-0.57 -7.72,-0.2 -15.43,-0.03 -23.15,-0.03l-7.14 0 -6.39 -3.22c-13.11,-6.58 -22.56,-16.25 -30.03,-28.74 -3.62,-6.06 -6.53,-13.28 -10.34,-18.98 -3.88,-5.8 -6.37,-11.55 -8.43,-17.61l-3.27 1.38 -6.64 -0.24c-10.84,-0.37 -20.44,-4.16 -28.98,-10.71 -2.88,-2.21 -5.45,-4.96 -8.17,-7.1 -4.69,-2.1 -9.6,-3.93 -14.49,-5.73 -15.66,2.39 -29.95,0.69 -43.73,-10.62l-4.66 -3.83 -2.84 -5.33c-4.18,-7.85 -8.34,-15.7 -12.53,-23.54 -3.88,-1.1 -7.75,-2.19 -11.63,-3.29l-5.91 -1.67 -4.78 -3.86c-4.83,-3.89 -9.68,-7.75 -14.48,-11.66 -1.33,-1.09 -2.13,-1.39 -3.85,-1.33 -17.99,0.56 -33.92,1.3 -51.74,-3.24 -1.35,-0.35 -2.59,0.06 -3.52,1.07 -15.66,16.92 -39.24,18.57 -58.01,5.72l-7.99 -5.48 -3.31 -9.11c-5.19,-14.31 -10.4,-28.63 -15.59,-42.94 -8.7,-5.43 -17.4,-10.88 -26.11,-16.32 -0.84,0.25 -1.66,0.49 -2.39,0.7 -28.16,7.7 -43.77,1.12 -60.36,-20.89 -7.28,-1.57 -20.91,-2.1 -25.46,-2.76l-7.99 -1.16 -6.34 -5c-7.06,-5.56 -12.03,-7.93 -18.17,-15.48 -5.78,-7.11 -16.65,-11.7 -24.76,-15.3 -23.54,-10.45 -46.82,-21.47 -70.23,-32.21 -1.1,-0.5 -2.18,-1.08 -3.27,-1.63 -30.48,-4.22 -55.15,-17.86 -81.7,-32.47 -24.37,-13.43 -49.47,-25.49 -74.46,-37.7 -11.41,-5.57 -21.38,-9.86 -30.47,-19.43 -12.18,-12.82 -33.04,-19.1 -49.11,-25.2 -10.87,-4.14 -21.33,-6.79 -31.86,-12.23 -6.58,-3.41 -14.05,-7.35 -21.49,-8.44 -3.08,-0.46 -5.83,-1.09 -8.38,-1.85 5.65,4.46 11.33,8.88 17.01,13.3 5.32,4.12 11.42,7.62 17.07,11.3 10.59,6.9 20.3,11.2 29.86,20.22 18.64,17.59 39.7,32.46 58.41,50.11 9.91,9.35 21.65,16.97 32.84,24.67 10.79,7.42 21.65,15.46 33.33,21.41 16.51,8.39 32.42,18.05 47.58,28.7 14.74,10.36 29.03,21.16 40.7,35.04 3.9,4.63 10.67,8 15.86,10.87 24.34,13.47 48.17,27.84 72.03,42.12 16.71,10.01 32.97,22.26 50.43,30.76 22.53,10.95 40.87,25.94 59.77,41.73 5.14,1.62 10.29,3.23 15.43,4.85l6.7 2.11 5.07 4.86c9.99,9.56 19.79,19.36 30.04,28.64 13.39,12.15 21.4,27.66 20.58,46.06 -0.73,16.41 1.83,27.3 -3.75,44.27l-2.61 7.93 -6.32 5.46c-6.38,5.51 -13.32,9.21 -20.86,12.86 -1.65,0.8 -4.96,2.26 -6.9,3.51l-4.5 11.1 -13.01 4.44c-10.02,3.42 -20.03,6.83 -30.05,10.25l-11.32 3.86 -10.88 -4.95c-11.42,-5.05 -18.26,-5.29 -28.35,-15.62 -3.82,-3.9 -16.94,-8.3 -21.92,-10.5 -12.77,-5.65 -22.83,-10.08 -32.87,-20.34 -3.97,-2.54 -11.85,-5.31 -16.28,-7.63l-14.86 -7.78 -1.22 -16.74c-0.23,-3.2 -1.91,-3.77 -4.91,-5.11 -9.9,-4.44 -14.28,-9.67 -19.39,-15.84 -7.42,-0.62 -15.09,-0.72 -22.77,-2.36 -15.88,-3.39 -28.61,-11.16 -37.67,-23.13 -2.6,-0.5 -5.19,-1.05 -7.79,-1.7 -6.96,-1.75 -13.55,-4.3 -20.35,-6.52l-7.45 -2.46 -5.31 -5.77c-13.62,-14.81 -21.07,-31.95 -26.78,-50.3 -7.41,-0.55 -14.87,-0.86 -22.32,-1.33l-9.53 -0.6 -7.43 -5.98c-3.57,-2.86 -10.97,-9.3 -15.88,-9.8 -15.29,-1.52 -28.57,-10.21 -36.49,-22.93 -6.14,-2.93 -10.35,-6.79 -15.7,-11.56 -4.49,-3.99 -8.58,-8.36 -13.03,-12.36 -5.76,-5.17 -11.82,-10.01 -17.55,-15.23 -5.23,-4.78 -10.79,-11.42 -16.33,-15.5 -9.79,-7.22 -17.32,-12.82 -23.24,-23.09 -0.21,-0.14 -0.42,-0.27 -0.62,-0.4 -13.59,-8.89 -27.23,-17.86 -41.52,-25.61 -16.32,-8.84 -29.14,-21.59 -43.05,-33.42 -8.39,-2.3 -16.78,-4.6 -25.16,-6.9l-12.57 -3.46 -3.01 -5.68c-4.1,5.39 -8.77,9.55 -17.09,12.98 -3.58,2.5 -8.73,8.35 -12.29,11.35l-9.66 8.12 -12.56 -1.17c-10.91,-1.03 -20.65,-4.81 -28.42,-11.33l-3.31 3.28c-7.05,6.98 -14.33,13.78 -21.16,20.99 -18.93,20.02 -36.11,41.2 -56.83,59.53 -9.71,8.6 -17.43,18.8 -24.71,29.46 -9.3,13.59 -20.89,24.97 -34.16,34.66 -4.98,3.65 -9.4,7.74 -13.27,12.34 1.62,4.3 3.24,8.58 4.85,12.87l8.96 23.74 -21.87 12.88c-1.25,0.74 -2.49,1.47 -3.74,2.2 0.83,2.76 1.57,5.46 2.16,8.17 11.32,11.74 23.1,23.28 36.26,32.84 7.68,5.59 14.77,12.26 20.71,19.69 12.43,15.54 24.22,31.55 36.4,47.29 1.96,2.55 5.61,8.2 7.82,10.13 14.84,11.38 25.97,24.8 38.36,38.62 7.9,8.82 16.17,17.53 25.57,24.76 10.68,8.21 17.15,17.57 26.26,26.84 10.14,10.31 20.58,20.35 30.88,30.5l9.2 9.07 -0.2 11.32c1.45,2.99 5.41,8.2 8.82,12.76 14.22,8.66 28.45,17.32 42.67,25.97l12.17 7.4 2.01 14.08c0.98,6.82 3.77,14.42 5.35,21.27 3.2,13.81 3.74,27.11 -0.4,40.84l-1.73 5.75 -3.81 4.64c-10.84,13.26 -21.74,21.85 -39.49,23.94l-11.42 1.36 -9.42 -6.6c-2.25,-1.57 -4.49,-3.15 -6.73,-4.72 -29.42,5.15 -54.24,-6.24 -77.3,-24.46 -7,-5.53 -14.96,-13.64 -22.55,-17.97 -7.49,-4.27 -14.16,-10.29 -18.57,-17.75 -2.02,-3.41 -6.08,-6.81 -9.08,-9.33 -7.13,-5.98 -14.06,-11.39 -20.27,-18.45 -12.7,-14.46 -30.77,-25.17 -46.53,-36.01 -4.58,-3.16 -8.86,-6.62 -13.32,-9.94 -15.82,-11.78 -29,-24.6 -36.74,-42.1 -9.62,-7.02 -18.04,-15.15 -25.52,-24.77 -9.89,-12.72 -21.76,-23.76 -35.56,-32.11 -16.28,-9.84 -30.07,-21.78 -37.83,-38.34 -3.99,-1.73 -8.21,-3.28 -11.7,-4.81 -6.71,-2.98 -12.85,-6.36 -18.36,-10.53 -5,3.97 -10,7.94 -15.01,11.89 -17.64,13.9 -35.67,28.81 -48.48,47.49 -6,8.74 -12.48,13.34 -19.51,20.52 -19.24,19.65 -35.64,42.22 -53.55,63.09 -14.88,17.35 -26.49,34.85 -44.49,49.7 -1.22,1.01 -2.99,3.57 -3.92,4.85 -3.5,4.84 -6.78,9.57 -10.84,14 -12.85,14 -26.19,27.52 -39.31,41.26 -1.24,1.31 -2.6,2.51 -3.89,3.74 -5.71,12.58 -13.33,23.54 -21.51,34.7 -6.05,8.24 -12.85,16.97 -17.28,26.23l-3.78 7.86 -7.39 4.63c-11.83,7.42 -21.64,18.84 -30.6,29.38 -12.97,15.27 -25.2,29.93 -41.22,42.26l-5.91 4.55 -7.36 1.26c-2.13,0.37 -4.25,0.73 -6.37,1.1 -5.53,7.15 -8.91,12.53 -19.32,17.34 -2.37,1.1 -6.06,6.99 -7.24,8.75 -3.99,6.96 -5.71,11.53 -12.55,17.32 -2.87,2.44 -4.21,8.38 -5,11.86l-1.5 6.57 -4.16 5.31c-8.99,11.47 -17.51,23.42 -27.16,34.34 -11.04,12.47 -17.74,23.93 -31.69,34.51 -0.08,0.07 -0.2,0.16 -0.31,0.26 -0.02,1.32 0.92,3.69 1.38,4.65 12.51,26.36 26.24,40.95 51.2,56.07l7.81 4.72 3.87 8.26c4.18,8.9 8.35,17.8 12.53,26.7 1.75,1.27 3.5,2.54 5.25,3.8 17.25,12.36 31.96,26.95 43.4,44.92 10.68,16.79 24.66,31.48 38.77,45.4 19.74,19.5 41.78,36.69 62.81,54.76 18.95,-18.26 38.24,-36.18 57.29,-54.34 6.05,-5.77 11.79,-11.9 17.72,-17.81 11.87,-11.81 21.28,-22.13 36.49,-29.77 0.31,-0.32 0.62,-0.69 0.88,-0.99 13.57,-16.34 26.32,-29.42 46.81,-34.02 13.29,-8.39 26.61,-16.7 39.72,-25.36 1.65,-2.2 3.12,-4.35 5.1,-6.53 5.96,-6.5 10.23,-12.1 17.78,-17.27 4.38,-2.99 10.64,-7.26 13.11,-12.21 4.71,-9.42 12.99,-17.52 22.36,-22.3 5.62,-2.87 10.74,-9.36 14.61,-14.11 16.16,-19.89 39.21,-29.17 64.54,-29.85l15.15 -0.41 9.36 11.92c2.89,3.69 7.21,10.71 10.5,13.66 2.83,2.15 9.37,4.88 12.85,6.86l22.49 12.79 -6.58 17.23c5.54,3.68 11.08,7.34 16.62,11.02l17.6 11.66 -4.93 20.53c-4.81,19.97 -16.49,30.11 -32.91,40.26l-0.17 0.11 0.99 5.95 -6.59 9.91c-9.04,13.58 -20.79,23.03 -35.06,30.61 -8.48,4.5 -17.17,8.58 -25.87,12.65 -7.45,17.26 -18.94,31.63 -35.4,42.04 -2.35,3.47 -4.48,7.93 -6.98,11.47l-6.12 8.63 -10.19 2.91c-5.47,1.56 -10.94,3.12 -16.41,4.68 -1.7,2.92 -3.39,5.83 -5.08,8.75l-5.75 9.93 -10.91 3.59c-2.05,0.68 -3.67,4.89 -4.25,6.61 -6.94,20.48 -22.92,34.55 -43.34,40.78 -0.55,0.22 -1.19,0.53 -1.87,0.92 -0.56,1.84 -1.12,3.69 -1.67,5.53l-3.37 11.18 -1.22 0.73 0.94 2.83 -9.53 12.62c-3.44,4.55 -6.78,9.16 -10.31,13.63 -0.02,0.03 -0.04,0.05 -0.06,0.08 0.03,0.12 0.07,0.24 0.11,0.34 2.92,8.07 6.53,17.4 12.35,23.87 12.75,14.15 24.97,28.76 37.5,43.11 0.4,0.45 0.79,0.93 1.17,1.4 8.93,4.75 15.65,11.29 22.4,19.13 1.47,1.71 5.72,7.08 7.58,8.19l7.1 3.73 4.32 6.78c15.87,24.95 34.66,44.57 47.39,72.12 5.59,12.13 11.82,24.77 20.55,34.98 6.51,7.61 7.75,13.29 12.02,21.3 1.28,2.41 2.58,4.79 3.89,7.18 9.91,2.72 19.82,5.43 29.67,8.35 14.64,4.35 27.16,11.57 39.83,19.92 25.36,16.73 36.99,41.22 39.08,70.88 0.02,0.28 0.04,0.57 0.06,0.85 1.35,0.73 2.76,1.6 4.29,2.69 13.21,9.42 18.46,24.31 16.59,40.14l-3.54 29.87 -29.87 -3.46c-1.02,-0.12 -2.04,-0.24 -3.06,-0.36 -0.46,0.52 -0.93,1.04 -1.39,1.56l-10.85 12.13 -15.99 -2.4c-5.65,9.25 -14.34,15.68 -25.01,18.74l-16.83 4.8 -12.52 -12.23c-2.06,-2.02 -4.13,-4.04 -6.18,-6.04 -3.04,-0.87 -6.07,-1.73 -9.12,-2.59 -3.75,1.63 -7.49,3.26 -11.25,4.88l-11.11 4.82 -11.36 -4.21c-7.11,-2.57 -11.28,-3.09 -17.92,-8.17 -18.73,-14.32 -35.28,-31.03 -50.59,-48.91 -9.08,-10.62 -18.32,-21.1 -27.08,-31.99 -5.61,-6.97 -12.32,-12.04 -20.23,-16.15 -10.41,-5.4 -17.97,-14.33 -23.91,-24.22 -3.18,-5.29 -5.86,-10.74 -8.47,-16.23 -9.84,-4.01 -18.73,-9.81 -27.12,-17.01 -13.75,-11.82 -27.68,-23.48 -42.2,-34.35 -15.79,-11.81 -30.13,-25.04 -40.03,-42.31 -3.08,-5.36 -13.78,-13.33 -20.09,-19.04 -17.51,4.84 -33.69,3.76 -51.86,2.65 -5.65,4.48 -10.72,9.75 -15.58,15.03 -14.3,15.56 -24.79,31.18 -41.75,44.61 -3.03,2.39 -7.56,8.74 -10.41,11.84 -3.82,4.15 -7.59,8.3 -11.65,12.23 -10.62,10.28 -22.01,20.03 -32,30.9 -8.66,9.4 -16.1,20.28 -23.92,30.22 -3.04,4.13 -5.77,7.34 -10.29,10.38 -9.47,6.38 -19.66,25.39 -26.76,34.7 -4.3,5.62 -2.87,10.67 -0.4,16.96 3.72,9.51 7.2,18.7 9.42,28.72 2.25,10.23 7.58,19.34 13.7,27.71 15.38,21.07 33.48,39.57 53.3,56.47 17.26,14.73 31.71,31.93 48.43,47.07 8.52,7.72 20.24,13.88 29.55,21.2 15.57,12.22 31.21,24.31 45.63,37.91 17.31,16.32 33.4,33.8 49.72,51.09 7.75,8.19 16.54,16.06 26.94,20.73l6.06 2.72 4.18 4.8c3.16,3.27 5.64,6.12 7.85,10.55 5.43,10.88 11.84,22.09 23.77,26.62 11.66,4.44 17.96,11 27.12,18.53 5.2,4.3 7.24,7.91 11.12,12.86l6.94 8.84 -0.55 11.23c-0.87,17.68 -7.92,31.49 -17.35,45.81 -15.64,23.74 -30.99,44.39 -56.89,57.95 -2.36,1.23 -7.05,6.6 -8.82,8.58 -4.22,4.73 -8.1,11.64 -11.79,16.93l-4.26 6.09 -6.61 3.42c-6.34,3.29 -14.22,7.73 -17.93,14.07 -4.1,7.18 -8.59,12.55 -16.45,16.19 -3.35,1.56 -6.86,6.43 -8.95,9.31 -6.72,9.28 -12.34,17.92 -20.81,25.67 -10.04,21.17 -26.74,32.35 -47.03,41.79 -6.54,8.07 -13.11,16.14 -19.52,24.31 -2.6,3.31 -8.13,8.77 -10.25,12.22 -7.44,22.49 -20.85,33.78 -37.09,49.51 -17.6,17.05 -34.6,34.72 -51.55,52.42 -2.34,2.44 -5.3,7.87 -7.32,10.81 -16.83,24.53 -32.45,49.78 -50.78,73.28 -12.41,15.92 -20.16,32.86 -22.66,52.96 -2.76,22.07 -5.99,44.73 -5.13,67.02 0.41,10.52 0.57,20.12 -2.56,30.42 -3.08,10.14 -2.06,25.05 -2.37,35.62 -0.24,8.4 0.04,17.72 3.29,25.62 5.63,13.69 6.85,27.28 6.81,41.91 -0.04,16.82 -0.21,33.66 0.38,50.47 0.5,14.32 2.17,28.62 3.01,42.94 0.73,12.45 1.22,24.91 1.41,37.38 0.26,17.66 -0.54,35.42 0.38,53.05 0.63,12.02 1.12,27.28 7.57,37.89 6,9.85 7.73,20.8 8.05,32.08 0.5,18.33 0.34,36.67 0.36,55.01 0.02,38.73 0.04,77.46 -0.05,116.2 -0.01,6.05 -0.63,11.85 -1.01,17.84l-0.79 12.66 -9.59 8.28c-5.67,4.9 -12.19,8.2 -19.23,9.67 -0.25,32.69 -0.48,65.39 -0.5,98.08 0,4.23 1.42,10.11 1.91,14.49 1.15,10.24 2.21,20.5 3.31,30.75l1.26 11.67 -6.96 9.45c-3.23,4.38 -6.46,8.76 -9.69,13.14 -0.18,62.99 -0.38,125.98 -0.24,188.97 0,1.7 0.09,5.41 0.62,6.92 11.38,23.32 14.09,47.19 3.12,71.2 -0.8,4.74 -1.01,8.5 -2.75,13.58 -3.73,10.9 -8.04,21.56 -12.18,32.3 -7.97,20.75 -25.62,33.56 -48.1,33.23 -23.79,-0.35 -43.74,-9.78 -52.81,-33.23 -3.78,-9.77 -8.23,-17.49 -10.64,-28.11 -6.93,-30.6 -13.69,-61.25 -19.15,-92.16 -2.75,-15.54 -2.48,-30.85 -2.42,-46.54 0.27,-68.83 0.84,-137.67 1.31,-206.51l0.02 -2.87 0.56 -2.81c4.71,-23.71 1.64,-49.42 -0.49,-73.3 -2.67,-29.95 -0.95,-59.71 -1.62,-89.68 -0.26,-11.48 -1.96,-23.05 -2.74,-34.53 -1.24,-18.33 -2.32,-36.66 -3.43,-55 -9.68,-12.77 -13.1,-27.63 -13.04,-44 0.1,-25.88 -0.31,-51.77 0,-77.65 0.33,-27.3 1.07,-54.59 3.28,-81.81 2.76,-33.98 0.11,-68.57 -0.6,-102.63 -0.33,-15.56 -2.5,-31.01 -2.62,-46.65 -0.37,-46.53 -0.15,-93.06 -0.16,-139.57 0,-3.07 0,-6.13 0,-9.19 -5.92,-9.25 -12.27,-19.18 -19.8,-26.26 -6.04,-5.68 -9.61,-11.98 -13.23,-19.23 -9.41,-18.86 -18.06,-38.14 -28.12,-56.66 -4.62,-8.53 -14,-15.88 -21.64,-21.62 -7.7,-5.77 -13.01,-7.36 -19.84,-15.85 -12.33,-15.34 -29.12,-27.82 -44.52,-39.88 -23.34,-18.28 -37.28,-41.4 -52.95,-65.77 -8.46,-13.15 -17.02,-26.55 -27.28,-38.39 -14.82,-17.11 -28.56,-35.07 -42.85,-52.62 -1.96,-2.41 -4.64,-6.53 -6.55,-8.37 -30.47,-22.26 -49.7,-51.27 -76.49,-76.89 -5.19,-4.97 -8.53,-10.24 -12.28,-16.23 -5.05,-8.11 -13.77,-15.52 -20.75,-21.93 -6.63,-6.08 -11.14,-13.02 -15.66,-20.68 -1.14,-1.94 -3.51,-6.32 -5.04,-7.84 -24.1,-21.55 -35.57,-48.44 -41.63,-79.62l-2.98 -15.34 10.82 -11.28c12.49,-13.01 26.32,-24.18 40.65,-35.05 28.63,-21.72 55.13,-46.02 79.13,-72.78 6.55,-7.3 12.42,-15.27 17.97,-23.36 7.8,-11.34 17.08,-20.42 29.34,-26.89 20.6,-10.87 39.89,-24.01 54.26,-42.64 6.04,-7.83 12.18,-11.48 19.77,-17.1 19.18,-14.21 37.11,-30.34 52.94,-48.24 1.02,-17.68 2.04,-35.35 3.06,-53.03l0.65 -11.18 7.78 -8.04c6.27,-6.48 16.35,-15.69 19.66,-24.34 2.94,-7.65 6.43,-11.78 10.72,-15.5 -20.34,-5.62 -35.19,-20.49 -42.67,-42.21 -1.32,-3.82 -3.14,-7.68 -4.98,-11.5 -1,-0.7 -2.01,-1.35 -2.99,-1.88 -25.14,-13.77 -44.69,-32.88 -64.17,-53.54 -5.43,-5.76 -12.23,-10.5 -18.78,-14.88 -23.31,-15.59 -44.84,-31.87 -61.55,-53.77 -10.56,5.75 -21.13,11.49 -31.62,17.34 -0.24,0.14 -0.48,0.27 -0.73,0.4 -7.9,10.62 -17.45,18.94 -28.13,26.96 -7.01,5.27 -14.42,10.31 -21.2,15.97 -8.52,17.51 -21.03,31.91 -38.57,40.99 -0.55,1.13 -1.08,2.31 -1.57,3.29 -2.6,5.19 -5.45,9.98 -9.24,14.42l-5.95 7 -8.84 2.49c-2.2,0.61 -4.39,1.23 -6.57,1.84 -21.78,32.84 -50.06,59.4 -86.7,75.91 -11.5,5.17 -20.49,2.61 -30.69,-2.51l-13.15 -5.82 -0.06 -0.21c-8.16,9.16 -17.21,17.24 -28.21,23.9 -2.3,3.11 -4.41,6.92 -6.86,10.08l-3.67 4.69 -5.17 2.96c-9.51,5.42 -19.02,10.84 -28.54,16.26l-8.68 4.95 -9.92 -1.23c-16.35,-2.02 -29.14,-10.59 -38,-24.15 -12.34,1.31 -24,-3.09 -32.9,-12.1l-14.63 -14.81 8.68 -18.92c1.87,-4.08 2.97,-10.88 4.1,-15.33 3.07,-12.12 7.53,-22.76 16.07,-32.16 10.31,-11.35 20.8,-22.52 31.9,-33.1 4.64,-4.42 8.69,-6.58 13.15,-8.07 2.78,-4.79 5.59,-9.56 8.61,-14.22 6.05,-9.39 12.77,-17.17 23.68,-21.03 2.84,-2.45 7.1,-8.24 9.79,-11 14.46,-14.81 28.67,-29.87 43.28,-44.54 5.07,-5.09 9.56,-11.76 14.11,-17.38 8.2,-10.13 17.05,-18.63 28.76,-24.71 3.23,-1.67 7.19,-6.37 9.5,-9.01 6.54,-7.49 12.5,-14.4 20.49,-20.46 10.97,-26.45 29.55,-36.78 50.22,-55.66 0.34,-0.31 0.68,-0.62 1.02,-0.92 0.58,-4.96 1.15,-9.94 1.71,-14.91l0.65 -5.7 2.43 -4.55c1.5,-3.32 3.01,-6.14 5.12,-8.88 -8.26,-14.22 -19.07,-26.12 -33.22,-34.66 -4.54,-2.75 -10.9,-8.54 -15.24,-11.14l-7.64 0.69 -8.39 -4.99c-23.59,-14.04 -43.36,-24.11 -56.13,-50.34 -2,-4.11 -5.48,-7.22 -9.1,-9.88 -10.9,-7.99 -18.78,-17.97 -26.89,-28.55 -5.04,-6.57 -13.89,-21.97 -20.64,-26.38 -7.04,-4.6 -12.57,-11.56 -15.9,-19.25 -4.03,-9.32 -12.01,-17.55 -19.85,-24.72 -0.19,-0.03 -0.38,-0.06 -0.57,-0.08l-17.3 -2.47 -6.03 -15.18c-27.23,-13.9 -38.69,-39.68 -41.04,-70.07 -2.22,-2.39 -4.42,-4.78 -6.56,-7.24 -6.23,-7.14 -12.51,-14.15 -18.1,-21.84 -10.97,-15.05 -13.73,-32.54 -8.19,-50.32l2.64 -8.44 6.77 -5.68c8.25,-6.9 16.39,-13.9 24.75,-20.67 12.38,-10.01 27.12,-14.48 42.9,-14.53 4.38,-0.01 8.75,-0.11 13.13,-0.24 9.71,-8.43 22.56,-12.27 36.91,-11.08l9.08 0.75 7.14 5.66c5.52,4.38 10.99,8.83 16.6,13.1 2.34,1.79 4.91,4.29 7.3,6.02 21,7.12 35.92,21.1 46.22,39.77 22.79,13.71 42.19,31.22 56.25,53.94 25.76,11.53 43.44,28.99 65.51,46.38 4.75,3.76 9.11,7.84 12.78,12.7 4.18,5.53 8.15,11.23 12.13,16.92 8.76,3.19 15.67,6.69 21.76,14.29 25.83,12.02 39.52,31.45 57.54,52.88 8.52,10.15 16.58,20.65 24.67,31.13 0.83,1.07 1.88,2.03 3.06,2.91 2.95,-1.84 5.55,-3.87 6.99,-5.97 4.78,-7.03 11.07,-13.31 18.36,-17.73 21.27,-12.92 38.13,-31.92 53.57,-51.14 4.53,-5.64 9.58,-10.24 14.63,-15.33 2.65,-2.66 6.48,-5.5 8.87,-8.15 8.97,-14.16 20.03,-26.22 31.72,-38.14 9.27,-9.44 19.09,-18.87 27.16,-29.39 10.44,-13.61 20.71,-27.35 31.13,-40.97 5.54,-7.26 8.2,-12.18 16.74,-17.29 12.63,-7.56 24.42,-24.09 35.78,-37.58 -7.8,-9.47 -12.27,-19.05 -19.27,-29.24 -5.83,-8.48 -17.19,-17.21 -24.7,-24.46 -5.27,-4.73 -9.45,-6.78 -14.39,-13.03 -10.89,-13.74 -22.84,-28.8 -37.84,-38.3 -5.69,-3.61 -9.4,-7.88 -13.32,-13.15 -1.32,-1.77 -11.76,-19.53 -13.15,-20.23 -15.46,-7.79 -24.36,-18.88 -36.31,-30.49 -6.07,-5.9 -10.53,-12.48 -15.08,-19.51 -0.86,-1.31 -2.34,-3.81 -3.52,-5.16 -9.53,-4.33 -13.5,-9.77 -20.26,-17.07 -19.73,-21.28 -39.36,-42.64 -59.01,-63.99l-4.31 -4.66 -2.05 -5.99c-0.52,-1.5 -2.06,-6.41 -3.18,-7.53 -0.09,-0.05 -0.15,-0.05 -0.25,-0.08 -10.58,-3.64 -15.05,-9.63 -20.83,-17.94 -2.47,-3.19 -5.55,-8.42 -8.27,-11.2 -2.43,-2.08 -6.74,-4.47 -9.61,-6.49l-7.82 -5.54 -3.18 -9.03c-1.59,-4.51 -3.23,-9 -4.77,-13.52 -0.73,-2.12 -1.91,-3.52 -3.65,-4.91 -21.01,-16.89 -39.5,-36.29 -56.92,-56.75zm-979.35 -835.52c13.88,0.9 27.89,4.82 41.94,10.69 7.11,2.97 13.51,3.3 20.54,0.01 9.71,-4.55 19.57,-8.45 29.59,-11.71 -3.29,-0.35 -6.59,-0.8 -9.93,-1.39 -20.58,-3.67 -42.4,-2.83 -63.29,-3 -1.88,0.44 -4.31,1.42 -6.01,2 -4.24,1.42 -8.52,2.55 -12.84,3.4zm2991.23 0.92c-6.24,-1.03 -12.41,-2.62 -18.38,-4.72 -1.55,-0.54 -5.06,-1.69 -6.74,-1.66 -21.03,0.5 -43.47,-0.83 -64.13,3.29 -1.97,0.4 -3.93,0.72 -5.87,1 9.15,2.52 16.13,3.84 24.59,9.71 10.86,7.51 19.29,5.19 30.21,-1.26 3.12,-1.84 5.81,-2.8 9.22,-3.78l3.65 -1.17 3.93 -0.2c7.84,-0.4 15.68,-0.79 23.53,-1.21zm-1496.87 2722.96c7.61,-9.37 16.36,-17.59 25.68,-26.34 38.82,-36.45 74.86,-75.77 110.3,-115.46 11.09,-12.42 20.67,-26.31 31.18,-39.24 12.47,-15.34 26.48,-29.91 37.84,-46.05 17.07,-24.28 35.65,-47.45 55.35,-69.63 -5.3,-7.78 -10.6,-15.56 -15.89,-23.33 -16.32,-9.21 -27.63,-24.7 -37.98,-40.35 -1.37,-2.07 -2.82,-4.83 -4.14,-6.54 -10.24,-10.74 -20.41,-22.55 -31.92,-32.27 -11.75,-9.93 -25.69,-18.13 -38.34,-26.94l-6.2 -4.33 -3.43 -6.73c-3.42,-6.7 -6.98,-13.55 -14.07,-16.93 -16.26,-7.75 -31.25,-21.27 -40.85,-36.49 -4.33,-6.85 -8.88,-12.14 -16.43,-15.38l-14.91 -6.41 -2.85 -15.99c-0.46,-2.59 -3.66,-6.31 -7.35,-9.95 -3.44,0.55 -6.88,1.12 -10.32,1.68l-11.91 1.96 -9.96 -6.8c-1.39,-0.95 -2.79,-1.9 -4.19,-2.85 -3.74,3.59 -7.41,7.24 -10.56,11.08 -10.95,13.37 -22.09,24.44 -37.51,32.73 -2.23,1.2 -5.69,4.39 -7.76,6 -6.24,4.88 -12.57,8.81 -19.87,11.39 -11.54,17.42 -25.75,27.14 -41.73,40.23 -4.5,3.69 -8.76,7.66 -12.86,11.79 -9.52,9.59 -18.15,19.75 -28.26,28.8 -6.26,5.62 -11.71,12.84 -16.95,19.41 -12.95,16.23 -24.56,32.32 -41.29,45.11 -9.71,7.42 -17.85,17.07 -25.73,26.35 -1.61,1.9 -3.44,5.67 -5.2,9.7 0.04,0.12 0.08,0.23 0.12,0.34 0.55,1.58 1.09,3.18 1.63,4.76 5.86,5.67 12.03,11.83 18.19,15.91 20.53,13.62 36.23,31.99 48.86,52.93 6.3,10.46 14.9,18.12 25.59,23.93 14.62,7.94 23.41,17.85 35.34,28.64 13.09,11.83 22.06,26.84 24.57,44.5 0.93,6.49 2.27,12.94 3.6,19.37 7.3,7.87 14.37,14.94 20.1,24.99 2.41,4.23 5.15,7.1 8.97,10.06 10.98,8.53 21.72,16.92 31.02,27.35 13.25,14.86 24.62,31.16 37.62,46.17 0.84,0.96 1.68,1.91 2.53,2.85zm189.82 -1146.28c-20.86,-8.47 -37.12,-25.47 -49.08,-44.33 -10.01,-15.78 -23.13,-29.02 -37.13,-41.27 -6.36,-5.56 -11.88,-12.21 -18.21,-17.57 -20.49,-17.35 -39.31,-41.1 -61.72,-55.31 -5.12,-3.26 -9.62,-7.48 -12.93,-12.6 -2.82,-4.36 -9.8,-8.85 -15.77,-12.46 -1.85,0.1 -3.75,0.46 -5.63,0.96 -5.99,11.65 -14.4,21.34 -24.07,31.2 -15.45,15.76 -30.41,32.24 -42.88,50.49 -4.94,7.22 -11.46,13.4 -18.62,18.39 -10.85,7.59 -22.05,14.63 -33.16,21.83 -2.35,1.53 -4.63,2.61 -6.94,3.78 -7.29,9.75 -16.28,16.84 -26.57,22.48 -2.13,8.39 -4.33,16.6 -8.34,24.91 -6.12,12.66 -14.35,22.34 -22.14,33.73l-4.16 6.09 -6.49 3.49c-3.29,1.76 -6.57,3.52 -9.86,5.26 -6.52,12.48 -13.39,23.75 -23.54,33.73 1.74,6.8 4.19,13.77 8.14,18.4 9.06,10.57 18.24,21.05 28,30.98 12.36,12.57 24.64,25.74 38.37,36.84 10.38,8.39 17.1,17.98 24.61,28.75 2.96,4.26 7.28,10.66 11.71,13.6l5.56 3.7 3.49 5.69c13.35,21.85 34.98,37.29 56.21,50.77 18.55,11.79 34.95,25.11 48.19,42.81 0.1,0.13 0.21,0.28 0.32,0.43 10.5,-2.78 21.01,-5.55 31.41,-8.7 2.28,-0.69 4.04,-1.73 5.63,-3.52 7.54,-8.41 15.17,-16.29 24.69,-22.54 13.67,-8.99 27.31,-19.21 36.53,-32.96 3.1,-4.62 6.5,-7.97 10.31,-11.89 14.88,-15.32 28.97,-31.25 44.91,-45.54 6.66,-5.98 12.47,-13.82 18.13,-20.74 7.82,-9.56 15.79,-18.29 25.64,-25.57 0.37,-0.76 0.74,-1.53 1.11,-2.24 9.05,-17.3 21.71,-31.67 36.42,-44.33 2.33,-2 4.57,-4.21 6.02,-6.94 3.86,-7.26 7.58,-14.1 12.9,-20.49 1.79,-2.15 2.89,-4.51 3.54,-7.01 -9.19,-10.04 -18.39,-20.37 -28.82,-28.67 -9.13,-7.26 -17.35,-15.56 -25.76,-23.63zm-182.75 -1576.56c-3.15,2.86 -6.38,5.58 -10.27,8.08 -6.64,4.27 -12.6,5.94 -19.3,9.24 -0.34,0.16 -0.68,0.32 -1.03,0.48 -8.32,9.54 -17.85,15.99 -28.26,23.57 -4.19,3.05 -10.46,7.58 -12.7,12.48 -3.85,8.41 -8.85,12.33 -15.94,17.01 -5.65,5.24 -11.23,10.58 -16.71,15.99 -5.21,5.13 -8.96,10.18 -14.93,14.92 -1.54,1.23 -4.51,3.57 -5.47,5.43 -3.97,7.68 -8.08,10.84 -13.71,16.59 -2.41,2.47 -5.99,5.22 -8.03,7.62 -14.52,19.66 -29.07,39.44 -43.11,59.56 -10.78,15.48 -24.14,31.27 -29.21,49.8 0.02,0.07 0.04,0.14 0.06,0.21 7.54,11.18 15.86,21.86 23.76,32.78 6.11,8.45 15.35,15.86 23.24,22.57 9.96,8.46 19.22,16.74 27.16,26.76 6.07,3.2 11.4,7.57 16.15,12.94 3.33,3.76 6.05,8.09 9.31,11.69 8.28,9.17 17.6,21.39 27.57,28.56 16.23,11.7 29.14,26.59 44.84,38.32 11.92,8.89 25.08,16.18 37.54,24.48 5.88,-4.44 11.91,-8.54 19.48,-11.83 3.68,-1.6 6.03,-3.36 8.54,-6.46 10.89,-13.5 24.25,-23.32 41.28,-27.5 4.49,-1.1 8.71,-5.55 11.57,-8.87 2.26,-2.63 7.88,-8.07 9.42,-10.86 7.32,-13.27 17.55,-23.61 30.56,-31.31 4.2,-2.49 7.3,-7.42 9.63,-11.52 5.45,-9.62 12.18,-17.91 18.96,-26.57 8.55,-10.92 17.5,-21.54 26.27,-32.27l6.86 -8.39 10.64 -2.11c1.15,-0.23 2.97,-3.95 3.32,-4.79 3.99,-9.71 8.37,-12.53 14.64,-19.25 0.14,-0.77 0.15,-1.9 0.16,-2.52 0.03,-6.48 -3.03,-10.07 -8,-13.99l-11.04 -8.71 -0.42 -14.04c-0.12,-3.84 -10.84,-21.62 -12.86,-26.28 -5.85,-13.49 -18.61,-23.89 -29.68,-33.14 -25.53,-21.38 -50,-41.57 -68.7,-69.4 -1.14,-1.41 -3.32,-3.24 -4.76,-4.63 -8.39,-8.14 -14.94,-11.08 -21.51,-22.43 -3.86,-6.67 -10.25,-12.56 -15.95,-17.66 -8.89,-7.94 -17.65,-15.33 -25.4,-24.34 -1.1,-0.17 -2.47,-0.22 -3.97,-0.22zm743.8 -65.37c-3.53,32.88 -24.99,53.34 -53.74,68 -2.61,1.33 -10.84,5.11 -13.05,7.2l-7.94 13.45 -16.01 0.96c-15.11,0.9 -30.23,1.8 -45.35,2.7l-14.64 0.86 -9.72 -10.99c-10.6,-12 -21.6,-23.63 -31.61,-36.14 -11.64,-14.51 -16.5,-33.02 -11.33,-51.19 0.57,-2.02 -2.27,-9.8 -2.9,-11.6 -16.5,-47.25 6.05,-93.43 51.56,-112.71 46.23,-19.58 92.11,-10.71 129.38,22.21 28.16,24.86 35.7,60.77 29.01,96.66 -0.79,4.2 -2.03,7.26 -3.66,10.6zm-1300.58 2488.25c-5.06,33.91 -27.54,54.03 -57.1,69.67l-6.84 3.62 -1.26 -0.02c-2.15,2.45 -4.28,5.08 -6.68,7.37l-7.9 7.51 -10.87 0.72c-14.9,0.99 -29.8,1.96 -44.7,2.95l-13.74 0.91 -9.68 -9.8c-4.05,-4.1 -8.21,-8 -12.05,-12.32 -3.48,-3.92 -7.38,-9.93 -11.03,-13.28 -18.2,-16.72 -27.05,-38.07 -21.71,-62.79 0.64,-2.96 -1.16,-7.97 -2.13,-10.6 -16.13,-43.7 1.92,-89.96 43.71,-110.73 47.28,-23.5 97.24,-16.76 136.14,18.67 28.5,25.96 37.2,62.68 28.88,99.68 -0.72,3.22 -1.74,5.8 -3.05,8.43zm-30.19 -2491.61c-4.15,36.51 -27.92,60.25 -61.03,74.35 -4.04,1.72 -6.86,4.73 -9.71,8l-8.13 9.34 -12.36 0.92c-18.5,1.38 -36.16,4.08 -54.69,0.55l-9.96 -1.91 -6.78 -7.53c-9.04,-10.04 -18.31,-19.9 -27.08,-30.18 -13.62,-15.96 -20.02,-35.31 -14.24,-56.08 0.36,-1.32 -2.04,-8.18 -2.46,-9.37 -17.17,-48.78 4.97,-96.91 53.5,-115.04 25.22,-9.43 50.74,-12.31 76.91,-4.64 59.44,17.4 94.27,71.44 76.03,131.59zm1296.39 2565.17c-1.46,1.24 -2.91,2.56 -4.43,3.72 -12.23,9.31 -27.18,13.33 -42.31,9.58 -17.44,-4.32 -34.77,-9.07 -52.14,-13.64l-12.53 -3.3 -6.22 -11.36c-7.58,-13.83 -15.4,-27.53 -22.59,-41.57 -4.07,-7.93 -5.68,-16.72 -5.86,-25.56 -0.24,-12.47 -0.1,-24.93 0.28,-37.39 0.6,-19.54 9.65,-36.21 26.66,-45.93 11.67,-19.22 26.71,-24.14 45.64,-35.38l8.12 -4.81 9.42 0.67c39.83,2.86 66.34,21.71 95.13,46.95l4.51 3.97 2.65 5.39c7.59,15.4 8.33,31.95 7.42,48.76 -0.82,14.99 -1.64,29.61 -5.55,44.22 -7.25,27.05 -20.04,48.49 -48.2,55.7z"/>
   <path class="fil0" d="M2242.66 34.18l-0.1 -3.11c4.25,-5.18 8.87,-9.84 13.87,-13.98 5.01,-4.14 12.7,-6.32 22.89,-7.77 4.45,-0.63 9.49,-1.81 15.35,-2.33 5.85,-0.52 10.85,-2.07 15.3,-3.89 5.71,-2.33 10.92,-3.11 15.32,-3.11 8.82,0 17.63,0 26.45,0 8.82,0 86.3,10.92 93.62,9.88l0.05 1.56 46.28 0c8.82,0 15.38,-1.56 19.69,-4.66 2.91,-1.04 6.59,-0.52 11.07,1.56 19.27,5.17 37.64,5.17 55.1,0 4.35,-2.08 8.35,-2.86 12.05,-2.34 3.69,0.52 8.49,1.3 14.39,2.34 8.88,2.07 23.61,3.11 44.18,3.11 20.57,0 36.7,-1.04 48.39,-3.11 4.41,0 8.44,-0.26 12.1,-0.78 3.66,-0.52 6.99,0.26 9.99,2.33 11.79,1.04 23.57,1.82 35.34,2.33 11.77,0.52 89.82,-1.52 101.27,-6.98 5.92,-2.83 13,-2.25 22.1,1.55 5.8,2.43 12.54,1.56 19.79,-1.55 1.47,0 2.93,-0.27 4.38,-0.78 1.46,-0.52 3.66,-0.78 6.58,-0.78 7.35,0 13.96,0 19.84,0 5.87,0 12.49,0.69 19.89,1.56 1.46,0.17 9.23,1.55 23.28,4.65 14.05,3.11 21.96,5.02 23.34,6.21 4.66,4 8.41,10.1 11.6,17.87 3.18,7.76 6.33,14.24 9.43,19.42 0.07,2.08 -0.63,3.11 -2.1,3.11 -4.19,7.25 -10.6,12.44 -19.44,12.44l-83.76 0c-11.75,0 -22.7,2.07 -32.85,6.21l-8.81 0 -11.13 -3.11c-14.55,4.14 -94.7,5.69 -107.95,4.65 -13.26,-1.03 -27.22,-1.03 -41.87,0 -5.88,0 -10.22,2.08 -13.03,6.21 -1.34,4.15 -2.73,6.74 -4.17,7.77 -4.24,5.18 -6.63,10.62 -7.19,16.31 -0.55,5.7 -0.74,11.14 -0.58,16.31 2.07,18.65 3.03,37.03 2.87,55.16 -0.15,18.13 0.07,36.51 0.67,55.16 0.23,7.24 -1.07,12.43 -3.92,15.53 -4.31,3.11 -4.92,6.73 -1.85,10.88 4.6,6.21 7.04,13.47 7.3,21.75 0.57,17.61 1.12,34.96 1.67,52.05 0.55,17.09 1.84,34.43 3.87,52.04 0.2,6.21 0.04,12.7 -0.48,19.42 -0.52,6.73 2.26,13.22 8.34,19.43l0.1 3.11c-5.71,5.17 -8.1,11.13 -7.15,17.86 0.96,6.73 0.06,13.21 -2.68,19.43 -4.47,10.12 0.33,151.08 1.97,160.56 0.9,5.17 -0.18,10.28 -2.81,15.53 -1.52,3.04 -2.4,5.69 -3.06,7.77 -0.67,2.07 0.97,4.28 3.56,7.77 6.65,8.98 6.53,20.71 1.09,34.17 -2.84,3.11 -2.54,7.7 0.45,13.98 4.88,10.29 4.29,19.16 -1.36,26.41 -2.88,2.08 -3.55,3.89 -2.03,5.44 1.52,1.55 3.05,3.37 4.57,5.43 0.07,2.08 0.49,3.63 1.26,4.66 0.76,1.03 1.17,2.07 1.2,3.11 -5.64,7.24 -8.3,16.05 -7.97,26.41 0.2,6.21 -3.25,13.02 -8.12,21.75 -2.12,3.8 5.13,-0.25 6.74,3.89 7.51,5.18 8.62,9.39 4.85,13.98 -4.75,5.81 -6.21,12.44 -6.02,18.65 0.17,5.17 -0.04,10.36 -0.6,15.53 -0.57,5.17 -0.77,10.36 -0.6,15.53 0.06,2.07 -2.06,4.92 -6.34,8.55 -4.3,3.63 -7.89,5.95 -10.8,6.99 -11.76,0 -20.63,0.19 -26.4,1.55 -3,0.71 -6.17,2.08 -9.81,3.11 -3.64,1.04 -7.65,2.08 -12.03,3.12l-4.41 0c-10.45,-5.18 -20.44,-7.25 -29.96,-6.22 -9.51,1.04 -19.41,0.73 -29.75,0 -4.4,-0.3 -7.93,-1.34 -11.12,-3.11 -4.32,-2.38 -8.4,-4.51 -11.27,-7.76 -1.71,-1.94 -0.87,-4.15 2,-6.22 5.58,-9.32 5.33,-17.09 -0.74,-23.3 -3.04,-3.11 -3.84,-5.17 -2.41,-6.21 2.81,-4.15 5.58,-9.32 8.32,-15.53 4.31,-3.11 5.71,-5.18 4.21,-6.21 -3.14,-6.21 -3.29,-10.88 -0.45,-13.98 0,0 1.3,-4.63 -0.1,-3.11l-6.38 6.99c-6.01,-4.15 -6.64,-8.61 -2.66,-13.98 4.48,-6.03 6.18,-13.47 5.92,-21.76l-3.19 -99.43c-0.16,-5.18 0.32,-8.91 1.86,-10.88 4.12,-5.28 6.65,-10.36 7.22,-15.53 0.56,-5.18 0.76,-10.36 0.6,-15.54 -1.98,-61.96 2.95,-110.41 1.14,-166.77 -0.07,-2.07 1.34,-4.15 4.21,-6.21 2.88,-2.08 3.53,-4.66 1.96,-7.77 -9.08,-8.28 -9.36,-17.09 -0.85,-26.41 1.44,-1.04 1.41,-2.07 -0.1,-3.11 -6.04,-5.17 -8.42,-10.62 -7.13,-16.31 1.29,-5.69 -0.35,-11.14 -4.92,-16.31 -3.04,-3.11 -3.5,-5.95 -1.38,-8.55 2.12,-2.59 2.42,-4.91 0.88,-6.99 -3.11,-5.17 -2.52,-9.84 1.76,-13.97 1.4,-2.08 2.04,-5.18 1.91,-9.33l-0.3 -9.32c-0.27,-8.28 -2.67,-14.5 -7.21,-18.64l6.01 -18.65c2.68,-8.28 0.27,-14.5 -7.2,-18.64 -3.18,-7.25 -3.34,-12.43 -0.5,-15.54 4.25,-5.17 6.29,-9.84 6.16,-13.97l-3.44 -107.21c-0.2,-6.21 1.84,-11.39 6.12,-15.53 2.87,-2.07 4.28,-4.15 4.21,-6.21 -0.2,-6.21 -0.35,-10.88 -0.45,-13.98 -0.1,-3.11 -0.19,-5.95 -0.27,-8.54 -0.08,-2.6 -0.18,-5.44 -0.28,-8.55 -0.1,-3.11 -0.24,-7.77 -0.44,-13.98 -0.14,-4.14 -3.88,-6.21 -11.23,-6.21 -8.81,0 -17.27,-0.26 -25.36,-0.78 -8.1,-0.52 -16.51,0.78 -25.22,3.89 -2.88,2.08 -9.49,3.85 -19.74,3.11l-159.78 -11.43c-7.32,-0.53 -18.49,-3.9 -33.42,-11.66 -14.94,-7.76 -24.7,-14.24 -29.28,-19.42zm447.77 58.05c0,0 0,0 0,0z"/>
   <path class="fil0" d="M2670.06 1141.32c0.22,18.8 -99.57,12.74 -105.65,-6.54 -1.27,-4.03 -8.28,0.64 -12.43,-0.7 -3.11,0.1 -5.69,-2.76 -7.77,-8.56 -2.07,-7.28 -4.41,-14.18 -6.99,-20.72 -2.59,-6.52 -3.37,-13.49 -2.33,-20.87 0,-9.6 -2.24,-20.5 -4.52,-31.72 -3.86,-18.93 -7.89,-38.82 -1.69,-55.13 3.11,-8.17 5.69,-16.71 7.77,-25.59 3.11,-7.44 8.28,-12.76 15.53,-15.92 3.11,-1.57 8.29,-2.47 15.53,-2.71 6.22,-0.19 12.44,-2.6 18.65,-7.2 3.11,-3.04 6.73,-3.16 10.87,-0.35 3.12,4.31 6.74,4.92 10.88,1.86 -11.87,9.42 75.86,-19.08 109.54,26.25 3.07,4.14 -0.26,10.66 -2.34,16.6 -3.11,5.97 -7.11,16.44 0,19.83 28.42,13.54 7.68,95.22 -10.09,96.2 -7.17,0.39 -7,13.8 -13.22,21.36 -3.11,3.04 -6.47,5.34 -10.1,6.93 -3.63,1.59 -11.71,1.83 -11.65,6.98z"/>
  </g>
 </g>
</svg>
