<?xml version="1.0" encoding="UTF-8"?>
<!DOCTYPE svg PUBLIC "-//W3C//DTD SVG 1.1//EN" "http://www.w3.org/Graphics/SVG/1.1/DTD/svg11.dtd">
<!-- Creator: CorelDRAW -->
<svg xmlns="http://www.w3.org/2000/svg" xml:space="preserve" width="27.166mm" height="41.5527mm" version="1.1" style="shape-rendering:geometricPrecision; text-rendering:geometricPrecision; image-rendering:optimizeQuality; fill-rule:evenodd; clip-rule:evenodd"
viewBox="0 0 359.29 549.56"
 xmlns:xlink="http://www.w3.org/1999/xlink"
 xmlns:xodm="http://www.corel.com/coreldraw/odm/2003">
 <defs>
  <style type="text/css">
   <![CDATA[
    .fil0 {fill:white;fill-rule:nonzero}
   ]]>
  </style>
 </defs>
 <g id="Layer_x0020_1">
  <metadata id="CorelCorpID_0Corel-Layer"/>
  <g id="_2090915935856">
   <g>
    <path class="fil0" d="M40.59 154.01c0.28,0.23 0.55,0.46 0.83,0.69 0.44,-0.79 0.87,-1.59 1.31,-2.38 -0.2,-0.12 -0.4,-0.24 -0.6,-0.36l-1.53 2.05zm9.49 -5.82c-0.53,1.1 -0.81,1.67 -1.34,2.75 1.11,-0.37 1.54,-0.51 2.06,-0.68 -0.19,-0.54 -0.33,-0.96 -0.72,-2.08zm264.04 1.67c0.73,-0.67 1.18,-1.08 1.88,-1.72 -0.51,-0.53 -0.93,-0.97 -1.88,-1.97l0 3.69zm-30.56 -6.43c-0.34,-0.26 -0.69,-0.53 -1.03,-0.79 -0.28,0.58 -0.56,1.15 -0.84,1.73 0.23,0.15 0.47,0.29 0.7,0.44 0.39,-0.46 0.78,-0.92 1.16,-1.38zm-204.95 -0.85c-1.7,0.24 -2.45,0.35 -3.71,0.53 0.92,0.73 1.36,1.08 1.83,1.46 0.46,-0.49 0.78,-0.82 1.88,-1.99zm-39.08 -2.72c-0.29,0.18 -0.59,0.35 -0.88,0.53 0.5,0.69 1,1.37 1.49,2.06 0.2,-0.13 0.41,-0.26 0.61,-0.39 -0.41,-0.73 -0.81,-1.47 -1.22,-2.2zm241.55 -1.14c0.58,-0.77 0.9,-1.2 1.63,-2.18 -1.49,0.17 -2.22,0.25 -3.25,0.37 0.61,0.68 0.94,1.05 1.61,1.81zm-214 -3.97c-0.17,-0.31 -0.34,-0.61 -0.5,-0.92 -0.75,0.4 -1.51,0.8 -2.26,1.19 0.11,0.21 0.21,0.43 0.32,0.64 0.82,-0.31 1.63,-0.61 2.45,-0.92zm5.82 -2.33c-0.17,-0.3 -0.33,-0.6 -0.5,-0.9 -0.69,0.5 -1.39,1 -2.08,1.5l0.4 0.62 2.18 -1.22zm37.6 -4.07c0.48,1.02 0.71,1.53 0.95,2.04 0.4,-0.32 0.8,-0.64 1.45,-1.17 -0.87,-0.32 -1.29,-0.47 -2.4,-0.88zm-52.71 5.5l-2.63 0c-0.04,0.19 -0.08,0.38 -0.13,0.57 0.84,0.36 1.68,0.71 2.69,1.14 0.03,-0.67 0.03,-0.83 0.06,-1.71zm215.21 1.14c0.82,1.12 1.33,1.8 2.49,3.38 -0.19,-1.93 -0.28,-2.78 -0.37,-3.64 -0.61,0.07 -0.92,0.11 -2.12,0.26zm-224.71 17.47c-3.05,0.91 -2.52,1.97 -1.94,3.83 0.71,-1.4 1.09,-2.14 1.94,-3.83zm-1.58 -6.4c-1.04,1.54 -1.53,2.26 -2.14,3.16 0.77,0.22 1.2,0.35 1.95,0.57 0.05,-1.02 0.1,-1.88 0.19,-3.73zm0.57 -3.59c-2.33,-0.47 -2.6,0.86 -2.68,2.39 0.8,-0.71 1.59,-1.42 2.68,-2.39zm256.28 -3.2c0.61,0.85 1.11,1.56 2.27,3.17 -0.18,-1.96 -0.26,-2.82 -0.36,-3.85 -0.74,0.26 -1.17,0.42 -1.9,0.68zm-249.24 -0.96c-0.4,1.78 -0.68,2.99 -1.2,5.27 2.2,-1.99 1.87,-3.3 1.2,-5.27zm250.5 7.71c-0.97,-0.45 -1.81,-0.84 -2.65,-1.23 -0.17,0.22 -0.34,0.44 -0.51,0.66 0.53,0.71 1.06,1.43 1.67,2.24 0.61,-0.69 0.93,-1.04 1.49,-1.66zm-252.45 -7.34c-1.76,-0.4 -2.98,-0.69 -4.59,-1.06 1.17,2.04 2.33,2.53 4.59,1.06zm-0.85 5.94c-1.29,0.56 -2.35,1.02 -4.01,1.74 1.15,0.2 1.63,0.36 2.1,0.36 0.64,0 1.28,-0.12 2.02,-0.19 -0.04,-0.65 -0.07,-1.08 -0.12,-1.91zm4.86 3.32c0.67,-1.03 1.14,-1.77 1.9,-2.95l-3.68 0c0.69,1.15 1.14,1.9 1.77,2.95zm246.37 5.9c-1.62,1.19 -3.56,1.27 -5.3,0.88 -5.69,-1.3 -11.42,-1.86 -17.26,-2.09 -5.09,-0.2 -10.15,-1.34 -15.28,-2.08 -0.42,-0.54 -0.91,-1.14 -1.69,-2.13 -0.6,0.86 -1.02,1.47 -1.59,2.28 -2.99,-0.24 -6.14,0.69 -9.24,-0.78 -0.97,-0.46 -2.32,-0.12 -3.5,-0.16 -10.54,-0.35 -21.14,-0.18 -31.6,-1.25 -6.87,-0.71 -13.69,-0.68 -20.53,-0.76 -11.62,-0.14 -23.24,-0.16 -34.86,0.01 -11.22,0.17 -22.47,0.2 -33.63,1.18 -6.02,0.53 -12.06,0.17 -17.98,0.95 -5,0.67 -10,0.45 -14.96,0.97 -7.27,0.78 -14.56,1.29 -21.8,2.09 -7.67,0.85 -15.37,1.8 -22.99,3.33 -3.85,0.77 -7.95,2.51 -12.1,0.71 -0.3,-0.13 -0.87,0.36 -1.59,0.69 -0.29,-7.28 -0.3,-14.42 1.46,-21.85 0.17,-0.03 0.79,-0.14 1.42,-0.25 0.85,1.24 1.7,2.48 2.68,3.91 0.36,-1.43 0.65,-2.57 0.99,-3.9l-3.68 0c2.91,-1.49 6.06,-1.78 9.17,-2.13 0.63,0.78 1.13,1.4 1.69,2.1 0.57,-0.04 1.21,-0.09 1.86,-0.15 0.28,-0.89 0.52,-1.64 0.78,-2.46 2.03,-0.4 4.09,-0.8 6.46,-1.26 0.69,0.86 1.5,1.88 2.3,2.89 -0.91,0.49 -1.82,0.99 -2.93,1.59 1.06,0.46 1.84,0.8 2.92,1.27l0 -2.86c0.69,-1.21 1.38,-2.42 2.16,-3.8 1.32,-0.07 2.65,-0.1 3.96,-0.23 4.6,-0.46 9.22,-0.75 13.74,-1.85 0.32,-0.08 0.66,-0.11 0.99,-0.13 5.82,-0.36 11.68,-0.42 17.46,-1.14 7.51,-0.94 15.09,-0.27 22.51,-1.15 5.36,-0.63 10.67,-0.44 15.99,-0.79 20.8,-1.37 41.64,-1.35 62.44,-0.79 8.85,0.24 17.77,0.17 26.56,1.05 5.69,0.57 11.4,0.08 16.97,0.91 6,0.9 11.99,0.7 17.91,0.95 0.75,0.59 1.4,1.11 1.85,1.47 3.79,-0.83 7.39,-0.86 11.01,-0.04 0.96,0.22 1.94,0.37 2.92,0.47 3.8,0.39 7.66,0.46 11.38,1.21 2.68,0.54 5.36,0.64 8.04,0.91 0.96,0.64 1.92,1.28 2.88,1.93 -0.97,1.62 -1.61,3.29 -0.45,5.07 0.21,0.33 0.7,0.47 1.68,1.1 -0.47,-1.33 -0.71,-2.03 -0.91,-2.61 0.62,-1 1.19,-1.93 1.97,-3.2 -1.06,-0.17 -1.68,-0.26 -2.3,-0.36 2.09,-1.01 2.09,-1.01 4.39,-0.85 1.84,0.92 2.78,1.39 3.71,1.85 0.67,1.01 1.35,2.02 2.02,3.04 0.85,0.64 1.69,1.27 2.45,1.84 0.95,-0.52 1.66,-0.9 3.37,-1.83l-5.82 0c0.24,-0.55 0.48,-1.1 0.88,-2.03 -0.99,-0.34 -1.95,-0.67 -2.91,-1.01 0.32,-0.32 0.65,-0.92 0.97,-0.92 3.79,0.1 7.46,0.8 10.84,2.2l0 6.08c0.09,1.97 1.38,3.76 0.45,6 -0.32,0.77 0.18,1.91 0.41,2.86 0.57,2.28 0.93,4.53 -0.56,6.72 -3.08,0.9 -5.88,0 -8.71,-1.07 0.85,-0.66 1.68,-1.3 2.52,-1.95 -0.07,-0.18 -0.13,-0.37 -0.2,-0.55 -2.41,0.58 -4.82,1.16 -7.1,1.71 -0.61,-0.68 -1.14,-1.26 -1.66,-1.83 -1.22,-1.37 -1.84,-1.36 -3.05,0.02z"/>
    <path class="fil0" d="M180 210.15c0.64,0.53 1.03,0.86 1.42,1.19 0.24,-0.5 0.49,-1.01 0.98,-2.03 -1.12,0.39 -1.54,0.54 -2.41,0.85zm-9.04 -14.27c0.5,-1.05 0.76,-1.59 1.01,-2.12 -0.52,-0.08 -1.04,-0.15 -1.86,-0.27 0.31,0.87 0.46,1.29 0.85,2.39zm5.08 -25.94c-0.72,0.66 -1.17,1.07 -1.87,1.72 0.51,0.53 0.93,0.96 1.87,1.93l0 -3.65zm-22.66 130.69c-0.05,0.21 -0.1,0.42 -0.16,0.62 0.87,0.28 1.73,0.57 2.6,0.85 0.07,-0.31 0.15,-0.62 0.22,-0.93 -0.89,-0.18 -1.77,-0.36 -2.66,-0.54zm33.99 -65.04c0.48,1.03 0.72,1.55 0.96,2.06 0.4,-0.33 0.81,-0.65 1.47,-1.19 -0.88,-0.32 -1.31,-0.47 -2.43,-0.88zm-8.82 -3.22c-0.56,1.39 -1.02,2.1 -1.07,2.83 -0.04,0.59 0.8,1.39 0.61,1.78 -1.63,3.38 -0.5,6.95 -0.84,10.41 -0.1,1 0.25,2.12 -0.08,3.01 -1.57,4.24 -0.3,8.69 -1.05,12.92 -0.8,4.48 -0.84,8.94 -0.91,13.44 -0.03,1.68 0.18,3.43 -0.24,5.01 -1.45,5.45 -0.42,10.91 -0.78,16.55l9.35 0c-0.41,-2.18 -1.03,-4.06 -1.08,-5.94 -0.19,-8.52 0.1,-17.05 -1.01,-25.55 -0.43,-3.31 -0.01,-6.73 -0.14,-10.09 -0.07,-1.8 -0.68,-3.57 -0.74,-5.37 -0.18,-4.8 -0.73,-9.61 0.24,-13.97 -0.73,-1.62 -1.33,-2.95 -2.26,-5.04zm35.46 72.83c-8.74,2.66 -16.9,4.8 -24.8,7.66 -4.9,1.77 -9.78,1.85 -14.77,1.75 -0.95,-0.02 -1.9,-0.51 -2.83,-0.81 -6.91,-2.25 -13.82,-4.5 -20.73,-6.76 -1.88,-0.61 -3.75,-1.24 -6.04,-1.99 8.62,-45.62 18.3,-91 27.17,-136.71 5.05,-0.65 9.9,-0.13 15.16,-0.36 1.09,4.86 2.2,9.65 3.23,14.46 1.31,6.12 2.63,12.24 3.8,18.39 1.2,6.33 1.94,12.75 3.41,19.02 1.28,5.47 2.22,10.99 3.2,16.51 0.83,4.7 1.82,9.38 2.77,14.06 0.89,4.36 1.89,8.69 2.7,13.06 0.87,4.71 1.5,9.47 2.37,14.18 1.11,5.99 2.39,11.95 3.57,17.92 0.6,3.07 1.15,6.15 1.79,9.65z"/>
    <path class="fil0" d="M54.68 224.15c-0.27,-0.02 -0.54,-0.04 -0.81,-0.06 0.08,1.08 0.17,2.15 0.25,3.23 0.18,-0.01 0.37,-0.02 0.55,-0.03l0 -3.13zm16.58 -6.62c-1.04,0.47 -1.56,0.71 -2.07,0.94 0.32,0.41 0.64,0.81 1.17,1.48 0.33,-0.88 0.49,-1.31 0.9,-2.43zm76.15 -7.17c-1.7,0.25 -2.44,0.37 -3.69,0.55 0.91,0.72 1.35,1.07 1.81,1.43 0.47,-0.49 0.78,-0.83 1.89,-1.99zm-10.98 -4.9c0.08,-0.69 0.14,-1.22 0.3,-2.58 -1.09,0.87 -1.57,1.26 -2.32,1.85 0.9,0.32 1.33,0.47 2.02,0.72zm-22.31 -7.87c-1.05,-0.5 -1.59,-0.75 -2.12,-1 -0.08,0.52 -0.16,1.04 -0.28,1.86 0.87,-0.31 1.3,-0.47 2.4,-0.86zm-14.06 15.28c0.55,-0.66 0.88,-1.06 1.21,-1.46 -0.51,-0.25 -1.02,-0.5 -2.02,-0.99 0.37,1.11 0.51,1.54 0.81,2.45zm-54.63 35.41c0.55,-0.67 0.88,-1.06 1.2,-1.46 -0.51,-0.24 -1.01,-0.49 -2.02,-0.97 0.37,1.11 0.51,1.53 0.82,2.43zm3.18 -19.82c-0.99,0.67 -1.53,1.03 -2.31,1.56 1.21,0.88 1.62,1.19 2.31,1.68l0 -3.24zm-4.54 26.99c-0.87,-3.01 -1.93,-2.46 -3.8,-1.92 1.4,0.71 2.15,1.08 3.8,1.92zm-5.14 -11.44l0 2.62c0.2,0.05 0.4,0.09 0.59,0.14 0.35,-0.85 0.7,-1.69 1.12,-2.7 -0.68,-0.02 -0.84,-0.03 -1.72,-0.05zm4.11 -5.84c-1.28,-0.12 -2.14,-0.21 -4.09,-0.39 1.6,1.16 2.3,1.66 3.01,2.18 0.31,-0.51 0.47,-0.78 1.08,-1.78zm39.81 -20.29c0.12,-1.28 0.2,-2.14 0.39,-4.08 -1.16,1.6 -1.66,2.29 -2.18,3.01 0.52,0.31 0.78,0.47 1.79,1.08zm28.39 -15.38c-1.86,0.11 -2.6,0.9 -2.63,2.88 1.19,-0.66 2.08,-1.15 2.83,-1.57 -0.09,-0.59 -0.12,-0.75 -0.2,-1.31zm-58.96 11.3c-1.03,1.53 -1.63,2.42 -2.66,3.94 2.35,-0.54 3.45,-1.08 2.66,-3.94zm6.45 26.97c-3.06,1.57 -3.31,1.94 -2.19,2.98 1.49,-0.1 2.27,-0.84 2.19,-2.98zm20.85 -34.18c-0.42,0.44 -0.85,0.89 -1.36,1.43 0.74,0.93 1.39,1.74 2.13,2.67 1.4,-1.94 0.76,-3.08 -0.77,-4.1zm-39.64 26.34c2.04,1.26 3.18,1.96 4.62,2.85l0 -2.85 -4.62 0zm75.13 -15.66c-0.36,-0.54 -0.72,-1.07 -1.3,-1.94 -0.71,0.76 -1.33,1.41 -2.04,2.17 -3.01,-0.19 -6.23,0.7 -8.91,-0.66 -2.08,0.32 -3.86,0.6 -5.62,0.87 -0.51,-0.72 -0.88,-1.25 -1.24,-1.77 -2.29,2.91 -5.39,1.09 -8,1.59 -0.58,-0.79 -1.04,-1.41 -1.92,-2.62 -0.55,1.49 -0.85,2.32 -1.23,3.34 -5.6,0.75 -10.64,3.33 -15.17,6.68 -2.48,1.83 -4.42,4.53 -6.25,7.1 -1.41,1.98 -2.99,4.32 -3.12,6.58 -0.11,1.86 -0.48,3.78 -0.41,5.71 0.32,8.69 4.03,15.76 10.4,21.37 3.74,3.3 8.09,5.83 13.19,6.66 1.78,0.29 3.56,0.87 5.34,0.89 8.25,0.1 16.51,-0.03 24.77,0.06 8.59,0.08 16.45,-1.93 23.18,-7.5 0.19,-0.15 0.52,-0.14 0.78,-0.2 1.09,4.41 -0.06,8.71 -0.97,12.86 -0.85,3.88 -4.34,6.33 -7.35,8.69 -6.22,4.87 -13.36,8.22 -21.01,9.88 -7.11,1.55 -14.38,2.45 -21.76,0.69 -3.2,-0.76 -6.48,-1.19 -9.61,-2.3 -11.4,-4.06 -20.15,-11.79 -27.84,-20.7 -4.33,-5.02 -7.67,-10.87 -9.57,-17.36 -0.92,-3.15 -1.81,-6.32 -2.6,-9.51 -0.24,-0.96 -0.18,-2.02 -0.07,-3.02 0.86,-8.11 2.38,-16.04 6.62,-23.19 0.16,-0.27 0.49,-0.45 0.74,-0.67 2.48,0.63 1.19,3.1 2.3,4.98 0.26,-1.6 0.44,-2.72 0.69,-4.22 0.82,0.21 1.54,0.4 2.46,0.63 0.26,-0.29 0.67,-0.75 1.11,-1.26 -1.83,-1.12 -4.36,0.5 -5.84,-2.3 4.67,-5.01 9.44,-10.13 14.1,-15.13 1.33,-0.13 2.32,-0.23 3.31,-0.33 0.66,-0.92 1.32,-1.84 2.06,-2.87 0.52,0.69 0.88,1.17 1.29,1.72 0.3,-0.97 0.58,-1.89 0.9,-2.96 5.3,-2.79 10.88,-4.67 16.75,-5.96 6.22,-1.36 12.43,-2.2 18.79,-2.02 1.27,0.04 2.57,-0.52 4.11,-0.86 3.22,1.69 7,0.57 10.76,1.08 0.52,0.94 1.09,1.96 1.65,2.97 0.2,-0.07 0.4,-0.15 0.6,-0.22 -0.04,-0.53 -0.08,-1.05 -0.15,-2.06 2.02,0.41 3.92,0.76 5.8,1.19 6.07,1.36 11.73,3.55 16.46,7.79 4.65,4.17 7.44,9.19 7.72,15.52 0.06,1.3 0.4,2.58 0.67,4.24 -0.52,2.95 -1.12,6.31 -1.79,10.13 -9.17,-9.94 -20.5,-13 -32.79,-13.73z"/>
    <path class="fil0" d="M177.81 19.25c0.47,-1.02 0.85,-1.84 1.3,-2.84 -1.64,0.65 -1.64,0.65 -1.3,2.84zm-5.32 -3.59c-0.5,1.07 -0.75,1.6 -1,2.14 0.53,0.08 1.06,0.15 1.88,0.28 -0.32,-0.88 -0.47,-1.31 -0.88,-2.42zm16.24 -1.42l0.75 -1.04c-0.57,-0.27 -1.14,-0.54 -1.71,-0.81 -0.15,0.23 -0.29,0.47 -0.44,0.7 0.47,0.38 0.93,0.76 1.39,1.14zm-1.94 -5.12c-0.08,0.68 -0.15,1.22 -0.31,2.56 1.09,-0.86 1.56,-1.24 2.31,-1.83 -0.9,-0.32 -1.32,-0.48 -2.01,-0.73zm5.86 0.31c0.6,-0.13 1.33,-0.3 2.41,-0.54 -1.29,-0.94 -1.71,-1.25 -2.41,-1.76l0 2.29zm6.28 57.35c-0.08,0.69 -0.14,1.22 -0.29,2.57 1.08,-0.87 1.56,-1.24 2.3,-1.84 -0.9,-0.32 -1.32,-0.48 -2.02,-0.73zm6.71 -13.42c-0.35,-0.25 -0.69,-0.5 -1.04,-0.75 -0.27,0.57 -0.54,1.14 -0.81,1.71l0.7 0.43c0.38,-0.46 0.76,-0.93 1.14,-1.39zm-4.89 -13.89c-1.02,0.47 -1.54,0.71 -2.05,0.95 0.32,0.4 0.64,0.8 1.17,1.46 0.32,-0.87 0.47,-1.29 0.87,-2.41zm-2.41 21.76c-1.82,0.74 -1.82,0.74 -2.04,3.41 0.98,-1.64 1.51,-2.53 2.04,-3.41zm-36.29 -5.23c-1.06,1.55 -1.56,2.27 -2.18,3.18 0.79,0.23 1.22,0.36 1.98,0.58 0.06,-1.03 0.1,-1.9 0.2,-3.76zm-1.28 35c-0.16,0.35 -0.32,0.7 -0.47,1.05 0.84,0.3 1.68,0.59 2.52,0.89 0.12,-0.32 0.24,-0.63 0.36,-0.95 -0.8,-0.33 -1.6,-0.65 -2.4,-0.98zm-8.45 -36.12c2.72,1.23 3.73,0.66 4.84,-1.55 -1.76,0.56 -2.84,0.91 -4.84,1.55zm48.63 2.85l0 -4.91c-1.59,1.37 -2.62,3.79 -1.82,4.76 0.48,0.04 1.11,0.09 1.82,0.15zm-32.21 33.24c0.49,-2.73 1.25,-5.45 1.42,-8.2 0.49,-8.17 0.75,-16.36 1.1,-24.55 0.32,-7.47 0.64,-14.94 0.96,-22.54l14.75 0c0.48,5.17 1.05,10.11 1.36,15.07 0.41,6.49 0.02,12.98 0.84,19.51 0.6,4.74 0.94,9.59 1.33,14.4 0.04,0.49 0.53,0.95 1.22,2.11 0.41,-1.38 0.74,-1.95 0.73,-2.51 -0.19,-9.69 0.67,-19.29 1.95,-28.89 0.65,-4.93 0.13,-9.96 1.05,-14.95 0.84,-4.53 0.94,-9.19 1.36,-13.71 0.97,-0.3 1.74,-0.54 3.59,-1.12 -13.38,-0.8 -25.58,-0.01 -38.13,1.31 0.37,1.23 0.69,1.95 0.78,2.7 0.12,1 0,2.02 0.09,3.02 0.33,3.64 0.14,7.45 1.22,10.85 1.35,4.23 0.56,8.54 1.58,12.8 1.19,4.95 0.89,10.25 1.26,15.4 0.05,0.65 0.19,1.31 0.34,1.95 0.91,3.95 1.03,7.86 -0.03,11.83 -0.48,1.8 -0.83,3.79 1.25,5.5zm34.29 0.75c-0.82,-0.08 -1.38,-0.13 -2.31,-0.22 -0.29,0.46 -0.75,1.22 -1.44,2.35 1.3,-0.28 2.03,-0.43 3.05,-0.65l0 7.49c-0.5,0.37 -0.97,0.72 -1.47,1.1 0.52,0.32 0.94,0.58 0.83,0.51l0 10.66c-4.12,-0.22 -7.72,-0.49 -11.32,-0.59 -3.7,-0.1 -7.41,-0.02 -11.12,-0.03 -3.71,-0 -7.41,-0.09 -11.12,0.02 -3.5,0.11 -7,0.43 -10.71,0.67 -0.48,-3.96 -0.98,-8.04 -1.47,-12.06 0.64,-0.41 1.05,-0.67 1.87,-1.2 -0.56,-0.42 -1.06,-0.8 -1.7,-1.29 -0.35,-5.37 -0.67,-10.86 -1.09,-16.34 -0.17,-2.13 -1.09,-4.33 -0.74,-6.34 0.37,-2.19 -0.15,-4.22 -0.36,-6.23 -0.75,-7.43 -1.46,-14.86 -2.07,-22.32 -0.5,-6.09 -1.23,-12.2 -2.04,-18.26 -1.09,-8.12 -1.93,-16.19 -1.86,-24.37 0.01,-1 0,-1.99 0,-3.41 4.61,-0.38 9.04,-1 13.48,-1.08 9.6,-0.17 19.21,-0.22 28.8,-0.04 7.32,0.13 14.64,0.69 22.31,1.08 -0.01,2.32 0.6,4.41 -0.62,6.48 -0.31,0.52 -0.23,1.3 -0.24,1.97 -0.02,5.83 -1.05,11.54 -1.95,17.28 -0.67,4.26 -0.72,8.61 -1.15,12.91 -0.21,2.13 -0.73,4.23 -0.95,6.36 -0.22,2.14 0.01,4.24 -0.82,6.4 -0.62,1.61 -0.12,3.64 -0.12,5.29 -1.19,0.88 -2.1,1.56 -3.27,2.42 0.75,1.2 1.42,2.27 2.03,3.25 -0.3,4.59 -0.53,9.11 -0.92,13.61 -0.4,4.62 -0.95,9.23 -1.52,14.56z"/>
    <path class="fil0" d="M291.93 224.67c0.25,-0.35 0.5,-0.7 0.75,-1.04 -0.57,-0.27 -1.15,-0.54 -1.72,-0.81 -0.14,0.24 -0.29,0.47 -0.43,0.71 0.47,0.38 0.94,0.76 1.4,1.14zm6.69 -3.4c0.22,1.49 0.33,2.26 0.5,3.4 0.72,-0.76 1.06,-1.11 1.5,-1.58 -0.5,-0.45 -0.95,-0.87 -2,-1.83zm-3.61 3.25c0.17,-0.06 0.35,-0.12 0.52,-0.18 -0.09,-0.53 -0.07,-1.14 -0.32,-1.58 -0.22,-0.4 -0.75,-0.62 -1.14,-0.92 -0.17,0.18 -0.35,0.37 -0.52,0.55 0.49,0.71 0.98,1.42 1.47,2.13zm-8.03 -5.2c1.1,0.53 1.68,0.81 2.77,1.33 -0.38,-1.12 -0.52,-1.54 -0.7,-2.05 -0.54,0.19 -0.96,0.34 -2.07,0.72zm-21.58 -3.12c0.21,0.05 0.42,0.11 0.62,0.16 0.29,-0.87 0.58,-1.74 0.86,-2.61l-0.93 -0.22c-0.19,0.89 -0.37,1.78 -0.56,2.68zm28.05 -4.89c-0.22,0.5 -0.32,0.74 -0.51,1.19 0.74,0.34 1.47,0.68 2.21,1.02 0.11,-0.19 0.23,-0.39 0.34,-0.59 -0.66,-0.53 -1.32,-1.05 -2.04,-1.62zm-73.7 -0.51c0.35,0.25 0.7,0.5 1.05,0.75 0.27,-0.57 0.54,-1.15 0.8,-1.72 -0.24,-0.14 -0.47,-0.29 -0.71,-0.43 -0.38,0.47 -0.76,0.94 -1.14,1.4zm35.1 -5.71c0.65,0.54 1.04,0.86 1.43,1.19 0.24,-0.51 0.49,-1.01 0.98,-2.04 -1.12,0.4 -1.54,0.54 -2.41,0.85zm38.59 0.38c1.03,-0.47 1.54,-0.71 2.06,-0.95 -0.32,-0.4 -0.64,-0.8 -1.17,-1.47 -0.32,0.88 -0.48,1.3 -0.89,2.41zm-45.64 -3.09c-0.25,0.35 -0.51,0.69 -0.76,1.04 0.57,0.27 1.15,0.55 1.72,0.82 0.15,-0.24 0.29,-0.47 0.44,-0.7 -0.47,-0.39 -0.93,-0.77 -1.4,-1.16zm18.48 -2.4c0.68,0.08 1.21,0.15 2.54,0.31 -0.86,-1.08 -1.24,-1.56 -1.83,-2.3 -0.32,0.89 -0.47,1.31 -0.72,1.99zm37.86 62.94c0.2,-0.18 0.41,-0.36 0.61,-0.54 -0.17,-0.42 -0.25,-0.91 -0.53,-1.25 -0.28,-0.34 -0.76,-0.52 -1.15,-0.78 -0.16,0.19 -0.31,0.38 -0.47,0.58 0.51,0.66 1.02,1.33 1.53,1.99zm13.33 -15.74c-1.1,-0.53 -1.67,-0.8 -2.76,-1.33 0.38,1.11 0.53,1.53 0.7,2.04 0.53,-0.18 0.95,-0.33 2.06,-0.72zm-5.81 19.78c-1.12,1.19 -1.87,1.99 -3.06,3.24 2.35,-0.28 3.15,-1.02 3.06,-3.24zm-25.23 -55.47c1.36,0.03 3.23,0.36 2.93,-1.94 -1.13,0.75 -2.03,1.35 -2.93,1.94zm-3.11 0.39c-1.83,0.85 -1.83,0.85 -2.05,3.47 0.96,-1.63 1.5,-2.55 2.05,-3.47zm-3.42 -4.82c-0.14,1.03 -0.21,1.57 -0.3,2.24l3.29 0c-1.25,-0.93 -1.94,-1.45 -2.99,-2.24zm8.53 -0.15c1.22,0.54 2.08,0.92 2.94,1.29 0.13,-0.2 0.26,-0.41 0.39,-0.62 -0.54,-0.67 -1.07,-1.33 -1.72,-2.13 -0.61,0.55 -0.97,0.87 -1.61,1.45zm-26.76 2.82c-1.72,0.24 -2.6,0.94 -2.17,2.59 2.32,0.25 1.63,-1.71 2.17,-2.59zm-12.97 -10.63c0.18,-0.22 0.36,-0.44 0.54,-0.66 -0.7,-1.09 -1.4,-2.19 -2.32,-3.63 -0.86,0.85 -1.32,1.3 -1.83,1.8 1.38,0.95 2.49,1.72 3.6,2.48zm59.57 30.5c0.05,-0.84 0.1,-1.67 0.15,-2.46 -0.73,-0.54 -1.54,-1.07 -2.25,-1.7 -0.59,-0.53 -1.06,-1.2 -1.58,-1.81 -0.29,0.2 -0.58,0.41 -0.87,0.61 0.53,2.28 3.23,3.24 4.56,5.36zm1.56 -14.05c0.71,0.61 1.42,1.21 2,1.71 -1.01,3.81 -4.82,2.98 -7.03,5.13 3.44,0.52 5.96,-1.11 8.73,-2.64 3.93,5.25 5.32,11.52 7.33,17.49 -0.42,0.24 -0.58,0.4 -0.69,0.38 -0.62,-0.14 -1.23,-0.32 -2.04,-0.54 -0.08,0.67 -0.15,1.3 -0.24,2.12 0.94,0.37 1.81,0.71 2.77,1.08 0.92,6.34 0.01,12.47 -2.11,18.54 -0.6,-0.24 -0.9,-0.37 -1.78,-0.73 0.41,1.23 0.7,2.08 1.02,3.04 -3.54,8.61 -9.32,15.74 -16.31,21.8 -6.56,5.69 -13.94,10.24 -22.22,13.11 -2.01,0.7 -4.15,1.06 -6.26,1.38 -2.95,0.44 -5.93,0.97 -8.89,0.96 -3.13,-0 -6.33,-0.31 -9.39,-0.96 -6.96,-1.49 -13.91,-3.12 -20.14,-6.78 -2.72,-1.6 -5.4,-3.29 -7.95,-5.14 -1.34,-0.97 -2.51,-2.28 -3.49,-3.63 -0.87,-1.2 -1.38,-2.66 -2.24,-4.39 0.51,-3.76 -2.12,-7.69 -0.62,-12.31 0.69,0.35 1.41,0.57 1.95,1.01 5.48,4.43 11.73,6.92 18.77,7.05 8.42,0.15 16.86,0.02 25.28,0.04 8.32,0.02 15.83,-2.43 21.96,-8.06 6.42,-5.89 11,-12.89 10.44,-22.15 -0.11,-1.79 -0.58,-3.56 -0.9,-5.43 0.51,-0.46 1.06,-0.94 1.9,-1.69 -0.89,-0.35 -1.53,-0.59 -2.79,-1.08 -0.75,-1.6 -1.82,-3.88 -2.93,-6.25 -3.59,-2.46 -7.28,-4.99 -11.03,-7.56 0.14,-0.49 0.35,-1.21 0.86,-3.01 -1.51,1.11 -2.15,1.6 -2.89,2.14 -1.02,-0.3 -2.27,-0.67 -3.48,-1.03 -0.75,-1.16 -1.47,-2.26 -2.22,-3.41 -0.92,0.61 -1.67,1.11 -3.02,2.01 0.42,-1.38 0.63,-2.1 0.87,-2.89 -2.41,-0.67 -1.15,1.9 -2.75,2.72 -3.74,0 -8.1,-0 -12.46,0 -5.56,0 -11.13,0.03 -16.69,0 -8.01,-0.03 -15.47,2.13 -22.29,6.16 -2.91,1.71 -6.14,3.36 -7.94,7.17 -0.5,-1.22 -1.14,-2.08 -1.16,-2.95 -0.11,-4.38 -0.46,-8.81 0.03,-13.14 0.54,-4.81 2.6,-9.13 6.34,-12.53 6.8,-6.18 14.8,-9.28 23.88,-10 3.12,-0.25 6.22,-0.86 9.19,-1.29 0.63,0.93 0.99,1.47 1.46,2.17l3.08 0c-0.05,-0.38 -0.1,-0.77 -0.18,-1.39 1.83,-0.14 3.73,-0.29 5.78,-0.45 0.73,0.53 1.53,1.11 2.36,1.71 0.37,-0.47 0.73,-0.93 1.24,-1.58 0.8,1.02 1.56,1.99 3.02,3.86 -0.2,-1.61 -0.27,-2.11 -0.39,-3.06 12.68,1.31 24.22,5.05 34.1,13.22 -0.49,0.05 -0.99,0.1 -1.51,0.16 -0.4,0.73 -0.95,1.41 -1.14,2.18 -0.12,0.5 0.28,1.13 0.68,2.45 0.9,-2.15 1.44,-3.47 1.99,-4.78 0.29,0.14 0.62,0.24 0.88,0.43 0.26,0.19 0.47,0.47 0.79,0.81 -0.18,0.67 -0.38,1.4 -0.57,2.11 0.3,0.21 0.57,0.55 0.8,0.53 3.46,-0.34 3.88,-0.1 5.18,3.19 -0.62,0.09 -1.24,0.17 -2.87,0.4 1.36,0.83 1.91,1.16 2.69,1.63 0.09,-1.04 0.14,-1.54 0.18,-2.03 2.25,-0.22 2.14,1.91 3.04,3.04 -1.29,-0.01 -2.53,0.06 -2.41,2.52 1.01,-1.06 1.71,-1.8 2.4,-2.53z"/>
    <path class="fil0" d="M270.51 517.4c0.06,0.17 0.12,0.34 0.17,0.51 0.53,-0.1 1.13,-0.07 1.57,-0.32 0.4,-0.22 0.62,-0.75 0.92,-1.13 -0.18,-0.17 -0.36,-0.34 -0.54,-0.51 -0.71,0.48 -1.42,0.97 -2.13,1.45zm-19.38 -2.09c0.35,0.25 0.7,0.51 1.05,0.76 0.27,-0.57 0.54,-1.14 0.81,-1.72 -0.23,-0.15 -0.47,-0.29 -0.7,-0.44 -0.39,0.46 -0.77,0.93 -1.16,1.39zm-26.17 -12.99c-0.85,-0.63 -1.26,-0.94 -1.95,-1.45l0 3.03c0.73,-0.59 1.16,-0.94 1.95,-1.58zm6.98 -15.1c-1.49,-0.58 -2.62,-1 -3.09,1.31 1.18,-0.5 2.01,-0.85 3.09,-1.31zm-0.41 -27.94c0.46,-0.57 0.81,-1.01 1.58,-1.95 -1.37,0.14 -2.15,0.22 -3.43,0.34 0.87,0.76 1.31,1.14 1.85,1.61zm11.13 -13.72c-0.4,1.35 -1.38,2.83 1.06,4.01 -0.44,-1.67 -0.75,-2.84 -1.06,-4.01zm32.31 67.16c-5.13,-12.77 -9.91,-24.7 -14.71,-36.62 -0.05,-0.12 -0.28,-0.2 -0.44,-0.22 -0.11,-0.01 -0.24,0.12 -0.81,0.43 1.41,8.54 2.84,17.26 4.22,25.61 -0.88,0.96 -1.45,1.59 -2.49,2.73 1.5,-0.32 2.23,-0.47 3.22,-0.68 0.52,3.76 0.26,7.67 2.54,10.81 2.74,-0.67 5.26,-1.28 8.46,-2.06zm-55.19 -54.41c0.87,-0.88 1.49,-1.51 2.69,-2.73 -1.6,0.33 -2.31,0.48 -3.14,0.66 -0.19,-3.4 -0.38,-6.74 -0.55,-9.94 1.35,-1.78 3.07,-2.08 4.97,-2.04 2.19,0.04 4.39,0.08 6.57,-0.04 5.96,-0.34 11.9,-0.79 17.81,-1.86 4.07,-0.74 8.25,-0.91 12.11,-1.3 3.12,6.98 6.13,13.62 9.06,20.29 6.48,14.73 13.08,29.4 18.35,44.63 2.22,6.41 4.94,12.65 7.35,19 0.45,1.19 0.54,2.51 0.87,4.17 -1.97,0.76 -3.58,1.59 -5.29,2 -9.94,2.36 -19.89,4.7 -29.87,6.86 -3.23,0.7 -6.58,0.82 -9.86,1.29 -2.1,0.3 -4.18,0.74 -6.39,1.14 -3.62,-5.48 -7.09,-10.73 -10.62,-16.06 5.42,-19.24 10.81,-38.37 16.52,-58.63 -3.79,2.75 -3.86,6.27 -5.2,9 -1.37,2.8 -2.09,5.92 -3.23,8.85 -1.21,3.09 -2.66,6.08 -3.88,9.17 -1.15,2.93 -1.79,6.1 -3.27,8.83 -1.6,2.93 -2.44,6.11 -3.8,9.1 -1.29,2.87 -2.41,5.82 -3.54,8.57 -1.93,0.96 -3.56,1.78 -5.69,2.84 -0.33,-9.12 -0.66,-17.95 -0.95,-26.78 -0.11,-3.33 0.04,-6.64 -0.91,-9.93 -0.82,-2.84 0.44,-5.77 0.06,-8.74 -0.4,-3.15 -0.15,-6.39 -0.17,-9.6 -0.01,-3.02 -0,-6.05 -0,-8.74z"/>
    <path class="fil0" d="M99.89 78.9c0.42,-0.02 0.85,-0.04 1.27,-0.06 0.09,-1.45 0.24,-2.9 0.25,-4.35 0.04,-8.9 -0,-17.79 0.1,-26.68 0.03,-2.45 0.45,-4.9 0.72,-7.75 -0.34,-0.63 -0.88,-1.62 -1.51,-2.77 -3.25,0.9 -6.35,1.76 -9.81,2.71 3.05,13.21 6.01,26.05 8.98,38.9zm-3.31 32.31c-1.4,-4.38 -2.97,-8.73 -4.16,-13.17 -4.11,-15.3 -9.32,-30.27 -13.45,-45.58 -2.45,-9.08 -6.06,-17.84 -9.14,-26.75 -0.96,-2.79 -1.88,-5.61 -2.9,-8.65 4.62,-2.64 9.9,-2.43 14.76,-3.37 4.89,-0.94 9.85,-2.75 15.98,-2.13 6.34,-2.1 11.5,-2.74 18.85,-2.05 2.97,5 6.02,10.14 9.01,15.18 -5.69,19.73 -11.33,39.31 -17.14,59.49 1.77,-1.24 2.63,-2.16 3.23,-3.66 2.88,-7.24 6.01,-14.38 8.99,-21.59 3.17,-7.66 6.28,-15.35 9.44,-23.01 0.38,-0.92 0.94,-1.77 1.54,-2.88 1.74,-0.86 3.65,-1.8 5.96,-2.94 0.09,1.92 0.21,3.39 0.21,4.86 0.03,16.35 -0.04,32.7 0.11,49.05 0.06,6.51 0.62,13.01 0.92,19.52 0.08,1.68 0.01,3.37 0.01,5.39 -1.36,0.11 -2.64,0.29 -3.92,0.31 -3.54,0.05 -7.11,-0.26 -10.61,0.11 -5.93,0.63 -11.91,0.64 -17.82,1.76 -3.07,0.58 -6.35,0.1 -9.87,0.1z"/>
    <path class="fil0" d="M113.91 534.59c-0.67,-0.55 -1.06,-0.88 -1.45,-1.2 -0.25,0.51 -0.49,1.01 -0.98,2.02 1.11,-0.37 1.53,-0.51 2.43,-0.82zm-6.21 -54.08l0 3.28c0.76,-0.71 1.21,-1.13 1.75,-1.64 -0.53,-0.5 -0.98,-0.92 -1.75,-1.64zm-10.91 -13.29c1.06,0.5 1.59,0.75 2.13,1 0.08,-0.53 0.16,-1.05 0.28,-1.87 -0.87,0.32 -1.3,0.47 -2.41,0.87zm15.39 -3.84c-0.15,0.32 -0.3,0.64 -0.44,0.96 0.78,0.32 1.55,0.63 2.32,0.95 0.1,-0.23 0.2,-0.46 0.3,-0.69 -0.72,-0.41 -1.45,-0.81 -2.18,-1.22zm-6.85 -1.85c0.31,0.3 0.63,0.6 0.94,0.89 0.37,-0.5 0.74,-1 1.11,-1.5 -0.21,-0.19 -0.41,-0.38 -0.62,-0.56 -0.48,0.39 -0.95,0.78 -1.43,1.17zm-7.83 -6.85c0.06,0.17 0.12,0.35 0.18,0.52 0.53,-0.1 1.13,-0.09 1.57,-0.34 0.39,-0.22 0.63,-0.74 0.93,-1.12 -0.18,-0.17 -0.36,-0.35 -0.54,-0.52 -0.71,0.49 -1.42,0.98 -2.13,1.46zm15.79 -8.23c-1.57,0.6 -1.57,0.6 -1.23,2.76 0.44,-0.99 0.8,-1.81 1.23,-2.76zm17.84 48.13c-0.86,0.61 -1.56,1.11 -3.15,2.24 1.93,-0.16 2.79,-0.24 3.83,-0.32 -0.26,-0.74 -0.41,-1.17 -0.67,-1.92zm-14.75 -49.09c0.34,2.03 0.47,2.85 0.64,3.86 0.71,-0.32 1.1,-0.5 1.83,-0.83 -0.65,-0.8 -1.17,-1.43 -2.47,-3.03zm-6.02 11.72c-0.23,0.29 -0.46,0.59 -0.69,0.88 0.84,0.66 1.68,1.33 2.51,1.99 0.18,-0.24 0.37,-0.47 0.55,-0.71 -0.79,-0.72 -1.58,-1.44 -2.38,-2.16zm18.99 -1.41c2.05,-0.91 3.11,-1.38 4.47,-1.99 -1.99,-0.93 -2.99,-0.31 -4.47,1.99zm-45.23 75.33c0.11,0.26 0.22,0.52 0.32,0.78 0.67,-0.22 1.32,-0.51 2,-0.64 0.93,-0.19 2.09,-0.08 1.46,-1.84 -1.3,0.58 -2.54,1.15 -3.78,1.7zm29.3 -14.1c0.1,0.21 0.19,0.41 0.28,0.62 1.21,-0.32 2.43,-0.63 3.8,-0.99 -0.48,-0.55 -0.79,-0.9 -1.31,-1.51 -0.94,0.63 -1.86,1.26 -2.78,1.88zm-7.18 -69.6c1.19,1.13 1.98,1.87 3.29,3.1 -0.1,-1.54 -0.14,-2.27 -0.2,-3.1l-3.1 0zm4.85 4.5c-1.86,-0.15 -3.05,-0.24 -4.63,-0.37 1.49,1.88 2.66,2.32 4.63,0.37zm-30.09 72.6c0.71,0.24 1.14,0.39 1.8,0.62 0.44,-1.62 0.84,-3.13 1.24,-4.63 -0.25,-0.09 -0.51,-0.18 -0.76,-0.27 -0.73,1.38 -1.47,2.76 -2.28,4.28zm18.87 -51.63c-3.65,6.91 -5.82,13.61 -8.22,20 -1.24,0.85 -2.32,1.59 -3.44,2.35 0.38,1.09 0.7,1.99 0.9,2.57 -1.76,4.93 -3.41,9.56 -5.1,14.28 0.64,0.7 1.18,1.29 1.58,1.73l6.84 0c4.29,-12.67 4.47,-26 7.9,-38.64 0.11,-0.41 -0.18,-0.93 -0.48,-2.29zm24.81 -27.69c1.42,-0.36 2.84,-0.72 4.47,-1.13l0 2.99c0.24,0.07 0.48,0.14 0.72,0.2 0.45,-0.9 0.91,-1.8 1.46,-2.88 1.6,0.37 3.31,0.76 4.91,1.12 0.77,0.85 1.47,1.61 2.18,2.38 -0.86,0.31 -1.71,0.62 -3.13,1.14 1.55,0.99 2.58,1.65 3.61,2.31 -0.09,0.24 -0.19,0.48 -0.28,0.72 -0.85,-0.11 -1.7,-0.22 -2.75,-0.36 0.16,0.5 0.21,1.21 0.44,1.28 1.07,0.31 2.2,0.44 3.26,0.63 0.27,2.78 -1.94,2.4 -3.7,3.18 1.07,0.39 1.85,0.67 3.09,1.12 -0.18,9.11 -0.32,18.32 -0.55,27.53 -0.1,3.89 -0.42,7.78 -0.62,11.67 -0.4,7.83 -0.78,15.65 -1.16,23.48 -2.06,1.1 -3.64,-0.02 -5.55,-0.88 -7.14,-16.8 -13.21,-34.25 -19.24,-51.88 -1.09,-0.14 -2,-0.26 -2.94,-0.39 2.44,6.2 3.73,12.41 5.16,18.63 -1.5,1.11 -2.11,2.55 -0.81,4.99 0.55,-1 0.9,-1.63 1.26,-2.28 0.32,0.21 0.76,0.34 0.81,0.57 1.85,7.35 3.65,14.71 5.47,22.07 1.11,4.47 3.43,8.68 2.74,14.02 -1.54,2.77 -3.15,6.07 -5.17,9.1 -1.06,1.59 -2.84,2.7 -4.48,4.2 0.06,0.19 0.19,0.62 0.4,1.28l-5.61 0c-0.49,-0.7 -1.04,-1.5 -1.64,-2.36 -0.45,0.48 -0.93,0.99 -1.65,1.75 -0.47,-0.57 -0.85,-1.03 -1.43,-1.75 -2.99,1.74 -6.12,0.04 -9.25,-0.5 -3.11,-0.54 -6.4,-0.69 -9.26,-2.27 0.24,-0.66 0.35,-0.96 0.45,-1.26 -8.45,1.1 -16.03,-1.94 -24.04,-4.64 10.73,-30.27 23.23,-59.44 35.97,-88.94 3.82,1.81 8.74,-0.36 12.04,4.95 0.07,-1.35 0.1,-1.8 0.14,-2.59 0.81,-0.04 1.88,-0.1 3.84,-0.2 -1.11,0.75 -1.51,1.02 -1.96,1.32 1.53,1.48 1.53,1.48 4.09,1.55 0.35,-0.51 0.72,-1.05 1.19,-1.72l6.14 0c0.4,0.56 0.87,1.21 1.35,1.86 -0.62,0.09 -1.24,0.18 -2.87,0.42 1.37,0.81 1.92,1.14 2.6,1.54 0.14,-0.65 0.19,-0.81 0.21,-0.98 0.03,-0.33 0.04,-0.66 0.06,-0.99z"/>
    <path class="fil0" d="M262.51 30.28l0 3.27c0.76,-0.71 1.2,-1.13 1.73,-1.63 -0.53,-0.5 -0.97,-0.92 -1.73,-1.64zm15.38 5.26c-0.62,0.08 -1.37,0.17 -3.23,0.4 1.79,0.81 2.54,1.14 3.36,1.51 0.15,-0.67 0.21,-0.97 0.27,-1.26 -0.08,-0.13 -0.16,-0.25 -0.4,-0.65zm-3.89 3.2c-0.3,-0.11 -0.6,-0.22 -0.89,-0.34 -0.53,0.97 -1.07,1.93 -1.61,2.91 0.74,0.47 1.11,0.7 1.56,0.99 0.34,-1.26 0.64,-2.42 0.95,-3.57zm-16.25 -1.11c-2.18,1.37 -1.54,3.35 -1.43,5.12 0.06,0.96 0.83,1.9 0.78,2.83 -0.55,8.89 1,17.68 1.16,26.53 0.06,3.55 0.67,7.08 1.03,10.62 1.03,-3.29 1.42,-6.55 2.03,-9.77 0.52,-2.74 1.7,-5.4 1.89,-8.15 0.44,-6.3 2.22,-12.34 3.41,-18.48 0.52,-2.68 0.6,-5.25 0.64,-7.89 0,-0.22 -0.34,-0.44 -0.53,-0.66 -0.66,0.48 -1.32,0.97 -1.79,1.31 -2.43,-0.5 -4.67,-0.96 -7.19,-1.48zm12.61 -15.33c0.93,-0.05 1.86,-0.11 2.72,-0.16 0.4,-1.11 0.67,-1.88 1.02,-2.88 -2.5,-0.04 -3.83,0.68 -3.73,3.05 -1.32,-0.15 -2.63,-0.3 -5.04,-0.58 2.13,1.52 3.38,2.42 5.03,3.59l0 -3.02zm-48.27 8.04c3.44,1.1 5.09,2.8 6.24,5.82 3.64,9.62 7.69,19.08 11.75,28.53 2.42,5.62 5.14,11.12 7.76,16.66 0.31,0.65 0.84,1.2 2.05,1.38 -0.22,-0.48 -0.5,-0.95 -0.65,-1.45 -4.42,-15.38 -8.8,-30.76 -13.24,-46.13 -0.78,-2.7 -1.73,-5.35 -2.66,-8 -0.54,-1.53 -0.45,-2.88 0.42,-4.3 2.43,-3.97 4.76,-8 7.15,-12 0.34,-0.57 0.83,-1.06 1.32,-1.66 3.45,0.19 6.66,-0.13 10.03,0.81 3.47,0.97 7.25,0.79 10.87,1.26 2.28,0.29 4.55,0.8 6.78,1.34 0.42,0.1 0.69,0.84 1.06,1.33 0.35,-0.57 0.61,-0.98 0.75,-1.22 6.66,1.31 13.26,2.61 20.15,3.97 -1.94,6.02 -3.76,11.67 -5.57,17.32 -3.88,12.1 -7.87,24.17 -11.59,36.31 -3.49,11.36 -6.71,22.79 -10.03,34.2 -0.64,2.2 -1.16,4.43 -1.77,6.78 -3.33,-0.22 -6.52,0.71 -9.57,-0.84 -0.55,-0.28 -1.33,-0.08 -2,-0.12 -9.87,-0.66 -19.73,-1.38 -29.63,-1.07 -0.48,0.01 -0.96,-0.14 -1.91,-0.29 0.5,-6.63 -0.95,-13.28 0.9,-19.89 0.31,-1.1 0.1,-2.35 0.1,-3.53 0.03,-10.62 -0.1,-21.25 0.11,-31.86 0.15,-7.65 0.76,-15.3 1.19,-23.33z"/>
    <path class="fil0" d="M177.32 547.1c-0.34,-0.25 -0.69,-0.5 -1.03,-0.75 -0.27,0.57 -0.54,1.14 -0.81,1.71 0.23,0.15 0.47,0.29 0.7,0.44 0.38,-0.46 0.76,-0.93 1.14,-1.39zm3.15 -7.85c-0.3,0.17 -0.61,0.33 -0.91,0.5 0.39,0.76 0.79,1.51 1.18,2.27 0.22,-0.11 0.44,-0.21 0.66,-0.32 -0.31,-0.82 -0.62,-1.63 -0.93,-2.45zm28.16 -7.67c-0.6,-0.46 -1.06,-0.81 -2.02,-1.55 0.15,1.35 0.24,2.13 0.39,3.39 0.76,-0.86 1.15,-1.29 1.64,-1.84zm-6.66 -4.46c-0.08,0.69 -0.15,1.23 -0.31,2.58 1.1,-0.88 1.58,-1.26 2.33,-1.86 -0.9,-0.32 -1.33,-0.47 -2.02,-0.72zm-39.45 -81.94c-0.08,0.68 -0.14,1.22 -0.3,2.58 1.1,-0.9 1.57,-1.29 2.32,-1.9 -0.89,-0.31 -1.32,-0.45 -2.01,-0.69zm31.35 26.55c0.68,-0.86 1.04,-1.32 1.77,-2.23 -1.35,0.07 -2.12,0.1 -3.71,0.18 0.95,1.01 1.38,1.46 1.94,2.05zm-14.17 -8.95c-0.68,-0.57 -1.08,-0.9 -1.48,-1.24 -0.25,0.52 -0.5,1.03 -1,2.05 1.13,-0.37 1.56,-0.51 2.48,-0.81zm6.32 -4.37c0.09,-0.69 0.16,-1.23 0.33,-2.57 -1.1,0.85 -1.58,1.23 -2.34,1.82 0.9,0.33 1.32,0.49 2.01,0.75zm-12.47 -5.09c0.25,-0.35 0.5,-0.69 0.75,-1.04 -0.57,-0.27 -1.14,-0.54 -1.71,-0.81 -0.14,0.24 -0.29,0.47 -0.43,0.7 0.46,0.38 0.92,0.76 1.39,1.14zm-5.99 -7.14c-0.08,0.69 -0.14,1.24 -0.29,2.61 1.1,-0.89 1.58,-1.28 2.33,-1.89 -0.91,-0.32 -1.34,-0.48 -2.04,-0.72zm7.09 -5.05c-0.09,0.69 -0.15,1.24 -0.32,2.62 1.12,-0.9 1.6,-1.29 2.36,-1.9 -0.91,-0.32 -1.34,-0.47 -2.03,-0.72zm25.96 66.41c-0.27,-0.13 -0.55,-0.26 -0.82,-0.38 -0.39,0.51 -0.97,0.97 -1.12,1.54 -0.14,0.57 0.15,1.25 0.36,2.52 0.72,-1.69 1.15,-2.68 1.58,-3.67zm3.25 -2.75c-0.29,0.16 -0.59,0.31 -0.88,0.47 0.69,0.85 0.21,2.85 2.57,2.44 -0.65,-1.13 -1.17,-2.02 -1.68,-2.91zm-35.2 -34.13c0.54,-1.22 0.91,-2.06 1.28,-2.91 -0.21,-0.14 -0.42,-0.28 -0.63,-0.42 -0.66,0.54 -1.32,1.08 -2.11,1.72 0.55,0.6 0.88,0.96 1.46,1.61zm3.25 -10.34c-1.54,-1.06 -2.25,-1.55 -3.15,-2.17 -0.23,0.78 -0.36,1.2 -0.58,1.96 1.02,0.06 1.88,0.11 3.73,0.21zm-12.6 -2.84c2.14,0.65 2.14,0.65 2.48,-1.22 -0.98,0.48 -1.73,0.85 -2.48,1.22zm39.03 67.42l4.52 0c-0.99,-0.89 -1.55,-1.39 -2.31,-2.07 -0.75,0.7 -1.3,1.22 -2.21,2.07zm-26.29 -56.67c0.85,1.33 1.97,2.91 4.25,1.75 -1.64,-0.68 -2.95,-1.21 -4.25,-1.75zm7.24 -0.12c1.47,2.27 1.47,2.27 4.3,0l-4.3 0zm13.77 -6.24c-4.65,-0.44 -4.65,-0.44 -6.24,1.41 1.79,-0.4 3.48,-0.79 6.24,-1.41zm-15.73 -4.95c0.01,0.29 0.03,0.58 0.05,0.86l3.97 0c-0.08,-0.73 -0.16,-1.46 -0.24,-2.2 -1.47,0.52 -2.62,0.93 -3.77,1.33zm11.77 2.45c1.89,-0.76 3.16,-1.27 5.15,-2.07 -2.94,-1.47 -4.11,-0.71 -5.15,2.07zm8.85 54.8l0 4.73 1.32 0 0 -4.57c-0.51,-0.06 -0.82,-0.1 -1.32,-0.15zm-16.83 -65.35c-1.25,1.49 -2,2.33 -2.66,3.22 -0.12,0.15 0.13,0.58 0.25,1.06l2.41 0 0 -4.28zm9.59 0.75l-3.96 0c0.28,1.08 0.45,2.05 0.79,2.95 0.13,0.34 0.66,0.53 1.27,0.98 0.63,-1.3 1.17,-2.41 1.9,-3.93zm4.73 73.37c-0.34,-6.02 -0.64,-11.51 -0.95,-17 -0.02,-0.34 0.03,-0.69 -0.06,-1.01 -2.2,-7.21 -1.68,-14.78 -2.81,-22.15 -0.51,-3.3 -0.49,-6.66 -1.87,-10.3 -0.32,3.08 -0.59,5.68 -0.78,7.41 0.16,3.07 0.28,5.32 0.39,7.31 -1.53,0.83 -2.59,1.4 -3.9,2.12 1.18,0.37 1.94,0.61 2.95,0.92 0,1.16 0.04,2.32 -0,3.47 -0.34,9.2 -0.66,18.41 -1.07,27.61 -0.04,0.89 -0.67,1.76 -1.01,2.6l-15.05 0c-0.12,-9.4 0.03,-18.59 -0.9,-27.76 -0.6,-6.01 -0.14,-12.13 -0.14,-18.2 -0,-1.33 -0.01,-2.64 -1.84,-3.09 -0.74,5.28 0.9,10.92 -2.74,15.59 0.44,0.32 0.96,0.68 1.42,1.01 -1.79,14.28 -3.56,28.42 -5.33,42.59 3.62,0.85 7.39,0.36 11.13,0.2 3.93,-0.17 7.84,0.87 11.61,-0.05 0.94,0.69 1.71,1.25 2.49,1.83 0.31,-0.54 0.56,-0.96 0.78,-1.35 0.71,0.49 1.43,0.99 2.57,1.78 -0.31,-1.09 -0.42,-1.5 -0.53,-1.86 1.43,-0.44 2.68,-0.83 3.98,-1.23 0.76,0.53 1.53,1.08 2.32,1.63 0.31,-0.54 0.55,-0.98 1.27,-2.25 0.4,0.83 0.77,1.39 0.94,2 0.17,0.61 0.14,1.28 0.19,1.87 -1.69,0.74 -3.24,1.41 -4.98,2.17 0.69,0.65 1.04,0.99 1.43,1.35 0.69,-0.55 1.33,-1.06 2.16,-1.73 1.27,-0.08 2.73,-0.18 4.45,-0.29 -1.76,-1.82 -1.79,-3.04 -0.36,-5.68 -1.16,-0.16 -2.28,-0.31 -3.32,-0.45 0.27,-1.12 0.51,-2.06 0.73,-2.98 -1.05,-1.22 -1.99,-2.32 -2.75,-3.2 0.67,-1.23 1.18,-2.17 1.89,-3.46 -0.98,0.25 -1.41,0.35 -2.32,0.58zm6.14 22.45l0 2.82c-3.84,0.14 -7.44,0.74 -10.92,-0.54 -2.54,0.65 -5.05,1.29 -7.48,1.92 -0.81,-1.61 -1.42,-2.84 -2.04,-4.08 -0.27,0.1 -0.53,0.2 -0.8,0.29 0.21,0.71 0.43,1.42 0.74,2.45 -0.7,0.33 -1.56,1.11 -2.38,1.06 -5.33,-0.28 -10.65,0.58 -16.02,-0.71 -3.35,-0.81 -7.05,-0.15 -10.58,-0.24 -1.26,-0.03 -2.51,-0.35 -3.92,-0.56 -0.14,-3.61 -0.7,-6.74 0.48,-9.84 0.17,-0.46 0.27,-0.96 0.3,-1.45 0.37,-4.99 0.29,-10.05 1.19,-14.94 0.81,-4.41 0.33,-8.93 1.66,-13.29 0.57,-1.86 0.18,-4.01 0.24,-6.03 0.1,-3.18 0.62,-6.23 2.67,-8.94 -1.83,-0.52 -1.91,-2.06 -1.62,-3.5 1.43,-7.01 1.34,-14.19 2.33,-21.25 0.61,-4.34 0.37,-8.79 0.69,-13.17 0.36,-4.95 0.92,-9.9 1.4,-15.03l43.61 0c0.91,2.33 0.07,4.84 0.56,7.3 -0.56,0.07 -0.81,0.12 -1.08,0.12 -0.28,0.01 -0.55,-0.03 -1.37,-0.08 0.59,0.73 0.87,1.24 1.3,1.56 1.79,1.38 1.93,3.28 2.02,5.34 0.27,6 0.4,12.03 1.1,17.99 0.81,6.93 1.45,13.86 2.05,20.81 0.41,4.71 0.9,9.39 0.95,14.12 0.01,0.63 0.37,1.26 0.59,1.92 -0.5,0.45 -1.05,0.95 -1.76,1.6 0.78,0.7 1.44,1.29 2.12,1.9 -1.72,1.57 -3.33,3.04 -4.94,4.51 0.21,0.24 0.41,0.49 0.62,0.73 1.51,-1.07 3.01,-2.15 4.95,-3.53 0.15,1.63 0.25,2.73 0.34,3.78 -1.12,0.5 -2.06,0.92 -3.69,1.64 1.98,0.94 3.23,1.52 4.39,2.07 0.41,5.42 0.81,10.58 1.2,15.8 -0.89,-0.23 -1.61,-0.41 -2.69,-0.68 -0.05,1.08 -0.09,1.85 -0.13,2.7 1.01,-0.2 1.74,-0.35 2.65,-0.53 0.46,2.31 0.9,4.5 1.35,6.74 -2.8,1.65 -5.41,2.47 -8.35,2.11 -0.24,-0.96 -0.49,-1.93 -0.74,-2.9 1.6,-0.06 3.2,-0.12 5.06,-0.19 -1.25,-0.97 -2.14,-1.67 -2.91,-2.26 -0.09,-1.89 -0.18,-3.54 -0.28,-5.54 -0.96,1.47 -1.7,2.62 -2.45,3.76 0.53,0.63 1.06,1.25 1.61,1.91 -0.37,0.84 -0.7,1.58 -1.02,2.33 -0.34,0 -0.68,0 -1.02,0 -0.39,-1.24 -1.19,-2.09 -2.52,-1.97 -0.55,0.05 -1.05,0.72 -2.4,1.71 2.33,0.12 3.63,0.19 4.93,0.25z"/>
    <path class="fil0" d="M304.74 68.2c0.31,0.15 0.63,0.29 0.94,0.44 0.32,-0.77 0.65,-1.55 0.97,-2.32 -0.23,-0.1 -0.46,-0.2 -0.69,-0.3 -0.41,0.73 -0.81,1.45 -1.22,2.18zm-1.24 -5.94l-0.73 -0.55c-0.28,0.57 -0.55,1.15 -1.07,2.24 1.11,-0.38 1.53,-0.52 1.94,-0.66 -0.05,-0.42 -0.09,-0.72 -0.13,-1.03zm-3.16 -7.42l-0.75 0.75c0.56,0.6 1.13,1.2 1.69,1.8 0.19,-0.17 0.39,-0.33 0.58,-0.5l-1.53 -2.05zm16.98 -18.39c-0.09,0.69 -0.16,1.23 -0.33,2.58 1.1,-0.86 1.58,-1.24 2.35,-1.84 -0.9,-0.33 -1.33,-0.49 -2.02,-0.74zm1.52 -5.85c0.28,0.23 0.55,0.47 0.83,0.7 0.42,-0.81 0.84,-1.63 1.27,-2.45 -0.2,-0.11 -0.4,-0.23 -0.6,-0.34 -0.5,0.69 -1,1.39 -1.5,2.08zm-1.72 -5.07c0.17,0.3 0.35,0.6 0.52,0.9 0.69,-0.51 1.38,-1.01 2.06,-1.51 -0.13,-0.2 -0.27,-0.41 -0.4,-0.61 -0.73,0.41 -1.46,0.82 -2.18,1.23zm-20.76 56.44c-0.72,0.24 -1.15,0.39 -1.92,0.65 0.62,0.88 1.12,1.59 2.27,3.22 -0.18,-1.97 -0.26,-2.84 -0.35,-3.86zm11.72 -22.69c-0.35,-1.14 -0.56,-1.82 -0.89,-2.9 -1.32,1.26 -2.31,2.16 -3.23,3.13 -0.12,0.12 0.11,0.57 0.25,1.23 1.16,-0.44 2.27,-0.86 3.87,-1.46zm17.96 -36.96c-0.18,-0.67 -0.37,-1.33 -0.72,-2.6 -1.26,1.27 -2.64,1.62 -1.9,3.66 0.97,-0.39 1.79,-0.73 2.62,-1.06 -0.33,1.27 -0.55,2.58 -1,3.8 -0.72,1.93 -1.26,3.98 -2.92,5.41 1.05,2.76 -1.14,4.92 -1.41,7.45 -0.04,0.42 -0.58,0.79 -0.95,1.26 -1.22,0.22 -2.47,0.44 -4.26,0.76 0.84,1.05 1.36,1.7 1.95,2.45 0.48,-0.77 0.72,-1.16 0.97,-1.56 -1.83,7.64 -4.31,14.94 -6.68,22.28 -2.41,7.45 -5.45,14.71 -6.6,22.55 8.74,-16.98 15.21,-34.95 23.27,-52.02 0.93,-0.19 1.57,-0.33 2.28,-0.47 0.97,-5.12 6.62,-6.78 8.61,-11.38 -3.8,-2.24 -7.91,-1.49 -11.3,-2.7 -0.9,1 -1.43,1.59 -1.96,2.17zm-42.49 91.06l-2.78 0c2.43,-9.51 4.77,-18.71 7.12,-27.9 1.26,0.24 2.23,0.04 3.62,-0.85 -0.97,-0.39 -1.75,-0.7 -2.78,-1.11 6.23,-26.76 16.22,-51.98 30.53,-75.59 14.02,1.36 27.12,4.52 40.04,9.5 -5.89,9.79 -11.61,19.31 -17.37,28.8 -0.22,0.36 -0.86,0.46 -1.06,0.56 -0.24,4.47 -3.48,7.33 -5.23,10.86 -1.83,3.69 -3.97,7.22 -6.02,10.9 -0.71,0.2 -1.48,0.43 -2.49,0.72 0.56,0.35 0.92,0.57 1.66,1.04 -8.87,14.83 -16.69,30.34 -26,44.94l-7.62 0c0.03,-0.48 0.05,-1.01 0.11,-2.03 -1.29,0.75 -2.34,1.37 -3.06,1.78 -2.26,-0.24 -4.22,-0.43 -6.17,-0.66 -0.91,-0.11 -2.09,0.41 -2.53,-0.96 0.93,-0.06 1.87,-0.12 3.65,-0.24 -1.48,-0.92 -2.21,-1.38 -3.3,-2.05 -0.16,1.07 -0.25,1.69 -0.34,2.3z"/>
    <path class="fil0" d="M55.68 111.38c1.03,-0.47 1.55,-0.71 2.07,-0.95 -0.32,-0.4 -0.65,-0.81 -1.18,-1.47 -0.32,0.87 -0.48,1.3 -0.89,2.42zm-4.18 -14.54c0.64,0.54 1.04,0.87 1.43,1.2l1 -2.06c-1.13,0.4 -1.56,0.55 -2.43,0.86zm3.34 -0.06c0.68,0.08 1.21,0.14 2.54,0.3 -0.86,-1.08 -1.24,-1.55 -1.83,-2.3 -0.32,0.89 -0.47,1.31 -0.72,1.99zm-16.94 -28.6l0 4.29c0.94,-1.01 1.36,-1.46 1.9,-2.03 -0.6,-0.71 -0.99,-1.18 -1.9,-2.26zm16.56 -14.48c0.1,-0.68 0.17,-1.21 0.36,-2.56 -1.11,0.86 -1.6,1.24 -2.36,1.83 0.9,0.33 1.32,0.48 2,0.73zm-8.05 -15.53c0.13,-0.31 0.27,-0.62 0.4,-0.93 -0.72,-0.58 -1.38,-1.3 -2.92,-0.19 0.89,0.4 1.71,0.76 2.52,1.12zm-5.5 -3.22c0.98,-0.9 1.44,-1.32 2.05,-1.89 -0.89,-0.7 -1.34,-1.05 -2.26,-1.78 0.08,1.36 0.12,2.14 0.21,3.67zm6.05 -5.45c0.24,-0.28 0.47,-0.56 0.71,-0.84 -0.81,-0.42 -1.62,-0.85 -2.43,-1.27 -0.12,0.2 -0.23,0.4 -0.35,0.61 0.69,0.5 1.38,1 2.08,1.5zm20.78 76.22l0 -3.44c-0.72,0.18 -1.15,0.28 -1.95,0.47 0.61,0.93 1.09,1.66 1.95,2.97zm-0.22 1.84l-3.49 0c0.17,0.73 0.26,1.15 0.45,1.95 0.94,-0.6 1.67,-1.07 3.04,-1.95zm-23.86 -29.27c-1.05,1.52 -1.55,2.23 -2.17,3.13 0.78,0.24 1.21,0.36 1.97,0.59 0.06,-1.03 0.1,-1.9 0.2,-3.72zm-2.54 6.39c1.06,0.36 2.13,0.74 3.2,1.07 0.06,0.02 0.21,-0.23 0.43,-0.48 -0.68,-2.12 -2.26,-1.08 -3.63,-0.6zm24.74 0.07c-0.07,-0.2 -0.13,-0.39 -0.2,-0.59 -0.87,0.13 -1.75,0.27 -2.74,0.42 0.31,0.71 0.43,0.98 0.69,1.55 0.78,-0.48 1.52,-0.93 2.26,-1.38zm-10.53 -18.97c-0.56,0.69 -0.94,1.14 -1.59,1.93 1.17,0.37 2,0.64 4.02,1.29 -1.29,-1.71 -1.8,-2.39 -2.43,-3.22zm5 23.92c-0.5,1.63 -0.74,2.45 -1.11,3.65 1.2,-0.3 1.93,-0.49 3.09,-0.78 -0.7,-1.01 -1.14,-1.65 -1.98,-2.87zm-18.27 -67.38c0.25,-0.26 0.5,-0.53 0.75,-0.79 -0.49,-0.71 -0.98,-1.43 -1.57,-2.28 -0.59,0.64 -0.99,1.09 -1.59,1.74 0.93,0.51 1.67,0.92 2.41,1.33zm28.91 78.82c-1.14,-2.95 -1.71,-3.41 -2.8,-2.37 -0.03,1.5 0.76,2.24 2.8,2.37zm-34.8 -41.6c-0.59,1.9 -1.04,3.35 -1.49,4.79 0.18,0.1 0.36,0.21 0.54,0.31 0.88,-0.99 1.76,-1.99 2.79,-3.16 -0.71,-0.75 -1.15,-1.22 -1.83,-1.95zm7.51 31.18c0.11,0.35 0.21,0.7 0.32,1.06 0.39,-0.13 0.8,-0.38 1.18,-0.35 0.54,0.04 1.06,0.28 1.81,0.5 0.56,-1.79 1,-3.22 1.44,-4.65 -0.23,-0.1 -0.46,-0.21 -0.69,-0.31 -0.54,0.98 -1.08,1.96 -1.56,2.84 -0.88,0.32 -1.69,0.61 -2.5,0.91zm24.09 0.8c0.57,0.26 1.79,0.8 3.57,1.6 -0.39,-1.51 -0.58,-2.24 -0.74,-2.89 -1.28,-0.12 -2.26,-0.22 -3.28,-0.32 -0.56,-1.5 -1.12,-2.88 -3.25,-2.71 0.7,1.03 1.21,1.78 1.92,2.83 -1.18,0.4 -2.11,0.72 -3.03,1.03 0.07,0.29 0.13,0.58 0.2,0.87 1.17,-0.1 2.34,-0.21 4.62,-0.41zm-6.17 -11.3c-1.33,-1.81 -3.08,-2.83 -5.44,-3.23l0 1.57c1,0.36 1.87,0.67 3.17,1.14 -0.83,1.58 -1.47,2.81 -2.21,4.2 0.65,0.4 1.31,0.82 1.99,1.24 0.85,-1.7 1.58,-3.13 2.49,-4.93zm-24.95 -24.52c-0.63,0.46 -1.27,0.92 -1.92,1.38 1.41,2.12 3.04,1.95 4.98,1.18 -0.25,-0.62 -0.41,-1.04 -0.59,-1.47 -0.84,0.19 -1.55,0.35 -2.33,0.52 -0.06,-0.64 -0.1,-1.13 -0.14,-1.62 1.53,0.19 2.21,-0.48 2.02,-2.02 1.32,2.21 2.63,4.42 3.94,6.62 -0.6,0.57 -0.96,0.91 -1.31,1.25 -0.79,-0.52 -1.53,-1 -2.42,-1.58 -0.11,3.84 3.25,2.19 4.27,3.01 1.01,2.46 1.8,4.4 2.66,6.51 -1.27,-0.25 -2.19,-0.44 -3.1,-0.62 -0.16,-1.7 0.66,-3.7 -1.84,-5.01 -0.33,0.36 -0.76,0.81 -1.16,1.24 0.71,0.89 1.22,1.53 1.77,2.22 -0.53,0.36 -1.03,0.69 -1.94,1.3 1.32,0.1 2.25,0.16 3.18,0.23 0.25,0.57 0.49,1.15 0.79,1.83 -0.87,0.62 -1.68,1.2 -2.49,1.77 0.16,0.23 0.32,0.47 0.48,0.7 1.53,-0.74 3.05,-1.47 4.65,-2.24 2.64,2.24 2.04,5.8 3.71,8.33 -1.5,0.73 -2.75,1.33 -4,1.93 0.08,0.28 0.16,0.56 0.25,0.84 1.54,-0.17 3.08,-0.35 5.04,-0.57 0.7,2.37 1.43,4.85 2.16,7.33 1.07,0.32 2.14,0.64 3.25,0.97 0.35,-0.72 0.72,-1.47 1.08,-2.2 -1.17,-0.49 -2.35,-0.97 -2.86,-1.19 -2.84,-9.11 -5.46,-17.58 -8.13,-26.04 -1.43,-4.54 -3.92,-8.77 -3.93,-13.71 1.3,0.01 2.51,-0.08 2.41,-2.53 -1.01,1.07 -1.71,1.8 -2.41,2.54 -0.6,-0.86 -1.21,-1.72 -1.6,-2.27 0.67,-0.99 1.09,-1.63 1.82,-2.72 -1.13,0.38 -1.56,0.52 -2.24,0.75 -0.77,-1.54 -1.49,-3 -1.97,-3.97 -0.03,-1.96 1.94,-3.12 0.4,-4.64 -0.26,0.43 -0.52,0.85 -1.05,1.72 -0.8,-2.12 -1.49,-3.94 -2.09,-5.55 1.04,-0.79 1.78,-1.36 2.53,-1.93 -0.08,-0.17 -0.16,-0.34 -0.24,-0.51 -1.02,0.27 -2.03,0.53 -2.76,0.72 -1.19,-2.46 -2.3,-4.76 -3.51,-7.27 -4.42,0.61 -8.45,1.17 -12.84,1.79 1.07,2.55 2.83,3.93 4.44,5.27 5.7,4.72 9.53,10.71 12.4,17.41 0.07,0.15 0.17,0.29 0.26,0.43 0.9,1.5 1.17,3.07 0.76,4.58 -1.14,0.25 -2.09,0.45 -3.05,0.66 0.06,0.11 0.13,0.22 0.23,0.4 1.4,0.14 2.85,0.28 4.28,0.42 0.09,0.8 0.14,1.29 0.2,1.79 -1.52,-0.17 -2.2,0.5 -2.02,2.03zm35.41 40.47c0.05,0.5 0.1,0.99 0.17,1.64 0.76,0.21 1.54,0.43 2.64,0.74 0.04,0.65 0.1,1.41 0.15,2.21 -0.99,0.29 -1.76,0.52 -2.89,0.85 0.62,0.66 1.11,1.18 1.6,1.71 0.78,-0.3 1.37,-0.53 1.91,-0.74 0.74,3.35 1.47,6.71 2.26,10.31 -2.09,1.37 -3.52,-0.83 -5.38,-1.16 -0.46,0.69 -0.99,1.47 -1.54,2.29 -1.28,-1.38 -2.99,-1.04 -4.7,-1.62 -0.32,0.74 -0.65,1.5 -1.17,2.7l-9.19 0c-6.09,-10.66 -12.2,-21.65 -18.42,-32.58 -6.18,-10.85 -12.22,-21.77 -18.39,-32.62 -6.24,-10.96 -12.56,-21.88 -19.01,-33.09 12.82,-4.42 25.52,-8.33 39.16,-8.79 1.24,2.05 2.42,3.85 3.43,5.73 3.72,6.89 7.38,13.8 11.05,20.71 0.14,0.27 0.07,0.66 0.09,1 -0.98,0.38 -1.97,0.75 -2.95,1.13 0.06,0.21 0.11,0.41 0.17,0.62l2.62 0c0.07,-0.77 0.12,-1.26 0.17,-1.75 1.31,0.49 1.17,1.59 0.78,2.48 -0.45,1 -1.25,1.84 -1.99,2.87 1.14,0.59 1.98,1.02 2.89,1.49 0.25,-0.9 0.47,-1.67 0.84,-2.99 0.86,2.25 1.55,4.04 2.25,5.87 -0.75,0.38 -1.49,0.75 -2.23,1.13 -0.35,-0.49 -0.69,-0.98 -1.08,-1.54 -0.42,0.39 -0.78,0.72 -1.25,1.16 1.01,2.49 4.04,1.27 5.78,3.84 0.23,0.8 0.7,2.51 1.27,4.55 -1.41,0.21 -2.52,0.38 -4.03,0.6 -0.29,1.34 -0.6,2.82 -0.99,4.61 1.46,0.07 2.87,0.13 4.28,0.2 0.04,-0.17 0.08,-0.34 0.12,-0.52 -0.73,-0.29 -1.46,-0.58 -2.39,-0.94 -0.05,-0.54 -0.11,-1.17 -0.21,-2.2 1.32,-0.12 2.54,-0.23 4.13,-0.37 1.25,3.94 2.34,7.71 3.66,11.39 1.33,3.71 3.11,7.27 3.37,11.16 -0.76,0.53 -1.27,0.88 -1.99,1.39 1.02,0.75 1.93,1.41 2.89,2.12 -0.28,0.75 -0.56,1.51 -0.96,2.59 0.74,0.65 1.57,1.37 2.82,2.47 0.63,2.93 1.37,6.41 2.17,10.13 -0.79,-0.32 -1.35,-0.55 -1.91,-0.78 -0.09,-0.6 -0.17,-1.21 -0.31,-2.17 -1.36,0.6 -2.42,1.07 -3.49,1.54 0.02,0.21 0.03,0.42 0.05,0.63l3.75 0z"/>
    <path class="fil0" d="M37.49 505.78c-0.23,0.28 -0.46,0.56 -0.69,0.84 0.8,0.43 1.6,0.86 2.4,1.3 0.12,-0.2 0.24,-0.4 0.35,-0.6l-2.06 -1.53zm13.3 -9.37c0.68,0.08 1.22,0.15 2.57,0.31 -0.87,-1.09 -1.25,-1.56 -1.84,-2.31 -0.32,0.89 -0.48,1.32 -0.72,2.01zm4.51 -12c1.1,0.53 1.68,0.8 2.77,1.33 -0.38,-1.11 -0.52,-1.54 -0.7,-2.05 -0.53,0.19 -0.96,0.34 -2.07,0.73zm2.57 -21.38c0.68,0.09 1.22,0.15 2.56,0.32 -0.86,-1.09 -1.24,-1.57 -1.83,-2.32 -0.33,0.89 -0.48,1.32 -0.73,2zm1.43 -14.93c0.25,-0.24 0.5,-0.49 0.75,-0.73 -0.56,-0.61 -1.13,-1.23 -1.69,-1.84 -0.2,0.17 -0.39,0.33 -0.59,0.49 0.51,0.69 1.02,1.38 1.52,2.08zm-36.74 59.69c4.09,-0.1 6.72,2.09 10.09,0.78 0.89,-1.94 1.79,-4.05 2.8,-6.11 4.13,-8.39 8.29,-16.76 12.43,-25.14 0.54,-1.1 1.66,-2.18 0.28,-3.59 -3.61,3.01 -4.51,8.39 -9.21,10.31 0.24,0.64 0.47,1.24 0.66,1.77 -5.48,7.06 -10.86,14 -17.05,21.98zm15.81 14.34c-13.15,-4.43 -25.94,-7.85 -38.38,-13.78 2.14,-2.73 4.11,-5.3 6.15,-7.81 4.64,-5.67 9.32,-11.31 13.98,-16.96 0.21,-0.26 0.46,-0.49 0.69,-0.74 4.8,-5.15 9.59,-10.3 14.4,-15.44 5.16,-5.51 10.29,-11.03 15.52,-16.47 1.37,-1.43 3.12,-2.49 4.55,-3.87 1.06,-1.02 1.87,-2.29 2.85,-3.51 0.72,-0.21 1.51,-0.43 2.47,-0.71 0.19,-0.7 0.41,-1.48 0.69,-2.51 1.31,-0.94 2.79,-2 4.34,-3.11 4.41,1.05 8.87,2.12 13.72,3.27 -1.08,2.55 -1.97,4.83 -3,7.05 -2.08,4.5 -4.53,8.84 -6.28,13.46 -3.74,9.88 -7.91,19.55 -12.79,28.93 -1.99,3.83 -3.53,7.88 -5.47,11.74 -3.66,7.31 -8.72,13.69 -13.46,20.44z"/>
    <path class="fil0" d="M320 501.23c-0.7,-0.08 -1.24,-0.14 -2.61,-0.29 0.89,1.1 1.28,1.58 1.89,2.33 0.32,-0.91 0.47,-1.34 0.72,-2.05zm-15.19 -27.5c-0.45,-0.97 -0.7,-1.51 -0.95,-2.06 -0.4,0.32 -0.8,0.65 -1.47,1.18 0.88,0.32 1.3,0.47 2.42,0.88zm16.7 4.69c-0.54,1.24 -0.92,2.1 -1.3,2.96 0.21,0.13 0.42,0.26 0.63,0.39 0.67,-0.54 1.33,-1.07 2.11,-1.69 -0.54,-0.62 -0.86,-0.99 -1.44,-1.65zm4.36 32.27c-0.06,-0.2 -0.13,-0.39 -0.2,-0.59 -0.87,0.13 -1.74,0.25 -2.73,0.4 0.31,0.71 0.43,0.99 0.68,1.56 0.78,-0.47 1.51,-0.92 2.25,-1.36zm-15.83 -28.29c-2.15,0.37 -2.74,1.45 -1.48,3.52 0.59,-1.41 1.04,-2.46 1.48,-3.52zm25.03 21.33c-3.41,-3.92 -6.51,-7.42 -9.54,-10.99 -3.88,-4.58 -7.69,-9.22 -11.53,-13.84 -1.28,-1.53 -2.52,-3.1 -3.9,-4.53 -0.41,-0.43 -1.23,-0.48 -2.64,-0.98 1.47,1.74 2.73,2.63 3.12,3.81 1.59,4.72 4.77,8.53 7.01,12.86 1.67,3.22 3.32,6.46 4.8,9.76 0.32,0.71 -0.14,1.76 -0.24,2.72 0.62,-0.16 1.05,-0.27 1.69,-0.43 0.77,1.17 1.58,2.39 2.38,3.61 3.27,0.66 5.95,-0.41 8.86,-1.99zm21.91 4.59c-12.39,5.47 -24.34,10.11 -37.18,13.63 -3.48,-5.32 -6.96,-10.58 -10.38,-15.87 -4.81,-7.45 -8.31,-15.56 -11.67,-23.73 -0.12,-0.3 -0.03,-0.7 -0.16,-0.99 -2.85,-6.37 -5.68,-12.76 -8.61,-19.1 -3.34,-7.25 -6.77,-14.46 -10.17,-21.72 4.63,-1.04 9.27,-2.08 13.64,-3.06 2.35,2.37 4.7,4.75 7.65,7.74 0.09,-0.53 -0.01,0.03 -0.1,0.61 1.11,1.38 2.26,2.79 3.55,4.37 0.45,-0.16 1.06,-0.37 1.98,-0.69 17.58,18.81 35.64,37.45 51.44,58.81z"/>
    <path class="fil0" d="M52.92 375c2.26,0.16 2.26,0.16 2.64,-1.42 -0.86,0.46 -1.63,0.87 -2.64,1.42zm54.63 21.63c-4.8,-0.47 -9.37,0.43 -14.08,-0.77 -3.17,-0.81 -6.71,-0.09 -10.06,-0.29 -10.07,-0.6 -19.22,-4.04 -27.01,-10.29 -5.68,-4.55 -8.33,-10.98 -8.62,-18.41 -0.29,-7.34 1.13,-14.16 4.47,-20.72 4.04,-7.91 10.29,-12.96 18.81,-15.11 2.87,-0.72 5.91,-0.78 8.86,-1.17 1.63,-0.22 3.24,-0.52 4.48,-0.72 8.17,1 16.16,1.22 23.88,4.25l0 21.55 -18.4 0c-2.43,-1.4 -5.44,-3.15 -8.86,-5.13 -3.65,0.33 -7.6,0.7 -10.85,0.99 -3.85,3.09 -6.58,6 -8.12,10.61l0 4.75c2.11,6.56 6.74,10.52 13.21,11.69 3.91,0.7 7.94,2.96 12.08,0.69 0.14,-0.07 0.33,-0.04 0.5,-0.05 6.66,-0.41 13.32,-0.81 19.94,-1.21 0.95,4.46 0.9,14.86 -0.21,19.35z"/>
    <path class="fil0" d="M52.82 419.19c0.35,0.27 0.69,0.53 1.03,0.8 0.28,-0.58 0.56,-1.15 0.84,-1.73 -0.23,-0.15 -0.47,-0.3 -0.7,-0.44 -0.39,0.46 -0.78,0.92 -1.17,1.38zm0.85 -12.24c0.5,0.22 0.73,0.33 1.18,0.53 0.34,-0.74 0.69,-1.48 1.03,-2.22 -0.2,-0.11 -0.39,-0.23 -0.59,-0.34 -0.52,0.66 -1.05,1.31 -1.62,2.03zm2.87 10.47c0.89,3.04 1.94,2.53 3.79,1.92 -1.37,-0.69 -2.12,-1.07 -3.79,-1.92zm0.8 -7.53c-0.63,0.08 -1.39,0.17 -3.24,0.4 1.79,0.81 2.54,1.15 3.36,1.52 0.15,-0.67 0.22,-0.97 0.28,-1.27 -0.08,-0.13 -0.16,-0.26 -0.4,-0.66zm-8.55 2.97c0.32,0.3 0.61,0.82 0.96,0.86 0.93,0.12 1.89,0.04 3,0.04 -1.05,-2.49 -2.58,-0.96 -3.96,-0.9zm122.24 -6.55l0 7.96c-0.41,0.28 -0.94,0.64 -1.55,1.06 0.52,0.37 1.01,0.72 1.62,1.16l0 11.25c-1.19,0.08 -2.32,0.22 -3.45,0.22 -18.19,0.01 -36.38,0.38 -54.55,-0.2 -6.73,-0.21 -13.59,-0.24 -20.32,-1.67 -4.19,-0.89 -8.61,-0.69 -12.89,-1.2 -3.92,-0.47 -7.79,-1.6 -11.71,-1.79 -4.69,-0.23 -9.13,-1.6 -13.71,-2.16 -2.68,-0.33 -4.76,-1.33 -6.55,-3.58 0,-4.56 -0.02,-9.26 0.04,-13.96 0.01,-0.41 0.55,-0.81 0.95,-1.36 6.81,1.79 13.74,3 20.76,3.88 4.91,0.62 9.86,1.22 14.72,2.04 8.71,1.48 17.4,0.52 26.08,0.75 2.61,0.07 5.24,-0.65 7.87,-0.9 2.47,-0.24 5.05,0.45 7.37,-0.94 0.13,-0.08 0.33,-0.05 0.5,-0.05 14.75,-0.39 29.47,-1.71 44.24,-0.96 0.13,0.01 0.26,0.19 0.58,0.43z"/>
    <path class="fil0" d="M271.68 421.98c0.27,-0.35 0.53,-0.69 0.8,-1.04 -0.58,-0.28 -1.16,-0.56 -1.74,-0.84 -0.15,0.24 -0.3,0.47 -0.45,0.71 0.46,0.39 0.93,0.78 1.39,1.17zm11.59 -8.66c-0.24,-0.18 -0.49,-0.36 -0.74,-0.54 -0.27,0.57 -0.54,1.15 -1.06,2.24 1.11,-0.38 1.53,-0.53 1.93,-0.67 -0.05,-0.42 -0.09,-0.72 -0.13,-1.03zm-43.23 0.23c-0.35,-0.25 -0.69,-0.5 -1.03,-0.75 -0.27,0.57 -0.54,1.14 -0.81,1.71 0.23,0.14 0.47,0.29 0.7,0.43 0.38,-0.46 0.76,-0.92 1.14,-1.39zm62.97 -4.31c-0.52,1.1 -0.8,1.67 -1.31,2.75 1.11,-0.37 1.53,-0.52 2.04,-0.69 -0.19,-0.53 -0.34,-0.96 -0.73,-2.07zm4.53 -5.53l-0.79 1.03c0.58,0.28 1.16,0.56 1.74,0.84 0.15,-0.23 0.29,-0.46 0.44,-0.7 -0.46,-0.39 -0.92,-0.78 -1.39,-1.17zm-4.3 15.74c-1.61,-2.11 -2.75,-1.84 -3.94,-0.6 -0.16,0.16 -0.12,0.51 -0.24,1.1 1.29,-0.15 2.44,-0.29 4.18,-0.5zm0.56 -2.12c0.25,1.53 0.37,2.25 0.51,3.09 -0.05,0.05 -0.26,0.38 -0.45,0.38 -4.01,-0.02 -7.85,0.92 -11.72,1.86 -2.72,0.66 -5.54,1.03 -8.33,1.22 -7.59,0.53 -15.05,2.12 -22.6,2.8 -1.49,0.13 -3.29,1 -4.66,0.18 -1.71,-1.02 -3.16,0.54 -4.8,-0.06 -0.31,-0.45 -0.69,-0.99 -1.16,-1.67 -0.27,0.85 -0.5,1.6 -0.81,2.6l-62.08 0 0 -21.97c1.39,0 2.69,-0 3.99,0 8.76,0.02 17.52,-0.09 26.27,0.09 5.49,0.11 11.07,0.14 16.43,1.15 4.03,0.76 7.97,0.58 11.95,0.83 5.15,0.31 10.3,0.77 15.46,0.93 6.33,0.2 12.56,-0.75 18.79,-1.84 3.42,-0.6 6.94,-0.62 10.38,-1.18 3.9,-0.63 7.74,-1.57 11.61,-2.39 2.56,-0.54 5.11,-1.09 8.21,-1.76 0.1,5.8 0,11.27 0.04,17.53 -1,-1.38 -1.58,-2.18 -2.56,-3.54 -0.31,1.74 -0.52,2.91 -0.82,4.59 -1.17,-0.92 -2.03,-1.59 -3.63,-2.84z"/>
    <path class="fil0" d="M305.82 363.65c-0.69,-0.08 -1.22,-0.15 -2.57,-0.31 0.87,1.1 1.25,1.57 1.85,2.32 0.32,-0.9 0.48,-1.32 0.72,-2.02zm-18.99 -27.29c-0.54,1.11 -0.82,1.68 -1.35,2.79 1.13,-0.38 1.56,-0.53 2.07,-0.7 -0.19,-0.54 -0.34,-0.96 -0.72,-2.08zm-9.58 -0.89c1.15,0.6 1.96,1.02 3.41,1.78 -0.83,-1.53 -1.25,-2.3 -1.81,-3.33 -0.59,0.57 -0.93,0.9 -1.6,1.55zm29.81 16.27c-1.65,1.14 -2.52,1.73 -4.07,2.81 2.68,0.74 3.38,-0.16 4.07,-2.81zm-3.59 20.81c-0.2,1.29 -1.87,2.99 0.72,3.89 0.74,-1.51 0.9,-2.79 -0.72,-3.89zm-9.09 7.89c0.59,-0.04 1.22,-0.08 2.23,-0.14 -1.29,-2.07 -1.6,-4.36 -3.61,-5.84 -0.52,0.48 -0.88,0.81 -1.11,1.02 0.9,1.79 1.67,3.34 2.49,4.97zm0.28 -10.12c1.03,-4.83 1.9,-9.67 2.05,-15.34 -1.09,0.87 -1.65,1.32 -2.3,1.84 -2.12,-0.56 -2.64,-2.65 -3.6,-4.06 -2.18,-0.89 -4.18,-1.7 -7.06,-2.88 -2.73,0.3 -6.34,0.69 -9.56,1.04 -1.76,1.65 -3.11,2.91 -4.33,4.05l-19.28 0c-0.49,-1.93 -0.93,-3.67 -1.37,-5.41 1.91,-5.23 0.36,-10.67 1.11,-16.28 0.45,-0.33 1.06,-1.11 1.77,-1.23 7.55,-1.27 15.09,-2.49 22.83,-2.26 5.75,0.17 11.12,1.54 16.45,3.45 6.75,2.43 11.37,7.14 14.62,13.38 0.08,0.15 0.2,0.28 0.28,0.42 2.88,5.47 2.94,5.78 2.88,12.79 0.53,0.36 1.05,0.73 1.9,1.31 -0.49,3.36 -0.98,6.79 -1.47,10.16 -0.93,0.54 -1.64,0.95 -2.55,1.48 0.52,0.36 0.97,0.67 1.77,1.22 -0.57,0.69 -1.11,1.34 -1.87,2.25 -0.08,0.6 -0.2,1.58 -0.33,2.56 -1.54,-0.12 -3.06,-0.24 -5.58,-0.44 1.67,1.33 2.52,2.01 3.48,2.78 -2.09,0.61 -4.74,0.03 -6.07,3.4 1.61,-0.43 2.62,-0.69 3.65,-0.97 0.05,0.27 0.23,0.65 0.12,0.78 -4.64,5.23 -10.92,7.42 -17.38,9.16 -5.47,1.47 -11.08,1.87 -16.74,2.28 -4.99,0.37 -9.97,0.74 -14.98,0.77 -0.82,0.01 -1.64,0 -2.72,0l0 -19.74c5.29,0.55 10.51,1.07 15.73,1.63 2.63,0.29 5.26,0.64 7.88,0.97 3.24,0.41 6.25,-0.7 9.31,-1.42 3.16,-0.74 5.88,-2.28 8.01,-4.82 0.62,-0.74 1.53,-1.26 2.3,-1.87 0.32,0.69 0.63,1.38 1.22,2.67 0.74,-1.62 1.16,-2.52 1.63,-3.54 -0.87,-0.08 -1.34,-0.13 -1.82,-0.17z"/>
    <path class="fil0" d="M269.67 175.35c0,0.15 0,0.31 0,0.46l3.42 0 -0 -0.46 -3.42 0zm4.73 -3.5l3.12 0c-0.68,-0.77 -1.09,-1.23 -1.6,-1.81 -0.49,0.58 -0.88,1.05 -1.52,1.81zm23.23 4.71c-0.03,-0.4 -0.07,-0.8 -0.1,-1.2 -0.55,0.03 -1.16,-0.1 -1.63,0.12 -0.42,0.19 -0.69,0.75 -1.67,1.91 1.82,-0.44 2.61,-0.63 3.39,-0.82zm-10.51 -0.24c-1.4,1.14 -2.79,2.28 -4.52,3.69l3.56 0c0.44,-1.06 0.89,-2.1 1.3,-3.16 0.03,-0.09 -0.16,-0.26 -0.34,-0.53zm15.64 5.85c-1.81,1 -0.97,2.41 -0.7,3.79 0.92,0.31 1.73,0.59 3.06,1.04 -0.97,-1.97 -1.67,-3.41 -2.37,-4.84 0.92,-1.38 0.92,-1.38 -1.24,-2.88 0.55,1.27 0.9,2.08 1.25,2.89zm-12.14 2.02c-1.27,-0.33 -2.69,-0.4 -3.78,-1.03 -4.95,-2.86 -10.55,-3.86 -15.85,-5.69 -2.76,-0.95 -5.86,-0.94 -8.79,-1.43 -3.45,-0.58 -6.87,-1.09 -10.4,-1.02 -8.33,0.16 -16.54,1.29 -24.54,3.47 -6.84,1.86 -13.53,4.31 -20.18,6.77 -2.73,1.01 -5.21,2.72 -8.47,4.48 -0.07,-8.87 -0.06,-17.05 -0.04,-25.54 5.51,-0.42 10.81,-0.68 16.07,-1.27 10.19,-1.16 20.41,-1.18 30.62,-0.86 4.92,0.15 9.89,0.56 14.76,1.75 2.72,0.67 5.56,0.98 8.36,1.12 3.2,0.15 6.16,1.1 9.18,1.97 2.37,0.68 4.84,1.01 7.88,1.62 0.48,0.54 1.38,1.57 2.67,3.05l0 -2.6c2.08,0.79 4.59,1.04 5.9,2.43 1.58,1.67 3.57,2.3 5.4,3.62 0.82,-0.26 1.74,-0.56 2.7,-0.86 0.4,0.58 0.77,1.11 1.27,1.83 1.51,0.08 3.16,0.16 5.11,0.26 -0.11,0.47 -0.2,0.86 -0.3,1.3 0.82,0.62 1.7,1.28 2.79,2.1 -1.02,0.71 -1.82,1.27 -2.66,1.85 0.47,0.61 1.02,1.25 1.48,1.95 0.38,0.56 0.66,1.19 1.8,1.51 -0.15,-0.83 -0.29,-1.65 -0.56,-3.12 0.47,-0.85 1.24,-2.26 2.21,-4.04 0.97,1.35 1.63,2.27 2.29,3.19 1.24,-0.3 2.49,-0.6 3.47,-0.83 2.55,1.31 1.96,3.08 1.66,4.98 -1.02,-0.22 -1.75,-0.38 -3.1,-0.68 0.77,1.18 1.24,1.91 1.71,2.62 0.53,-0.27 0.83,-0.42 1.2,-0.6 1.49,2.17 1.53,4.36 1.09,7 -0.38,2.25 0.68,4.75 1.15,7.41 -0.31,0.61 -0.76,1.49 -1.22,2.38 -7.98,-5.04 -15.87,-10.02 -23.77,-15.01 0.61,-0.11 1.23,-0.22 2.79,-0.5 -1.32,-0.78 -1.87,-1.11 -2.64,-1.56 -0.11,1.02 -0.16,1.51 -0.21,2 -2.35,-1.34 -4.7,-2.68 -7.05,-4.02 0.61,-0.09 1.23,-0.19 1.95,-0.3 -0.15,-0.69 -0.24,-1.12 -0.36,-1.65 -0.57,0.15 -1.01,0.26 -1.44,0.37 -0.06,0.61 -0.11,1.1 -0.15,1.59z"/>
    <path class="fil0" d="M144.12 385.76c-0.1,0.22 -0.19,0.43 -0.29,0.65 0.39,0.32 0.78,0.65 1.17,0.97 0.22,-0.46 0.45,-0.92 0.67,-1.38 -0.52,-0.08 -1.03,-0.16 -1.55,-0.24zm-6.31 -4.69c0.68,0.08 1.22,0.14 2.56,0.3 -0.87,-1.09 -1.25,-1.56 -1.84,-2.3 -0.32,0.89 -0.47,1.31 -0.72,2zm90.96 -6.34c3.58,1.26 6.67,2.35 10.04,3.55l0 17.06c-3.01,0.61 -6.16,0.15 -9.58,0.2 -0.18,-1.52 -0.36,-2.96 -0.53,-4.38 -3.93,-1.97 -8.18,-1.2 -12.27,-1.72 -9.02,-1.15 -18.12,-0.27 -27.07,-1.18 -5.7,-0.58 -11.44,-1.19 -16.98,-0.5 -5.87,0.72 -11.68,0.47 -17.51,0.77 -0.67,0.04 -1.35,0.01 -2.51,0.01 0.11,-0.63 0.2,-1.11 0.35,-1.95 -0.81,0.09 -1.96,-0.11 -2.27,0.3 -1.82,2.43 -4.36,2.62 -7.02,2.63 -2.36,0.01 -4.73,0.14 -7.07,-0 -2.32,-0.14 -4.23,0.65 -6.17,1.94 -0.28,0.92 -0.57,1.86 -0.84,2.77 -2.86,2.23 -6.11,1.02 -9.45,1.5l0 -18.15c3.31,0.1 6.3,-0.71 8.42,-3.09 4.72,-0.33 9.24,0.24 13.71,-0.95 2.04,-0.55 4.37,-0.23 6.54,-0.07 2.04,0.16 4.25,0.03 6.07,0.44 2.34,0.53 4.13,-0.62 6.25,-0.6 18.36,0.19 36.73,0.03 55.09,0.18 4.3,0.03 8.6,0.81 12.81,1.24z"/>
    <path class="fil0" d="M41.99 192.68c-0.54,1.11 -0.83,1.7 -1.36,2.8 1.13,-0.38 1.56,-0.52 2.08,-0.7 -0.19,-0.54 -0.33,-0.97 -0.72,-2.1zm7.18 -9.47c0.15,-0.31 0.29,-0.63 0.44,-0.94 -0.78,-0.33 -1.55,-0.65 -2.33,-0.97 -0.1,0.23 -0.2,0.46 -0.3,0.69 0.73,0.41 1.46,0.82 2.18,1.22zm5.67 -5.5c0.69,0.09 1.23,0.15 2.58,0.32 -0.87,-1.1 -1.25,-1.58 -1.84,-2.33 -0.33,0.9 -0.48,1.32 -0.73,2.01zm13.77 -2.38c-1.1,-0.53 -1.67,-0.81 -2.75,-1.33 0.38,1.11 0.52,1.54 0.69,2.05 0.53,-0.19 0.96,-0.33 2.06,-0.72zm7.49 -2.82c1.5,0.6 2.63,0.99 3.11,-1.35 -1.2,0.52 -2.03,0.88 -3.11,1.35zm-39.08 19.52l3.62 0c-0.14,-0.71 -0.22,-1.14 -0.38,-1.96 -0.97,0.58 -1.71,1.03 -3.24,1.96zm7.56 -5.53c-0.78,-0.71 -1.57,-1.42 -3.21,-2.91 0.86,2.52 1.34,3.9 1.9,5.54 0.53,-1.07 0.89,-1.79 1.31,-2.63zm6.96 -4.96c1.07,-0.46 1.7,-0.74 3.15,-1.38 -1.97,-0.96 -3.13,-1.53 -4.97,-2.43 0.76,1.6 1.16,2.43 1.82,3.81zm-4.75 10.74c-0.34,0.27 -0.68,0.54 -1.08,0.86 0.8,0.89 1.48,1.64 2.66,2.94 -1.53,-0.34 -2.26,-0.5 -3.02,-0.67 -0.52,1.21 -1.03,2.38 -1.64,3.79 -0.81,-0.76 -1.39,-1.31 -2.72,-2.56 0.13,1.7 0.19,2.51 0.27,3.55 -0.71,1.16 -1.75,1.68 -3.07,0.33 -0.4,0.6 -0.72,1.08 -1.57,2.36 0.35,-6 -0.8,-11.2 1.52,-15.59 -0.22,-2.06 -0.4,-3.68 -0.57,-5.2 10.29,-5.85 21.42,-8.92 32.36,-12.42 5,-1.6 10.21,-2.56 15.37,-3.63 5.32,-1.11 10.68,-2 16.03,-2.97 0.33,-0.06 0.67,-0.05 1.01,-0.07 6.67,-0.35 13.33,-0.76 20,-1.01 3.7,-0.14 7.42,-0.19 11.11,0.02 6.95,0.4 13.93,0.61 20.81,1.87 1.76,0.32 3.63,0.05 5.61,0.05l0 24.79c-6.07,-2.54 -11.89,-5.48 -18.02,-7.41 -8,-2.52 -16.14,-4.7 -24.61,-5.39 -2.6,-0.21 -5.21,-0.81 -7.88,-0.88 -11.08,-0.26 -21.79,1.61 -32.12,5.57 -4.49,1.72 -8.85,3.76 -13.29,5.59 -1.36,0.56 -2.81,0.91 -4.57,1.47 -0.52,0.65 -1.33,1.64 -2.4,2.96 -1.06,-1.17 -1.9,-2.09 -2.98,-3.27l-2.92 0c0.3,0.79 0.55,1.45 0.93,2.46 0.45,-0.08 0.96,-0.18 1.68,-0.31 0.39,0.58 0.82,1.22 1.31,1.94 -2.09,1.28 -3.91,2.4 -5.69,3.5 -0.83,-0.87 -1.69,-1.77 -2.55,-2.67 0.62,-0.09 1.24,-0.19 2.02,-0.31 -0.36,-2.34 -1.52,-3.04 -3.49,-2.46 -0.21,0.06 -0.29,0.52 -0.62,1.15 0.75,0.06 1.33,0.11 1.96,0.15 0.05,0.49 0.09,0.98 0.14,1.47z"/>
    <path class="fil0" d="M119.92 307.87c2.66,-0.19 4.97,-0.36 7.82,-0.56 0.25,1.26 0.81,2.97 0.89,4.69 0.16,3.53 0.02,7.08 0.11,10.62 0.05,1.98 -0.2,3.93 0.71,5.93 0.52,1.15 -0.1,2.82 -0.22,4.5 2.86,1.75 6.1,1.05 9.11,0.58 4.71,-0.74 8.11,-0.88 13.31,0.13 2.11,0.41 4.36,0.22 6.44,0.73 3.04,0.74 5.98,1.86 9.3,2.93 1.25,1.67 2.63,3.52 3.65,4.89 0.47,4.63 -0.31,8.64 0.7,12.7l-51.47 0c-0.74,-3.81 -1.01,-38.84 -0.34,-47.14z"/>
    <path class="fil0" d="M229.91 334.39c0,-2.24 -0.05,-3.56 0.01,-4.88 0.35,-7.49 0.73,-14.97 1.09,-22.27 2.66,0.23 5.09,0.43 7.76,0.66l0 47.03 -51.3 0c0.04,-5.28 -0.51,-10.42 1.31,-15.43 6.27,-4.94 13.6,-6.59 21.43,-6.56 3.87,0.02 7.76,-0.08 11.62,0.14 2.45,0.14 4.86,0.77 8.08,1.32z"/>
    <path class="fil0" d="M108.39 313.6l0 6.82c-1.28,0.08 -2.73,0.6 -3.76,0.16 -2.61,-1.13 -5.26,-0.78 -7.91,-0.84 -3.03,-0.07 -6.1,0.28 -9.08,-0.13 -2.81,-0.39 -5.5,0.24 -8.26,0.18 -9.35,-0.2 -18.4,1.76 -27.33,4.36 -0.79,0.23 -1.58,0.49 -2.39,0.62 -0.46,0.07 -0.95,-0.12 -1.65,-0.22l0 -10.36c5.14,-1.47 10.28,-1.68 15.43,-1.48 4.35,0.17 8.71,-1.11 12.91,-0.79 8.69,0.67 17.37,0.67 26.07,0.85 1.86,0.04 3.71,0.52 5.96,0.85z"/>
    <path class="fil0" d="M304.5 315.47c0.03,-0.15 0.05,-0.3 0.08,-0.45 -1.14,-0.43 -2.28,-0.86 -3.71,-1.39 0.09,0.93 0.13,1.37 0.17,1.85l3.45 0zm6.14 -1.34c0.05,0.65 0.16,1.29 0.14,1.94 -0.01,0.48 -0.19,0.95 -0.31,1.5 -0.75,-0.57 -1.41,-1.07 -2.09,-1.58 0.11,1.86 0.11,1.86 2.31,3.41l0 4.97c-3,1.4 -5.65,-0.33 -8.29,-0.83 -5.5,-1.05 -10.97,-2.13 -16.51,-3 -6.01,-0.94 -11.99,-0.41 -17.91,-0.94 -0.43,-0.56 -0.81,-1.06 -1.19,-1.56 -0.37,0.54 -0.74,1.07 -0.94,1.36 -5.2,0.43 -10.15,0.84 -15.33,1.27 -0.83,-2.48 -0.07,-4.96 -0.52,-7.71 1.63,-0.09 2.92,-0.21 4.22,-0.22 8.75,-0.03 17.49,-0 26.24,-0.09 2.29,-0.02 4.58,-0.38 7.68,-0.66 0.58,0.28 1.92,0.92 3.02,1.45 6.64,-1.49 12.99,-0.74 19.48,0.7z"/>
    <path class="fil0" d="M302.74 153.85c1.21,-1.38 1.83,-1.38 3.05,-0.01 -0.04,0.48 -0.09,0.97 -0.16,1.71 -0.74,0.08 -1.5,0.15 -2.5,0.26 -0.15,-0.75 -0.27,-1.35 -0.39,-1.95z"/>
   </g>
  </g>
 </g>
</svg>
