<?xml version="1.0" encoding="UTF-8"?>
<!DOCTYPE svg PUBLIC "-//W3C//DTD SVG 1.1//EN" "http://www.w3.org/Graphics/SVG/1.1/DTD/svg11.dtd">
<!-- Creator: CorelDRAW -->
<svg xmlns="http://www.w3.org/2000/svg" xml:space="preserve" width="50.3355mm" height="48.8266mm" version="1.1" style="shape-rendering:geometricPrecision; text-rendering:geometricPrecision; image-rendering:optimizeQuality; fill-rule:evenodd; clip-rule:evenodd"
viewBox="0 0 5027.69 4876.97"
 xmlns:xlink="http://www.w3.org/1999/xlink"
 xmlns:xodm="http://www.corel.com/coreldraw/odm/2003">
 <defs>
  <style type="text/css">
   <![CDATA[
    .fil0 {fill:white}
   ]]>
  </style>
 </defs>
 <g id="Layer_x0020_1">
  <metadata id="CorelCorpID_0Corel-Layer"/>
  <path class="fil0" d="M2021.04 1731.88c-17.12,-4.37 -31.68,-13.63 -43.88,-27.44 -7.32,-8.3 -20.73,-16.36 -29.67,-23.39l-6.75 -5.31 -2.75 -8.13c-1.23,-3.67 -3.11,-8.2 -6.62,-10.24 -7.93,-4.59 -14.8,-11.07 -18.74,-19.47 -1.74,-3.72 -6.36,-8.14 -9.23,-10.98 -4.11,-4.07 -7.97,-7.94 -11.51,-12.09 -15.05,20.07 -33.99,35.39 -53.56,51.33 -3.59,2.92 -10.73,8.49 -12.75,12.79l-5.31 11.32 -11.9 3.85c-1.41,0.46 -2.82,0.92 -4.24,1.37 -9.41,8.27 -18.86,16.46 -27.91,24.74 -1.37,1.6 -2.91,4.13 -4.42,6.09 -7.85,10.18 -14.06,18.5 -25,25.3 -0.45,0.57 -0.9,1.17 -1.34,1.76 -3.99,7.26 -7.46,12.46 -15.38,16.72 -3.68,1.97 -7.02,5.91 -9.62,9.12 -5.81,7.17 -10.92,14.42 -17.46,21.05 -12.25,12.36 -18.96,22.51 -35,28.6 -10.97,13.15 -22.96,19.82 -36.31,30.99 -7.74,6.48 -14.32,11.75 -24.52,13.87 -1.44,1.54 -3.36,4.46 -4.33,5.82l-5.78 7.99 -9.47 2.78c-11.06,3.24 -23.16,5.76 -33.82,10.03 -21.62,8.65 -42.72,4.92 -61.6,-7.98l-5.5 -3.77 -3.3 -5.79c-12.86,-22.66 -8,-45.31 4.52,-66.37 6.3,-10.6 11.34,-22.06 16.83,-33.1 6.44,-12.93 14.41,-25.41 24.62,-35.71 24.95,-25.2 51.1,-49.16 76.38,-74.03 3.54,-3.49 18.31,-14.39 19.56,-17.15 3.7,-8.2 9.91,-13.97 17.57,-18.4 2.21,-1.26 4.81,-2.4 6.6,-3.5 4.2,-3.37 8.37,-8.2 12.77,-12.09 3.53,-3.12 8.68,-6.32 11.75,-9.46 19.56,-20.01 38.58,-40.53 58.39,-60.29 13.26,-13.21 26.64,-26.23 41.76,-37.33 0.51,-0.37 1.37,-1.03 2.02,-1.65 -0.09,-0.41 -0.21,-0.85 -0.35,-1.28 -3.31,-1.46 -6.64,-2.99 -10.41,-5.66 -8.66,-6.17 -14.33,-14.29 -17.06,-23.54 -7.09,-4.52 -12.86,-10.14 -16.95,-17.2 -13.74,-8.46 -25.02,-19.75 -34.83,-32.54 -1.47,-1.91 -4.71,-6.77 -7.56,-6.73l-16.07 0.19 -8.62 -13.56c-3.95,-6.23 -7.85,-12.49 -11.86,-18.68 -1.29,-2.01 -2.94,-5.08 -4.44,-6.84 -12.1,-14.13 -15.41,-19.95 -18.72,-34.54 -12.32,-9.76 -22.89,-21.03 -33.49,-32.8 -9.79,-10.89 -19.75,-22.47 -31.21,-31.66 -10.63,-8.51 -14.81,-18.3 -20.73,-29.75 -0.04,-0.08 -0.08,-0.16 -0.12,-0.24 -7.27,5.05 -13.97,10.43 -17.17,15.66 -3.6,5.89 -7.78,10.92 -13.64,14.74 -17.06,11.12 -32.09,26.88 -47.48,40.18 -14.28,12.35 -29.78,22.78 -46.74,31.1 -10.95,5.37 -21.17,12.44 -29.63,21.26 -9.76,10.18 -21.32,18.73 -33.45,25.87 -17.25,10.15 -32,24.19 -45.98,38.37l-7.93 8.05 -11.31 0.5c-4.46,0.2 -12.46,2.91 -17.21,3.86 -9.19,1.82 -18.02,2.11 -26.65,0.36 -1.22,0.6 -2.44,1.19 -3.67,1.78 -2.15,6.16 -4.05,12.47 -6.28,18.52 -5.2,14.04 -11.77,26.51 -21.94,37.66l-6.25 6.84 -9.07 1.92c-7.51,1.6 -15.02,3.19 -22.53,4.78 -0.31,0.46 -0.61,0.92 -0.92,1.38l-2.2 3.31 -3.02 2.6c-17.12,14.73 -32.99,16.54 -52.45,17.83 -6.71,6.21 -12.36,11.89 -20.5,16.89 -0.46,2.69 -0.87,5.46 -1.65,8.2l-3.6 12.74 -12.01 5.57c-7.56,3.51 -18.75,7.79 -24.59,13.81 -6.59,6.79 -14.53,10.9 -23.33,14.01 -4.03,1.43 -8.59,2.59 -12.47,4.27 -0.94,0.41 -1.92,0.78 -2.88,1.14 -9.92,10.69 -20.25,13.54 -34.23,18.68l-9.22 3.39 -9.37 -2.95c-6.97,-2.2 -13.98,-4.16 -20.84,-6.72 -10.35,-3.88 -18.54,-7.23 -24.81,-17.28 -2.56,-1.77 -9.14,-4.17 -12.07,-5.55 -15.72,-7.51 -26,-22.34 -27.07,-39.78 -0.71,-11.45 -0.43,-23 0.82,-34.41 1.55,-14.14 8.98,-25.93 19.57,-35.16 7.95,-6.93 15.08,-14.83 23.03,-21.85 6.6,-5.82 14.38,-10.62 22.8,-13.28 7.02,-2.22 12.69,-6.47 18.02,-11.46 13.12,-12.26 27.63,-19.2 42.24,-28.97 28.73,-19.2 59.01,-35.7 89.24,-52.37 16.21,-8.93 27.45,-19.13 44.73,-25.88 11.76,-10.55 23.47,-21.15 35.28,-31.64 7.16,-6.36 11.19,-10.95 21.3,-13.68 11.59,-3.14 25.63,-15.24 35.33,-21.98 18.07,-12.56 38.66,-23.97 54.85,-38.91 5.89,-5.43 12.2,-9.48 18.67,-14.07 1.25,-0.88 2.45,-1.6 3.66,-2.26 7.47,-8.93 16.32,-15.64 26.22,-22.23 6.2,-4.14 14.16,-8.85 19.29,-14.31 6.6,-7.06 12.93,-10.19 20.47,-15.45 16.08,-11.23 32.51,-22.03 48.27,-33.71 -11.06,5.46 -19.44,10.14 -32.14,10.9 -22.33,13.26 -44.46,17.27 -67.98,27.45 -7.21,3.12 -15.3,10.21 -21.44,15.19 -7.3,5.92 -14.37,10.95 -23.08,14.7 -10.68,4.59 -21.01,10.04 -31.33,15.36 -22.87,11.8 -45.32,24.39 -68.57,35.47 -18.84,8.97 -34.63,17.58 -55.69,19.65 -0.51,0.27 -1.03,0.54 -1.53,0.78 -26.92,13.23 -53.92,26.31 -81.78,37.47 -1.92,1.24 -4.52,3.79 -6.23,5.23 -6.22,5.3 -12.13,10.96 -18.16,16.46l-6.3 5.76 -8.43 1.4c-4.22,0.7 -17.79,1.17 -24.79,2.54 -11.82,19.52 -32.92,27.45 -56.1,21.34 -1.54,-0.41 -3.36,-1 -5.16,-1.54 -8.3,5.22 -16.59,10.46 -24.89,15.69 -4.61,13.28 -9.23,26.57 -13.84,39.86l-3.01 8.69 -7.5 5.33c-17.16,12.24 -38.12,12.09 -54.22,-1.86 -4.14,-3.59 -9.59,-2.62 -14.59,-1.64 -8.26,1.63 -16.21,1.74 -24.56,1.9 -6.28,0.12 -12.51,-0.28 -18.53,-0.39 -12.73,9.18 -23.45,17.26 -37.85,21.65 -3.75,7.22 -7.49,14.45 -11.25,21.68l-6.18 11.92 -13.08 2.94c-7.95,1.92 -12.1,3.88 -21.03,3.5 -11.24,-0.47 -19.9,4.17 -28.19,11.42 -5.75,5.02 -11,7.02 -17.97,9.32l-5.07 2.13 -6.21 -0.17c-3.79,-0.1 -6.84,-0.52 -9.53,-1.17 -1.95,6.62 -4.65,12.77 -8.95,18.62 -3.23,4.41 -5.96,10.77 -8.79,15.62 -6.41,10.99 -14.2,19.88 -25.27,26.43l-6.24 3.72 -7.26 0.3c-12.87,0.54 -25.76,1.07 -38.64,1.61 -0.99,0.97 -1.98,1.95 -2.96,2.94 -16.53,16.74 -37.19,26.29 -60.98,25.4 -9.4,-0.35 -18.85,-0.05 -28.26,-0.05l-8.51 0 -7.14 -4.62c-10.72,-6.93 -21.39,-16.57 -32.48,-22.35 -30.77,-16.05 -39,-54.05 -21.73,-83.09 2.03,-3.41 5.28,-7.24 6.86,-10.23 7.86,-20.99 23.14,-35.37 42.53,-46.3 11.4,-6.43 27.91,-12.7 37.61,-21.23l5.17 -4.55 6.67 -1.72c15.74,-4.06 30.61,-10.24 43.94,-19.65l6.31 -4.45 7.7 -0.7c11.2,-1.02 28.55,-13.42 38.68,-18.56 35.96,-18.17 70.2,-37.93 108.85,-50.16 7.65,-2.42 15.61,-3.92 23.17,-6.41 3.94,-1.3 8.04,-3.53 11.76,-5.37 15.45,-7.72 27.76,-14.92 45.42,-17.3 0.71,-0.1 1.86,-0.29 2.48,-0.56 33.68,-17.39 71.06,-26.14 104.23,-43.54 22.63,-11.87 46.54,-19.9 69.93,-29.9 23.39,-9.99 46.58,-20.47 70.03,-30.29 10.55,-4.41 21.39,-7.72 32.21,-11.31 11.16,-3.69 24.79,-7.83 33.76,-15.78 8.56,-7.59 17.02,-11 26.77,-16.18 26.65,-14.18 51.59,-28.23 81.38,-35.03 16.62,-3.79 32.66,-8.88 49.58,-11.55 3.79,-0.59 8.36,-1.52 11.26,-4.24 9.43,-8.83 19.95,-13.76 32.04,-17.78 1.95,-0.65 6.69,-2.35 8.26,-3.73 9.28,-9 19.68,-15.39 31.07,-19.69 -15.98,2.46 -31.98,4.39 -48.27,4.92 -3.99,0.12 -8.52,1.01 -12.99,1.98 -10.07,10.09 -20.85,18.53 -35.18,22.76l-3.61 1.06 -3.75 0.11c-9.1,0.26 -18.2,0.43 -27.29,0.8 -11.65,0.48 -23.45,0.5 -35.04,1.74 -23.47,2.51 -46.8,3.12 -70.27,0.1 -10.02,-1.3 -20.63,-0.58 -30.93,-0.26 -7.04,4.06 -12.5,9.03 -17.43,16.07 -9.73,13.87 -20.87,22.54 -38.53,23.75l-10.46 0.71 -8.47 -6.17c-4.63,-3.38 -9.27,-6.76 -13.91,-10.14 -12.35,-2.86 -24.93,-4.71 -37.65,-4.23 -4.51,0.18 -7.41,0.87 -10.51,4.21 -6.87,7.43 -14.54,13.89 -21.52,21.15 -10.32,10.72 -22.95,15.91 -37.75,16.97l-7.03 0.51 -6.46 -2.8c-8.99,-3.89 -18.74,-6.39 -28.44,-7.66 -15.11,-1.97 -29.23,-0.21 -43.38,5.38 -13.87,5.47 -27.87,10.29 -42.5,12.13 -0.99,1.82 -1.98,3.66 -2.88,5.05 -6.53,10.14 -15.12,17.5 -26.69,21.42l-10.23 3.48 -9.99 -4.12c-8.48,-3.49 -16.54,-4.17 -25.05,-0.19 -9.03,4.22 -13.99,3.36 -22.62,3.87 -1.32,0.22 -3.2,0.39 -4.86,0.69 -15.35,9.19 -30.56,12.52 -47.14,16.65 -1.32,1.8 -2.67,3.62 -4.23,5.33 -7.87,8.66 -17.67,14.22 -29.37,15.76l-4.22 0.55 -4.2 -0.69c-4.29,-0.7 -8.59,-1.41 -12.88,-2.11l-18.78 21.74 -21.19 -18.57c-2.04,-0.15 -5.92,0.17 -9.96,0.55 -4.17,3.61 -8.33,7.21 -12.51,10.82l-10.32 8.94 -13.45 -2.33c-10.7,-1.85 -19.63,-7.29 -26.3,-15.79 -1.17,-1.49 -2.12,-2.99 -3.04,-4.47 -1.85,-0.54 -3.72,-1.14 -5.61,-1.86 -17.34,-6.59 -30.64,-20.05 -34.31,-38.59 -1.41,-7.13 -4.54,-12.23 -10.05,-16.93 -4.24,-3.62 -7.22,-7.65 -10.16,-12.29 -11.59,-18.29 -6.18,-44.25 12.58,-55.54 5.52,-3.32 10.89,-5.25 16.68,-7.78 3.4,-1.48 7.26,-2.44 10.59,-3.77 14.41,-13.63 30.63,-18.73 49.8,-22.88 6.52,-1.41 20.03,-3.6 25.24,-8.13l7.79 -6.75 10.3 -0.29c20.52,-0.57 43.16,2.64 63.75,0.3 3.99,-3.88 7.98,-7.74 11.98,-11.61l9.65 -9.35 13.36 1.38c1.66,0.18 3.33,0.35 4.99,0.52 0.21,-0.33 0.43,-0.65 0.65,-0.98 6.56,-9.45 15.66,-15.83 26.94,-18.41l2.62 -0.6 2.69 -0.1c12.37,-0.48 23.12,4.33 32.04,12.6 1.83,1.7 4.1,4.36 6.11,6.28 6.43,-5.27 13.5,-8.63 22.11,-8.72 6.47,-0.07 14.57,-2.86 20.69,-4.7 9.18,-2.77 17.86,-5.08 27.01,-5.95 3.22,-2.48 6.43,-4.96 9.65,-7.44l9.85 -7.58 12.28 1.95c1.65,0.26 3.3,0.52 4.94,0.79 8.66,-4.33 17.32,-8.68 25.98,-13.01l5.32 -2.66 5.94 -0.34c8.93,-0.51 17.85,-1.02 26.78,-1.52 2.38,-1.5 4.75,-2.98 7.18,-4.39 14.89,-8.71 31.61,-11.65 48.38,-6.96 8.21,2.29 15.47,2.64 23,-1.76 7.14,-4.16 11.52,-4.3 18.79,-6.22 8.18,-2.2 16.37,-4.39 24.55,-6.59l7.66 -2.06 7.63 2.16c6.58,1.86 13.98,4.92 20.68,5.89 10.2,1.48 19.86,-0.23 29.15,-4.62 12.14,-5.74 24.51,-10.94 36.82,-16.3 10.69,-4.66 18.41,-8.49 29.97,-8.8 7.42,-4.22 14.9,-7.07 22.42,-8.78 -8.16,-0.35 -16.31,-1.64 -24.34,-3.83 -23.61,-6.41 -48.01,-7.85 -72.37,-7.38 -1.31,0.02 -3.78,0.08 -4.68,0.31 -14.7,7.41 -29.79,9.03 -46.37,8.88 -1.26,-0.01 -3.25,-0.09 -4.85,0 -10.83,9.31 -24.07,12.19 -38.2,11.38 -15.89,-0.93 -27.64,0.04 -42.86,-6.45 -2.24,-0.3 -5.52,-0.22 -7.61,-0.31 -22.62,-1.02 -45.25,-2.32 -67.89,-2.52 -10.7,-0.09 -29.53,-2.37 -39.3,2.91 -9.21,4.97 -17.23,5.25 -27.16,5.58 -19.11,0.64 -41.2,0.13 -59.44,6.59 -7.27,2.57 -11.78,2.13 -18.94,2.14 -24.83,0.44 -49.68,1.23 -74.53,1.17 -36.24,-0.08 -72.47,-0.87 -108.69,-1.14 -8.88,-0.06 -17.79,0.18 -26.64,1 -15.03,1.41 -27.22,3.51 -42.16,0.55 -1.41,0.25 -5.79,2.78 -7.34,3.64l-9.16 5.11 -10.31 -1.98c-11.73,-2.25 -23.47,-4.42 -35.19,-6.78 -7.54,-1.53 -14.29,-2.54 -21.57,-5.44 -5.79,-2.31 -10.99,-2.57 -16.78,-0.2 -11.61,4.76 -23.7,6.99 -36.24,6.42 -31.42,-1.41 -61.29,1.1 -92.83,-4.86 -0.62,0.14 -1.83,1.03 -2.32,1.4 -2.27,1.73 -4.43,3.55 -6.66,5.32l-4.35 3.48 -5.34 1.6c-12.12,3.64 -24.36,2.87 -35.69,-2.87 -3.35,-1.7 -5.78,-3.48 -8.28,-5.33 -7.72,-0.5 -15.43,-0.99 -23.15,-1.47l-23.73 -1.5 -3.05 -23.58c-0.83,-6.42 -2.1,-12.16 -2.1,-18.77 -0.02,-13.23 -1.42,-26.41 -5.83,-38.95 -2.3,-6.54 -3.58,-13.25 -4.48,-20.11 -0.74,-5.57 -0.1,-10.24 1.22,-15.54l1.39 -8.3 6.63 -6.55c14.91,-14.71 29.82,-29.45 44.72,-44.17l2.79 -2.76 3.42 -1.91c11.54,-6.44 19.4,-3.23 30.78,-3.22 48.47,0.04 96.95,0.13 145.43,0 13.51,-0.03 25.67,1.87 37.7,8.49 0.57,0.31 1.74,0.7 2.38,0.74 24.86,-0.08 49.41,2.72 74.13,5.33 25.87,2.75 52.44,1.27 78.45,1.39 13.78,0.07 27.41,1.45 41.13,2.45 22.88,1.65 46.04,1.72 68.87,-0.58 12.7,-1.28 27.75,-1.5 39.83,-5.55 13.47,-4.53 22.42,-2.4 35.53,-2.68 10.74,-0.22 21.19,-1.53 31.54,-4.47 24,-6.83 48.49,-7.35 71.9,2.26 7.05,2.9 13.48,1.85 20.56,-0.56 25.9,-8.78 52.24,-16.04 78.42,-23.9 12.33,-3.71 24.51,-3.16 36.94,-0.29l9.8 2.25 6.27 7.87c2.48,3.11 4.95,6.21 7.42,9.32 7.24,1.94 14.49,3.89 21.75,5.73 0.56,0.14 1.14,0.3 1.73,0.46 24.56,-2.49 47.26,1.58 71.5,1.09 6.55,-0.13 26.34,0.19 31.62,-4.04l6.9 -5.52 8.81 -0.7c24.69,-1.96 50.77,-2.22 75,-7.37 21.78,-4.63 43.37,-2.18 65.01,1.8 4.66,0.86 9.59,1.62 14.34,1.64 27.39,0.13 54.76,-0.81 82.13,0.02 14.65,0.45 28.45,-2.14 41.73,-8.33 16.34,-7.61 32.97,-8.18 49.58,-0.95 7.41,3.23 16.69,5.19 24.49,7.61l9.82 3.04 5.67 8.55c11.28,16.98 24.01,31.28 33.76,49.63 8.86,16.7 18.98,32.74 29.08,48.71 1.74,2.75 6.04,6.5 8.45,8.74 16.66,15.49 32.65,30.99 45.78,49.71 0.66,0.94 1.74,2.5 2.67,3.45 18.61,9.88 30.59,25.33 40.58,43.5 1.15,2.11 2.85,5.75 5.4,6.46 6.81,1.89 9.66,4.51 15.12,7.93l6.55 4.1 3.63 6.81c8.26,15.53 13.41,32.03 18.46,48.79 3.05,10.14 6.12,20.8 10.3,30.73 25.24,13.69 46.09,32.08 62.24,56.39 1.1,1.66 2.26,3.76 3.44,5.52 15.03,9.05 23.23,21.69 29.7,36.99 22.38,20.09 42.61,41.58 57.58,68.02 0.93,1.65 2.08,3.24 3.36,4.62 21.87,23.83 41.97,49.12 62.87,73.79 8.38,9.9 17.56,18.56 25.28,28.98 2.17,2.33 8.57,6.21 11.49,8.45 11.18,8.58 22.6,16.82 33.62,25.6 3.75,2.99 13.07,13.2 15.92,14.56 8.29,3.47 11.7,7.77 17.19,14.04 22.68,25.04 44.17,51.44 68.38,75.07 7.21,7.04 15.8,13 23.88,19.02 11.34,8.44 20.67,17.69 27.74,30.08 4.17,7.29 11.03,14.47 16.48,20.9 15.12,17.81 30.05,35.83 45.98,52.95 11.73,12.61 24.6,24.17 37.34,35.74 14.24,12.95 26.94,21.96 37.36,38.81 1.66,1.52 4.95,3.54 6.61,4.65 20.21,13.6 37.12,28.43 47.3,50.84 17.62,4.87 32.7,11.91 43.45,26.24 7.54,4.78 14.01,10.74 20.19,17.49 4.96,5.43 9.71,11.61 15.02,16.64 8.03,7.59 16.18,15.18 25.11,21.7 13.72,10.04 25.28,21.96 37.54,33.63 6.67,6.35 12.73,13.23 18.71,20.23 4.29,5.01 8.3,10.3 12.33,15.55 0.35,0.2 0.7,0.4 1.05,0.61 -0.05,-0.83 -0.1,-1.66 -0.14,-2.49 -0.43,-7.7 -0.2,-15.41 0.29,-23.1 0.99,-15.78 2.11,-31.56 3.49,-47.31 0.7,-8.02 1.82,-16 3.77,-23.82 2.21,-8.9 1.28,-18.3 -0.27,-27.21 -5.39,-31.23 -5.91,-62.38 2.72,-93.11 3.01,-10.7 2.07,-23.42 1.35,-34.37 -1.41,-21.4 -2.61,-42.8 -3.8,-64.22 -0.48,-8.6 -2.26,-16.32 -6.12,-24.06 -8.81,-17.66 -15.29,-36.11 -22.58,-54.39 -0.44,-1.12 -1.08,-2.87 -1.72,-4.14 -25.56,-18.14 -40.21,-41.52 -58.57,-66.23 -2.61,-3.52 -5.66,-6.78 -8.98,-9.63 -12.46,-10.68 -25.44,-20.72 -37.93,-31.36 -5.58,-4.76 -9.39,-9.85 -14.21,-15.13 -23.52,-25.81 -47.08,-52.77 -75,-73.95 -7.34,-5.57 -12.97,-12.26 -18.62,-19.43 -8.03,-10.24 -15.95,-20.56 -23.18,-31.38 -3.27,-4.88 -5.92,-9.93 -8.51,-15.04 -1.82,-0.66 -3.64,-1.32 -5.45,-1.98l-10.35 -3.78 -5.2 -9.71c-4.33,-8.11 -8.87,-16.08 -12.92,-24.34 -2.87,-5.83 -4.76,-11.73 -7.18,-17.69 -9.74,-24.04 -2.36,-44.58 19.52,-56.63 1.48,-5.78 2.46,-11.73 1.73,-16.84 -2.9,-20.27 4.24,-38.2 16.83,-53.77 10.36,-12.79 22.13,-23.77 35.3,-33.61 10.69,-7.98 20.23,-19.81 29.42,-29.53 8.18,-8.68 15.81,-17.89 23.67,-26.86 2.45,-2.8 6.78,-6.76 8.71,-9.73 8.41,-12.97 19.76,-22.73 34.25,-28.31 3.87,-1.49 5.03,-3.38 6.15,-7.36 2.37,-8.42 6.43,-15.54 11.09,-22.82 10.14,-15.83 20.57,-31.47 30.79,-47.21 -0.23,-1.53 -0.45,-3.06 -0.67,-4.58l-2.15 -14.85 10.93 -10.27c5.25,-4.93 10.49,-7.86 15.87,-9.27 1.68,-10.81 3.37,-21.62 5.04,-32.44l1.13 -7.24 4.44 -5.82c0.86,-1.12 2.06,-2.29 2.99,-3.42 0.56,-2.33 0.87,-5.1 1.42,-7.4l4.46 -18.93 19.22 -2.95c6.64,-1.02 12.97,-0.43 18.59,1.53 2.29,-5.86 4.34,-11.97 6.95,-17.6 3.42,-7.39 6.01,-15.22 8.11,-23.08 2.93,-10.91 7.28,-23.64 7.93,-34.89 1.61,-27.45 1,-55.02 1.33,-82.5 0.3,-24.24 -0.05,-48.47 1.25,-72.71 0.43,-8.1 1.99,-15.83 3.66,-23.74 1,-4.7 2.2,-9.87 2.43,-14.68 0.65,-13.87 -1.95,-25.35 0.45,-40.07 1.88,-11.48 1.57,-23.87 1.89,-35.5 0.03,-1.05 0.1,-5.23 -0.61,-6.24 -5.23,-7.5 -8.7,-16.68 -9.33,-25.83 -0.94,-13.56 -1.39,-27.17 -1.91,-40.75 -0.27,-0.42 -0.54,-0.84 -0.81,-1.26 -6.36,6.63 -14.14,11.74 -23.22,14.79 -3.28,1.11 -8.64,6.68 -11.01,8.93 -17.7,16.77 -33.1,34.31 -53.06,48.71 -6.84,13.82 -17.3,22.88 -30.18,29.6 -4.34,8.25 -10.15,15.51 -16.92,22.45 -6.24,6.39 -13.54,12.42 -19.31,19.17 -12.78,14.98 -28.45,25.65 -43.56,37.72 -1.24,2.54 -2.48,5.07 -3.73,7.61l-5.87 12.04 -12.99 3.27c-3.81,0.95 -6.97,1.94 -10.99,2.37 -7.08,0.77 -14.48,-0.47 -20.86,-3.68 -11.21,-5.63 -19.37,-13.69 -26.96,-23.43 -3.68,-4.71 -7.59,-10.77 -11.87,-14.87 -15.92,-15.26 -14.74,-34.47 -11.32,-54.2 5.06,-29.13 7.05,-34.53 24.07,-58.6 28.36,-40.11 61.38,-76.38 95.21,-111.88 12.42,-13.02 27.17,-25.63 37.78,-40.15l3.05 -4.18 4.31 -2.86c7.07,-4.68 13.36,-12.11 18.84,-18.49 7.6,-8.86 14.86,-17.31 23.65,-24.74 4.19,-6.72 9.22,-12.62 14.78,-18.44 4.22,-4.4 9.04,-8.9 12.71,-13.75 12.13,-16.06 24.88,-31.63 37.68,-47.16 9.16,-11.12 14.34,-16.26 22.39,-20.76 0.06,-1.12 0.13,-2.24 0.2,-3.37l0.69 -12 9.02 -7.94c14.62,-12.9 31.3,-18.4 50.37,-20.42 7.24,-0.77 15.24,-0.86 22.86,-1.55 0.78,-1.16 1.56,-2.32 2.34,-3.48l8.58 -12.78 15.39 0.03c20.19,0.03 36.55,9.32 48.08,25.66 6.5,9.21 15.19,16.25 24.54,22.42 21.63,14.3 40.44,29.1 51.29,53.38 1.08,1.76 3.53,4.36 5,6.26 8.99,11.46 16.39,23.09 20.37,36.43 32.39,19.8 58.49,43.57 69.49,80.99 2.65,2.24 5.3,4.47 7.96,6.7l7.01 5.9 1.73 6.6 14.9 1.67 6.37 15.25c11.27,0.44 21.63,3.35 32.56,12.3l3.75 3.08 2.54 4.13c6.96,11.34 11.08,23.62 11.85,36.19 3.46,1.3 7.01,3.12 11.01,5.98 11.04,7.94 14.94,16.2 22.8,26.11l7.97 10.04 -2.12 12.64c-0.46,2.73 -0.92,5.45 -1.38,8.18 1.31,3.35 2.7,6.66 4.27,9.3 2,3.37 7.25,8.42 9.92,11.62l9.47 11.33 -3.67 14.3c-2.15,8.36 -3.44,16.09 -6.6,24.25 -9.47,24.44 -37.34,36.35 -61.3,25.27 -17.39,-8.05 -34.47,-16.7 -51.58,-25.31 -4.39,-2.22 -8.47,-5.6 -12.31,-7.48 -22.05,-8.36 -38.46,-23.61 -49.63,-44.01 -5.23,-2.73 -10.31,-5.36 -15.38,-8.98 -12.44,-8.86 -21.74,-15.09 -29.28,-29.16 -3.47,-3.5 -11.65,-8.43 -15.82,-11.96l-7.92 -6.68 -1.86 -10.2c-0.23,-1.29 -0.38,-2.47 -0.48,-3.58 -0.87,-0.14 -1.73,-0.27 -2.6,-0.4l-13.05 -2.02 -2.92 -4.68c-0.55,5.25 -0.74,10.54 -0.51,15.8 0.92,20.93 0.99,41.41 -2.57,62.06 8.92,23.59 6.21,46.98 -3.82,70.02 -0.64,3.86 -0.64,7.93 -1.48,12.04 -0.27,1.32 -0.57,2.63 -0.9,3.93 12.69,22.62 14.82,47.95 6.34,73.81 -0.09,0.32 -0.15,1.01 -0.13,1.23 3.07,12.64 2.21,23.57 0.9,36.36 -1.08,10.47 -3.77,25.08 -1.62,35.41 1.96,9.45 1.42,19.81 -1.4,28.73 -0.32,2.69 0.33,7.87 0.3,11.08 -0.1,11.13 5.87,25.18 9.34,35.64 4.04,12.24 6.38,24.09 5.68,37.07 -0.25,4.6 0.36,9.75 1.03,14.79 12.73,16.07 21.56,33.58 28.87,52.68 3.26,1.98 6.53,3.97 9.8,5.94l5.42 3.29 3.55 5.26c7.17,10.63 14.34,21.26 21.48,31.91 0.44,0.65 0.84,1.3 1.22,1.96 14.87,14.63 26.45,31.26 40.47,46.23 3.18,2.55 12.1,6.39 16.32,8.92l6.78 4.05 3.78 6.93c0.69,1.28 1.85,3.72 2.86,5.2 8.2,3.47 13.87,9.07 19.5,15.83 18.15,21.82 35.56,44.31 54.4,65.54 3.74,4.21 8.65,7.98 12.99,11.54 7.38,6.04 14.29,12.1 20.29,19.59 7.38,9.24 15.55,17.88 23.36,26.74 3.77,4.27 6.67,8.77 9.74,13.5 0.68,1.05 1.84,2.96 2.81,4.08 8.8,3.68 13.45,9.67 18.07,17.58 4.59,7.85 9.01,15.81 13.49,23.73l3.59 6.33 0.15 7.27c0.46,22.4 -9.17,40.51 -24.91,55.8 -19.63,19.07 -36.63,39.89 -58.18,57.11 -10.97,8.77 -20.56,19.57 -30.02,29.89 -11.76,12.81 -23.47,25.09 -37.5,35.47 -2.39,2.61 -5.09,7.23 -7.39,10.13 -12.52,15.75 -23.03,29.72 -39.56,39.78 -6.18,10.79 -14.84,19.46 -25.34,26.9 -9.53,6.74 -18.49,14.32 -27.37,21.89 -1.39,2.03 -2.61,4.2 -4.13,6.23 -5.95,8.03 -7.9,13.26 -17.62,18.92 -6.14,3.58 -13.73,14.49 -18.3,19.87 -10.73,12.62 -22.55,24.17 -33.43,36.63 -1.1,1.26 -2.89,3.16 -4.01,4.74 -2.53,11.68 -7.9,19.94 -15.27,27.8 -3.3,24.81 -5.33,49.81 -5.02,74.85 0.59,48.84 0.6,97.69 -0.42,146.52 -0.46,21.91 0.47,43.85 0.35,65.77 -0.04,6.54 1.17,13.56 1.57,20.17 0.87,14.18 1.84,28.35 2.32,42.55 0.21,6.52 0.33,13.03 0.43,19.56 0.54,-0.56 1.08,-1.13 1.61,-1.71 15.57,-17.02 30.21,-34.14 48.41,-48.55 4.13,-3.28 7.96,-7.93 11.37,-11.94 9.18,-10.83 18.62,-19.95 31.52,-26.3 0.88,-0.44 2.1,-1.52 2.8,-2.18 19.5,-18.52 39.06,-36.98 58.17,-55.89 8.36,-8.27 13.16,-17.47 23.08,-25.68 16.58,-13.73 29.16,-38.04 42.92,-55.2 4.47,-5.58 8.47,-11.33 13.28,-16.68 14.3,-15.87 28.83,-31.54 43.26,-47.3 8.74,-18.25 21.06,-28.09 34.29,-43.44 7.23,-8.38 15.04,-16.26 22.74,-24.22 0.2,-0.85 0.4,-1.69 0.61,-2.54l1.91 -7.99 5.84 -5.78c7.63,-7.54 14.88,-15.41 22.95,-22.5 17.54,-15.38 30.78,-31 51.52,-42.87 3.38,-2.51 10.47,-12.04 14.01,-15.74l5.28 -5.53 7.32 -2.19c8.19,-2.44 16.4,-10.49 21.84,-16.75 8.52,-9.81 21.64,-20.39 28.35,-31.14 3.01,-4.82 7.05,-9.08 11.78,-12.26 18.22,-12.24 33.31,-36.32 48.18,-52.63 3.63,-3.99 7.59,-7.44 11.7,-10.92 1.99,-1.68 3.92,-2.92 5.9,-4.27 8.69,-12.64 19.44,-22.01 30.99,-32.23 6.93,-6.11 15.38,-13.52 19.61,-21.92 3.29,-6.53 7.55,-10.85 12.79,-15.64 33.15,-30.33 64.41,-62.67 97.46,-93.13 8.98,-8.29 17.07,-17.76 25.49,-26.63 2.6,-2.75 8.42,-15.69 10.67,-19.64l2.77 -4.86 4.39 -3.48c12.2,-9.65 24.53,-18.67 38.21,-25.76 8.05,-22.44 12.88,-45.07 24.25,-67.13l3.92 -7.59 7.41 -4.24c5.26,-3 10.54,-6 15.79,-9.01 4.8,-6.55 9.66,-13.07 14.14,-19.83 6.94,-10.44 15.54,-18.99 25.58,-26.44 4.61,-3.43 9.51,-9.61 13.5,-13.85 13.09,-13.93 25.78,-28.22 39.2,-41.83 2.24,-2.27 8.65,-7.76 9.95,-10.09 8.53,-19.36 20.91,-34.95 31.11,-53.08 7.95,-14.12 17.11,-27.58 27.1,-40.33 8.79,-11.22 20.22,-16.81 33.75,-19.96 2.91,-0.68 10.78,-1.88 13.09,-3.06 14.52,-9.78 28.02,-6.36 42.91,-0.57 9.67,3.77 19.6,6.87 29.55,9.8 1.51,0.14 3.47,0.04 4.9,0.05 32.85,0.15 65.7,0.24 98.55,0.27 0.66,0 1.35,0.03 2.04,0.04 19.77,-6.98 33.81,-3.94 54.02,-5.67 7.7,-0.66 15.07,-0.31 22.42,2.47 7.33,2.78 15.86,3.39 23.63,3.71 12.1,0.5 23.95,0.4 35.99,2.14 12.27,1.77 19.85,1.61 30.92,9.17 2.21,1.5 7.49,1.61 9.92,1.63 17.8,0.16 35.93,0.91 53.66,-0.8 12.27,-1.19 23.31,-1.86 34.73,-0.1 7.71,-3.87 15.98,-6.22 24.5,-6.94 1.41,-2.04 2.83,-4.07 4.24,-6.09l5.83 -8.39 9.79 -2.84c5.99,-1.87 9.5,-3.38 16.28,-3.24 8.53,0.19 16.01,0.21 24.42,2.64 15.1,4.36 29.86,9.76 44.89,14.35 14.56,4.44 29.31,7.36 43.72,12.55 1.69,0.47 5.96,-1.08 7.47,-1.75 25.15,-11.17 50.07,-9.4 76.13,-3.16 3.7,0.88 8.87,2.96 12.43,3.53 27.05,-0.48 53.49,3.28 80.13,7.42 17.05,2.65 34.23,3.96 51.48,3.64 11.31,-0.21 25.95,0.79 36.9,-2.28 6.11,-1.71 11.69,-1.88 17.91,-1.8 42.81,0.5 86,0.89 128.52,-4.85 11.98,-1.62 23.66,-1.3 35.69,-1.37 1.27,-0.01 6.45,0.02 7.69,-0.8 9.46,-6.29 20.88,-8.54 32.08,-8.62 51.86,-0.34 103.72,-0.34 155.58,-0.34 5.52,0 10.79,0.62 16.26,1.01l11.51 0.81 7.78 8.52c7.58,8.32 15.4,16.41 22.64,25.03 1.97,2.24 6.63,5.39 9.07,7.49 8.66,7.46 14.96,16.02 18.3,27.08l2.53 8.4 -2.57 8.38c-6.35,20.74 -14.05,42.97 -11.47,64.96l3.1 26.44 -26.11 5.19c-6.19,1.23 -12.11,2.81 -18.44,3.4 -3.46,0.33 -6.78,0.35 -10.13,0.32 -3.12,2.06 -5.94,4.18 -9.95,6.01 -12.18,5.58 -25.14,5.57 -37.59,0.78l-4.35 -1.68 -3.61 -2.97c-1.8,-1.49 -3.54,-2.99 -5.41,-4.39 -1.21,-0.9 -2.13,-0.95 -3.64,-0.84 -18.91,1.45 -37.84,2.69 -56.75,3.97 -3.31,0.22 -8.45,-0.09 -11.49,0.45 -20.56,3.79 -40.42,1.56 -59.7,-6.51 -5.38,-2.26 -10.12,-2.41 -15.5,-0.02 -8.01,3.57 -14.38,4.05 -22.57,5.71 -11.33,2.32 -22.68,4.52 -34.02,6.78l-11.69 2.32 -9.92 -6.6c-2.45,-1.64 -5.01,-2.62 -7.94,-1.75 -7.73,2.32 -15.48,2.09 -23.3,0.63 -23.73,-4.42 -49.31,-2.58 -73.37,-2.52 -37.07,0.1 -74.13,-0.19 -111.19,-0.35 -11.31,-0.04 -22.61,-0.39 -33.91,-0.19 -11.13,0.2 -21.88,-1.21 -32.78,-3.36 -15.62,-3.1 -31.93,-3.86 -47.79,-4.99 -14.61,-1.05 -25.9,-1.49 -39.57,-8.4 -3.36,-1.7 -24.17,0.17 -28.99,0.04 -17.4,-0.44 -34.99,1.42 -52.39,2.05 -10.98,0.4 -26.7,-0.61 -37.05,3.27 -14.3,5.35 -24.9,3.36 -39.18,3.49 -10.42,0.09 -20.63,-2.34 -28.68,-9.39 -2.92,-2.56 -15.05,-2.01 -18.52,-2.04 -9.15,-0.08 -17.74,-0.97 -26.21,-4.86 -15.19,-6.98 -33.6,-4.86 -49.64,-2.72 -12.67,1.69 -26.56,2.48 -38.76,6.27 -6.26,1.95 -12.7,3.14 -19.18,3.63 6.77,1.46 13.14,4.18 19.06,8.53 25.32,3.32 43.28,14.79 66.73,25.26 7.4,3.31 15.19,5.38 23.34,5.18 2.5,-0.07 11.67,-0.29 13.79,-1.62l11.53 -9.63 14.52 3.97c9.16,2.51 18.34,4.92 27.47,7.54 7.82,2.23 14.41,3.59 21.8,7.53 3.95,2.1 7.54,2.87 11.88,1.62 21.61,-6.26 42.27,-3.13 60.99,8.97 1.31,0.6 4.71,1.05 6.29,1.23 6.16,0.7 12.84,0.04 19.07,0.04l6.91 0 6.15 3.13c9.36,4.76 18.73,9.53 28.09,14.29 1.53,-0.26 3.07,-0.53 4.6,-0.79l12.79 -2.21 10.13 8.12c2.75,2.2 5.49,4.4 8.23,6.61 7.17,0.7 14.12,2.29 21.25,4.29 6.1,1.71 12.68,3.99 18.94,4.9 11.2,1.65 20.84,4.24 30.38,10.73 0.04,0.01 0.08,0.01 0.12,0.02 2.12,-2.01 4.46,-4.74 6.42,-6.51 9.13,-8.24 20,-12.89 32.49,-12.43l2.16 0.08 2.14 0.4c10.79,2.05 19.58,7.9 26.05,16.64 0.64,0.86 1.21,1.75 1.77,2.63l22.88 0 8.62 9.95c2.77,3.2 5.53,6.39 8.3,9.59 19.65,2.34 42.92,-1.12 62.04,-0.88l11.18 0.13 8.16 7.64c4.2,3.93 19.33,6.25 24.81,7.51 20.19,4.61 37.34,9.72 52.3,24.56 0.93,0.19 2,0.33 2.76,0.44 22.61,3.22 37.28,18.65 42.52,40.46l3.91 16.25 -12.17 11.46c-4.6,4.33 -9.19,8.68 -13.78,13 -0.56,0.53 -2.34,2.27 -2.67,3.27 -3,26.69 -19.55,43.7 -43.17,50.46 -2.86,3.38 -5.7,6.75 -8.55,10.13l-10.77 12.74 -16.12 -2.94c-10.24,-1.11 -18.53,-4.05 -24.88,-13.68 -2.39,-3.63 -7.98,-4.26 -13.34,-4.12 -0.23,0.18 -0.47,0.37 -0.71,0.55l-8.25 6.42 -10.46 -0.36c-9.85,-0.35 -16.91,-3.68 -22.57,-9.18 -7.43,1.95 -14.7,2.7 -22.38,1.44l-2.16 -0.36 -2.08 -0.67c-12.04,-3.92 -19.72,-10.58 -27.26,-18.99 -15.69,-4.38 -30.39,-8.24 -44.98,-16.18 -8.59,-1.01 -16.73,-3.1 -25.29,-5.28 -5.45,-1.4 -12.36,-3.25 -18.05,-2.99 -5.16,0.23 -13.44,3.13 -18.76,4.29l-9.31 2.04 -8.69 -3.91c-10.72,-4.82 -18.44,-12.71 -24.15,-22.81 -0.54,-0.96 -1.07,-2.01 -1.59,-3.1 -15.8,-2.32 -30.28,-7.63 -45.64,-13.57 -10.88,-4.22 -22.4,-6.21 -34.05,-4.68 -14.01,1.85 -27.68,5.52 -40.91,10.42l-11.71 4.32 -11.17 -5.57c-12.94,-6.46 -23.01,-15.32 -33.13,-25.41 -4.72,-4.71 -9.64,-9.97 -14.88,-14.45 -19.83,-1.59 -39.65,-1.47 -55.44,12.93l-17.04 15.56 -18.92 -13.23c-5.63,-3.95 -10.54,-6.58 -15.62,-11.63 -7.14,-7.08 -13.52,-14.79 -20.52,-21.98 -1.35,-1.38 -2.39,-1.76 -4.32,-1.81 -15.13,-0.39 -32.35,-1.83 -47.24,1.38 -8.35,1.8 -16.49,1.71 -24.93,1.16 -25.37,-1.66 -50.98,-5.14 -76.41,-4.88 -20.69,0.2 -38.26,-5.73 -53.34,-20.1 -1.44,-1.37 -2.82,-2.79 -4.17,-4.23 -5.7,-1.14 -11.5,-2.23 -16.94,-2.39 -14.18,-0.41 -28.15,-1.96 -42.06,-4.05 11.53,4.14 21.73,10.25 30.34,20.02 0.03,0.04 0.07,0.09 0.11,0.13 16.12,4.64 30.95,12.57 43.78,23.24 27.28,3.76 53.31,11.16 79.43,20.25 30.51,10.62 59.18,26.09 85.5,44.78 7.54,5.35 15.46,9.13 24.34,11.72 19.96,5.8 37.79,10.23 55.03,22.41 14.61,3.78 27.36,10.19 40.71,17.17 13.74,7.19 28.51,12.63 43.26,17.32 21.43,6.82 40.32,17.55 60.92,25.94 12.91,5.25 25.81,10.56 38.7,15.84 12.89,5.28 25.79,10.56 38.67,15.85 1.74,0.71 3.42,1.6 5.12,2.34 20.32,4.27 39.3,12.07 56.94,22.98 20.53,2.32 35.68,10.52 54.53,17.96 10.32,4.07 20.53,8.42 30.66,12.92 5.92,2.64 11.51,5.78 17.2,8.88 2.17,1.18 3.96,2.46 5.72,3.93 12.7,6.46 25.57,12.48 37.96,19.57 7.25,4.16 18.39,11.61 26.93,12.53 8.93,0.97 16.42,4.62 23.79,9.42 5.74,3.73 15.97,11.39 23.21,11.65 12.08,0.44 23.83,6.67 32.24,15.14 4.49,4.51 12.58,7.81 18.29,10.31 27.18,11.83 48.08,29.56 58.49,58.05 0.95,2.39 3.29,5.77 4.58,8.17 4.42,8.21 7.07,16.55 7.17,25.97 0.26,24.07 -9.99,45.97 -33.17,55.52 -8.48,3.5 -17.58,12.27 -24.89,17.91l-6.92 5.35 -8.72 0.6c-17.44,1.2 -36.59,4.13 -53.75,0.1 -17.46,-4.1 -31.46,-14.74 -44.28,-26.68 -3.98,-0.23 -7.95,-0.44 -11.93,-0.54 -7.38,-0.2 -14.75,-0.04 -22.13,-0.04l-6.83 0 -6.11 -3.07c-12.54,-6.3 -21.58,-15.54 -28.71,-27.48 -3.47,-5.81 -6.25,-12.7 -9.89,-18.16 -3.71,-5.54 -6.09,-11.04 -8.07,-16.84l-3.12 1.32 -6.35 -0.22c-10.36,-0.36 -19.54,-3.98 -27.71,-10.25 -2.75,-2.11 -5.21,-4.74 -7.81,-6.78 -4.48,-2.01 -9.18,-3.76 -13.86,-5.48 -14.97,2.29 -28.63,0.66 -41.81,-10.15l-4.46 -3.67 -2.71 -5.09c-3.99,-7.51 -7.98,-15.01 -11.98,-22.51 -3.71,-1.05 -7.41,-2.1 -11.12,-3.15l-5.65 -1.6 -4.58 -3.69c-4.61,-3.72 -9.25,-7.41 -13.84,-11.15 -1.28,-1.04 -2.04,-1.32 -3.69,-1.27 -17.19,0.54 -32.43,1.24 -49.47,-3.1 -1.29,-0.33 -2.47,0.06 -3.36,1.03 -14.97,16.18 -37.53,17.75 -55.47,5.46l-7.64 -5.23 -3.17 -8.72c-4.96,-13.68 -9.94,-27.37 -14.9,-41.05 -8.32,-5.2 -16.64,-10.41 -24.96,-15.61 -0.81,0.24 -1.59,0.47 -2.3,0.67 -26.92,7.36 -41.85,1.07 -57.71,-19.97 -6.96,-1.51 -19.99,-2.01 -24.35,-2.65l-7.64 -1.11 -6.06 -4.77c-6.75,-5.32 -11.5,-7.58 -17.37,-14.81 -5.53,-6.79 -15.92,-11.19 -23.68,-14.63 -22.5,-9.99 -44.77,-20.53 -67.14,-30.79 -1.06,-0.49 -2.09,-1.04 -3.14,-1.56 -29.14,-4.04 -52.73,-17.08 -78.12,-31.05 -23.3,-12.84 -47.29,-24.37 -71.2,-36.05 -10.9,-5.33 -20.43,-9.43 -29.13,-18.58 -11.65,-12.25 -31.59,-18.26 -46.96,-24.09 -10.4,-3.96 -20.4,-6.49 -30.46,-11.7 -6.29,-3.26 -13.44,-7.03 -20.55,-8.07 -2.95,-0.43 -5.57,-1.04 -8.01,-1.77 5.4,4.26 10.82,8.5 16.26,12.72 5.08,3.94 10.92,7.29 16.32,10.81 10.13,6.59 19.41,10.71 28.55,19.33 17.83,16.82 37.96,31.04 55.84,47.92 9.48,8.93 20.71,16.22 31.4,23.58 10.32,7.1 20.71,14.78 31.88,20.47 15.79,8.03 31,17.26 45.49,27.45 14.1,9.91 27.76,20.24 38.92,33.51 3.73,4.42 10.2,7.64 15.16,10.39 23.28,12.87 46.06,26.61 68.87,40.28 15.98,9.57 31.53,21.28 48.23,29.4 21.54,10.48 39.08,24.81 57.15,39.91 4.92,1.54 9.84,3.09 14.76,4.63l6.4 2.02 4.85 4.64c9.55,9.15 18.92,18.52 28.72,27.4 12.81,11.61 20.47,26.44 19.68,44.04 -0.7,15.69 1.75,26.1 -3.58,42.32l-2.5 7.59 -6.05 5.22c-6.1,5.27 -12.73,8.81 -19.94,12.3 -1.58,0.76 -4.74,2.16 -6.59,3.36l-4.31 10.61 -12.44 4.25c-9.58,3.27 -19.15,6.53 -28.73,9.79l-10.83 3.69 -10.41 -4.73c-10.91,-4.83 -17.45,-5.06 -27.1,-14.93 -3.65,-3.74 -16.2,-7.94 -20.96,-10.05 -12.21,-5.39 -21.83,-9.63 -31.43,-19.45 -3.79,-2.42 -11.33,-5.07 -15.56,-7.29l-14.22 -7.44 -1.16 -16.01c-0.22,-3.05 -1.83,-3.6 -4.69,-4.88 -9.47,-4.25 -13.66,-9.24 -18.54,-15.14 -7.1,-0.6 -14.43,-0.69 -21.78,-2.26 -15.19,-3.25 -27.35,-10.67 -36.02,-22.12 -2.49,-0.48 -4.97,-1 -7.45,-1.63 -6.65,-1.67 -12.95,-4.1 -19.45,-6.23l-7.13 -2.35 -5.07 -5.52c-13.03,-14.16 -20.16,-30.55 -25.61,-48.09 -7.09,-0.53 -14.23,-0.82 -21.34,-1.28l-9.11 -0.58 -7.12 -5.71c-3.41,-2.74 -10.49,-8.9 -15.18,-9.36 -14.62,-1.47 -27.31,-9.77 -34.89,-21.93 -5.87,-2.81 -9.9,-6.5 -15.02,-11.06 -4.29,-3.82 -8.19,-7.99 -12.45,-11.81 -5.51,-4.95 -11.31,-9.58 -16.78,-14.57 -5.01,-4.57 -10.32,-10.92 -15.62,-14.82 -9.36,-6.9 -16.56,-12.26 -22.22,-22.08 -0.2,-0.13 -0.4,-0.26 -0.59,-0.39 -13,-8.5 -26.03,-17.07 -39.7,-24.48 -15.61,-8.45 -27.87,-20.64 -41.17,-31.96 -8.02,-2.2 -16.04,-4.39 -24.06,-6.6l-12.01 -3.3 -2.88 -5.43c-3.93,5.15 -8.39,9.13 -16.35,12.4 -3.41,2.4 -8.34,8 -11.74,10.86l-9.24 7.77 -12.02 -1.13c-10.42,-0.98 -19.73,-4.59 -27.17,-10.82l-3.16 3.13c-6.75,6.68 -13.71,13.17 -20.24,20.07 -18.09,19.14 -34.53,39.39 -54.34,56.92 -9.28,8.22 -16.66,17.98 -23.62,28.17 -8.89,13 -19.98,23.87 -32.67,33.15 -4.76,3.48 -8.99,7.39 -12.68,11.79 1.54,4.11 3.09,8.21 4.63,12.31l8.57 22.7 -20.92 12.32c-1.19,0.7 -2.38,1.4 -3.57,2.1 0.8,2.64 1.5,5.22 2.07,7.81 10.82,11.23 22.08,22.26 34.67,31.4 7.34,5.34 14.12,11.72 19.8,18.83 11.88,14.86 23.16,30.17 34.8,45.22 1.88,2.43 5.37,7.84 7.49,9.69 14.18,10.87 24.83,23.71 36.67,36.93 7.56,8.43 15.46,16.75 24.45,23.67 10.22,7.85 16.41,16.8 25.11,25.66 9.69,9.87 19.68,19.46 29.53,29.17l8.8 8.67 -0.19 10.82c1.39,2.86 5.16,7.85 8.43,12.21 13.6,8.27 27.2,16.55 40.8,24.83l11.64 7.07 1.92 13.47c0.94,6.51 3.61,13.78 5.11,20.33 3.07,13.2 3.58,25.93 -0.38,39.06l-1.65 5.49 -3.64 4.44c-10.37,12.68 -20.79,20.89 -37.77,22.89l-10.92 1.3 -9 -6.31c-2.15,-1.5 -4.29,-3.01 -6.44,-4.51 -28.13,4.92 -51.86,-5.97 -73.91,-23.39 -6.69,-5.29 -14.31,-13.04 -21.57,-17.18 -7.15,-4.09 -13.53,-9.85 -17.75,-16.97 -1.93,-3.26 -5.81,-6.52 -8.68,-8.93 -6.82,-5.72 -13.45,-10.89 -19.39,-17.64 -12.14,-13.83 -29.42,-24.07 -44.49,-34.43 -4.38,-3.02 -8.47,-6.33 -12.73,-9.5 -15.13,-11.28 -27.73,-23.53 -35.13,-40.26 -9.2,-6.72 -17.25,-14.48 -24.41,-23.69 -9.45,-12.16 -20.8,-22.72 -34,-30.7 -15.57,-9.41 -28.75,-20.83 -36.17,-36.66 -3.82,-1.65 -7.85,-3.13 -11.19,-4.6 -6.41,-2.85 -12.29,-6.08 -17.55,-10.07 -4.78,3.8 -9.57,7.59 -14.36,11.37 -16.87,13.29 -34.1,27.55 -46.36,45.41 -5.73,8.36 -11.92,12.75 -18.65,19.62 -18.39,18.79 -34.08,40.37 -51.2,60.33 -14.23,16.59 -25.33,33.32 -42.54,47.52 -1.17,0.96 -2.86,3.41 -3.75,4.64 -3.35,4.63 -6.48,9.15 -10.37,13.38 -12.28,13.39 -25.04,26.32 -37.58,39.46 -1.19,1.25 -2.49,2.4 -3.73,3.58 -5.46,12.03 -12.74,22.5 -20.56,33.17 -5.79,7.89 -12.29,16.23 -16.53,25.09l-3.61 7.51 -7.06 4.43c-11.32,7.09 -20.7,18.01 -29.26,28.09 -12.41,14.6 -24.1,28.62 -39.42,40.4l-5.65 4.36 -7.04 1.21c-2.03,0.34 -4.06,0.69 -6.08,1.04 -5.3,6.84 -8.53,11.98 -18.48,16.59 -2.27,1.05 -5.8,6.68 -6.92,8.37 -3.82,6.65 -5.47,11.02 -12,16.55 -2.75,2.33 -4.04,8.02 -4.78,11.34l-1.44 6.29 -3.98 5.07c-8.59,10.97 -16.75,22.4 -25.97,32.84 -10.56,11.93 -16.96,22.88 -30.3,33 -0.08,0.06 -0.19,0.15 -0.3,0.24 -0.02,1.26 0.88,3.54 1.32,4.45 11.97,25.21 25.09,39.16 48.96,53.62l7.46 4.51 3.71 7.9c3.99,8.51 7.98,17.02 11.98,25.52 1.67,1.22 3.35,2.43 5.02,3.64 16.49,11.82 30.56,25.77 41.49,42.95 10.22,16.06 23.58,30.09 37.08,43.41 18.88,18.65 39.95,35.08 60.06,52.37 18.12,-17.47 36.56,-34.6 54.77,-51.96 5.79,-5.52 11.28,-11.38 16.95,-17.03 11.35,-11.3 20.35,-21.17 34.9,-28.47 0.29,-0.3 0.59,-0.66 0.83,-0.95 12.98,-15.62 25.17,-28.13 44.77,-32.53 12.7,-8.02 25.44,-15.96 37.97,-24.24 1.58,-2.11 2.98,-4.17 4.88,-6.24 5.7,-6.22 9.78,-11.58 17.01,-16.52 4.18,-2.86 10.16,-6.95 12.53,-11.68 4.5,-9 12.42,-16.75 21.38,-21.32 5.38,-2.74 10.27,-8.95 13.96,-13.49 15.46,-19.02 37.51,-27.89 61.72,-28.54l14.48 -0.4 8.96 11.41c2.76,3.52 6.9,10.23 10.04,13.05 2.7,2.06 8.95,4.67 12.28,6.56l21.5 12.24 -6.29 16.47c5.29,3.51 10.6,7.02 15.89,10.53l16.83 11.15 -4.72 19.63c-4.59,19.1 -15.77,28.79 -31.46,38.5l-0.17 0.11 0.95 5.69 -6.3 9.47c-8.64,12.98 -19.88,22.02 -33.53,29.27 -8.11,4.3 -16.42,8.2 -24.73,12.1 -7.12,16.5 -18.11,30.24 -33.85,40.2 -2.25,3.32 -4.28,7.58 -6.67,10.96l-5.86 8.25 -9.74 2.78c-5.23,1.5 -10.47,2.99 -15.69,4.48 -1.63,2.79 -3.25,5.58 -4.85,8.37l-5.51 9.5 -10.43 3.43c-1.96,0.65 -3.51,4.68 -4.07,6.32 -6.62,19.58 -21.91,33.03 -41.43,38.99 -0.53,0.21 -1.14,0.51 -1.8,0.88 -0.53,1.76 -1.06,3.53 -1.59,5.29l-3.22 10.69 -1.16 0.7 0.89 2.7 -9.11 12.07c-3.29,4.35 -6.48,8.75 -9.86,13.03 -0.02,0.03 -0.04,0.05 -0.06,0.08 0.03,0.12 0.07,0.23 0.1,0.32 2.8,7.72 6.25,16.64 11.82,22.82 12.19,13.54 23.88,27.51 35.85,41.23 0.38,0.43 0.76,0.89 1.13,1.34 8.53,4.54 14.95,10.79 21.41,18.29 1.41,1.64 5.47,6.77 7.25,7.83l6.79 3.56 4.13 6.49c15.17,23.86 33.14,42.61 45.31,68.96 5.35,11.6 11.31,23.68 19.66,33.45 6.22,7.28 7.4,12.71 11.49,20.37 1.22,2.3 2.46,4.58 3.72,6.86 9.47,2.61 18.95,5.2 28.37,7.99 14,4.15 25.96,11.06 38.08,19.05 24.26,15.99 35.37,39.4 37.38,67.77 0.01,0.27 0.03,0.54 0.05,0.81 1.29,0.7 2.64,1.53 4.1,2.57 12.63,9.01 17.65,23.25 15.86,38.39l-3.38 28.56 -28.57 -3.31c-0.97,-0.12 -1.94,-0.23 -2.92,-0.34 -0.44,0.49 -0.89,0.99 -1.33,1.49l-10.37 11.59 -15.29 -2.29c-5.4,8.84 -13.71,15 -23.92,17.92l-16.09 4.59 -11.97 -11.7c-1.97,-1.93 -3.95,-3.86 -5.91,-5.78 -2.91,-0.82 -5.81,-1.64 -8.72,-2.47 -3.59,1.56 -7.17,3.12 -10.76,4.67l-10.62 4.61 -10.86 -4.03c-6.81,-2.45 -10.79,-2.96 -17.14,-7.81 -17.91,-13.69 -33.74,-29.67 -48.37,-46.77 -8.69,-10.16 -17.52,-20.18 -25.9,-30.59 -5.36,-6.66 -11.78,-11.51 -19.34,-15.44 -9.96,-5.17 -17.18,-13.7 -22.86,-23.16 -3.05,-5.06 -5.61,-10.27 -8.1,-15.52 -9.41,-3.83 -17.91,-9.38 -25.93,-16.26 -13.15,-11.3 -26.47,-22.45 -40.35,-32.84 -15.1,-11.3 -28.81,-23.96 -38.28,-40.46 -2.95,-5.13 -13.18,-12.75 -19.21,-18.21 -16.74,4.63 -32.22,3.59 -49.59,2.53 -5.4,4.29 -10.25,9.33 -14.89,14.38 -13.68,14.87 -23.71,29.81 -39.93,42.65 -2.89,2.29 -7.23,8.36 -9.95,11.32 -3.66,3.97 -7.26,7.94 -11.14,11.7 -10.15,9.82 -21.04,19.15 -30.6,29.54 -8.28,8.99 -15.39,19.4 -22.87,28.9 -2.91,3.95 -5.52,7.02 -9.84,9.93 -9.06,6.1 -18.8,24.27 -25.59,33.18 -4.11,5.37 -2.74,10.2 -0.38,16.21 3.56,9.1 6.89,17.88 9,27.47 2.16,9.77 7.25,18.49 13.1,26.49 14.71,20.14 32.02,37.83 50.97,54 16.5,14.08 30.32,30.53 46.31,45.01 8.15,7.38 19.35,13.27 28.25,20.26 14.89,11.69 29.84,23.25 43.63,36.26 16.55,15.6 31.94,32.32 47.55,48.84 7.41,7.84 15.81,15.37 25.76,19.83l5.79 2.6 4 4.59c3.02,3.13 5.39,5.85 7.51,10.09 5.19,10.4 11.31,21.12 22.72,25.46 11.16,4.24 17.18,10.51 25.93,17.71 4.98,4.11 6.93,7.56 10.64,12.29l6.64 8.46 -0.53 10.74c-0.83,16.9 -7.57,30.1 -16.6,43.8 -14.95,22.7 -29.63,42.44 -54.39,55.41 -2.26,1.18 -6.74,6.31 -8.43,8.21 -4.04,4.52 -7.75,11.13 -11.28,16.18l-4.07 5.83 -6.32 3.27c-6.07,3.15 -13.6,7.39 -17.15,13.45 -3.92,6.87 -8.21,12 -15.72,15.49 -3.21,1.48 -6.56,6.14 -8.56,8.89 -6.43,8.88 -11.8,17.14 -19.9,24.55 -9.6,20.25 -25.57,30.93 -44.97,39.96 -6.25,7.72 -12.53,15.43 -18.67,23.25 -2.48,3.16 -7.77,8.38 -9.79,11.68 -7.12,21.5 -19.94,32.3 -35.47,47.34 -16.83,16.3 -33.08,33.2 -49.29,50.13 -2.24,2.33 -5.07,7.52 -7,10.33 -16.09,23.46 -31.03,47.6 -48.55,70.07 -11.87,15.22 -19.28,31.43 -21.67,50.64 -2.64,21.1 -5.74,42.77 -4.91,64.09 0.39,10.06 0.54,19.23 -2.45,29.08 -2.95,9.7 -1.97,23.95 -2.26,34.06 -0.23,8.04 0.03,16.95 3.14,24.5 5.38,13.09 6.55,26.09 6.51,40.07 -0.04,16.09 -0.2,32.18 0.37,48.26 0.48,13.69 2.08,27.37 2.88,41.06 0.7,11.9 1.17,23.82 1.34,35.74 0.25,16.89 -0.51,33.87 0.37,50.73 0.6,11.49 1.07,26.09 7.24,36.23 5.73,9.41 7.39,19.89 7.69,30.67 0.48,17.53 0.33,35.07 0.34,52.6 0.03,37.04 0.05,74.07 -0.04,111.12 -0.02,5.78 -0.61,11.32 -0.97,17.05l-0.75 12.1 -9.17 7.93c-5.43,4.68 -11.66,7.84 -18.39,9.24 -0.24,31.26 -0.46,62.52 -0.47,93.78 -0.01,4.05 1.35,9.67 1.82,13.86 1.09,9.79 2.11,19.6 3.17,29.41l1.2 11.16 -6.66 9.03c-3.09,4.19 -6.17,8.37 -9.26,12.56 -0.17,60.23 -0.36,120.47 -0.23,180.7 0,1.62 0.08,5.17 0.59,6.61 10.88,22.3 13.47,45.13 2.98,68.09 -0.76,4.52 -0.96,8.12 -2.62,12.98 -3.57,10.42 -7.7,20.61 -11.65,30.88 -7.62,19.85 -24.5,32.09 -45.99,31.78 -22.75,-0.33 -41.83,-9.36 -50.5,-31.78 -3.62,-9.34 -7.87,-16.72 -10.17,-26.87 -6.63,-29.27 -13.1,-58.57 -18.32,-88.13 -2.62,-14.85 -2.37,-29.5 -2.31,-44.5 0.26,-65.82 0.81,-131.64 1.25,-197.46l0.02 -2.75 0.54 -2.69c4.5,-22.67 1.56,-47.24 -0.47,-70.09 -2.56,-28.64 -0.91,-57.09 -1.55,-85.75 -0.25,-10.97 -1.88,-22.04 -2.62,-33.01 -1.18,-17.53 -2.22,-35.06 -3.28,-52.59 -9.26,-12.22 -12.53,-26.42 -12.47,-42.07 0.09,-24.75 -0.29,-49.51 0,-74.26 0.32,-26.1 1.03,-52.19 3.14,-78.22 2.64,-32.49 0.1,-65.57 -0.58,-98.14 -0.31,-14.88 -2.38,-29.65 -2.5,-44.61 -0.36,-44.48 -0.14,-88.97 -0.15,-133.45 0,-2.93 0,-5.85 0,-8.79 -5.67,-8.84 -11.74,-18.33 -18.94,-25.1 -5.77,-5.44 -9.19,-11.46 -12.65,-18.4 -9,-18.02 -17.27,-36.46 -26.89,-54.17 -4.42,-8.15 -13.39,-15.18 -20.69,-20.67 -7.37,-5.52 -12.44,-7.04 -18.97,-15.16 -11.79,-14.67 -27.84,-26.6 -42.57,-38.14 -22.32,-17.48 -35.65,-39.58 -50.63,-62.88 -8.09,-12.57 -16.28,-25.38 -26.08,-36.71 -14.17,-16.36 -27.32,-33.53 -40.98,-50.31 -1.87,-2.31 -4.44,-6.25 -6.26,-8.01 -29.14,-21.28 -47.52,-49.02 -73.14,-73.52 -4.96,-4.75 -8.16,-9.79 -11.74,-15.52 -4.83,-7.75 -13.17,-14.84 -19.85,-20.97 -6.34,-5.81 -10.65,-12.45 -14.97,-19.77 -1.09,-1.86 -3.36,-6.05 -4.82,-7.5 -23.04,-20.6 -34.01,-46.32 -39.8,-76.13l-2.86 -14.67 10.36 -10.79c11.94,-12.43 25.16,-23.11 38.86,-33.51 27.38,-20.77 52.71,-44.01 75.66,-69.59 6.27,-6.98 11.89,-14.6 17.19,-22.33 7.46,-10.85 16.33,-19.53 28.05,-25.72 19.7,-10.4 38.15,-22.96 51.88,-40.77 5.78,-7.49 11.66,-10.98 18.91,-16.35 18.34,-13.59 35.49,-29.01 50.63,-46.13 0.97,-16.9 1.94,-33.8 2.92,-50.7l0.62 -10.7 7.44 -7.69c5.99,-6.19 15.63,-15 18.8,-23.26 2.81,-7.32 6.15,-11.27 10.25,-14.83 -19.45,-5.37 -33.65,-19.59 -40.81,-40.36 -1.25,-3.65 -2.99,-7.34 -4.75,-11 -0.96,-0.67 -1.92,-1.28 -2.86,-1.8 -24.04,-13.16 -42.73,-31.44 -61.36,-51.19 -5.19,-5.5 -11.7,-10.04 -17.96,-14.23 -22.29,-14.91 -42.87,-30.47 -58.85,-51.41 -10.1,5.49 -20.2,10.99 -30.23,16.58 -0.23,0.13 -0.47,0.26 -0.71,0.39 -7.55,10.14 -16.68,18.1 -26.89,25.77 -6.7,5.04 -13.79,9.86 -20.27,15.27 -8.15,16.75 -20.12,30.51 -36.89,39.2 -0.52,1.08 -1.02,2.2 -1.5,3.15 -2.48,4.96 -5.21,9.54 -8.83,13.78l-5.69 6.69 -8.46 2.38c-2.1,0.59 -4.19,1.18 -6.28,1.77 -20.82,31.39 -47.86,56.79 -82.9,72.58 -11,4.94 -19.59,2.5 -29.34,-2.4l-12.58 -5.56 -0.06 -0.21c-7.8,8.76 -16.45,16.49 -26.97,22.85 -2.2,2.98 -4.22,6.63 -6.56,9.65l-3.5 4.48 -4.95 2.82c-9.09,5.19 -18.19,10.38 -27.29,15.56l-8.3 4.73 -9.49 -1.18c-15.64,-1.92 -27.86,-10.12 -36.33,-23.08 -11.81,1.24 -22.96,-2.96 -31.46,-11.58l-13.99 -14.15 8.3 -18.1c1.79,-3.91 2.84,-10.4 3.92,-14.66 2.93,-11.59 7.21,-21.76 15.37,-30.75 9.85,-10.85 19.88,-21.54 30.5,-31.65 4.43,-4.23 8.31,-6.29 12.57,-7.72 2.66,-4.58 5.35,-9.14 8.23,-13.6 5.79,-8.97 12.22,-16.41 22.65,-20.11 2.72,-2.33 6.78,-7.87 9.36,-10.51 13.82,-14.16 27.42,-28.57 41.39,-42.59 4.84,-4.86 9.13,-11.24 13.49,-16.62 7.83,-9.68 16.3,-17.81 27.5,-23.62 3.08,-1.6 6.87,-6.09 9.08,-8.62 6.25,-7.16 11.95,-13.77 19.59,-19.56 10.49,-25.3 28.26,-35.17 48.02,-53.23 0.33,-0.3 0.66,-0.59 0.98,-0.87 0.55,-4.75 1.09,-9.51 1.63,-14.26l0.62 -5.46 2.33 -4.34c1.43,-3.18 2.87,-5.88 4.89,-8.49 -7.9,-13.6 -18.24,-24.98 -31.76,-33.14 -4.35,-2.63 -10.42,-8.18 -14.58,-10.66l-7.3 0.66 -8.02 -4.77c-22.55,-13.42 -41.46,-23.05 -53.67,-48.14 -1.91,-3.92 -5.24,-6.9 -8.7,-9.44 -10.43,-7.64 -17.96,-17.19 -25.72,-27.3 -4.82,-6.28 -13.28,-21.01 -19.74,-25.22 -6.73,-4.4 -12.02,-11.06 -15.19,-18.42 -3.86,-8.91 -11.49,-16.77 -18.98,-23.63 -0.18,-0.03 -0.37,-0.05 -0.55,-0.08l-16.54 -2.36 -5.77 -14.52c-26.04,-13.28 -36.99,-37.94 -39.24,-66.99 -2.13,-2.28 -4.23,-4.57 -6.27,-6.93 -5.96,-6.83 -11.96,-13.52 -17.31,-20.88 -10.49,-14.39 -13.13,-31.11 -7.83,-48.12l2.52 -8.07 6.48 -5.42c7.88,-6.6 15.67,-13.3 23.66,-19.77 11.84,-9.57 25.93,-13.85 41.02,-13.89 4.19,-0.01 8.37,-0.11 12.56,-0.23 9.28,-8.06 21.57,-11.74 35.29,-10.6l8.68 0.72 6.83 5.41c5.28,4.19 10.51,8.44 15.87,12.53 2.24,1.71 4.69,4.1 6.98,5.75 20.08,6.81 34.35,20.18 44.2,38.03 21.79,13.11 40.34,29.85 53.79,51.58 24.63,11.03 41.53,27.72 62.64,44.35 4.54,3.59 8.71,7.5 12.21,12.14 4,5.29 7.8,10.74 11.61,16.18 8.37,3.05 14.98,6.4 20.8,13.66 24.7,11.5 37.79,30.07 55.02,50.57 8.14,9.7 15.85,19.74 23.59,29.76 0.79,1.03 1.8,1.95 2.92,2.78 2.83,-1.76 5.31,-3.69 6.68,-5.7 4.58,-6.72 10.6,-12.73 17.56,-16.95 20.35,-12.36 36.47,-30.53 51.23,-48.9 4.33,-5.4 9.16,-9.79 13.99,-14.66 2.53,-2.55 6.19,-5.26 8.48,-7.8 8.58,-13.53 19.15,-25.06 30.33,-36.46 8.86,-9.03 18.26,-18.05 25.97,-28.11 9.98,-13.01 19.8,-26.15 29.76,-39.17 5.3,-6.94 7.85,-11.65 16.01,-16.54 12.07,-7.22 23.35,-23.03 34.21,-35.92 -7.46,-9.07 -11.73,-18.23 -18.42,-27.97 -5.57,-8.1 -16.44,-16.45 -23.62,-23.38 -5.04,-4.53 -9.04,-6.49 -13.76,-12.46 -10.41,-13.14 -21.84,-27.55 -36.19,-36.63 -5.43,-3.45 -8.98,-7.53 -12.73,-12.57 -1.26,-1.7 -11.25,-18.68 -12.58,-19.35 -14.77,-7.45 -23.29,-18.05 -34.71,-29.15 -5.81,-5.64 -10.07,-11.94 -14.42,-18.65 -0.82,-1.26 -2.24,-3.65 -3.37,-4.94 -9.11,-4.14 -12.9,-9.34 -19.37,-16.32 -18.86,-20.35 -37.64,-40.78 -56.43,-61.19l-4.11 -4.45 -1.97 -5.74c-0.49,-1.43 -1.97,-6.12 -3.04,-7.2 -0.08,-0.04 -0.14,-0.04 -0.23,-0.07 -10.12,-3.48 -14.4,-9.21 -19.92,-17.15 -2.36,-3.06 -5.31,-8.06 -7.91,-10.71 -2.32,-1.99 -6.45,-4.28 -9.19,-6.21l-7.47 -5.29 -3.05 -8.64c-1.52,-4.31 -3.09,-8.61 -4.56,-12.93 -0.7,-2.02 -1.82,-3.36 -3.49,-4.69 -20.09,-16.15 -37.77,-34.7 -54.43,-54.27zm-936.44 -798.92c13.27,0.87 26.66,4.62 40.1,10.23 6.8,2.83 12.92,3.15 19.63,0 9.29,-4.34 18.72,-8.07 28.3,-11.19 -3.15,-0.33 -6.3,-0.77 -9.49,-1.33 -19.68,-3.51 -40.55,-2.71 -60.52,-2.87 -1.79,0.43 -4.12,1.36 -5.74,1.91 -4.06,1.36 -8.16,2.44 -12.28,3.25zm2860.17 0.88c-5.97,-0.98 -11.87,-2.5 -17.58,-4.51 -1.48,-0.52 -4.83,-1.62 -6.44,-1.58 -20.1,0.48 -41.56,-0.8 -61.32,3.14 -1.88,0.38 -3.76,0.69 -5.61,0.95 8.74,2.42 15.42,3.68 23.51,9.29 10.39,7.18 18.44,4.96 28.89,-1.2 2.98,-1.76 5.56,-2.69 8.82,-3.62l3.48 -1.12 3.76 -0.19c7.5,-0.38 15,-0.75 22.5,-1.16zm-1431.28 2603.67c7.27,-8.95 15.63,-16.82 24.55,-25.18 37.12,-34.86 71.58,-72.45 105.47,-110.41 10.6,-11.87 19.77,-25.15 29.81,-37.52 11.92,-14.66 25.32,-28.6 36.18,-44.03 16.33,-23.21 34.09,-45.37 52.93,-66.58 -5.07,-7.44 -10.13,-14.88 -15.19,-22.31 -15.61,-8.81 -26.43,-23.62 -36.32,-38.58 -1.31,-1.98 -2.7,-4.62 -3.96,-6.26 -9.79,-10.26 -19.52,-21.55 -30.52,-30.85 -11.23,-9.49 -24.57,-17.34 -36.67,-25.76l-5.92 -4.14 -3.28 -6.43c-3.27,-6.41 -6.67,-12.96 -13.45,-16.19 -15.55,-7.41 -29.88,-20.34 -39.07,-34.9 -4.13,-6.54 -8.49,-11.6 -15.7,-14.7l-14.26 -6.13 -2.73 -15.29c-0.44,-2.48 -3.5,-6.04 -7.02,-9.52 -3.3,0.54 -6.58,1.07 -9.87,1.61l-11.39 1.87 -9.53 -6.49c-1.33,-0.92 -2.66,-1.83 -4,-2.73 -3.58,3.43 -7.08,6.92 -10.1,10.6 -10.47,12.78 -21.12,23.37 -35.86,31.29 -2.14,1.15 -5.44,4.2 -7.43,5.74 -5.96,4.67 -12.01,8.42 -18.99,10.89 -11.04,16.65 -24.63,25.95 -39.91,38.46 -4.3,3.53 -8.38,7.33 -12.3,11.28 -9.1,9.16 -17.35,18.88 -27.01,27.54 -5.99,5.37 -11.21,12.28 -16.21,18.55 -12.38,15.52 -23.49,30.91 -39.49,43.14 -9.28,7.09 -17.06,16.33 -24.59,25.19 -1.55,1.82 -3.3,5.43 -4.98,9.29 0.04,0.1 0.08,0.21 0.12,0.31 0.52,1.52 1.04,3.05 1.55,4.56 5.61,5.42 11.5,11.31 17.4,15.22 19.63,13.01 34.64,30.58 46.72,50.6 6.02,10.01 14.25,17.33 24.47,22.88 13.98,7.59 22.38,17.07 33.79,27.39 12.52,11.31 21.09,25.66 23.49,42.55 0.89,6.21 2.17,12.37 3.45,18.52 6.98,7.53 13.73,14.29 19.22,23.9 2.3,4.04 4.92,6.78 8.57,9.62 10.5,8.15 20.77,16.17 29.66,26.15 12.67,14.21 23.54,29.79 35.98,44.14 0.8,0.92 1.6,1.83 2.42,2.73zm181.5 -1096.05c-19.95,-8.11 -35.5,-24.36 -46.93,-42.39 -9.57,-15.1 -22.11,-27.75 -35.51,-39.46 -6.08,-5.32 -11.36,-11.68 -17.41,-16.8 -19.59,-16.6 -37.59,-39.3 -59.01,-52.9 -4.9,-3.11 -9.2,-7.14 -12.37,-12.04 -2.69,-4.17 -9.37,-8.46 -15.08,-11.91 -1.76,0.09 -3.58,0.43 -5.38,0.92 -5.73,11.13 -13.77,20.4 -23.01,29.83 -14.78,15.06 -29.08,30.83 -41.01,48.27 -4.72,6.91 -10.96,12.81 -17.8,17.59 -10.38,7.26 -21.09,13.99 -31.71,20.87 -2.25,1.46 -4.42,2.5 -6.63,3.62 -6.97,9.32 -15.58,16.1 -25.41,21.48 -2.03,8.03 -4.14,15.87 -7.98,23.82 -5.84,12.11 -13.72,21.37 -21.16,32.26l-3.98 5.82 -6.21 3.33c-3.14,1.69 -6.28,3.37 -9.43,5.04 -6.23,11.93 -12.8,22.7 -22.5,32.25 1.66,6.5 4,13.16 7.78,17.59 8.66,10.1 17.44,20.13 26.77,29.62 11.82,12.03 23.56,24.62 36.69,35.23 9.92,8.02 16.35,17.19 23.53,27.49 2.84,4.07 6.96,10.2 11.2,13l5.32 3.54 3.33 5.45c12.77,20.89 33.45,35.65 53.75,48.54 17.74,11.28 33.42,24.01 46.08,40.94 0.1,0.12 0.2,0.26 0.31,0.41 10.04,-2.67 20.09,-5.31 30.02,-8.33 2.18,-0.66 3.86,-1.65 5.38,-3.36 7.21,-8.04 14.51,-15.58 23.61,-21.56 13.08,-8.59 26.11,-18.36 34.94,-31.51 2.96,-4.41 6.21,-7.62 9.85,-11.37 14.23,-14.65 27.7,-29.88 42.94,-43.55 6.37,-5.71 11.93,-13.2 17.33,-19.82 7.49,-9.14 15.11,-17.5 24.52,-24.46 0.36,-0.72 0.71,-1.46 1.07,-2.14 8.65,-16.54 20.75,-30.27 34.82,-42.39 2.23,-1.91 4.37,-4.02 5.76,-6.63 3.69,-6.95 7.25,-13.48 12.34,-19.59 1.71,-2.06 2.75,-4.32 3.38,-6.71 -8.79,-9.59 -17.59,-19.48 -27.56,-27.41 -8.73,-6.94 -16.59,-14.88 -24.63,-22.59zm-174.75 -1507.49c-3.01,2.73 -6.09,5.34 -9.81,7.72 -6.36,4.09 -12.05,5.69 -18.46,8.84 -0.32,0.15 -0.65,0.31 -0.99,0.46 -7.96,9.12 -17.07,15.29 -27.02,22.54 -4,2.91 -10,7.24 -12.14,11.93 -3.68,8.04 -8.47,11.79 -15.24,16.26 -5.41,5.01 -10.74,10.12 -15.99,15.29 -4.97,4.91 -8.56,9.74 -14.27,14.27 -1.47,1.18 -4.31,3.42 -5.23,5.19 -3.79,7.35 -7.72,10.37 -13.1,15.87 -2.31,2.36 -5.74,4.99 -7.69,7.29 -13.87,18.79 -27.8,37.7 -41.21,56.95 -10.32,14.79 -23.09,29.9 -27.93,47.61 0.01,0.07 0.03,0.13 0.05,0.2 7.21,10.69 15.16,20.91 22.72,31.34 5.84,8.09 14.68,15.17 22.22,21.58 9.52,8.09 18.38,16.01 25.97,25.6 5.8,3.05 10.9,7.24 15.44,12.37 3.19,3.59 5.79,7.74 8.91,11.18 7.92,8.76 16.83,20.45 26.35,27.3 15.53,11.19 27.87,25.43 42.88,36.64 11.4,8.51 23.98,15.47 35.9,23.41 5.62,-4.24 11.38,-8.17 18.62,-11.31 3.53,-1.53 5.78,-3.21 8.18,-6.18 10.41,-12.89 23.18,-22.29 39.47,-26.29 4.29,-1.05 8.32,-5.31 11.05,-8.48 2.16,-2.52 7.54,-7.72 9.02,-10.39 6.99,-12.68 16.77,-22.57 29.22,-29.94 4.01,-2.38 6.97,-7.09 9.2,-11.01 5.22,-9.2 11.65,-17.13 18.13,-25.4 8.18,-10.44 16.74,-20.6 25.13,-30.86l6.56 -8.03 10.17 -2.01c1.09,-0.22 2.84,-3.78 3.17,-4.58 3.82,-9.29 8,-11.99 14,-18.41 0.13,-0.74 0.15,-1.81 0.15,-2.41 0.03,-6.2 -2.9,-9.63 -7.65,-13.38l-10.55 -8.32 -0.41 -13.43c-0.11,-3.67 -10.36,-20.68 -12.29,-25.13 -5.59,-12.89 -17.79,-22.84 -28.38,-31.69 -24.42,-20.44 -47.81,-39.75 -65.69,-66.35 -1.09,-1.35 -3.18,-3.11 -4.55,-4.44 -8.03,-7.78 -14.29,-10.59 -20.57,-21.44 -3.7,-6.38 -9.8,-12.01 -15.26,-16.88 -8.49,-7.6 -16.87,-14.66 -24.28,-23.28 -1.05,-0.16 -2.36,-0.21 -3.8,-0.21zm711.22 -62.51c-3.38,31.44 -23.89,51.01 -51.38,65.02 -2.5,1.27 -10.37,4.89 -12.48,6.89l-7.6 12.86 -15.3 0.91c-14.45,0.86 -28.91,1.73 -43.37,2.58l-14 0.83 -9.29 -10.51c-10.14,-11.48 -20.65,-22.59 -30.23,-34.55 -11.13,-13.88 -15.78,-31.57 -10.83,-48.95 0.55,-1.94 -2.17,-9.37 -2.78,-11.09 -15.78,-45.19 5.79,-89.35 49.31,-107.78 44.2,-18.72 88.07,-10.23 123.71,21.24 26.92,23.77 34.13,58.11 27.74,92.43 -0.75,4.02 -1.94,6.94 -3.5,10.13zm-1243.6 2379.25c-4.84,32.42 -26.34,51.66 -54.6,66.62l-6.55 3.46 -1.2 -0.02c-2.06,2.34 -4.09,4.86 -6.39,7.05l-7.55 7.18 -10.4 0.69c-14.24,0.94 -28.49,1.88 -42.74,2.82l-13.13 0.87 -9.26 -9.37c-3.88,-3.92 -7.85,-7.65 -11.52,-11.78 -3.33,-3.75 -7.06,-9.5 -10.55,-12.7 -17.41,-15.99 -25.87,-36.4 -20.75,-60.04 0.61,-2.83 -1.11,-7.62 -2.05,-10.14 -15.42,-41.79 1.84,-86.02 41.79,-105.88 45.22,-22.47 92.99,-16.02 130.19,17.86 27.24,24.82 35.57,59.93 27.61,95.31 -0.69,3.08 -1.66,5.54 -2.91,8.06zm-28.87 -2382.45c-3.97,34.91 -26.7,57.61 -58.36,71.09 -3.86,1.64 -6.56,4.53 -9.28,7.65l-7.78 8.94 -11.82 0.87c-17.68,1.32 -34.58,3.91 -52.29,0.52l-9.52 -1.81 -6.49 -7.21c-8.65,-9.6 -17.5,-19.02 -25.89,-28.85 -13.03,-15.26 -19.15,-33.77 -13.62,-53.63 0.35,-1.26 -1.95,-7.82 -2.35,-8.96 -16.42,-46.64 4.75,-92.66 51.15,-110 24.12,-9.01 48.53,-11.77 73.54,-4.44 56.85,16.64 90.13,68.32 72.71,125.83zm1239.59 2452.79c-1.4,1.18 -2.79,2.44 -4.24,3.55 -11.7,8.91 -25.99,12.76 -40.46,9.17 -16.67,-4.14 -33.24,-8.67 -49.85,-13.04l-11.98 -3.16 -5.95 -10.86c-7.25,-13.22 -14.73,-26.33 -21.6,-39.76 -3.89,-7.58 -5.43,-15.98 -5.6,-24.43 -0.24,-11.92 -0.1,-23.84 0.26,-35.76 0.57,-18.68 9.23,-34.62 25.5,-43.91 11.16,-18.38 25.53,-23.09 43.64,-33.83l7.76 -4.61 9.01 0.65c38.08,2.73 63.43,20.76 90.96,44.9l4.31 3.79 2.54 5.15c7.25,14.73 7.97,30.55 7.09,46.63 -0.79,14.33 -1.57,28.31 -5.31,42.28 -6.93,25.86 -19.15,46.37 -46.08,53.26z"/>
 </g>
</svg>
