<?xml version="1.0" standalone="no"?>
<!DOCTYPE svg PUBLIC "-//W3C//DTD SVG 20010904//EN"
 "http://www.w3.org/TR/2001/REC-SVG-20010904/DTD/svg10.dtd">
<svg version="1.0" xmlns="http://www.w3.org/2000/svg"
 width="872.000000pt" height="1280.000000pt" viewBox="0 0 872.000000 1280.000000"
 preserveAspectRatio="xMidYMid meet">
<metadata>
Created by potrace 1.15, written by Peter Selinger 2001-2017
</metadata>
<g transform="translate(0.000000,1280.000000) scale(0.100000,-0.100000)"
fill="#9e9e9e" stroke="none">
<path d="M3985 12793 c-208 -18 -446 -117 -603 -251 -179 -153 -293 -450 -236
-619 9 -26 23 -56 31 -65 19 -21 14 -24 -72 -33 -267 -27 -651 -167 -910 -330
-193 -122 -405 -297 -493 -407 -81 -102 -303 -438 -333 -503 -37 -81 -94 -270
-116 -380 -26 -130 -26 -485 0 -605 22 -102 93 -287 148 -388 222 -401 616
-645 976 -604 232 27 364 91 483 235 101 122 188 352 164 436 -6 22 -9 16 -20
-42 -18 -90 -51 -170 -107 -254 -59 -89 -175 -198 -242 -229 -127 -58 -363
-82 -489 -49 -276 72 -536 297 -685 593 -76 150 -131 383 -131 551 0 174 41
398 104 559 67 175 141 298 290 484 238 295 603 533 985 642 173 50 246 62
265 46 20 -15 21 -30 3 -30 -16 0 -47 -32 -47 -48 0 -7 16 -12 39 -12 l40 0
-15 -35 c-24 -58 4 -75 46 -30 21 22 25 23 40 10 24 -22 53 2 53 44 0 22 5 31
16 31 23 0 61 28 61 46 0 8 -9 18 -21 22 l-20 8 21 19 c20 18 36 20 159 18
121 -1 264 -14 329 -30 20 -5 21 -7 6 -17 -9 -7 -14 -21 -12 -32 3 -16 12 -19
51 -19 26 0 47 -1 47 -2 0 -1 -9 -18 -21 -37 -22 -37 -22 -77 -1 -84 7 -2 28
12 48 32 20 20 37 36 39 36 1 0 5 -9 8 -20 6 -23 39 -27 56 -6 7 8 15 30 18
50 3 20 9 36 14 36 39 0 316 -122 419 -185 57 -35 60 -38 60 -77 0 -53 -25
-148 -60 -224 -145 -321 -524 -542 -934 -545 -73 0 -86 -2 -66 -11 39 -16 318
-2 423 22 228 51 449 181 563 333 78 104 134 238 152 363 l7 47 120 -91 c66
-50 154 -122 195 -160 l75 -70 -24 -19 c-33 -27 -23 -70 19 -85 l30 -10 -31
-29 c-39 -36 -35 -63 8 -67 18 -2 41 2 53 8 18 9 20 8 20 -15 0 -67 56 -90 85
-35 9 17 19 28 24 26 22 -14 221 -330 221 -352 0 -4 -6 1 -14 11 -19 26 -50
13 -44 -19 4 -19 0 -26 -17 -30 -30 -8 -41 -37 -20 -52 10 -8 12 -14 6 -19
-15 -8 -14 -35 1 -35 6 0 20 7 30 17 14 13 18 13 18 2 0 -8 4 -20 9 -28 8 -12
12 -12 25 -2 9 8 16 21 16 31 0 11 8 16 23 16 27 -1 62 -75 126 -264 54 -159
83 -281 126 -524 l35 -197 -29 -29 c-16 -16 -33 -45 -36 -65 -6 -33 -9 -35
-27 -26 -23 13 -66 4 -90 -18 -22 -20 -23 -66 -3 -83 13 -11 11 -16 -20 -37
-24 -16 -35 -31 -35 -48 0 -22 4 -25 36 -25 19 0 44 5 56 11 28 15 32 6 13
-31 -9 -17 -15 -43 -13 -58 6 -52 61 -34 94 30 14 28 14 28 34 8 24 -24 30
-24 56 -6 14 11 19 26 18 61 -1 70 9 39 54 -155 51 -218 59 -262 77 -436 43
-408 -11 -847 -152 -1224 -65 -174 -217 -457 -341 -634 l-55 -79 -181 6 c-129
4 -209 12 -280 27 -55 12 -104 24 -109 27 -5 3 1 12 13 20 33 23 23 57 -18 61
-27 3 -32 7 -26 20 12 28 10 85 -4 89 -7 3 -25 -9 -41 -26 l-29 -31 -5 30 c-4
16 -15 34 -26 39 -16 9 -21 6 -35 -23 -9 -19 -16 -44 -16 -55 0 -19 -3 -20
-21 -11 -11 6 -33 9 -48 5 -31 -7 -68 12 -160 78 -276 202 -442 455 -496 756
-18 101 -19 213 -3 258 10 28 10 36 -1 43 -12 7 -11 23 3 101 70 384 313 688
640 800 208 72 398 58 589 -43 88 -47 190 -146 227 -222 36 -72 52 -176 28
-176 -8 0 -35 -13 -60 -29 l-46 -29 5 37 c15 113 -84 102 -118 -14 -11 -37
-16 -42 -30 -34 -38 20 -99 5 -126 -30 -19 -24 -15 -62 7 -86 l21 -22 -30 -12
c-39 -17 -74 -55 -69 -78 3 -15 13 -18 58 -18 30 1 63 5 72 9 16 7 16 4 -2
-35 -24 -54 -26 -107 -4 -116 25 -9 61 13 91 58 27 41 28 41 41 20 14 -21 47
-27 68 -13 17 11 34 48 34 76 0 24 6 30 92 96 11 9 24 34 29 55 4 22 14 64 20
94 18 80 -1 203 -43 284 -122 233 -459 379 -754 326 -174 -31 -347 -112 -453
-213 -101 -96 -212 -230 -254 -309 -50 -92 -111 -249 -128 -329 -7 -29 -22
-65 -34 -80 l-23 -27 -5 28 c-7 31 -31 61 -51 61 -25 0 -49 -40 -54 -90 -5
-50 -5 -50 -41 -50 -38 0 -88 -33 -92 -60 -4 -35 2 -51 24 -61 l23 -10 -33
-36 c-19 -19 -33 -43 -31 -52 5 -27 55 -25 104 4 45 26 46 27 39 5 -9 -28 -9
-85 0 -99 18 -31 95 24 95 68 0 25 10 32 30 21 12 -7 19 -28 24 -77 16 -160
99 -386 191 -521 24 -35 24 -35 5 -59 -10 -13 -21 -37 -25 -53 -6 -26 -9 -28
-31 -19 -34 12 -70 2 -94 -28 -25 -32 -25 -48 -1 -72 18 -18 17 -19 -14 -35
-41 -22 -60 -59 -39 -77 14 -11 59 -8 96 6 17 7 17 5 3 -29 -19 -45 -19 -92
-1 -99 19 -8 62 27 82 65 16 30 16 30 30 9 34 -48 92 -2 81 64 -5 29 -3 35 12
35 10 0 35 11 55 25 l36 25 73 -61 c39 -33 116 -88 169 -121 69 -43 98 -67
103 -85 5 -23 10 -25 43 -19 36 5 37 5 37 -27 0 -39 25 -47 54 -18 l20 20 73
-25 c100 -34 284 -72 392 -80 l90 -7 -80 -76 c-44 -42 -114 -102 -154 -132
-63 -48 -76 -54 -86 -41 -8 11 -15 12 -32 3 -30 -16 -32 -14 -19 19 8 22 8 33
0 41 -9 9 -19 5 -40 -18 l-28 -30 -17 21 c-25 33 -53 10 -53 -43 0 -30 -4 -41
-15 -41 -27 0 -60 -30 -60 -56 0 -17 5 -24 20 -24 42 0 14 -33 -58 -70 -69
-34 -218 -89 -327 -121 -333 -98 -643 -115 -960 -53 -201 39 -320 89 -504 209
-262 172 -541 252 -844 244 -124 -4 -128 -3 -122 16 39 141 -11 272 -165 425
-96 96 -179 144 -316 182 -65 17 -107 21 -239 22 -143 0 -171 -2 -262 -27
-103 -27 -277 -91 -330 -122 -36 -21 -15 -15 112 29 288 99 581 86 820 -36 60
-32 101 -62 165 -127 106 -107 141 -170 148 -262 8 -110 6 -112 -94 -139 -451
-119 -775 -437 -886 -868 -34 -134 -40 -250 -19 -397 26 -184 93 -320 220
-445 84 -84 170 -134 291 -171 105 -33 275 -33 369 0 119 41 211 121 266 231
44 85 25 242 -37 312 l-29 33 28 -50 c25 -46 28 -59 28 -150 0 -97 -1 -102
-33 -152 -98 -153 -269 -223 -472 -195 -209 30 -381 152 -479 342 -228 438 7
1039 504 1288 160 80 293 112 500 119 248 9 345 -23 875 -288 487 -242 560
-266 850 -276 305 -10 559 40 904 178 l148 60 82 -21 c234 -61 495 -226 620
-392 l28 -37 -36 -73 c-55 -112 -64 -197 -28 -264 10 -19 7 -21 -71 -32 -242
-35 -511 -168 -704 -346 -82 -77 -224 -270 -274 -376 l-27 -55 -7 39 c-10 50
0 155 18 198 32 76 118 146 215 174 l47 14 -48 -5 c-63 -6 -159 -58 -202 -108
-65 -76 -91 -216 -61 -321 16 -55 16 -65 0 -160 -24 -143 -16 -302 21 -414 95
-286 316 -485 556 -499 198 -12 338 65 418 231 25 51 42 139 30 158 -6 8 -9 0
-9 -22 0 -79 -98 -225 -183 -274 -92 -52 -249 -64 -350 -26 -124 46 -249 157
-326 288 -74 125 -108 274 -97 422 10 142 8 140 81 71 148 -138 318 -192 533
-169 108 12 204 45 296 102 133 83 192 133 261 219 l67 84 81 5 c159 11 333
93 416 198 l41 52 0 -37 c0 -136 -88 -377 -200 -549 -28 -43 -49 -80 -47 -82
7 -8 145 192 190 276 88 163 137 341 137 496 l0 76 43 -33 c187 -146 321 -313
421 -524 69 -145 108 -277 146 -490 11 -66 38 -194 59 -285 64 -271 66 -290
66 -505 0 -153 -5 -221 -18 -290 -42 -205 -124 -403 -243 -582 l-55 -83 -94 0
c-363 0 -676 221 -760 535 -21 79 -21 250 0 330 50 192 184 350 352 416 45 18
79 23 153 23 86 1 101 -2 161 -30 117 -56 179 -128 194 -226 12 -79 -32 -162
-110 -210 -18 -11 -24 -18 -14 -18 30 0 106 68 129 115 27 56 25 148 -5 210
-65 134 -260 222 -431 195 -134 -22 -228 -73 -328 -181 -115 -124 -174 -271
-183 -454 -5 -92 -2 -125 16 -195 61 -246 232 -442 471 -540 76 -32 220 -70
261 -70 14 0 40 -3 57 -6 l30 -6 -66 -60 c-240 -214 -573 -332 -887 -315 -179
10 -310 49 -423 125 -164 112 -373 172 -539 155 l-51 -5 8 36 c16 71 -24 160
-103 233 -140 129 -347 149 -590 57 -82 -31 -84 -42 -2 -14 98 34 212 46 302
32 197 -31 362 -175 351 -306 l-3 -38 -88 -28 c-261 -84 -444 -289 -489 -548
-17 -99 1 -232 43 -314 63 -124 173 -207 305 -229 216 -37 390 127 315 296
-12 26 -24 46 -26 43 -3 -3 1 -18 10 -34 8 -16 15 -52 15 -80 0 -156 -198
-246 -385 -174 -79 31 -155 107 -198 197 -26 57 -32 83 -35 159 -8 179 47 316
183 450 130 130 272 185 470 186 124 0 200 -26 485 -167 128 -64 265 -125 304
-136 193 -54 451 -26 710 78 l90 36 76 -22 c100 -30 187 -80 265 -153 78 -72
148 -173 142 -205 -2 -12 1 -21 6 -20 20 4 46 -106 46 -193 2 -161 -51 -293
-159 -400 -172 -172 -413 -186 -553 -31 -62 70 -80 140 -57 223 12 42 67 93
115 107 17 5 22 10 13 10 -49 3 -120 -50 -144 -106 -8 -18 -14 -57 -14 -88 0
-103 71 -198 189 -254 49 -23 68 -26 162 -26 103 0 108 1 181 38 138 70 231
173 292 326 29 72 30 84 30 211 0 84 -5 146 -12 164 -16 37 -10 42 37 28 51
-16 114 -85 153 -168 70 -150 42 -369 -68 -542 -54 -84 -35 -71 24 16 80 119
113 207 127 337 22 199 -115 405 -271 405 -26 0 -33 8 -64 67 -62 121 -189
236 -336 305 l-65 30 67 44 c321 211 560 550 655 928 11 45 22 86 24 93 2 7
34 -2 92 -27 163 -70 243 -85 453 -85 161 1 196 3 270 24 95 25 226 83 294
130 24 17 49 31 55 31 6 0 20 -19 32 -42 46 -89 18 -258 -60 -371 -53 -78
-154 -162 -252 -211 -50 -25 -98 -46 -108 -47 -9 0 -11 -3 -5 -5 20 -8 182 57
246 98 182 118 280 304 249 474 -11 55 -46 124 -65 124 -4 0 29 40 76 88 172
181 258 392 258 631 0 99 -45 271 -91 347 -39 64 -147 170 -212 208 -94 55
-255 79 -369 55 -160 -34 -287 -163 -288 -293 0 -69 18 -121 58 -164 22 -24
26 -27 13 -8 -25 34 -51 117 -51 161 0 43 54 148 92 180 86 73 216 106 342 88
289 -41 486 -340 437 -663 -28 -185 -105 -336 -240 -471 -173 -173 -388 -258
-653 -259 -173 0 -294 28 -453 107 l-90 44 0 217 c0 206 -10 313 -36 399 -6
17 -11 42 -13 55 -1 13 -5 30 -9 38 -17 43 -48 208 -43 232 16 81 141 215 252
271 82 41 122 53 247 72 l92 14 -106 -4 c-59 -3 -132 -12 -163 -20 -121 -32
-249 -113 -308 -194 l-33 -46 -8 60 c-20 145 12 409 72 604 59 188 200 426
342 574 l84 88 -47 46 -47 46 -54 -50 c-102 -93 -206 -215 -279 -329 -76 -118
-170 -348 -204 -495 l-16 -71 -35 63 c-139 251 -342 462 -576 601 -59 36 -71
48 -102 107 -69 131 -186 246 -284 279 -19 7 -62 12 -95 12 l-62 0 -47 92
c-53 105 -54 101 33 152 79 47 176 76 278 85 l87 8 -93 2 c-118 1 -208 -19
-308 -70 l-78 -40 -25 33 c-135 177 -377 351 -585 422 -15 5 4 21 90 77 433
282 795 713 998 1191 74 174 131 356 180 571 l6 27 68 -34 c388 -194 900 -249
1327 -141 174 44 378 136 533 240 l66 45 21 -20 c62 -58 93 -193 76 -330 -24
-189 -110 -358 -261 -510 -135 -136 -293 -234 -478 -295 -46 -15 -81 -30 -78
-32 7 -8 184 46 274 83 164 68 294 155 404 273 162 171 227 329 228 547 0 134
-24 214 -84 281 l-43 48 61 54 c239 210 412 502 484 816 55 237 54 423 -3 638
-49 187 -67 232 -135 336 -94 144 -246 282 -386 352 -64 32 -222 79 -265 79
-14 0 -36 9 -49 20 -13 11 -29 20 -37 20 -9 0 -7 6 7 20 18 18 28 60 15 60 -4
0 -19 -7 -35 -15 -29 -15 -30 -15 -30 9 0 38 -23 50 -47 23 -12 -12 -23 -31
-25 -42 -3 -16 -10 -19 -39 -17 -42 4 -64 -16 -57 -52 4 -21 0 -25 -50 -36
-130 -29 -270 -105 -340 -185 -88 -101 -141 -221 -142 -321 0 -110 68 -274
133 -319 40 -28 39 -15 -2 31 -57 65 -86 154 -86 269 0 86 2 93 40 164 52 98
140 187 231 234 74 38 175 70 198 61 7 -3 25 0 40 6 25 9 27 8 21 -7 -31 -72
-7 -103 38 -52 18 20 32 28 35 21 8 -24 43 -13 55 18 10 26 17 30 47 30 50 0
188 -35 255 -64 182 -81 359 -262 450 -460 54 -118 95 -317 95 -461 -1 -416
-220 -844 -565 -1104 -170 -128 -307 -195 -527 -257 -191 -53 -306 -67 -503
-61 -301 10 -544 77 -810 222 l-88 47 7 57 c3 31 9 129 13 219 4 117 10 165
20 173 18 15 17 49 -3 77 -8 12 -11 22 -6 22 17 0 72 63 72 82 0 25 -25 33
-56 20 -29 -14 -29 -13 -8 32 20 41 13 70 -15 61 -17 -5 -21 0 -26 42 -4 26
-21 116 -37 198 -17 83 -32 162 -33 177 -1 15 -7 33 -12 40 -10 12 -52 186
-83 341 -11 55 -10 60 19 124 59 125 182 268 302 350 167 115 422 190 655 194
l79 2 -65 8 c-79 10 -234 3 -354 -17 -258 -43 -510 -194 -634 -381 l-37 -56
-8 74 c-14 128 -1 518 23 659 47 282 125 532 231 740 73 144 191 344 256 432
72 99 214 258 288 322 l64 57 -81 77 c-44 42 -84 79 -89 80 -5 2 -87 -74 -182
-170 -173 -173 -290 -317 -394 -482 -53 -86 -89 -117 -54 -47 49 95 8 123 -66
46 -34 -36 -43 -41 -43 -26 0 31 -21 70 -41 76 -44 14 -85 -49 -77 -118 3 -31
2 -32 -33 -32 -40 0 -81 -23 -105 -61 -21 -32 -6 -71 31 -80 l25 -6 -35 -39
c-37 -41 -45 -76 -20 -85 21 -8 81 14 114 42 l29 24 -5 -58 c-4 -47 -2 -62 12
-76 10 -9 24 -15 32 -11 11 4 13 1 8 -12 -27 -65 -91 -268 -117 -375 l-32
-127 -59 107 c-87 157 -205 329 -317 462 -26 30 -49 60 -51 65 -5 13 -217 216
-289 277 -41 35 -58 57 -66 87 l-11 41 31 0 c37 0 56 15 56 45 0 26 -18 45
-42 45 -16 0 -15 5 9 48 42 76 9 108 -53 50 l-21 -19 1 40 c2 78 -39 76 -74
-2 -11 -24 -20 -34 -25 -27 -15 24 -56 31 -81 15 -30 -19 -31 -54 -3 -89 33
-42 6 -33 -152 48 -148 76 -295 135 -454 182 -199 59 -536 102 -701 91 l-81
-6 -21 45 c-45 92 -36 209 26 347 103 227 334 418 597 496 107 31 238 51 339
51 62 0 86 3 76 10 -14 9 -205 11 -295 3z m1290 -4712 c-6 -26 -11 -31 -37
-31 l-30 0 33 35 c18 19 35 33 37 30 2 -2 1 -17 -3 -34z m130 -3064 c28 -51
35 -71 26 -80 -16 -16 -14 -27 4 -21 15 6 36 -30 51 -89 l6 -28 -93 3 -93 3
-15 39 c-12 32 -13 48 -3 94 13 64 62 166 73 155 4 -5 24 -39 44 -76z m293
-106 c42 -21 118 -96 158 -154 28 -42 27 -55 -5 -38 -11 7 -71 24 -132 40
l-112 28 -18 69 c-10 38 -18 74 -18 80 -1 16 77 0 127 -25z m-199 -248 l24 -6
-6 -121 c-10 -195 -57 -350 -152 -498 -180 -277 -490 -429 -764 -374 -94 19
-133 35 -211 87 -56 37 -150 130 -150 148 0 25 52 144 89 206 88 144 201 264
334 354 163 109 321 168 547 204 43 7 264 7 289 0z m286 -74 c55 -21 119 -50
142 -64 37 -22 42 -30 48 -73 7 -57 -10 -110 -61 -187 -82 -125 -241 -216
-417 -241 l-49 -7 41 76 c82 149 131 328 131 479 l0 70 33 -7 c17 -4 77 -25
132 -46z"/>
<path d="M2372 11148 c-24 -27 -42 -70 -42 -103 0 -22 -3 -23 -35 -18 -43 7
-89 -11 -110 -43 -22 -33 -19 -60 10 -82 l25 -20 -35 -26 c-93 -72 -47 -126
64 -76 40 18 43 19 36 2 -32 -79 -28 -132 11 -132 30 0 60 30 84 82 17 37 19
39 29 21 17 -32 50 -35 77 -8 25 25 30 58 15 98 -9 22 -7 26 14 31 38 10 95
65 95 92 0 26 -33 41 -69 29 -19 -6 -18 -2 10 43 17 28 29 58 27 69 -6 26 -45
19 -90 -18 l-38 -30 0 40 c0 39 -19 71 -44 71 -7 0 -22 -10 -34 -22z"/>
<path d="M1720 10110 c-12 -12 -28 -37 -36 -55 l-14 -34 -29 30 c-16 16 -37
29 -46 29 -53 0 -80 -63 -51 -121 20 -40 21 -36 -13 -44 -29 -6 -101 -75 -101
-96 0 -31 22 -49 61 -49 l40 0 -21 -28 c-11 -15 -22 -41 -23 -57 -2 -26 2 -30
26 -33 23 -3 38 6 78 46 l49 49 6 -26 c23 -112 119 -104 119 10 l0 49 36 0
c37 0 63 15 71 40 8 22 -19 68 -43 75 -21 7 -21 7 4 33 32 36 47 65 47 96 0
32 -30 35 -76 7 l-31 -19 1 56 c1 65 -17 79 -54 42z"/>
<path d="M5331 9894 c-12 -15 -21 -32 -21 -38 0 -6 -12 4 -26 22 -14 17 -32
32 -39 32 -25 0 -48 -47 -42 -84 5 -31 3 -34 -23 -40 -41 -8 -72 -41 -68 -74
2 -19 10 -28 26 -30 27 -4 27 -7 2 -35 -12 -12 -19 -31 -18 -42 4 -27 41 -22
85 11 l33 25 0 -33 c0 -38 15 -58 42 -58 19 0 48 47 48 77 0 16 6 18 34 15 27
-3 37 1 45 16 12 23 -3 72 -22 72 -6 0 6 17 26 37 47 46 49 76 7 75 -3 0 -15
-3 -28 -7 -20 -6 -21 -4 -12 20 25 65 -8 91 -49 39z"/>
<path d="M3080 9820 c0 -5 5 -10 10 -10 6 0 10 5 10 10 0 6 -4 10 -10 10 -5 0
-10 -4 -10 -10z"/>
<path d="M2415 9760 c-3 -5 -1 -10 4 -10 6 0 11 5 11 10 0 6 -2 10 -4 10 -3 0
-8 -4 -11 -10z"/>
<path d="M7602 9568 c-7 -7 -12 -19 -12 -29 0 -12 -6 -15 -23 -12 -30 6 -55
-21 -38 -40 8 -11 6 -18 -9 -32 -24 -22 -16 -39 16 -31 22 6 24 4 18 -18 -8
-34 11 -41 34 -11 12 15 22 21 24 13 7 -21 38 0 38 26 0 16 7 27 20 31 20 6
29 45 10 45 -7 0 -7 7 0 21 14 26 7 34 -18 20 -16 -9 -21 -7 -25 9 -6 23 -18
25 -35 8z"/>
<path d="M4286 9501 c-4 -7 -5 -15 -2 -18 9 -9 19 4 14 18 -4 11 -6 11 -12 0z"/>
<path d="M4688 9273 c-9 -10 -19 -28 -23 -41 -6 -22 -8 -22 -24 -8 -52 47
-107 -13 -65 -72 13 -18 13 -22 1 -22 -21 0 -64 -37 -70 -60 -7 -27 19 -53 46
-44 17 5 19 3 12 -12 -4 -11 -10 -29 -12 -41 -9 -38 40 -30 74 11 l27 35 18
-30 c32 -52 84 -29 76 35 -3 29 -1 34 19 34 27 0 53 19 53 38 0 7 -11 21 -23
31 l-24 17 19 33 c34 57 4 89 -44 46 -15 -14 -17 -12 -20 23 -3 43 -18 52 -40
27z"/>
<path d="M3460 9249 c0 -5 5 -7 10 -4 6 3 10 8 10 11 0 2 -4 4 -10 4 -5 0 -10
-5 -10 -11z"/>
<path d="M887 9213 c-4 -3 -7 -11 -7 -17 0 -6 5 -5 12 2 6 6 9 14 7 17 -3 3
-9 2 -12 -2z"/>
<path d="M2333 9138 c-6 -7 -14 -23 -17 -36 -7 -20 -9 -20 -22 -7 -41 41 -92
-2 -60 -50 16 -24 16 -25 -8 -25 -33 0 -81 -42 -73 -63 6 -16 29 -22 70 -19
16 2 16 0 1 -22 -20 -32 -15 -80 9 -84 11 -2 31 8 47 23 l27 26 7 -25 c14 -56
71 -20 71 44 0 37 0 37 36 33 28 -4 42 0 58 16 28 28 27 38 -10 60 -24 15 -28
21 -16 27 18 11 38 49 30 58 -10 10 -61 7 -68 -4 -12 -19 -24 -10 -27 23 -2
24 -8 33 -24 35 -11 2 -25 -3 -31 -10z"/>
<path d="M7428 9091 c-11 -18 -13 -18 -23 -4 -18 24 -48 9 -43 -21 4 -19 0
-26 -17 -30 -30 -8 -41 -37 -20 -52 10 -8 12 -14 6 -19 -16 -9 -13 -35 3 -35
7 0 20 7 27 16 12 15 14 14 19 -7 7 -30 32 -31 45 -1 5 12 18 22 29 22 15 0
17 5 13 29 -4 19 -1 33 8 41 23 19 19 43 -5 35 -18 -6 -20 -3 -14 19 7 31 -10
35 -28 7z"/>
<path d="M6805 8858 c-8 -13 -18 -39 -21 -59 -6 -35 -7 -36 -33 -26 -36 13
-82 -9 -96 -47 -8 -24 -6 -31 13 -46 l22 -18 -28 -18 c-28 -18 -51 -43 -52
-56 0 -4 8 -12 19 -17 17 -10 46 -5 93 14 17 7 17 5 3 -29 -19 -45 -19 -70 0
-86 12 -10 21 -6 50 23 19 19 35 43 35 53 0 16 2 15 20 -4 12 -12 27 -22 35
-22 25 0 48 47 42 84 -5 30 -2 34 29 45 45 16 72 55 53 77 -7 9 -22 14 -36 11
-28 -5 -28 -6 2 39 14 20 25 43 25 50 0 22 -40 16 -75 -10 l-32 -25 4 24 c11
55 -41 86 -72 43z"/>
<path d="M3655 8570 c-14 -28 -17 -29 -31 -15 -21 21 -41 19 -54 -5 -8 -14 -8
-26 0 -41 7 -11 10 -22 8 -23 -2 -1 -15 -10 -30 -19 -39 -24 -39 -67 -1 -67
21 0 24 -3 15 -12 -14 -14 -16 -44 -3 -53 6 -3 25 8 44 25 l35 30 6 -25 c4
-16 13 -25 26 -25 23 0 43 34 35 59 -4 13 0 17 16 17 33 -1 47 28 25 53 -17
18 -17 21 -2 43 9 12 16 28 16 35 0 16 -32 17 -48 1 -9 -9 -12 -5 -12 20 0 42
-24 43 -45 2z"/>
<path d="M6 8231 c-4 -7 -5 -15 -2 -18 9 -9 19 4 14 18 -4 11 -6 11 -12 0z"/>
<path d="M4194 7532 c-17 -11 -34 -48 -34 -73 0 -21 -1 -21 -18 -6 -22 20 -63
22 -80 5 -18 -18 -14 -53 7 -72 19 -18 19 -19 -20 -55 -21 -21 -39 -47 -39
-59 0 -24 30 -37 62 -27 18 6 20 4 13 -11 -28 -67 14 -86 64 -29 17 20 31 41
31 48 0 7 9 -3 20 -20 37 -62 97 -36 87 37 -5 36 -3 39 21 42 52 6 55 69 3 76
-12 2 -21 7 -19 10 32 59 39 86 26 99 -12 12 -20 10 -51 -11 -20 -14 -34 -19
-31 -12 6 15 -12 66 -23 66 -5 0 -13 -4 -19 -8z"/>
<path d="M4838 7495 c-13 -13 -30 -42 -38 -64 -11 -34 -16 -39 -31 -31 -31 17
-74 11 -96 -12 -31 -35 -34 -54 -12 -82 20 -25 20 -26 2 -32 -26 -10 -73 -55
-73 -71 0 -27 45 -37 93 -21 l44 14 -17 -30 c-23 -40 -32 -87 -21 -105 15 -23
59 -4 90 40 27 37 30 39 40 21 17 -32 40 -34 68 -6 20 20 24 33 21 64 -3 36
-2 39 32 49 76 23 106 93 42 99 -37 4 -39 8 -12 30 23 20 51 72 44 84 -9 14
-46 9 -80 -12 l-33 -21 6 34 c6 37 -10 77 -31 77 -7 0 -24 -11 -38 -25z"/>
<path d="M5360 6930 c0 -5 5 -10 10 -10 6 0 10 5 10 10 0 6 -4 10 -10 10 -5 0
-10 -4 -10 -10z"/>
<path d="M2187 6755 c-9 -9 -17 -21 -17 -26 0 -5 -9 -9 -19 -9 -28 0 -36 -19
-18 -37 14 -15 13 -18 -9 -35 -32 -26 -30 -41 5 -36 23 3 27 1 23 -14 -6 -24
24 -24 37 0 7 14 18 18 42 14 30 -4 32 -3 27 22 -4 20 -1 26 13 26 25 0 36 22
17 34 -13 8 -14 14 -5 33 14 30 3 39 -25 21 -20 -14 -24 -13 -38 5 -15 18 -17
18 -33 2z"/>
<path d="M2586 6718 c-9 -12 -16 -38 -16 -57 0 -27 -3 -32 -12 -23 -17 17 -74
15 -92 -4 -24 -23 -20 -43 15 -75 17 -16 27 -29 21 -29 -21 0 -62 -54 -62 -82
0 -34 22 -46 60 -31 28 10 28 10 23 -28 -10 -74 46 -59 89 24 l19 39 26 -26
c29 -30 55 -33 77 -10 20 20 20 53 0 82 -14 20 -14 22 3 22 27 0 63 28 63 50
0 21 -28 40 -60 40 -20 0 -20 1 -5 31 36 68 -4 103 -55 49 -28 -30 -30 -30
-30 -10 0 29 -18 60 -35 60 -8 0 -21 -10 -29 -22z"/>
<path d="M1878 6671 c-9 -15 -15 -17 -28 -8 -23 14 -50 2 -50 -21 0 -11 -11
-24 -26 -31 -21 -9 -24 -14 -14 -26 7 -8 19 -15 28 -15 13 0 12 -3 -3 -20 -10
-11 -15 -26 -11 -36 6 -15 8 -15 31 0 23 15 25 15 25 0 0 -22 23 -13 35 14 6
13 19 22 33 22 25 0 44 31 22 38 -9 3 -6 10 10 22 24 18 20 43 -6 33 -12 -4
-14 0 -8 21 5 20 2 26 -10 26 -9 0 -21 -9 -28 -19z"/>
<path d="M3197 6510 c-14 -16 -31 -45 -38 -64 l-13 -35 -24 20 c-30 23 -44 24
-83 4 -40 -21 -54 -58 -35 -96 14 -29 14 -30 -17 -43 -47 -20 -74 -53 -60 -74
8 -13 25 -17 70 -16 l60 1 -23 -35 c-27 -40 -41 -99 -26 -114 16 -16 54 2 94
46 25 27 38 35 38 25 0 -24 27 -42 53 -35 28 7 47 44 47 91 0 32 3 35 29 35
41 0 96 40 96 70 0 19 -7 27 -32 35 l-32 11 39 38 c25 24 40 48 40 62 0 30
-22 31 -75 4 -22 -11 -40 -20 -41 -20 -1 0 2 16 8 37 21 75 -28 110 -75 53z"/>
<path d="M3576 6245 c-3 -8 -1 -15 4 -15 13 0 22 18 11 24 -5 3 -11 -1 -15 -9z"/>
<path d="M2470 5669 c0 -5 5 -7 10 -4 6 3 10 8 10 11 0 2 -4 4 -10 4 -5 0 -10
-5 -10 -11z"/>
<path d="M2390 4890 c0 -5 5 -10 10 -10 6 0 10 5 10 10 0 6 -4 10 -10 10 -5 0
-10 -4 -10 -10z"/>
<path d="M810 4799 c0 -5 5 -7 10 -4 6 3 10 8 10 11 0 2 -4 4 -10 4 -5 0 -10
-5 -10 -11z"/>
<path d="M2755 4760 c-3 -5 -1 -10 4 -10 6 0 11 5 11 10 0 6 -2 10 -4 10 -3 0
-8 -4 -11 -10z"/>
<path d="M1665 4500 c-3 -5 -2 -10 4 -10 5 0 13 5 16 10 3 6 2 10 -4 10 -5 0
-13 -4 -16 -10z"/>
<path d="M3165 4270 c-3 -5 -1 -10 4 -10 6 0 11 5 11 10 0 6 -2 10 -4 10 -3 0
-8 -4 -11 -10z"/>
</g>
</svg>
